<svg id="ed9b66b7-a4fc-430e-9d8c-aa3e26927794" data-name="Layer 2" xmlns="http://www.w3.org/2000/svg" viewBox="0 0 629.65 252.999"><defs><style>.\31 a88b934-512d-4ad3-9f4e-9e61ae67764c{fill:#f9a320;}.\30 2275373-bbe9-428c-b091-2ff44c252747,.\30 decc81f-df6e-48e6-8f37-62e79d866081,.\36 cd81ba9-d123-4486-b038-c888e459fcb4,.fde2f5ef-886c-4bc9-b164-d93325768f0b{fill:none;stroke:#ec1281;stroke-miterlimit:10;}.fde2f5ef-886c-4bc9-b164-d93325768f0b{stroke-width:2.752px;}.\30 decc81f-df6e-48e6-8f37-62e79d866081{stroke-width:4px;}.\30 2275373-bbe9-428c-b091-2ff44c252747{stroke-width:2.223px;}.\36 cd81ba9-d123-4486-b038-c888e459fcb4{stroke-width:2px;}.a5117a81-ec0d-49fc-8f47-fde82aec06e2{fill:#ec1281;}</style></defs><title>Untitled-1</title><path class="1a88b934-512d-4ad3-9f4e-9e61ae67764c" d="M182.756,26.8a2.175,2.175,0,0,1,2.156-2.156H425.8a2.175,2.175,0,0,1,2.156,2.156V58.947A2.175,2.175,0,0,1,425.8,61.1H221.368a2.175,2.175,0,0,0-2.156,2.156V78.743a2.175,2.175,0,0,0,2.156,2.155H406.391a2.225,2.225,0,0,1,2.352,2.157V115a2.114,2.114,0,0,1-2.352,2.157H221.172a1.964,1.964,0,0,0-1.96,1.96V133.23a2.175,2.175,0,0,0,2.156,2.156H425.8a2.175,2.175,0,0,1,2.156,2.156v32.145a2.175,2.175,0,0,1-2.156,2.155H184.912a2.175,2.175,0,0,1-2.156-2.155Z" transform="translate(-5.746 -24.647)"/><circle class="fde2f5ef-886c-4bc9-b164-d93325768f0b" cx="8.52" cy="72.387" r="7.143"/><line class="0decc81f-df6e-48e6-8f37-62e79d866081" x1="186.068" y1="72.685" x2="15.302" y2="72.089"/><polyline class="0decc81f-df6e-48e6-8f37-62e79d866081" points="412.815 22.267 412.815 48.11 629.65 48.11"/><polyline class="0decc81f-df6e-48e6-8f37-62e79d866081" points="401.251 220.752 401.251 128.442 211.262 128.442 186.068 72.685 203.002 55.545 186.068 39.85 204.654 18.993 313.278 18.993 329.386 4.95 346.879 20.584 363.666 4.95 380.806 18.993 409.403 19.031"/><circle class="02275373-bbe9-428c-b091-2ff44c252747" cx="412.639" cy="19.031" r="3.236"/><line class="6cd81ba9-d123-4486-b038-c888e459fcb4" x1="384.276" y1="226.604" x2="418.228" y2="226.604"/><line class="6cd81ba9-d123-4486-b038-c888e459fcb4" x1="414.395" y1="233.791" x2="388.11" y2="233.791"/><line class="6cd81ba9-d123-4486-b038-c888e459fcb4" x1="391.703" y1="240.637" x2="410.801" y2="240.637"/><line class="6cd81ba9-d123-4486-b038-c888e459fcb4" x1="407.207" y1="246.934" x2="395.297" y2="246.934"/><line class="6cd81ba9-d123-4486-b038-c888e459fcb4" x1="398.309" y1="251.999" x2="404.196" y2="251.999"/><polygon class="a5117a81-ec0d-49fc-8f47-fde82aec06e2" points="184.293 84.277 196.288 78.881 194.801 92.011 184.293 84.277"/></svg>