<svg xmlns="http://www.w3.org/2000/svg" viewBox="0 0 281.426 365.446"><defs><style>.b525b31c-ed18-4151-9240-3ebfb1e323b8{fill:#d5c077;}</style></defs><title>6Artboard 7</title><g id="919c227c-fdb3-4d00-ad19-638b83462602" data-name="Layer 9"><g id="b103b628-2fdf-4c9a-874f-42d406ad968b" data-name="Artwork 4"><path class="b525b31c-ed18-4151-9240-3ebfb1e323b8" d="M212.827,169.574l2.927-1.379c-.851-1.574-1.762-2.363-3.319-2.367-.488,0-1.056-.572-1.444-1.009-.873-.981-1.681-2.023-2.462-3.08a2.25,2.25,0,0,1-.5-1.252,1.515,1.515,0,0,1,.6-1.108,1.166,1.166,0,0,1,1.1.246c.66.781,1.1,1.757,1.812,2.482.6.62,1.464,1.414,2.2,1.4,1.94-.033,3.045.709,3.483,2.849.568-.641,1.027-1.084,1.4-1.591.886-1.206,1.681-2.48,2.6-3.657,2.023-2.586,2.683-5.736,3.712-8.733a20.236,20.236,0,0,1,.593-2.17c1.009-2.112.085-3.54-1.549-4.75a6.818,6.818,0,0,0-.972-.494c-.435-.223-1.111-.361-1.237-.7a1.61,1.61,0,0,1,.272-1.487,2,2,0,0,1,1.672-.127,19.3,19.3,0,0,1,2.528,1.524c.234.145.48.269.793.443l1.143-1.81c-.86-.572-1.721-1.074-2.5-1.68a40.319,40.319,0,0,1-3.589-3.029,1.483,1.483,0,0,1,.069-1.471,1.554,1.554,0,0,1,1.487-.05c1.908,1.239,3.741,2.594,5.8,4.049.392-1.9.813-3.686,1.084-5.5.048-.321-.484-.792-.832-1.1-1.856-1.624-4.109-2.838-5.272-5.169-.125-.252-.373-.527-.338-.756a1.873,1.873,0,0,1,.5-1.128c.191-.152.791-.022,1.039.184a3.847,3.847,0,0,1,.908,1.235,5.682,5.682,0,0,0,3.728,2.8,6.576,6.576,0,0,1,.181-1.325c.3-.84.006-1.3-.761-1.669-2.884-1.388-2.834-2.787-2.209-5.17a30.187,30.187,0,0,0,.512-7.253c.006-.589-.722-1.16-1.011-1.786a9.285,9.285,0,0,1-.425-1.566c.6-.085,1.289-.4,1.788-.209a3.514,3.514,0,0,1,2.161,2.925,20.9,20.9,0,0,1-.452,9.212c-.274.945-.307.935.779,1.562.487-3,1.479-5.826,1.147-8.859-.286-2.609-.621-5.214-.863-7.827-.165-1.782-.385-1.988-2.211-1.6-2.043.432-2.043.432-3.029-.282.762-1.348,2.1-1.66,3.454-1.831.919-.117,1.365-.479,1.291-1.432-.036-.467.016-.94.006-1.41-.053-2.48-.916-3.263-3.412-3.011-.792.079-1.713.25-1.632-.829.036-.468.911-1.131,1.491-1.238a13.11,13.11,0,0,1,3,.133c-.105-.4-.092-.677-.224-.81-2.721-2.758-3.982-6.438-6.053-9.606a1.47,1.47,0,0,0-2.038-.738c-5.521,1.828-11.065,3.587-16.609,5.344a23.8,23.8,0,0,1-12.351.306c-3.726-.778-7.075-2.38-10.551-3.757a12.9,12.9,0,0,1-4.562-3.059,45.088,45.088,0,0,1-11.58-18.749,37.6,37.6,0,0,1-1.166-13.693,58.889,58.889,0,0,1,1.095-8.934c.952-4.206,2.288-8.338,5.374-11.588,2.557-2.693,5.163-5.34,7.748-8,.131-.135.261-.333.42-.366.6-.122,1.306-.4,1.783-.2.3.132.476,1.082.351,1.574-.486,1.906-1.261,3.746-1.662,5.666-.959,4.587-1.977,9.179-2.583,13.819-.744,5.7,1.209,10.829,4.168,15.607a49.679,49.679,0,0,0,3.458,5.084,3.928,3.928,0,0,0,2.284,1c2.155.369,4.331.658,6.509.842a15.5,15.5,0,0,0,4.574-.023c2.447-.543,4.376-.3,6.3,1.567,1.246,1.213,3.14,1.762,4.749,2.6,1.319.686,2.626,1.4,3.978,2.015a2.833,2.833,0,0,0,1.81.357c4.344-1.516,8.871-2.911,12.164-6.245,2.414-2.443,4.239-5.481,6.24-8.314,3.372-4.774,4.65-10.311,5.532-15.951.111-.711-.46-1.529-.717-2.3-.181-.545-.365-1.089-.548-1.633a5.986,5.986,0,0,1,1.64-.406,2.247,2.247,0,0,1,2.324,1.831,40.749,40.749,0,0,0,1.319,4.156c1.854,4.971,1.543,9.969.179,14.959-.73,2.669-1.569,5.31-2.453,7.932-2.539,7.537-7.748,12.725-14.608,16.435-.283.153-.556.325-.992.582.435.76.84,1.472,1.25,2.18,1.523,2.628,2.586,5.5,4.666,7.842.749.843.9,2.359,1.013,3.6.38,4.2.579,8.416.934,12.618.125,1.479.625,2.929.725,4.408.122,1.795.02,3.607-.022,5.411a24.218,24.218,0,0,0-.152,3.627,28.8,28.8,0,0,1-1.089,11.55c-.835,3.008-1.595,6.036-2.41,9.049a2.214,2.214,0,0,1-.537,1.123c-1.825,1.477-1.9,3.68-2.448,5.686A38.739,38.739,0,0,1,221.85,164.1a51.554,51.554,0,0,1-3.858,5.009c-3.154,3.526-7.386,4.625-11.9,4.861-2.29.12-4.591.021-7.037.021-.092,2.361-.4,4.988-.251,7.59.263,4.679.316,9.448,1.325,13.987,1.711,7.7,6.7,13.258,12.787,18.166a44.344,44.344,0,0,0,16.795,8.447,118.07,118.07,0,0,1,15.43,5.257A22.83,22.83,0,0,1,256.5,238.1a27.828,27.828,0,0,1,.979,2.927c1.829,4.671,3.687,9.33,5.536,13.993.052.13.09.3.191.372,2.264,1.591,2.448,4.417,3.879,6.514,4,5.857,5.547,12.662,7.287,19.384,2.191,8.47,2.528,17.166,3.087,25.826s.853,17.362,1.411,26.034c.456,7.069,1.117,14.124,1.721,21.182.1,1.118.376,2.219.549,3.332.143.915-.157,1.555-.8,1.678-3.607-4.745-7.036-9.372-10.605-13.888a48.652,48.652,0,0,0-4.171-4.152c-.231-.229-.578-.478-.6-.744a1.946,1.946,0,0,1,.256-1.336,1.211,1.211,0,0,1,1.194-.039,20.635,20.635,0,0,1,2.857,2.691c1.983,2.383,3.857,4.856,5.792,7.279a4.46,4.46,0,0,0,1.5,1.25,52.19,52.19,0,0,0-5.477-9.363c-2.115-2.964-4.575-5.68-6.946-8.581.556-.948,1.195-.658,2.04-.009,3.475,2.668,5.7,6.325,8.014,9.919,1.014,1.576,2.042,3.142,3.116,4.792a3.883,3.883,0,0,0-1-4.362,2.43,2.43,0,0,1-.724-1.013c-1.095-3.925-4-6.619-6.492-9.584-1.086-1.292-2.378-2.415-3.412-3.742-.364-.468-.235-1.318-.332-1.993.6.239,1.393.311,1.764.745,2.926,3.424,5.773,6.916,8.641,10.389.283.343.543.7.814,1.056l.33-.148a6.206,6.206,0,0,0-.668-2.014c-3.832-4.746-7.728-9.439-11.608-14.147-.089-.108-.255-.182-.291-.3-.191-.615-.69-1.555-.459-1.8.7-.752,1.226.107,1.663.589q4.967,5.487,9.893,11.009c.244.272.48.552.72.828l.394-.114a3.6,3.6,0,0,0-.3-1.349,72.724,72.724,0,0,0-4.909-6.334c-3.089-3.33-6.391-6.462-9.565-9.715-.238-.244-.169-.787-.243-1.191a3.228,3.228,0,0,1,1.246-.147c.365.11.657.508.95.811q5.582,5.77,11.147,11.558a12.476,12.476,0,0,1,1.051,1.5c.989-1.99.771-2.834-.577-3.742a5.051,5.051,0,0,1-1.01-.972c-2.256-2.706-4.349-5.567-6.783-8.1-2.946-3.068-6.177-5.862-9.287-8.773-.1-.1-.28-.145-.329-.257-.307-.708-.588-1.428-.878-2.144a6.832,6.832,0,0,1,1.924.7,96.5,96.5,0,0,1,15.2,15.249,9.008,9.008,0,0,0,1.652,1.583c-.189-1.873.544-3.688-1.326-5.432-2.306-2.151-4.037-4.923-5.992-7.446a62.339,62.339,0,0,0-10.633-10.433c-2.006-1.6-4.032-3.174-5.992-4.827a1.374,1.374,0,0,1-.271-1.268,1.237,1.237,0,0,1,1.166-.336c1.745,1.251,3.447,2.566,5.11,3.926a117.927,117.927,0,0,1,16.01,16.441c.469.567.979,1.1,1.54,1.725v-5.955l-.456.311a23.345,23.345,0,0,1-2.381-1.988c-6.378-6.9-12.63-13.931-19.86-19.982a22.662,22.662,0,0,0-3.247-1.952c-.322-.188-.88-.269-.958-.516a9.3,9.3,0,0,1-.224-1.923c.52.026,1.185-.147,1.54.108a84.192,84.192,0,0,1,11.9,10.126c3.9,4.081,7.928,8.035,11.878,12.066a10.857,10.857,0,0,1,1.067,1.64c.935-2.441.572-3.557-.977-4.579a5.291,5.291,0,0,1-1.3-1.279c-3.416-4.659-7.914-8.114-12.583-11.382-.874-.611-2.247-1.259-1.364-2.435.749-1,1.776.063,2.507.67,3.182,2.639,6.319,5.331,9.513,7.954,1.351,1.111,2.8,2.1,4.4,3.284-.292-1.994-.541-3.868-.863-5.729a1.852,1.852,0,0,0-.644-.888c-2.38-2.133-4.72-4.317-7.191-6.341a40.968,40.968,0,0,0-4.349-2.821c-1.19-.744-1.419-1.516-.474-2.153a1.722,1.722,0,0,1,1.576.056c2.325,1.666,4.555,3.464,6.866,5.151.961.7,2.043,1.239,3.151,1.9.407-2.041-.063-2.861-1.5-3.789a18.552,18.552,0,0,1-2.485-2.27c-1.91-1.806-3.791-3.645-5.742-5.407a5.969,5.969,0,0,0-1.824-.952c-.92-.363-1.49-.933-1.047-1.923.466-1.041,1.36-.748,2.009-.266,1.8,1.335,3.569,2.721,5.275,4.174,1.344,1.145,2.577,2.42,3.859,3.637l.413-.242c-.478-1.674-.948-3.35-1.445-5.018a1.076,1.076,0,0,0-.408-.536c-2.423-1.632-4.845-3.266-7.293-4.859-.674-.438-.809-1-.3-1.486a1.522,1.522,0,0,1,1.4-.211c1.689.9,3.31,1.929,4.956,2.912l.407-.264c-.5-.994-.779-2.223-1.544-2.931a32.169,32.169,0,0,0-4.623-3.326c-.694-.443-1.75-.509-1.336-1.716.4-1.156,1.268-.845,2.095-.567l1.234.422a9.337,9.337,0,0,0-1.256-2.254c-2.206-2.023-3.134-4.705-4.127-7.392-1.249-3.384-2.878-6.652-3.844-10.109-1.913-6.844-6.606-10.969-12.861-13.347a139.838,139.838,0,0,0-16.4-5.009,34.216,34.216,0,0,1-14.6-7.852c-2.615-2.293-5.214-4.608-7.72-7.018a11.774,11.774,0,0,1-2.427-3.254c-1.243-2.57-2.334-5.221-3.363-7.886-1.5-3.889-1.408-8.034-1.6-12.1-.2-4.219-.044-8.454-.044-12.98a7.554,7.554,0,0,0-2.013.506c-2.415,1.508-4.791,3.082-7.154,4.672a6.835,6.835,0,0,0-1.311,1.262c-1.467,1.72-3.491,2.387-5.4,1.277-3.4-1.977-6.67-4.165-9.911-6.388-.374-.257-.207-1.3-.291-1.982.614.029,1.353-.155,1.82.121,2.863,1.7,5.624,3.569,8.5,5.242,1.808,1.052,2.7.831,4.114-.677,2.872-3.052,6.531-4.865,10.3-6.436a6.906,6.906,0,0,1,3.173-.134c3.65.364,7.3.852,10.946.088a25.978,25.978,0,0,0,3.271-1.138ZM178.372,28.643l-.5-.277c-1.905,2.185-3.821,4.361-5.713,6.558a18.479,18.479,0,0,0-3.843,7.891,44.023,44.023,0,0,0-1.307,12.576c.171,3.407.237,6.927,1.164,10.164a38.473,38.473,0,0,0,6.948,13.433c2.511,3.152,4.918,6.348,9.25,7.121a6.31,6.31,0,0,1,1.364.719c5.766,2.721,11.725,4.384,18.132,2.854,2.4-.574,4.711-1.546,7.092-2.234,5.223-1.508,10.47-2.9,15.3-5.533,5.423-2.954,9.564-6.96,11.976-12.775a61.013,61.013,0,0,0,3.616-12.111c.613-3.251.838-6.589-.846-9.8a14.623,14.623,0,0,0-1.339,3.3,25.17,25.17,0,0,1-3.678,9.059,38.969,38.969,0,0,0-2.525,3.9c-1.607,2.916-3.536,5.711-6.38,7.335C222.951,73.192,218.5,75,214.161,77c-.383.176-.914.014-1.374.043-1.908.121-3.821.212-5.72.419a1.8,1.8,0,0,0-1.047.843c-.471.733-.981.771-1.788.567a15.83,15.83,0,0,0-3.95-.6c-3.342.033-6.5-.564-9.155-2.647-1.916-1.5-3.6-3.294-5.452-4.885a4.607,4.607,0,0,0-2.012-1.039c-.853-.165-1.02-.517-1.057-1.31a5.622,5.622,0,0,0-.577-2.377c-1.4-2.55-2.955-5.013-4.371-7.554a20.728,20.728,0,0,1-2.466-13.083c.722-5.286,1.991-10.5,3.02-15.742C178.276,29.3,178.319,28.973,178.372,28.643Zm21.893,47.189a21.561,21.561,0,0,1-2.377-2.1c-.284-.328-.162-1.005-.225-1.523.506,0,1.12-.179,1.5.042a24.125,24.125,0,0,1,3.333,2.3c1.519,1.275,5.134,1.289,6.756-.141a2.242,2.242,0,0,0-.543-.4,16.725,16.725,0,0,1-6.369-3.741,2.806,2.806,0,0,0-2.34-.494,13.67,13.67,0,0,1-8.957-.347,10.707,10.707,0,0,0-2.762-.229l-.291.6,2.4,2.412,1.71-1.866a3.255,3.255,0,0,1,.447.353c.836,1.188,1.655,2.388,2.5,3.568A5.478,5.478,0,0,0,200.265,75.832Zm32.663,55.285q.308-2.679.616-5.358C232.344,126.986,232.287,127.568,232.928,131.117Z"/><path class="b525b31c-ed18-4151-9240-3ebfb1e323b8" d="M121.368,84.363a33.354,33.354,0,0,1-2.838-2.336,1.445,1.445,0,0,1,.269-1.338,6.03,6.03,0,0,1,2.526-.6,5.66,5.66,0,0,0,5.2-3.066c1.084-1.787,1.343-1.886,2.792-.4a2.01,2.01,0,0,0,.8.541c1.282.377,2.579.7,3.859,1.042-.067-2.32.9-2.908,3.054-1.771a52.446,52.446,0,0,0,6.091,2.937,20.042,20.042,0,0,1-2.182-1.462,5.417,5.417,0,0,1-.863-1.383,15.209,15.209,0,0,1,1.771-.572c.224-.046.518.184.765.318q5.447,2.955,10.887,5.925a10.787,10.787,0,0,1,1.038.765l-1.5,1.3c1.407.807,1.518,1.27.475,2.674-.418.563-1,1.013-1.38,1.594a8.23,8.23,0,0,0-.579,1.516c-.129.326-.217.809-.463.923-1.757.82-2.088,2.836-3.609,3.886,2.173,1.213,2,2.56-.452,4.758.193.779,1.535,1.492.514,2.357-.435.369-1.378.137-2.048.175l2.605,1.635-1.935,3.042c.184.135.434.233.545.415.3.49.852,1.114.73,1.507-.265.854-1.09.872-1.885.587-.574-.2-1.158-.379-1.738-.566l-.225.453c.405.3.8.619,1.219.894.668.436,1.353.847,2.036,1.259,1.519.918,1.552,1.346.129,2.447a4.01,4.01,0,0,0,.316.412c1.62,1.635,1.607,1.628-.394,2.831a3.383,3.383,0,0,0-1.081,1.22,12.337,12.337,0,0,1,1.738-.9,1.1,1.1,0,0,1,1.006.22,1.6,1.6,0,0,1-.016,1.156,8.927,8.927,0,0,1-.977,2.262,8.24,8.24,0,0,1-1.721,1.388c.913.539,1.848,1.09,2.781,1.642,1.381.816,1.435,1.378.152,2.434.964,1.271-.246,1.971-1.067,3.156a10.834,10.834,0,0,0,1.583.246c.414,0,.831-.228,1.241-.21a1.268,1.268,0,0,1,.944.4,1.108,1.108,0,0,1-.167,1c-.741.893-1.561,1.72-2.626,2.867l3.252.731c.032,1.137.032,1.137-2.578,3.724l2.644,1.952c-1.206,1.219-.415,3.69-3.056,3.708l.118.473c.51.061,1.018.156,1.529.174.809.028,1.58-.12,1.571,1.186,0,.564.688,1.132,1.2,1.9H150.8l-.106.275c.6.4,1.231.765,1.795,1.212.891.7.822,1.29-.154,1.894a4.455,4.455,0,0,0-.685.489,5.106,5.106,0,0,0-.5.686l2.225,1.944c-.649,1.076-1.951,1.859-1.273,3.364a2.509,2.509,0,0,1-.819.525,3.094,3.094,0,0,0-1.345.689l2.108.735c-.973,1.178-.671,2.164.207,3.132.163.18.025.773-.144,1.083a16.469,16.469,0,0,1-1.186,1.677l2.446,1.625c-1.852,1.486.473,3.047-.241,4.778l-2.694-1.374c.134.318.159.584.3.673,3.741,2.4,6.592,5.831,10.021,8.589.146.117.372.226.406.374.146.62.544,1.528.28,1.828-.678.771-1.217-.064-1.688-.548-1.082-1.111-2.142-2.242-3.322-3.48l-1.21.917c1.994,1.818,3.934,3.536,5.792,5.34.258.25.108.921.147,1.4-.44-.083-1-.025-1.3-.274-1.278-1.049-2.481-2.19-3.712-3.3l-.268.262a3.43,3.43,0,0,0,.5.683c1.781,1.456,3.584,2.884,5.364,4.341a5.417,5.417,0,0,1,1.272,1.284c.173.289-.027.8-.059,1.214-.4-.068-.917,0-1.192-.225-2.071-1.69-4.092-3.442-6.14-5.161a1.236,1.236,0,0,0-1.036-.268,8.49,8.49,0,0,1,1.166,1.31,3.592,3.592,0,0,1,.2,1.265c-.42,0-.972.181-1.236-.02-.925-.7-1.748-1.542-2.618-2.319a4.759,4.759,0,0,0-.664-.377c0,.59.02,1.01,0,1.428-.035.564-.1,1.126-.159,1.69a13.317,13.317,0,0,1-1.57-.58,5.966,5.966,0,0,1-1.006-.907l-2.957,5.153L143.284,189l-.539.367c.894.9,1.521,1.827.181,2.833-5.374-2.435-8.688-7.427-13.439-10.69l.776-1.7c-1.219.1-1.685-.428-2.19-1.508-.538-1.148-1.87-1.927-2.86-2.861-1.082-1.02-1.064-1.933.27-2.514a7.764,7.764,0,0,1,3.255-.666c4.7.16,8.54-1.923,12.219-4.459a2.211,2.211,0,0,0,.989-1.452,62.171,62.171,0,0,0-.446-6.275c-.119-1-.89-1.422-1.918-1.522a15.025,15.025,0,0,1-3.449-.641c-2.058-.713-2.318-2.274-.728-3.746a5.964,5.964,0,0,1,6.056-1.183c.532.146,1.078.243,1.617.363l.156-.545-3.3-2.177c-1.749.5-3.041.846-4.322,1.23-1.7.511-3.382,1.1-5.1,1.554a4.338,4.338,0,0,1-2.191.112c-.505-.144-.857-.829-1.277-1.273.441-.337.833-.841,1.329-.982,2.161-.618,4.351-1.131,6.593-1.7-.86-1.057-.959-.972-2.089-.346a8.394,8.394,0,0,1-2.7.8c-.26.042-.742-.424-.873-.755-.082-.207.243-.659.486-.9,1.791-1.753,3.817-2.54,6.26-1.4a1.6,1.6,0,0,0,2.306-.53c.48-.731,1.115-.705,1.844-.337a5.994,5.994,0,0,0,2.289.685,12.439,12.439,0,0,1-1.352-1.122,3.439,3.439,0,0,1-.45-1c.382-.069.817-.287,1.134-.175.655.232,1.234.67,1.872.964a6.882,6.882,0,0,0,1.164.316l.219-.448c-1.076-.762-2.167-1.5-3.218-2.3a4.367,4.367,0,0,1-.705-.917c.38-.18.756-.368,1.141-.535.075-.033.188.038.277.021.426-.078.849-.171,1.273-.258-.12-.263-.184-.695-.372-.757a8.652,8.652,0,0,0-1.619-.259c-.029,0-.065.063-.1.093-3.279,2.69-4.677,2.626-7.691-.344a3.022,3.022,0,0,0-.333-.251c-2.792,2.933-5.142,3.393-8.836,1.739-1.041-.466-2.768-3.285-2.623-4.455a1.375,1.375,0,0,1,.744-.9,1.251,1.251,0,0,1,1.117.147,12.266,12.266,0,0,1,1.569,1.969,3.662,3.662,0,0,0,5.3.572c.4-.4.778-.818,1.171-1.222,1.533-1.579,2.509-1.431,3.865.338a4.8,4.8,0,0,0,2.143,1.556c1.3.437,1.94-.248,1.787-1.632a3.161,3.161,0,0,0-.163-.683c-2.144-6.228-4.239-12.474-6.465-18.672-.894-2.489-.66-5-.651-7.529,0-.517.044-1.034.054-1.551.043-2.218-.547-4.077-2.826-4.983-2.09-.83-3.126-2.6-3.915-4.534-1.2-2.953-2.29-5.955-3.514-8.9-1.1-2.646-2.834-4.592-5.882-5.092-.541-.089-.968-.873-1.447-1.336.649-.342,1.33-1.014,1.939-.954a18.324,18.324,0,0,1,3.209,1,4.105,4.105,0,0,0,1.126.016Zm12.08,15.587c-1.917-.983-1.917-.983-3.986,1.2l2.1,1.529Zm7.177,47.712-.5.183c-.048.525-.321,1.376-.108,1.523,1.34.925,2.788,1.695,4.2,2.516l.315-.445Zm-3.156-40.854a3.629,3.629,0,0,0-3.372-2.577C135.087,106.658,135.554,107.015,137.469,106.808Zm5.1-9.967c-1.859-1.716-3.059-1.891-3.586-.522C141.156,97.705,141.648,98.218,142.568,96.841Zm-.536,19.63c1.356,1.39,1.606,1.287,2.711-1.047l-1.17-1Zm-7.009-22.1c.876.354,1.411,1.673,2.494.615.16-.156,0-.964-.252-1.157C136.485,93.23,135.609,92.885,135.023,94.371Zm6.687,19.409c-.461-.2-.822-.5-1.028-.411a6.62,6.62,0,0,0-1.7,1.019c-.116.1.122.619.2.946a8.073,8.073,0,0,0,1.6-.482C141.117,114.671,141.324,114.242,141.71,113.78Zm-7.255-12.073c2,1.318,2.158,1.308,2.875-.266C136.313,101.076,135.291,100.008,134.455,101.707Zm6.794-18.191-1.855-.79-.877,1.426,1.843.715Zm7.273,52.862c-.926-.8-1.757-1.429-2.548.018C147.314,137.777,147.671,137.786,148.522,136.378ZM129.548,98.751c-.436-.56-.769-.973-1.084-1.4-.265-.36-.507-.738-.759-1.108l-.406.286,1.536,3.446Zm8.523,75.945c-1.489,1.3-1.508,1.434-.368,2.327C138.213,176.331,139.427,175.807,138.071,174.7ZM149.9,87.939l-3.379-1.566C147.032,87.833,148.776,88.7,149.9,87.939Zm-1.271,61.132c-1.1,1.472.321,1.525.973,2.16l.728-1.242ZM142.559,179.5l-1.259-1.021-.956,1.392,1.372.763Zm-8.946-5.293,1.547,1.128,1.179-1.67-.231-.264Zm3.563-60.388-.251-.582L135.469,113l-.241,1.666.731.437Zm4.061,6.348,1.1-.756c-.945-.85-1.5-1.681-2.543-.756ZM153.2,177.023c1.455,1.046,1.455,1.046,2-.073l-1.265-.921ZM134.335,88.09l-.337.739,2.394,1.069.3-.616Zm5.291,39.752-.43.3a14.59,14.59,0,0,0,1.137,1.714c.072.084.635-.248,1.153-.463Zm7.682,41.689.147.559,1.787-.421.005-.462-1.19-.81Zm-2.153-80.254,2.17,1.628.309-.429C147.412,89.227,146.121,89.482,145.155,89.277Z"/><path class="b525b31c-ed18-4151-9240-3ebfb1e323b8" d="M224.1,297.582a5.475,5.475,0,0,0-.32-1.322c-2.692-5.1-5.368-10.207-8.15-15.257a30.128,30.128,0,0,0-2.817-3.866c-.548-.7-.953-1.432-.154-2.084a1.408,1.408,0,0,1,2.1.39,9.19,9.19,0,0,1,.971,1.373c1.476,2.708,2.927,5.431,4.386,8.149l.32-.151c-.124-.3-.222-.617-.375-.9-1.235-2.318-2.436-4.656-3.743-6.934a34.887,34.887,0,0,0-2.127-2.947c-.328-.454-.83-.9-.894-1.394a1.964,1.964,0,0,1,.545-1.535,1.5,1.5,0,0,1,1.464,0,5.941,5.941,0,0,1,1.434,1.879c3.1,6.047,6.15,12.121,9.253,18.168.752,1.465.707,1.886-.674,2.7,0,.079-.036.192,0,.249,1.513,2.1,1.32,4.234.653,6.67a75.316,75.316,0,0,1-6.842,15.822,12.27,12.27,0,0,1-8.045,6.549,25.764,25.764,0,0,0-4.5,1.585,27.861,27.861,0,0,0-3.122,2c-.3.192-.746.525-.964.428-1.944-.853-3.8.034-5.654.283a19.751,19.751,0,0,1-11.562-1.406,24.627,24.627,0,0,0-9.931-2.827,5.265,5.265,0,0,0-1.817-.014c-1.405.5-2.175-.155-2.939-1.194-1.335-1.816-2.761-3.565-4.134-5.353-.255-.332-.633-.73-.612-1.077a2.4,2.4,0,0,1,.579-1.661c.592-.418,1.2-.044,1.542.693,1.088,2.356,3.163,3.79,5.108,5.337.042.034.164-.032.633-.138-1.237-1.4-2.3-2.719-3.5-3.911-.6-.6-1.565-1-.91-2,.618-.952,1.551-.8,2.332-.169a14.854,14.854,0,0,1,2.111,2.046c1.191,1.443,2.285,2.968,3.447,4.436.159.2.481.271.941.146q-2.119-2.686-4.239-5.374c-.513-.652-1.279-1.293-.258-2.126,1.053-.86,1.592-.028,2.162.68.171.213.345.425.529.651,1.29-1.911,1.423-1.912,3.461-.072,1.426-1.5,1.954-1.5,3.228.265,2.274,3.16,4.47,6.375,6.722,9.551a4.08,4.08,0,0,0,.873.7l.371-.36c-1.493-1.941-3-3.868-4.47-5.83a12.482,12.482,0,0,1-1.636-2.589c-.184-.445.193-1.122.316-1.695.605.229,1.442.28,1.776.716,1.936,2.532,3.752,5.155,5.614,7.743a.98.98,0,0,0,.832.451q-2.263-3.309-4.531-6.617c-.158-.23-.392-.408-.557-.635a1.338,1.338,0,0,1,.379-2.064c.783-.573,1.34-.072,1.744.561,1.389,2.176,2.708,4.4,4.132,6.552.741,1.122,1.646,2.135,2.477,3.2l.438-.272c-1.022-1.793-2-3.612-3.078-5.372-1.1-1.8-2.295-3.539-3.463-5.33.688-.913,1.377-1.394,2.423-.729.189.12.471.293.63.232,1.742-.668,2.167.656,2.805,1.759q2.364,4.082,4.823,8.107c.209.341.719.5,1.09.738-.05-.475.063-1.059-.174-1.406-1.693-2.483-3.515-4.879-5.169-7.387a17.451,17.451,0,0,1-1.295-3.149c1.891-.481,2.354-.091,3.211,1.338,1.7,2.838,3.571,5.577,5.37,8.357l.426-.176a9.246,9.246,0,0,0-.539-1.517c-1.6-2.859-2.957-5.879-5.391-8.211a3.3,3.3,0,0,1-.7-1.786,1.1,1.1,0,0,1,1.174-1.39c.367-.018.859.035,1.073-.172,1.295-1.253,1.92-.371,2.57.695a36.007,36.007,0,0,0,2.089,3.177c.345.451,1.07.61,1.419,1.06a14.254,14.254,0,0,1,1.843,2.88c.684,1.538,1.166,3.166,1.9,5.232a45.433,45.433,0,0,0,3.939-2.516c.253-.2.181-1.155-.058-1.588-2-3.616-4.051-7.2-6.122-10.773-.822-1.419-1.736-2.785-2.595-4.183-.667-1.087.136-3.367,1.379-3.587a2,2,0,0,1,1.633.713c1.827,2.715,3.633,5.452,5.265,8.285,1.279,2.219,2.3,4.588,3.462,6.955,1.607-1.761,1.561-1.989.626-3.653-2.942-5.232-5.817-10.5-8.711-15.761a9.66,9.66,0,0,1-.516-1.157c-.569-1.453-.408-1.8,1.108-2.407a9.069,9.069,0,0,1-1.435-1.871c-.22-.514-.212-1.6.075-1.762a1.441,1.441,0,0,1,2.07.518c.551.929,1.168,1.82,1.7,2.761,2.969,5.3,5.921,10.616,8.838,15.853.29-.652,1.041-1.524-.345-2.351-.254-.152-.384-.525-.548-.809q-5.5-9.5-11.008-19c-.436-.75-.623-1.463.264-1.913.969-.493,1.6.109,2.04.927,1.305,2.44,2.565,4.9,3.9,7.331,1.671,3.045,3.384,6.067,5.1,9.085.524.922,1.127,1.8,1.8,2.855a3.027,3.027,0,0,0-.184-3.243q-5.294-9.129-10.585-18.259c-.212-.365-.624-.755-.583-1.09a1.575,1.575,0,0,1,.75-1.159,1.435,1.435,0,0,1,1.215.581c1.865,2.984,3.7,5.989,5.466,9.034s3.427,6.132,5.135,9.2Zm-6.145,7.875.431-.24-6.909-12.325-.407.225A77.376,77.376,0,0,0,217.958,305.457ZM202.493,311.3q2.682,4.965,5.363,9.93A23.927,23.927,0,0,0,202.493,311.3Zm21.587-18.66.463-.22-2.137-4.492-.445.21Q223.02,290.385,224.08,292.635Zm-43.267,22.771-.4.275,3.023,3.91.418-.324Z"/><path class="b525b31c-ed18-4151-9240-3ebfb1e323b8" d="M69.5,286.115c-.179-.2-.435-.371-.523-.606-.21-.553-.34-1.136-.5-1.707.687-.075,1.489-.409,2.034-.165a8.772,8.772,0,0,1,1.961,1.557c.308-.629.648-1.258.928-1.913q.75-1.751,1.436-3.529c.238-.61.377-1.259.634-1.859.45-1.05,1.09-1.733,2.38-1.134a1.545,1.545,0,0,0,1.213.112c1.227-.783,2-.009,2.822.677a30.186,30.186,0,0,0,2.811,2.343,25.919,25.919,0,0,0,3.105,1.445,3.3,3.3,0,0,1,.894.566c.265.255.376.7.668.892,2.749,1.79,2.414,4.74,2.719,7.392a5.09,5.09,0,0,0,1.019,3.09,4.939,4.939,0,0,1,.9,2.447,13.937,13.937,0,0,0,4.074,8.31c1.435,1.409,2.642,3.048,4,4.537a4.46,4.46,0,0,0,1.634,1.25c2.1.747,2.316,1.111,1.339,3.214,2.317.1,4.418.623,5.674,3.1.881-1.459,1.937-2.07,3.394-1.836.215.034.508-.174.711-.337,1.3-1.045,1.782-1,3,.3,1.543,1.641,3.076,3.293,4.667,4.885a6.049,6.049,0,0,0,1.476.819l.259-.376c-.954-.858-1.945-1.68-2.849-2.589-.47-.471-1.4-.942-.642-1.818.8-.925,1.589-.451,2.3.2.243.223.474.458.7.7a1.076,1.076,0,0,0,1.793.018c1.042-1.017,2.128-1.991,3.242-2.929.378-.319,1.045-.787,1.325-.653,1.793.858,3.245-.872,4.875-.462a2.506,2.506,0,0,0,.235-.271c.331-.567.656-1.137.984-1.706a10.27,10.27,0,0,1,1.724,1.026,21.105,21.105,0,0,1,1.759,1.992l1.016-1.357c-.713-.605-1.375-1.125-1.988-1.7-.582-.544-1.1-1.293-.31-1.891a2.079,2.079,0,0,1,1.815.169c1.678,1.013,3.279,2.157,4.881,3.291a12.973,12.973,0,0,1,1.333,1.245l.71-.85a1.648,1.648,0,0,0-.231-.369c-1.378-1.208-2.78-2.388-4.137-3.618-.66-.6-1.237-1.417-.4-2.17.752-.676,1.47-.217,2.162.478,2.32,2.331,4.749,4.553,7.067,6.887a2.267,2.267,0,0,1,.706,1.765c-.168.53-1,.849-1.736,1.4l.1.6c-.543.26-1.2.366-1.479.748-.8,1.1-1.562,1.731-2.778.227-.712,1.477-1.279,2.753-1.942,3.978a2.929,2.929,0,0,1-1.1,1.158c-1.1.584-1.649.2-1.685-1.049-.011-.4,0-.792,0-1.254-.768.3-1.38.756-1.9.668-.372-.063-.619-.858-1.021-1.481-.879,2.436-3.556.911-5.062,2.242-1.163-.894-2.277.668-3.478.078-.221-.108-.776.184-1.019.441-1.379,1.459-1.92,1.378-2.59-.562-.339.583-.627,1.114-.949,1.623-.8,1.269-1.822,1.22-2.586-.044a26.811,26.811,0,0,0-1.629-2.172c-.8.852-1.091,2.315-2.4,1.732a11.662,11.662,0,0,1-2.381-2c.045.54.1.888.1,1.234-.021,1.218-.895,1.761-1.852,1.029-1.169-.9-2.191-1.98-3.458-3.15a8.973,8.973,0,0,1,.931,2.049,1.809,1.809,0,0,1-.443,1.524,1.664,1.664,0,0,1-1.526-.32c-1.18-1.112-2.237-2.355-3.34-3.549l-.413.352a7.643,7.643,0,0,1,1.12,1.266,10.683,10.683,0,0,1,.638,1.8,4.99,4.99,0,0,1-1.917.186,10.2,10.2,0,0,1-2.146-1.3c-.007.015-.079.1-.059.145.434.913.97,1.946-.2,2.6s-1.6-.574-2.176-1.23c-1.27-1.444-2.546-2.888-3.725-4.406-.644-.829-1.038-1.7.07-2.685.43-.383.3-1.4.485-2.5,1.147-.781,2.24-.5,3.6,1.228.662.843,1.4,1.629,2.215,2.574a16.166,16.166,0,0,0-.606-3.472,7.661,7.661,0,0,0-1.834-2.28c-.52-.514-1.3-.771-1.79-1.307-1.577-1.737-3.136-3.5-4.576-5.349a24.6,24.6,0,0,1-2.824-4.345,42.718,42.718,0,0,1-1.73-5.133l-2.91.316c1.036,1.145,1.848,2.058,2.679,2.952.221.238.605.373.731.641.248.524.642,1.228.465,1.635-.2.454-.963.661-1.7,1.107-.594,1.675-1.024,1.837-2.535.448-1.057-.972-1.916-2.159-2.955-3.155-1.662-1.591-3.446-3.055-5.092-4.662-1.9-1.857-3.633-3.894-5.584-5.7-1.5-1.389-3.23-2.535-4.858-3.789Zm55.66,30.937c1.912.725,3.542-.8,3.712-3.171Zm-19.326-3.379-.331.456c.211.427.428,1.219.633,1.216a9.837,9.837,0,0,0,2.154-.477l0-.573ZM85,292.513c1.045,2.272,1.571,2.73,3.15,2.77Zm-10.724-5.569,2.353,1.975C76.575,287.369,75.548,286.992,74.274,286.944Z"/><path class="b525b31c-ed18-4151-9240-3ebfb1e323b8" d="M105.8,170.067c.541,1.014,1.108,2.014,1.621,3.042q3.546,7.12,7.067,14.254c1.889,3.827,3.431,7.75,2.966,12.146-.2,1.865-.517,3.716-.725,5.58-.11.983-.638,1.319-1.527,1.149-.974-.186-1.086-.887-.926-1.723.336-1.747.682-3.494.973-5.249a2.937,2.937,0,0,0-.279-1.75c-.582,1.539-1.177,3.074-1.743,4.619-.771,2.105-1.425,4.206-3.106,5.9-1.23,1.241-1.991,2.935-3.044,4.367a22.319,22.319,0,0,1-12.754,8.248c-3.148.842-6.352,1.477-9.5,2.316a79.715,79.715,0,0,0-9.5,2.829,57.79,57.79,0,0,0-10.937,5.393,30.6,30.6,0,0,0-11.467,15.65A124.338,124.338,0,0,0,47.9,263.357c-1.2,6.038-2.261,12.158-1.94,18.444a83.08,83.08,0,0,1-.753,11.781c-.414,4.49-.925,8.972-1.47,13.448a51.614,51.614,0,0,1-4.606,14.863,35.62,35.62,0,0,0-2.1,6.241,7.387,7.387,0,0,0,.3,3.287c.238.978.265,2.026-.664,2.257-.574.143-1.694-.583-2.05-1.212a5.164,5.164,0,0,1-.49-2.859,22.154,22.154,0,0,1,1.84-7.151c3.175-7.091,5.867-14.328,5.582-22.339a23.26,23.26,0,0,1,.91-6.792c1.1-4.062,1.067-8.145,1.043-12.291-.021-3.641.4-7.289.715-10.926a39.519,39.519,0,0,1,.779-4.864c.7-3.245,1.371-6.5,2.249-9.7.781-2.846,1.861-5.608,2.743-8.427A33.717,33.717,0,0,1,60,231.4a46.679,46.679,0,0,1,8.619-5.518,53.433,53.433,0,0,1,8.514-3.657c2.658-.878,5.5-1.168,8.222-1.89A106.214,106.214,0,0,0,96.4,217.051a17.02,17.02,0,0,0,8.244-6.116,23.826,23.826,0,0,1,2.437-3.1,16.321,16.321,0,0,0,3.741-6.981c.52-1.765,1.538-3.383,2.074-5.256-.886,1.2-1.777,2.389-2.656,3.589-.249.34-.392.882-.714,1.014a7.179,7.179,0,0,1-1.8.272c-.065-.539-.382-1.244-.155-1.591q1.923-2.93,4.1-5.692a2.053,2.053,0,0,1,1.582-.63c1.123.12,1.164-.359.813-1.124-1.581-3.45-3.191-6.888-4.919-10.606-2.222,4.231-4.268,8.181-6.376,12.1a12.809,12.809,0,0,1-1.68,2.245,1.476,1.476,0,0,1-2.23.082c-.216-.2.074-1.148.34-1.643,1.976-3.671,4.029-7.3,6-10.971.706-1.314,1.265-2.7,3.457-2.243-1.538-2.972-2.949-5.649-4.307-8.353-.481-.957-.754-2.023-1.272-2.957a4.833,4.833,0,0,0-1.538-1.8c-2.806-1.692-5.458-3.447-5.612-7.53-1.636,2.166-3.117,4.046-4.513,5.988q-9.335,12.975-18.63,25.98a4.079,4.079,0,0,1-.332.455c-.664.7-1.417,1.5-2.389.7-1-.83-.3-1.672.311-2.432,2.964-3.7,6.084-7.284,8.843-11.129,3.744-5.217,7.2-10.641,10.8-15.961.815-1.2,1.69-2.371,2.595-3.509,1.106-1.391,1.646-1.418,3.19-.116-.679-2.3-.433-4.619-2.112-6.421-.551-.591-.974-.935-1.763-.643a6.146,6.146,0,0,1-6.494-.881,11.218,11.218,0,0,1-2.021-2.241,18.778,18.778,0,0,1-2-3.534,4.45,4.45,0,0,1-.241-2.727c.179-.6,3.107.009,3.889.622.939.735,1.974,1.349,3.239,2.2-.987-4.468,2.031-7.684,2.457-11.555a4.67,4.67,0,0,1,.966,4.281c-.221,1.293-.5,2.581-.847,3.847-.716,2.626.124,4.9,1.522,7.047a1.491,1.491,0,0,0,.815.427,4.893,4.893,0,0,1,3.147,2.64c.638,1.293,1.188,2.63,1.746,3.961a1.879,1.879,0,0,1,.153.964c-.545,3.413.969,5.818,3.807,7.423,3.712,2.1,7.506,4.052,11.266,6.066.373.2.876.295,1.1.6a2.4,2.4,0,0,1,.628,1.574c-.2.878-.922.529-1.472.238-1.784-.942-3.554-1.911-5.343-2.842-.7-.364-1.438-.655-2.158-.98Zm-21.762-24.38-.419.4c1.012,1.287,2,2.592,3.042,3.856a2.767,2.767,0,0,0,3.916.4A17.477,17.477,0,0,0,84.035,145.687Z"/><path class="b525b31c-ed18-4151-9240-3ebfb1e323b8" d="M73.046,346.872a30.273,30.273,0,0,1-2.215-2.14,1.61,1.61,0,0,1-.383-1.347c.2-.392.833-.566,1.283-.829.032-.019.108.032.136.012,1.257-.92,2.736-.55,4.12-.748.433-.062.818-.463,1.5-.876-1.136.1-2.111.478-2.6.145-.451-.307-.38-1.38-.541-2.115-.01-.045-.034-.088-.047-.133-.234-.846-.863-1.858-.6-2.5.311-.74,1.405-1.154,2.162-1.7.405-.3.816-.582,1.224-.872l-.163-.335c-.529.25-1.063.492-1.586.754-.293.148-.568.47-.852.47-.776,0-1.552-.127-2.328-.2.292-.611.553-1.24.892-1.823.124-.214.432-.322.664-.483-1.27-1.408-1.25-1.632.324-2.659,1.416-.923,2.873-1.783,4.277-2.721a5.488,5.488,0,0,0,.929-1.036l-.357-.38c-.917.529-1.825,1.075-2.755,1.58a5.394,5.394,0,0,1-1.786.8c-.5.057-1.06-.326-1.593-.513.208-.416.307-.991.642-1.22,1.667-1.137,3.408-2.165,5.094-3.275a6.383,6.383,0,0,0,1-1.035l-.27-.27c-1.03.627-2.055,1.263-3.093,1.877a4.174,4.174,0,0,1-1.024.464c-.957.253-2.08.6-2.591-.521-.14-.308.807-1.116,1.263-1.689a3.939,3.939,0,0,1,.434-.375c-.906-.686-1.785-1.337-2.649-2.009s-.315-1.319.188-1.766c1.543-1.371,3.158-2.663,4.748-3.982.723-.6,1.433-1.219,2.188-1.777a1.479,1.479,0,0,1,2.252.147c.718.924-.052,1.474-.707,1.934-1.51,1.059-3.053,2.072-4.582,3.1l.275.416q2.584-1.75,5.167-3.5c.269-.184.49-.569.76-.6a14.173,14.173,0,0,1,2,.046,5.332,5.332,0,0,1-.245,1.74,8.014,8.014,0,0,1-1.295,1.526c.515.493,1.409.972,1.4,1.435-.01.587-.755,1.161-1.2,1.768.24.1.366.193.4.165,1.882-1.416,3.563-.421,5.192.493,2.126,1.194,4.2,2.489,6.284,3.749.2.12.453.263.525.455.281.739.5,1.5.741,2.257a10.348,10.348,0,0,1-2.175-.265,17,17,0,0,0-2.165-.9c.654.487,1.312.968,1.96,1.462,1.729,1.318,1.753,1.59.134,3.268.752.5,1.467.992,2.192,1.467,1.577,1.034,1.835,1.711,1.434,3.565a1.474,1.474,0,0,0,.2.9c.215.413.645.751.748,1.177a6.59,6.59,0,0,1-.005,1.654c-.54-.034-1.2.122-1.6-.135-1.558-1.02-3.033-2.169-4.538-3.271l-.377.27a3.852,3.852,0,0,0,.665.976c1.93,1.491,3.909,2.918,5.83,4.419a3.621,3.621,0,0,1,1.1,1.409,1.494,1.494,0,0,1-.134,1.351,1.476,1.476,0,0,1-1.39.012c-1.319-.894-2.542-1.927-3.816-2.89a8.546,8.546,0,0,0-2.276-1.305c.149.406.181.942.465,1.2,1.774,1.6,3.618,3.127,5.409,4.711a6.678,6.678,0,0,1,1.575,1.739c.218.418-.057,1.093-.11,1.653-.5-.089-1.114-.025-1.482-.3-1.2-.877-2.3-1.876-3.439-2.828l-.256.23c.562.643,1.088,1.324,1.7,1.921.971.955,2.019,1.833,2.992,2.786a1.226,1.226,0,0,1-.1,1.968c-.335.241-1.19.024-1.653-.251a6.811,6.811,0,0,1-1.332-1.407l-.417.173.867,3.644c-2.315-.339-3.256-2.509-5.119-3.5.923,1.283,1.785,2.465,2.629,3.659,1,1.414.833,1.86-.657,2.254a26.223,26.223,0,0,1,.909,2.956,1.638,1.638,0,0,1-.5,1.269c-.14.13-.859-.146-1.142-.418-1.453-1.4-2.847-2.857-4.267-4.29a5.884,5.884,0,0,0-.529-.421l-.376.28c1.547,2.113,3.093,4.226,4.66,6.364-1.145,1.011-2.034.9-2.931-.2-.874-1.073-1.857-2.057-2.792-3.081l.041.052a5.306,5.306,0,0,0-.554-.918c-2.785-3.048-5.569-6.1-8.392-9.109-.724-.774-1.579-1.426-2.374-2.135Q73.652,347.4,73.046,346.872Zm21.161-12.016.315-.317c-1.627-2.422-6.587-6.386-8.26-6.128Zm-1.67,15.294.366-.547-3.429-2.646-.387.518Zm-1.944-14.076c-.254-2.106-.711-2.427-3-2.094ZM89.24,324.432l.329-.636-2.905-1.489-.316.612ZM78.293,336.223l.158.421,2.141-.568C79.372,334.917,79.258,334.938,78.293,336.223Z"/><path class="b525b31c-ed18-4151-9240-3ebfb1e323b8" d="M64.522,121.8c-1.957.433-3.9.933-5.872,1.287-5.347.96-10.719,1.788-16.054,2.811-2.707.518-5.342,1.406-8.035,2.009a44.773,44.773,0,0,1-6.231,1.016c-.631.049-1.329-.766-2-1.186.484-.387.914-1,1.461-1.13q20.412-5.021,40.846-9.947c.363-.088.73-.164,1.1-.223,1.482-.237,1.929.191,1.754,1.729.319.145.768.213.964.472.246.324.524.982.371,1.188a8.209,8.209,0,0,1-2.3,2.516c-2.593,1.393-5.309,2.563-8.007,3.749-2.358,1.036-4.768,1.953-7.125,2.99-.216.095-1.428-.082-.588.871-.123.062-.245.125-.369.184-4.336,2.039-8.691,4.037-13,6.132-2.57,1.251-5.046,2.7-7.6,3.975-1.882.942-3.853,1.708-5.738,2.646-1.422.708-2.785,1.539-4.146,2.362-1.484.9-1.791.845-2.7-.647-.024-.04-.05-.079-.076-.118-1.431-2.093-1.408-2.157,1.073-2.793,6.284-1.612,12.007-4.53,17.689-7.559,7.824-4.171,15.544-8.561,23.934-11.563a5.869,5.869,0,0,0,.72-.375Z"/><path class="b525b31c-ed18-4151-9240-3ebfb1e323b8" d="M203.57,360.12c-.257-.245-.506-.5-.775-.73a1.1,1.1,0,0,0-.93-.3c.294.376.585.754.883,1.127.546.683.891,1.43.088,2.1-.767.643-1.459.265-2.094-.364-2.032-2.012-3.987-4.116-6.15-5.976-4.273-3.676-8.651-7.228-13.017-10.793a15.759,15.759,0,0,0-3.71-2.268l3.181,2.712-.154.328a3.067,3.067,0,0,1-1.08-.385c-2.9-2.676-5.824-5.333-8.632-8.1-1.437-1.419-1.239-2.07.643-2.775a1.746,1.746,0,0,1,1.435.323c3.054,2.54,6.061,5.136,9.081,7.716l.288-.312c-.822-.746-1.669-1.466-2.462-2.241-2.45-2.394-4.922-4.771-7.286-7.248a4.847,4.847,0,0,1-.905-2.253,1.184,1.184,0,0,1,.643-.953,1.262,1.262,0,0,1,1.06.4c7.523,8.742,16.631,15.732,25.372,23.138,1.858,1.574,3.2,3.767,4.738,5.7.182.229.136.639.2.965Z"/><path class="b525b31c-ed18-4151-9240-3ebfb1e323b8" d="M77.686,98.078c-2.894-1.346-5.722-2.7-8.579-3.982C59.913,89.954,50.736,85.77,41.5,81.729c-6.485-2.837-13.139-5.3-19.574-8.241C16.089,70.818,10.449,67.724,4.73,64.8c-.369-.188-.883-.429-.977-.749a3.172,3.172,0,0,1,0-1.8c.06-.18,1.039-.291,1.416-.091,3.557,1.9,6.963,4.112,10.626,5.761,7.861,3.537,15.862,6.762,23.78,10.175,3.57,1.538,7.062,3.258,10.619,4.829,4.8,2.122,9.658,4.133,14.452,6.279,4.271,1.912,8.5,3.923,12.724,5.934C78.655,95.752,78.69,96.179,77.686,98.078Z"/><path class="b525b31c-ed18-4151-9240-3ebfb1e323b8" d="M181.31,104.733l1.287.218a5.575,5.575,0,0,1-.2-1.185,7.934,7.934,0,0,1,.288-1.288,10.474,10.474,0,0,1,1.459.6c.208.122.287.47.418.718,1.069,2.027,2.138,4.054,3.256,6.176l-1.029.921-1.6-1.089c.2.588.428.905.36,1.136-.129.442-.338,1.034-.682,1.186a1.33,1.33,0,0,1-1.161-.556c-.745-1.4-1.36-2.879-2.029-4.324-.111-.24-.257-.464-.562-1-.155,1.532-.262,2.605.658,3.668a20.386,20.386,0,0,1,2.2,3.427,2.55,2.55,0,0,1,.34,1.581,1.667,1.667,0,0,1-.947,1.046c-.228.086-.808-.359-1.012-.7-.6-.986-1.086-2.038-1.645-3.119-.908.823-.91,1.525-.212,2.293.664.729,1.291,1.492,1.927,2.245.585.692.54,1.529-.154,1.906-.383.208-1.243-.191-1.735-.535a5.9,5.9,0,0,1-1.1-1.429l-.379.082a6.264,6.264,0,0,0,.2,1.425,5.223,5.223,0,0,0,.78,1.166c1.206,1.641,1.044,2.266-.281,2.915l-2.766,5.725c1.067.745.28,1.706-.415,2.839-.483.788-.431,1.889-.849,2.736a2.711,2.711,0,0,1-1.483,1.245c-.243.078-.818-.695-1.154-1.146a6.739,6.739,0,0,0-1.168-1.482c-.114,1-.229,1.991-.351,3.058-1.255-.109-1.747-.812-1.928-1.976a11.352,11.352,0,0,1,2.368-8.6,37.3,37.3,0,0,0,5.977-13.84c.577-2.5.776-5.09,1.237-7.622.133-.73.058-1.947,1.349-1.7s1.067,1.33.919,2.277C181.451,104.007,181.394,104.278,181.31,104.733Z"/><path class="b525b31c-ed18-4151-9240-3ebfb1e323b8" d="M2.185,91.576c3.259.486,6.732,1.074,10.223,1.508,4.466.556,8.968.847,13.416,1.514,4.256.639,8.434,1.842,12.7,2.381,4.977.629,10.012.8,15.02,1.182,4.87.374,9.741.733,14.605,1.174a16.535,16.535,0,0,1,3.131.784,1.538,1.538,0,0,1,1.082,2c-.225.96-1.037.723-1.742.595a142.81,142.81,0,0,0-22.688-1.99c-6.088-.121-11.986-1.555-17.948-2.579-5.681-.976-11.4-1.717-17.115-2.5-3.718-.514-7.448-.94-11.176-1.381C.8,94.155-.07,94.08,0,92.873.083,91.61,1.036,91.607,2.185,91.576Z"/><path class="b525b31c-ed18-4151-9240-3ebfb1e323b8" d="M26.191,110.282l-19.306-.267a3.859,3.859,0,0,1-1.531-.05,2.623,2.623,0,0,1-1.327-1.306c-.088-.3.643-1.172,1.088-1.24a24.95,24.95,0,0,1,4.193-.2c8.027.143,16.055.5,24.08.434,7.51-.058,15.017-.533,22.525-.846,4.589-.191,9.175-.466,13.766-.6,1.046-.032,2.308-.248,2.944,1.105.468.992.1,1.543-.838,1.789a6.709,6.709,0,0,1-1.4.068c-6.382.241-12.763.515-19.146.715-6.1.19-12.2.318-18.3.443-2.25.046-4.5.007-6.753.007Z"/><path class="b525b31c-ed18-4151-9240-3ebfb1e323b8" d="M83.515,152.089c-.416.848-.687,1.548-1.077,2.173a154.786,154.786,0,0,1-9.842,14.2q-8.042,10.158-15.64,20.663c-2.383,3.294-4.116,7.052-6.418,10.411-1.93,2.817-4.257,5.361-6.409,8.024a1.289,1.289,0,0,1-2.074.191,2.047,2.047,0,0,1-.175-1.936c6-8.458,11.985-16.926,18.157-25.257,5.057-6.825,10.425-13.419,15.5-20.229,2.039-2.733,3.644-5.787,5.519-8.648a1.893,1.893,0,0,1,1.436-.758C82.852,150.953,83.161,151.657,83.515,152.089Z"/><path class="b525b31c-ed18-4151-9240-3ebfb1e323b8" d="M104.678,80.393c-.275.348-.5.9-.806.951a1.565,1.565,0,0,1-1.309-.412c-1.062-1.486-2.052-3.029-2.992-4.6C94.4,67.721,89.5,58.936,84.036,50.517c-4.778-7.359-10.193-14.3-15.3-21.449-1.228-1.718-2.346-3.515-3.516-5.274-.474-.711-.649-1.538.2-1.925a2.073,2.073,0,0,1,1.777.395,9.891,9.891,0,0,1,1.342,1.956c2.44,3.449,4.789,6.968,7.357,10.319a256.224,256.224,0,0,1,19.112,29.02c2.907,5.094,5.972,10.1,8.95,15.151A15.1,15.1,0,0,1,104.678,80.393Z"/><path class="b525b31c-ed18-4151-9240-3ebfb1e323b8" d="M123.606,74.288q1.271-17.289,2.536-34.58c.6-8.291,1.166-16.585,1.75-24.877q.44-6.255.9-12.509A3.017,3.017,0,0,1,129.128.7a2.18,2.18,0,0,1,1.607-.7c.3.027.76.891.742,1.362-.071,1.863-.3,3.72-.478,5.579-.164,1.68-.375,3.356-.509,5.038-.3,3.739-.568,7.48-.837,11.221q-.633,8.785-1.25,17.57-.819,11.668-1.623,23.337c-.263,3.791-.544,7.582-.764,11.376-.058.992-.369,1.709-1.424,1.7-1.211-.007-.993-1.012-1.035-1.776A10.918,10.918,0,0,1,123.606,74.288Z"/><path class="b525b31c-ed18-4151-9240-3ebfb1e323b8" d="M138.582,205l1.233.744.284-.24-1.031-1.6c.822-.732,1.632-2,2.629-2.17a3.123,3.123,0,0,1,2.574,1.734c.229.945-.654,2.16-1.129,3.46.718.58,1.157,1.413.145,2.654-.681.836.391,1.157.933,1.493.71.44,1.7.7,1.45,1.791-.265,1.165-.047,2.651-1.607,3.07l5.22,6.136c-.966-2.293-3.351-3.838-3.226-6.8.528.485.868,1.038,1.313,1.144.531.126,1.152-.192,1.736-.2a1.894,1.894,0,0,1,1.269.291,39.711,39.711,0,0,1,2.888,3.443,1.854,1.854,0,0,1,.3,1.383c-.321,1.259-.791,2.481-1.227,3.787l-1.147-1.093c-.261.545-.49,1.024-.751,1.567l-1.911-.492.922,1.81-.275.219a3.546,3.546,0,0,0-.924-.667c-.72-.22-1.39-.494-1.933.554-.736,1.421-1.727,1.289-2.645-.045a40.285,40.285,0,0,0-2.771-3.523c-.766-.885-1.617-1.735-.767-2.948a3.167,3.167,0,0,1,3.909-.43,3.079,3.079,0,0,0,.44.231c-.182-1.047-.353-2.026-.575-3.3-1.33,1.477-2.147.752-3-.2a21.706,21.706,0,0,0-2.139-2.028c-.986-.84-.876-1.6.253-2.3a2.139,2.139,0,0,0,.971-1.261,5.639,5.639,0,0,0-.985-4.784,8.467,8.467,0,0,1-.742-1.221Z"/><path class="b525b31c-ed18-4151-9240-3ebfb1e323b8" d="M202.164,276.829c-2.428-3.267-4.77-6.6-7.319-9.773-1.487-1.851-3.309-3.433-4.973-5.144-.585-.6-1.216-1.148-.8-2.2.107-.269-.415-.854-.738-1.214-1.237-1.377-1.2-1.614.565-2.5-.431-.46-.872-.879-1.25-1.348-.352-.438-.637-.93-.952-1.4l1.673-1.027-1.526-1c-.384-.252-.906-.422-1.117-.776-.238-.4-.427-1.173-.216-1.41a1.506,1.506,0,0,1,1.438-.276,12.721,12.721,0,0,1,2.641,2.075c4,4.172,7.947,8.4,11.927,12.589,1.293,1.363,2.617,2.7,3.953,4.017a1.811,1.811,0,0,1,.308,2.721,9.368,9.368,0,0,0-.8,2.069A12.683,12.683,0,0,1,202.433,270c-2.456-3.791-5.924-6.578-9.162-9.6,1.34,1.644,2.685,3.284,4.019,4.934.822,1.017,1.576,2.095,2.449,3.066,1.452,1.613,2.925,3.215,4.488,4.719.908.874,2.02,1.544.811,2.941a.407.407,0,0,0-.052.13c-.782,2.14-1.107,2.206-2.873.589Zm-8.1-18.952-.422.434,9.472,9.835.408-.388A69.258,69.258,0,0,0,194.059,257.877Zm1.381,6.839-.59.357,1.855,2.737.651-.453Z"/><path class="b525b31c-ed18-4151-9240-3ebfb1e323b8" d="M21.677,49.8a15.827,15.827,0,0,1,2.122.869c6.871,4.056,13.846,7.952,20.549,12.27,6.347,4.088,12.337,8.725,18.616,12.925,3.148,2.105,6.627,3.71,9.885,5.659,3.616,2.162,7.158,4.449,10.708,6.72.271.173.346.653.512.99-.461.129-1.008.484-1.367.346A30.892,30.892,0,0,1,78.623,87.7c-2.769-1.558-5.389-3.41-8.243-4.781-6.912-3.321-13-7.862-19.126-12.377A153.386,153.386,0,0,0,31.7,58.068c-3.359-1.767-6.51-3.929-9.754-5.915C21.01,51.583,21.034,50.843,21.677,49.8Z"/><path class="b525b31c-ed18-4151-9240-3ebfb1e323b8" d="M95.116,83.075c-.393.471-.716,1.211-1.124,1.26a2.094,2.094,0,0,1-1.63-.71c-1.739-2.274-3.376-4.627-5.04-6.957A300.661,300.661,0,0,0,67.047,51.945c-4.211-4.739-8.3-9.587-12.427-14.4A4.6,4.6,0,0,1,53.573,35.9a1.863,1.863,0,0,1,.454-1.426c.169-.2.836-.143,1.179.015a3.176,3.176,0,0,1,1.029.933c2.055,2.564,4,5.223,6.156,7.7,2.776,3.184,5.805,6.148,8.565,9.345q5.608,6.493,10.958,13.208C86.142,71,90.222,76.454,94.359,81.858,94.605,82.18,94.791,82.549,95.116,83.075Z"/><path class="b525b31c-ed18-4151-9240-3ebfb1e323b8" d="M198.3,340.549q-2.352-2.1-4.7-4.2c-.564-.507-1.272-1.066-.547-1.868.7-.778,1.391-.376,2.049.242,2.973,2.794,5.978,5.553,8.948,8.35a6.251,6.251,0,0,1,.875,1.257c.807,1.279,1.573,2.581,3.279,2.846.285.043.714.323.758.554.275,1.447,1.587,2,2.378,2.991a37.643,37.643,0,0,1,3.7,5.644c.281.522-.333,1.525-.61,2.589-1.25-1.07-2.051-2.177-3.557-1.481-.253.117-.907-.369-1.232-.713-4.576-4.835-9.086-9.733-13.7-14.532-2.635-2.741-5.431-5.328-8.142-8a5.4,5.4,0,0,1-.754-1.015c-.491-.788-.724-1.629.234-2.2s1.285.32,1.7.922a37.779,37.779,0,0,0,9.067,8.9Z"/><path class="b525b31c-ed18-4151-9240-3ebfb1e323b8" d="M115.438,73.772c-.318.3-.794,1.082-1.245,1.068a1.975,1.975,0,0,1-1.4-1.213c-1.241-4.569-2.2-9.221-3.584-13.742-1.138-3.709-2.83-7.245-4.137-10.908-3.246-9.1-6.4-18.23-9.617-27.342-.593-1.68-1.323-3.311-1.9-4.994-.265-.764-.643-1.822.445-2.168,1.015-.322,1.661.355,2.031,1.4q4.938,13.92,9.949,27.812c1.965,5.468,4.062,10.892,5.894,16.4,1.252,3.77,2.158,7.655,3.2,11.5C115.225,72.17,115.275,72.786,115.438,73.772Z"/><path class="b525b31c-ed18-4151-9240-3ebfb1e323b8" d="M24.921,62.539c.358.21.705.44,1.075.626,3.717,1.872,7.45,3.714,11.155,5.61,2.21,1.132,4.381,2.34,6.567,3.519,3.592,1.937,7.167,3.906,10.775,5.812,7.775,4.107,15.542,8.229,23.368,12.235a11.216,11.216,0,0,1,4.279,3.5c.237.339.007,1-.008,1.52-.5-.033-1.167.133-1.464-.127C75.775,90.953,69.726,88.7,64.1,85.718Q52,79.307,39.854,72.975c-4.744-2.472-9.532-4.861-14.3-7.3a4.37,4.37,0,0,1-1.421-.881,2.109,2.109,0,0,1-.3-1.391,5.082,5.082,0,0,1,.488-1.331Z"/><path class="b525b31c-ed18-4151-9240-3ebfb1e323b8" d="M119.388,69.116c-.112.864.007,2.04-1.1,2.163-1.225.135-1.224-1.132-1.374-1.936-.645-3.457-1.084-6.957-1.813-10.4q-3.325-15.689-6.827-31.34c-1.379-6.177-2.9-12.322-4.353-18.482-.054-.228-.067-.466-.119-.694-.2-.9-.034-1.653.989-1.823.969-.16,1.481.44,1.657,1.332.255,1.288.435,2.593.723,3.874,1.573,7,3.2,13.983,4.749,20.986,1.922,8.681,3.826,17.367,5.658,26.068C118.291,62.261,118.79,65.7,119.388,69.116Z"/><path class="b525b31c-ed18-4151-9240-3ebfb1e323b8" d="M40.332,115.773q11.773-1.143,23.546-2.3c1.54-.152,3.068-.464,4.61-.558a2.827,2.827,0,0,1,1.771.56,1.906,1.906,0,0,1,.6,1.464c-.023.256-.792.592-1.252.642-7.744.847-15.481,1.816-23.246,2.41-4.808.369-9.668.005-14.492.246-4.728.236-9.439.82-14.157,1.254-.187.018-.369.076-.555.1-1.047.115-2.132.062-2.347-1.193-.235-1.369,1.03-1.459,1.882-1.554,3.31-.368,6.63-.681,9.954-.893,4.543-.29,9.093-.468,13.64-.693Z"/><path class="b525b31c-ed18-4151-9240-3ebfb1e323b8" d="M111.055,74.368c-.173.287-.292.708-.562.86a.937.937,0,0,1-.877-.233,8.107,8.107,0,0,1-1.177-1.87c-2.351-5.617-4.582-11.285-7.01-16.867-2.876-6.61-5.939-13.138-8.87-19.725q-3.765-8.459-7.4-16.976c-1.373-3.231-2.571-6.536-3.882-9.794-.313-.779-.88-1.47-1.11-2.264-.136-.47.16-1.066.261-1.6.467.168,1.168.2,1.361.527a33.954,33.954,0,0,1,2.145,4.26c3.521,8.584,6.9,17.227,10.525,25.768,1.955,4.608,4.369,9.02,6.445,13.58,2.952,6.484,5.815,13.009,8.643,19.549A47.708,47.708,0,0,1,111.055,74.368Z"/><path class="b525b31c-ed18-4151-9240-3ebfb1e323b8" d="M71.589,99.474c-2.373-.649-4.49-1.249-6.619-1.806-8.343-2.182-16.7-4.29-25.028-6.544C33.56,89.4,27.227,87.485,20.868,85.672a24.674,24.674,0,0,0-2.471-.529c-.858-.15-1.329-.716-1.085-1.468A2.086,2.086,0,0,1,18.6,82.524a3.765,3.765,0,0,1,1.765.3C27.68,84.852,34.974,86.972,42.32,88.9c3.9,1.021,7.9,1.621,11.813,2.584,2.494.613,4.9,1.59,7.364,2.316,3.183.936,6.411,1.723,9.573,2.72a3.512,3.512,0,0,1,1.61,1.637C72.778,98.323,71.988,99.007,71.589,99.474Z"/><path class="b525b31c-ed18-4151-9240-3ebfb1e323b8" d="M64.018,308.307l-1.605-.476c-.567,1.181-3.978,2.963-5.3,2.771a2.5,2.5,0,0,1-.017.827c-.162.436-.328,1.033-.669,1.2a1.508,1.508,0,0,1-1.378-.17,43.149,43.149,0,0,1-5-5.311c-.739-1.024-1.254-2.9-.8-3.916.556-1.255,2.153-2.135,3.457-2.914.329-.2,1.256.609,1.878.937-.1-.611-.451-1.387-.226-1.917.181-.429,1.061-.562,1.847-.927a2.325,2.325,0,0,1,.063-.712c.292-1.08.992-1.278,1.851-.565q3.894,3.231,7.791,6.458c1.139.948.973,2.149-.269,2.978A11,11,0,0,0,64.018,308.307Zm-1.686-3.956.351-.429-6.025-4.854-.221.267Zm-6.385,5.263.366-.447-3.205-2.656-.307.37Z"/><path class="b525b31c-ed18-4151-9240-3ebfb1e323b8" d="M61.347,35.392c1.337-1.02,2.343-1.023,3.167-.025q3.269,3.959,6.441,7.994c3.758,4.8,7.425,9.68,11.221,14.453C87.547,64.567,93,71.252,98.412,77.974a2.488,2.488,0,0,1,.665,1.19,6.437,6.437,0,0,1-.338,1.7,5.206,5.206,0,0,1-1.618-.5,9.813,9.813,0,0,1-1.9-1.852Q88.61,70.111,82.051,61.663c-4.816-6.183-9.61-12.383-14.445-18.551C65.586,40.536,63.484,38.024,61.347,35.392Z"/><path class="b525b31c-ed18-4151-9240-3ebfb1e323b8" d="M191.092,241.83c.95.955,1.932,1.882,2.844,2.872,3.406,3.7,6.757,7.442,10.2,11.107,1.5,1.6,3.184,3.035,4.753,4.577.986.969.907,1.7.023,2.323a6.436,6.436,0,0,1,.15,2.164c-.077.273-1,.309-1.6.471a1.031,1.031,0,0,1,.17.486c-.036.385-.057.921-.3,1.094a1.206,1.206,0,0,1-1.093-.146,5.019,5.019,0,0,1-1.11-1.261,54.153,54.153,0,0,0-8.4-9.264c-3.464-3.233-6.622-6.792-9.915-10.208a1.515,1.515,0,0,1,.131-2.26c.666-.755,1.433-.477,2.073.145q7.534,7.322,15.045,14.665a11.977,11.977,0,0,1,1.239,1.729l.474-.444c-.4-.468-.794-.945-1.209-1.4-4.485-4.939-8.749-10.1-14.051-14.229-.661-.515-1.477-.839-2.1-1.388a1.6,1.6,0,0,1-.544-1.3c.217-.575.731-1.118,1.549-.6.546.348,1.145.612,1.72.913Zm3.618,9.613-.316.275,12.479,12.872C203.757,259.342,199.078,255.537,194.71,251.443Z"/><path class="b525b31c-ed18-4151-9240-3ebfb1e323b8" d="M127.469,72.344c.216-.866.322-1.419.493-1.952,3.98-12.417,6.921-25.1,9.815-37.8,1.405-6.165,3.074-12.271,4.618-18.4.138-.545.21-1.106.36-1.647.229-.825.751-1.357,1.649-1.112.971.264,1.129,1.012.876,1.9-.913,3.2-1.591,6.486-2.79,9.571-1.6,4.111-2.092,8.449-3.149,12.666q-3.846,15.334-7.609,30.691c-.516,2.09-.919,4.21-1.526,6.272a1.733,1.733,0,0,1-1.388.963C128.29,73.4,127.864,72.708,127.469,72.344Z"/><path class="b525b31c-ed18-4151-9240-3ebfb1e323b8" d="M188.714,269.253a7.891,7.891,0,0,1-1.614-1.53,1.894,1.894,0,0,1-.038-1.677c.455-.675,1.168-.455,1.635.172,2.339,3.141,5.536,5.6,7.319,9.188a5.926,5.926,0,0,0,1.094,1.236c.192.2.549.364.586.585.481,2.857,3.075,4.184,4.5,6.344a3.221,3.221,0,0,1,.212,1.574c.011.355-.219.744-.137,1.066.3,1.183.468,2.2-1.271,2.218-.16,0-.345.378-.471.606-.725,1.311-1.4,1.368-2.241.145-3.075-4.482-6.1-9-9.23-13.442a34.632,34.632,0,0,0-3.307-3.785c-.528-.556-1.224-.967-.662-1.859.743-1.177,1.894-1.655,2.775-1.166a8.172,8.172,0,0,1,.681.464Zm1.617,1.8q2.976,4.066,5.951,8.132l.291-.212A26.56,26.56,0,0,0,190.331,271.052Z"/><path class="b525b31c-ed18-4151-9240-3ebfb1e323b8" d="M43.564,46.256a10.887,10.887,0,0,1,1.7,1.162q7.291,6.846,14.525,13.753Q71.8,72.66,83.767,84.192c.332.32.757.71.81,1.111a1.8,1.8,0,0,1-.42,1.438,1.481,1.481,0,0,1-1.435-.042c-1.233-1.079-2.337-2.3-3.514-3.45-1.844-1.8-3.732-3.548-5.558-5.363-1.563-1.553-3-3.233-4.606-4.742Q56.126,60.976,43.158,48.86a3.522,3.522,0,0,1-1.043-1.271C41.879,46.853,42.047,46.145,43.564,46.256Z"/><path class="b525b31c-ed18-4151-9240-3ebfb1e323b8" d="M25.631,148.944a21.4,21.4,0,0,1,2.2-1.362A174.421,174.421,0,0,0,44.1,138.623c6.753-4.051,13.735-7.723,20.622-11.551,1.671-.929,3.317-1.916,5.046-2.721,1.425-.664,2.331-.087,2.239,1.359a1.913,1.913,0,0,1-1,1.213c-3.5,1.8-7.125,3.391-10.552,5.326-8.251,4.659-16.409,9.483-24.619,14.215-2.316,1.334-4.687,2.573-7.026,3.868-.849.47-1.473.4-1.96-.547C26.683,149.475,26.206,149.328,25.631,148.944Z"/><path class="b525b31c-ed18-4151-9240-3ebfb1e323b8" d="M149.65,337.854a28.717,28.717,0,0,1-5.094,3.428c-1.452.633-3.238.775-4.416,2.112a1.428,1.428,0,0,1-1.363.019,46.949,46.949,0,0,1-4.1-3.2c-.964-.85-.6-2,.649-2.331.359-.094.749-.068,1.114-.146s.694-.213,1.028-.319c-.385-2.052.028-2.478,2.049-2.257a1.583,1.583,0,0,0,.822-.029c.922-.467,1.776-1.09,2.728-1.473a25.888,25.888,0,0,1,3.805-1.169c.287-.067.735.347,1.04.618.45.4.837.868,1.479,1.549-.187-1.181-.986-2.286.506-2.666a1.665,1.665,0,0,1,1.243.249c1.191.89,2.3,1.89,3.471,2.808.8.626,1.993,1.111,1.258,2.4-.7,1.227-1.748.64-2.66.151C152.036,339.7,151.9,339.706,149.65,337.854Z"/><path class="b525b31c-ed18-4151-9240-3ebfb1e323b8" d="M197.022,364.933a3.679,3.679,0,0,1-.753-.392q-6.578-5.022-13.136-10.068c-3.5-2.69-7.047-5.313-10.443-8.124a60.655,60.655,0,0,1-5.067-5.074c-1.015-1.066-.883-1.561.406-2.889.916-.944,1.641-.523,2.407.186,3.2,2.958,6.323,6,9.627,8.838,5.41,4.643,10.944,9.142,16.408,13.723a9.858,9.858,0,0,1,1.934,2C199.043,364.093,198.43,364.975,197.022,364.933Z"/><path class="b525b31c-ed18-4151-9240-3ebfb1e323b8" d="M83.2,118.811a11.38,11.38,0,0,0,1.794.695,3.064,3.064,0,0,0,1.245-.178c1.166-.276,2.317-.642,3.5-.814.278-.04.934.566.911.832-.041.488-.426,1.329-.722,1.353-2.807.233-4.546,2.036-6.254,3.957a7.871,7.871,0,0,1-1.392,1.015c-.137-.518-.288-1.033-.405-1.555a6.583,6.583,0,0,1-.056-.9c-1.148.64-2.209,1.21-3.248,1.815a2.869,2.869,0,0,1-3.426-.165,3.1,3.1,0,0,1-.861-1.753c-.195-1,.436-1.214,1.169-.747a2.563,2.563,0,0,0,3.122-.258c1.314-.893,2.65-1.753,3.639-2.4l.21-3.413c-1.24.731-2.69,1.59-4.145,2.442-1.275.746-2.479.157-3.623-.326a1.362,1.362,0,0,1-.322-1.288c.237-.454,1-1.111,1.255-1,2.683,1.146,4.053-.809,5.847-2.258a3.841,3.841,0,0,0-3.731-.022,4.685,4.685,0,0,1-1.646.178c.165-.67.139-1.5.535-1.977.858-1.038,2.141-1.1,3.454-1.212,2.538-.221,5.059-.681,7.572-1.123.383-.068.654-.632,1.041-.851a1.324,1.324,0,0,1,1.024-.177c.213.1.34.622.312.938-.124,1.371-1.2,2.195-2.875,2.386a11.009,11.009,0,0,0-1.686.46,8.362,8.362,0,0,0,1,1.52c.867.858.778,1.781-.352,2.3A5.046,5.046,0,0,0,83.2,118.811Z"/><path class="b525b31c-ed18-4151-9240-3ebfb1e323b8" d="M106.1,71.73l-1.138,1.575c-.511-.4-1.243-.682-1.5-1.2C97.95,60.989,91.051,50.687,84.814,40c-1.132-1.94-2.1-3.974-3.151-5.964-.506-.961-.516-1.91.546-2.4,1.041-.483,1.516.48,1.923,1.178Q91.784,45.93,99.38,59.079c2.129,3.7,4.164,7.447,6.224,11.183A10.013,10.013,0,0,1,106.1,71.73Z"/><path class="b525b31c-ed18-4151-9240-3ebfb1e323b8" d="M70.052,204.587a11.985,11.985,0,0,1,1.021-2.377c3.321-4.6,6.805-9.094,10.031-13.763,2.442-3.534,4.539-7.3,6.87-10.916,1.093-1.693,2.4-3.243,3.564-4.9,1.535-2.185,3.017-4.407,4.535-6.632,2.054.479,2.379,1.058,1.211,2.822Q91.8,177.1,86.189,185.3c-4.23,6.15-8.542,12.244-12.817,18.363C72.644,204.7,71.813,205.463,70.052,204.587Z"/><path class="b525b31c-ed18-4151-9240-3ebfb1e323b8" d="M88.738,158.116a14.316,14.316,0,0,1-.983,1.653c-3.852,4.979-7.786,9.9-11.58,14.919-4.859,6.434-9.614,12.946-14.4,19.437-.351.476-.538,1.07-.853,1.577-.446.718-1.2.984-1.77.4a2.124,2.124,0,0,1-.4-1.771,6.836,6.836,0,0,1,1.253-2.018q10.567-14.093,21.154-28.169c1.552-2.064,3.115-4.121,4.713-6.149a3.255,3.255,0,0,1,1.286-1.036C87.968,156.647,88.5,157.065,88.738,158.116Z"/><path class="b525b31c-ed18-4151-9240-3ebfb1e323b8" d="M87.371,86.022c-.426-.355-.909-.56-1.037-.9a16.049,16.049,0,0,0-4.81-6.161C74.58,72.774,68.833,65.5,62.854,58.439c-3.763-4.445-7.654-8.781-11.479-13.173a9.962,9.962,0,0,1-1.461-1.885A1.707,1.707,0,0,1,50.1,42c.092-.156.844-.077,1.188.1a4.1,4.1,0,0,1,1.149,1.019q7.08,8.312,14.134,16.645a203.939,203.939,0,0,0,17.6,18.844,38.7,38.7,0,0,1,4.3,5.3,1.509,1.509,0,0,1,.074,1.3C88.386,85.536,87.867,85.7,87.371,86.022Z"/><path class="b525b31c-ed18-4151-9240-3ebfb1e323b8" d="M62.4,296.437a5.633,5.633,0,0,0,.667.807c2.143,1.806,4.288,3.61,6.463,5.379.706.575,1.633,1.06.832,2.116-.817,1.077-1.681.469-2.406-.183-2.167-1.946-4.286-3.945-6.461-5.883a22.748,22.748,0,0,0-2.578-1.959c-.768-.508-1.51-1.1-.912-2.011a1.349,1.349,0,0,1,2.2-.16c1.213-1.159,1.006-2.455,0-3.814,2.759-.007,1.915,3.047,4.133,3.5-.451-.591-.911-.94-1-1.364a9.251,9.251,0,0,1,.015-2.029c.581.1,1.331,0,1.718.335,3.072,2.621,6.075,5.321,9.1,8a1.024,1.024,0,0,1,.347.431,2.309,2.309,0,0,1,.119,1.084,14.641,14.641,0,0,1-1.169,3.26c-.111.2-1.538-.021-2.053-.431-2.5-1.989-4.885-4.114-7.324-6.175-.479-.405-1.016-.742-1.526-1.11Zm9.457,3.748c-1.782-1.7-3.563-3.4-5.406-5.158C65.962,296.173,69.389,299.513,71.853,300.185Z"/><path class="b525b31c-ed18-4151-9240-3ebfb1e323b8" d="M160.474,310.06c.389,1.435-.136,2.007-1.633,1.864-.509.591-.9,1.438-1.351,1.468-.525.035-1.211-.542-1.632-1.024-2.47-2.826-4.884-5.7-7.316-8.562a6.713,6.713,0,0,1-.611-.771c-.421-.68-1-1.467-.082-2.088.83-.561,1.4.031,1.972.719,2.463,2.954,4.993,5.853,7.5,8.768.071.083.209.109.548.277a7.284,7.284,0,0,0-.632-1.123c-2.064-2.368-4.176-4.7-6.2-7.1a3.055,3.055,0,0,1-.765-1.934c.023-.375.907-.7,1.5-1.11a1.069,1.069,0,0,1-.181-.57c.1-.6.133-1.458.512-1.687a2.384,2.384,0,0,1,1.876.05,3.9,3.9,0,0,1,1.439,1.311c2.169,2.942,4.329,5.892,6.4,8.9a2.531,2.531,0,0,1,.281,1.924C162.011,309.706,161.135,309.805,160.474,310.06Zm-7.817-9.951-.184.3,6.474,7.755.286-.22c-1.65-2.349-3.265-4.725-4.982-7.023C153.931,300.493,153.2,300.372,152.657,300.109Z"/><path class="b525b31c-ed18-4151-9240-3ebfb1e323b8" d="M75.327,139.8a10.283,10.283,0,0,1-1.123,1.262c-5.4,4.36-10.884,8.619-16.2,13.077-3.334,2.794-6.42,5.885-9.624,8.835-1.586,1.461-3.17,2.925-4.791,4.345-.588.515-1.324.89-1.956.058-.648-.854-.107-1.434.542-2.019,1.461-1.316,2.84-2.723,4.318-4.018q10.214-8.945,20.481-17.831c1.916-1.649,3.99-3.119,6.036-4.611a1.778,1.778,0,0,1,1.395-.258C74.761,138.754,74.97,139.32,75.327,139.8Z"/><path class="b525b31c-ed18-4151-9240-3ebfb1e323b8" d="M207.993,357.722c-1.382,1.857-1.828,1.9-3.249.319a211.726,211.726,0,0,0-24.619-23.561,4.435,4.435,0,0,1-1.366-1.385c-.213-.48.023-1.161.06-1.752.514.092,1.176.009,1.518.3q9.212,7.875,18.343,15.842c2.853,2.494,6.013,4.7,7.988,8.068C207.086,356.267,207.529,356.965,207.993,357.722Z"/><path class="b525b31c-ed18-4151-9240-3ebfb1e323b8" d="M119.425,42.608c0-5.637-.015-11.273.013-16.91a31.222,31.222,0,0,1,.281-3.222c.085-.771.54-1.327,1.3-1.022a1.716,1.716,0,0,1,.826,1.307c.079,6.571.063,13.143.123,19.715.061,6.761.18,13.522.278,20.283a7.986,7.986,0,0,0,.1,1.542c.231,1.067.114,1.987-1.16,2.074-1.223.083-1.214-.921-1.214-1.789q0-10.989,0-21.978Z"/><path class="b525b31c-ed18-4151-9240-3ebfb1e323b8" d="M174.484,214.853c2.177,2.36,4.383,4.695,6.508,7.1a4.033,4.033,0,0,1,.727,1.854c.041.207-.511.777-.672.734a3.6,3.6,0,0,1-1.758-.817c-2.687-3.071-5.313-6.2-7.91-9.345-.261-.317-.2-.9-.288-1.36l1.865-.3a3.508,3.508,0,0,1-.676-1.253,4.837,4.837,0,0,1,.381-1.628,4.607,4.607,0,0,1,1.351.687c2.929,3.1,5.815,6.246,8.719,9.371.084.091.23.123.617-.051-1.538-1.764-3.042-3.559-4.625-5.283-1.047-1.139-2.281-2.111-3.275-3.29-.351-.417-.238-1.225-.337-1.855.565.177,1.308.182,1.669.557,3,3.11,5.953,6.258,8.833,9.476a2.54,2.54,0,0,1,.612,2.127,4.078,4.078,0,0,1-2.043,1.969c-.447.173-1.42-.574-1.946-1.111-2.1-2.149-4.123-4.376-6.169-6.578-.411-.442-.805-.9-1.206-1.351Z"/><path class="b525b31c-ed18-4151-9240-3ebfb1e323b8" d="M39.362,158.144c-.413-.243-.967-.382-1.056-.667a1.419,1.419,0,0,1,.287-1.233,29.673,29.673,0,0,1,4.126-3.377c9.243-5.641,18.541-11.192,27.817-16.777.85-.512,1.623-.777,2.233.337s-.107,1.707-.88,2.156c-9.076,5.27-18.18,10.492-27.244,15.782a44.235,44.235,0,0,0-3.727,2.763C40.44,157.479,39.924,157.779,39.362,158.144Z"/><path class="b525b31c-ed18-4151-9240-3ebfb1e323b8" d="M85.531,202.352c-1.641-.028-1.946-.664-1.31-1.837,2.5-4.622,5.11-9.191,7.518-13.862,2.643-5.128,5.135-10.335,7.627-15.538a1.5,1.5,0,0,1,2.052-.9c.97.323,1,1.2.69,2a30.1,30.1,0,0,1-1.423,3.061c-2.446,4.683-4.888,9.369-7.382,14.027q-3.088,5.772-6.313,11.47A7.976,7.976,0,0,1,85.531,202.352Z"/><path class="b525b31c-ed18-4151-9240-3ebfb1e323b8" d="M118.581,109.168c2.412.033,4.657,1.489,6.532,3.576a1.466,1.466,0,0,1-.243,1.411,2.439,2.439,0,0,1-1.7.46c-.425-.054-.8-.59-1.174-.944a4.693,4.693,0,0,0-3.594-1.665c-3.083.229-6.166.49-9.235.852a4.809,4.809,0,0,0-2.294.956c-1.953,1.537-3.785,3.226-5.709,4.8-1.5,1.225-3.028,2.413-4.617,3.511a1.636,1.636,0,0,1-1.485-.033,1.4,1.4,0,0,1-.2-1.333,6.164,6.164,0,0,1,1.522-2.136c3.087-2.44,6.212-4.835,9.409-7.128a7.851,7.851,0,0,1,3.3-1.413C112.063,109.658,115.068,109.488,118.581,109.168Z"/><path class="b525b31c-ed18-4151-9240-3ebfb1e323b8" d="M132.258,73.121c.09-.254.212-.656.373-1.042q5.794-13.9,11.59-27.79c.972-2.335,1.877-4.7,2.832-7.04a9.206,9.206,0,0,1,.817-1.627c.461-.694,1.2-.941,1.769-.3a1.941,1.941,0,0,1,.308,1.684c-1.886,4.374-3.959,8.669-5.8,13.063-2.8,6.7-5.457,13.458-8.16,20.2a22.538,22.538,0,0,1-.815,2.373,4.21,4.21,0,0,1-1.481,1.682C132.785,74.827,132.32,74.222,132.258,73.121Z"/><path class="b525b31c-ed18-4151-9240-3ebfb1e323b8" d="M77.386,142.295c-1.745-1.464-1.071-3.2-.532-4.832.141-.423.956-.623,1.461-.925.234.507.774,1.113.648,1.5a3.155,3.155,0,0,0,1.264,3.934c-.45,1.47-1.493.809-2.231.782a4.855,4.855,0,0,1-.052,1.885c-.251.532-.906.884-1.41,1.282-1.323,1.045-2.7,2.022-3.982,3.115q-6.1,5.2-12.133,10.486a34.139,34.139,0,0,0-3.267,3.288c-.632.728-1.307,1.251-2.129.655-.965-.7-.355-1.627.207-2.193,1.554-1.564,3.194-3.047,4.856-4.5q7.692-6.709,15.438-13.359A13.213,13.213,0,0,1,77.386,142.295Z"/><path class="b525b31c-ed18-4151-9240-3ebfb1e323b8" d="M193.019,124.013c-.947-.244-1.907-.444-2.837-.74-1.595-.508-3.182-1.05-4.745-1.648-.26-.1-.384-.555-.571-.846.314-.131.651-.415.937-.37a73.582,73.582,0,0,1,7.606,1.365,5.627,5.627,0,0,1,2.5,2.089,35.864,35.864,0,0,1,2.665,4.126c.211.361.323,1.173.153,1.287-.433.288-1.268.587-1.556.369-1.026-.773-1.754-.337-2.675.172-3,1.656-6.095,1.081-9.131.087-.445-.146-1.036-.987-.948-1.365.144-.623.788-1.13,1.489-2.03.133,1.875,1.1,2.11,2.256,2.261a6.852,6.852,0,0,0,5.8-1.476,9.192,9.192,0,0,0-2.058-.915c-2.041-.3-4.1-.532-6.157-.666a6.932,6.932,0,0,0-2.027.465,7.174,7.174,0,0,1-1.743.437c-.38,0-.758-.422-1.136-.655.258-.332.447-.816.786-.971,2.009-.92,3.984-1.657,6.34-.917a22.7,22.7,0,0,0,4.943.46Z"/><path class="b525b31c-ed18-4151-9240-3ebfb1e323b8" d="M108.4,123.709a11.648,11.648,0,0,1-2.348,1,.852.852,0,0,1-1-1.234,4.436,4.436,0,0,1,1.51-2.267,24.023,24.023,0,0,1,5.227-1.84c2.49-.586,5.038-.926,7.559-1.381.827-.15,1.789-.486,2.258.447a3.253,3.253,0,0,1,.242,2.168c-1.669,5.743-7.673,7.231-12.277,4.7C109.045,125.008,108.776,124.238,108.4,123.709Zm10.189-2.74-8.527,1.218C113.13,124.909,117.227,124.313,118.589,120.969Z"/><path class="b525b31c-ed18-4151-9240-3ebfb1e323b8" d="M47.775,145.767c-.419-.4-1.08-.778-1.272-1.32-.107-.3.467-1.084.906-1.3,5.07-2.53,10.183-4.973,15.263-7.484,2.307-1.141,4.554-2.4,6.856-3.557a2.654,2.654,0,0,1,1.6-.286,1.289,1.289,0,0,1,.786,1,2.2,2.2,0,0,1-.869,1.411c-2.1,1.229-4.235,2.409-6.414,3.491-5.115,2.539-10.262,5.015-15.4,7.509C48.856,145.406,48.449,145.518,47.775,145.767Z"/><path class="b525b31c-ed18-4151-9240-3ebfb1e323b8" d="M201.063,108.788c-.567.442-1.119,1.18-1.5,1.1a2.845,2.845,0,0,1-1.679-1.251c-1.578-2.766-3-5.623-4.558-8.4-.636-1.131-1.532-2.114-2.219-3.221-.242-.391-.45-1.1-.259-1.4a1.121,1.121,0,0,1,1.821-.171c.456.4.865.849,1.362,1.343a2.9,2.9,0,0,0,.5-.4c.781-.982,1.473-.849,2.071.167,1.45,2.463,2.879,4.937,4.326,7.4.735,1.251,1.442,2.521,2.255,3.719.484.714.988,1.346.125,2.058-.838.689-1.362.006-1.889-.533C201.263,109.032,201.118,108.851,201.063,108.788Zm-3.84-7.4-.709.418L199,105.9l.432-.241Z"/><path class="b525b31c-ed18-4151-9240-3ebfb1e323b8" d="M192.2,303.581c.262-1.538-.822-1.127-1.673-1.019-1.988.253-3.092-.631-3.162-2.588a1.631,1.631,0,0,1,.2-.928c.751-1.1,1.56-2.158,2.342-3.236a2.346,2.346,0,0,1,2.93-1.015,23.585,23.585,0,0,0,2.427.654,3.525,3.525,0,0,1,2.49,2.621c.616,1.778-.917,4.507-2.67,5.162a5.757,5.757,0,0,0-1.932,1.426c-.544.551-1.829.655-2.149-.035-.165-.354,0-.86.009-1.3Z"/><path class="b525b31c-ed18-4151-9240-3ebfb1e323b8" d="M92.125,200.988c-1.549-.042-2.039-.865-1.5-1.891q4.933-9.317,9.858-18.64c.7-1.324,1.5-2.6,2.213-3.918a1.412,1.412,0,0,1,2.038-.623c.892.433.7,1.254.3,1.949-.816,1.423-1.764,2.773-2.517,4.227-2.756,5.324-5.451,10.68-8.178,16.019a14.085,14.085,0,0,1-1.185,2.072A4.1,4.1,0,0,1,92.125,200.988Z"/><path class="b525b31c-ed18-4151-9240-3ebfb1e323b8" d="M210.566,108.576c1.885-.594,2.849-.135,3.494,1.238.714,1.518,1.607,2.953,2.3,4.479a3.154,3.154,0,0,1,.216,1.928,10.848,10.848,0,0,0,.74,6.711c.39,1.026.265,2.239.582,3.3.429,1.441,1.089,2.814,1.586,4.238.137.392.219,1.115.027,1.246-.42.287-1.283.578-1.527.365-1.486-1.3-2.885-2.759-2.859-4.919a11.532,11.532,0,0,0-1.057-5.3,6.094,6.094,0,0,1-.3-3.428,8.875,8.875,0,0,0-1.492-6.671C211.63,110.8,211.163,109.706,210.566,108.576Z"/><path class="b525b31c-ed18-4151-9240-3ebfb1e323b8" d="M161.118,107.3c4.041,1.294,8.3,1.53,10.266,5.916.435.973,1.171,1.807,1.682,2.751a1.357,1.357,0,0,1-.632,2.108c-.971.476-1.354-.122-1.7-.856a6.786,6.786,0,0,1-.488-.853c-1.129-3.77-4.147-5.263-7.578-6.042a13.218,13.218,0,0,0-8.723,1.3c-.824.391-1.677,1.4-2.557.2-.554-.758,0-1.987,1.466-2.445C155.606,108.507,158.455,107.948,161.118,107.3Z"/><path class="b525b31c-ed18-4151-9240-3ebfb1e323b8" d="M279.885,365.413a2.449,2.449,0,0,1-.808-.5c-1.289-1.421-2.628-2.813-3.771-4.348-4.263-5.724-8.458-11.5-13.558-16.536-.133-.132-.318-.268-.354-.43-.127-.577-.2-1.165-.3-1.749.532.179,1.241.2,1.569.561,3.584,3.967,7.148,7.955,10.634,12.009,1.9,2.2,3.619,4.558,5.455,6.816.344.423.915.66,1.268,1.078a7.455,7.455,0,0,1,1.284,1.911C281.649,365.066,281.265,365.585,279.885,365.413Z"/><path class="b525b31c-ed18-4151-9240-3ebfb1e323b8" d="M190.47,236.286l2.174.129c-1.138-.794-2.021-1.4-2.9-2.022-.572-.4-.969-.978-.247-1.446a1.839,1.839,0,0,1,1.677-.1c2.595,2.155,5.117,4.4,7.627,6.655a42.8,42.8,0,0,1,3.3,3.256c.273.305.162.956.227,1.449l-.458.264-6.095-5.53c2.168,2.3,4.114,4.358,6.055,6.422,1.061,1.128,2.12,2.256,3.166,3.4.481.526.853,1.245.075,1.642a1.875,1.875,0,0,1-1.677-.449c-1.872-1.964-3.558-4.107-5.462-6.036-2.075-2.1-4.331-4.03-6.477-6.066A8.909,8.909,0,0,1,190.47,236.286Z"/><path class="b525b31c-ed18-4151-9240-3ebfb1e323b8" d="M139.245,74.27c-1.554-.037-2.007-.823-1.443-1.825a10.224,10.224,0,0,1,.9-1.261c4.258-5.423,7.123-11.676,10.47-17.64.564-1,1.214-1.235,2.131-.761.782.405.978.994.433,1.852-1.344,2.113-2.6,4.284-3.89,6.43-2.442,4.052-4.867,8.115-7.356,12.139A4.566,4.566,0,0,1,139.245,74.27Z"/><path class="b525b31c-ed18-4151-9240-3ebfb1e323b8" d="M79.354,148.964a12.317,12.317,0,0,1-1.1,1.41c-3.491,3.34-7.015,6.645-10.5,9.99-1.285,1.234-2.487,2.552-3.736,3.823-.261.266-.532.644-.849.7a9.025,9.025,0,0,1-1.779.015c.053-.591-.115-1.368.2-1.741a60.178,60.178,0,0,1,4.123-4.418C68.528,156,71.4,153.305,74.26,150.6c.988-.933,1.991-1.856,3.054-2.7a1.434,1.434,0,0,1,1.245-.209C78.892,147.859,79.034,148.416,79.354,148.964Z"/><path class="b525b31c-ed18-4151-9240-3ebfb1e323b8" d="M189.392,110.668c-1.85-3.19-3.726-6.431-5.61-9.667-.4-.691-.545-1.244.351-1.733.458-.25.742-.813,1.121-1.219.713-.762,1.378-.617,1.905.254,1.982,3.275,4.051,6.5,5.982,9.8a2.5,2.5,0,0,1,.125,2.118c-.412.7-1.189.735-2.013.044C190.932,110,189.936,110.534,189.392,110.668Z"/><path class="b525b31c-ed18-4151-9240-3ebfb1e323b8" d="M143.946,75.842a1.171,1.171,0,0,1-1.021-1.9q3.7-6.06,7.491-12.07c1.5-2.372,3.094-4.688,4.67-7.013a1.934,1.934,0,0,1,.9-.829,1.591,1.591,0,0,1,1.24.26,1.151,1.151,0,0,1,.117,1.075,20.17,20.17,0,0,1-1.424,2.4c-2.859,4.284-5.745,8.55-8.585,12.846-.32.485-.323,1.174-.625,1.678-.681,1.133-1.443,2.219-2.206,3.3C144.389,75.752,144.088,75.782,143.946,75.842Z"/><path class="b525b31c-ed18-4151-9240-3ebfb1e323b8" d="M188.02,115.428a8.7,8.7,0,0,1,1.926-.287c1.776.129,3.55.33,5.312.591a4.521,4.521,0,0,1,1.954.7,51.008,51.008,0,0,1,5.144,4.1,7.35,7.35,0,0,1,1.439,2.825c.655,1.8,1.145,3.661,1.8,5.464.319.884.182,1.622-.694,1.771-.815.138-2.009.442-2.306-.872-.4-1.78-.689-3.586-1-5.385-.309-1.767-1.437-2.885-2.687-4.112-2.452-2.41-5.444-2.874-8.593-3.211a10.334,10.334,0,0,1-2.366-.861Z"/><path class="b525b31c-ed18-4151-9240-3ebfb1e323b8" d="M115.27,305.677l2.337,1.54a10.358,10.358,0,0,1-1.868,2.094,5.113,5.113,0,0,1-6.9-1.189,2.291,2.291,0,0,1-.157-2.739c1.147-1.9,2.346-3.754,4.951-3.415a4.033,4.033,0,0,1,2.354,1.1c.275.309-.268,1.365-.468,2.075A2.532,2.532,0,0,1,115.27,305.677Z"/><path class="b525b31c-ed18-4151-9240-3ebfb1e323b8" d="M69.45,286.068c1.033.985,2.09,1.947,3.1,2.959,3.046,3.066,6.063,6.161,9.113,9.223.791.794,1.644,1.529,2.495,2.261.738.636,1.066,1.274.315,2.134-.8.918-1.382.2-1.861-.3-2.647-2.738-5.181-5.589-7.888-8.266-2.39-2.363-4.57-5.011-7.716-6.487-1.093-.513-1.116-1.309-.541-2.2.6-.932,1.259-.469,1.9,0,.361.261.751.483,1.128.723Z"/><path class="b525b31c-ed18-4151-9240-3ebfb1e323b8" d="M173.1,151.923a2.144,2.144,0,0,1-3-.943,10.442,10.442,0,0,0-2.357-1.946c-.06,1.059.167,2.1-.2,2.4a2.888,2.888,0,0,1-2.253.347,39.272,39.272,0,0,1-5.02-1.764c-1.557-.647-1.711-1.226-1.009-2.774.074-.163.2-.37.158-.507-.593-1.791.535-1.344,1.569-1.333,3.332.038,6.057,2.047,9.2,2.718C172.069,148.524,172.59,150.269,173.1,151.923Zm-11.924-4.7-.166.48,3.288,1.207.229-.678Z"/><path class="b525b31c-ed18-4151-9240-3ebfb1e323b8" d="M226.467,289.3c-1.067-2.271-2.129-4.545-3.2-6.813A80.97,80.97,0,0,0,215.3,268.44c-.223-.3-.565-.631-.567-.949a8.65,8.65,0,0,1,.325-1.745c.546.184,1.346.2,1.6.578a64.422,64.422,0,0,1,3.293,5.567c2.238,4.28,4.406,8.6,6.574,12.915a9.221,9.221,0,0,1,.939,2.486,6.281,6.281,0,0,1-.307,1.99Z"/><path class="b525b31c-ed18-4151-9240-3ebfb1e323b8" d="M151.392,102.035a6.755,6.755,0,0,1,.771-2c2.472-2.968,4.8-3.534,8.448-2.2.3.11.622.18.829.239,2.067-2.2,4.034-4.385,6.113-6.454a7.087,7.087,0,0,1,2.121-1l.51.464a8.771,8.771,0,0,1-1.059,2.16c-1.932,2.156-3.978,4.208-5.955,6.323-.715.765-1.457,1.35-2.552.852a6.781,6.781,0,0,0-8.017,1.437,3.967,3.967,0,0,1-.689.419Z"/><path class="b525b31c-ed18-4151-9240-3ebfb1e323b8" d="M229.374,289.164c-.153-.4-.284-.808-.463-1.195-.314-.68-.657-1.347-.989-2.019q-4.754-9.637-9.52-19.269c-.375-.754-.655-1.432.285-1.884.879-.422,1.246.222,1.578.9q5.025,10.287,10.06,20.569a2.746,2.746,0,0,1,.4,1.322,3.581,3.581,0,0,1-.629,1.2Z"/><path class="b525b31c-ed18-4151-9240-3ebfb1e323b8" d="M219,353.386c-.407.52-.64,1.078-1.031,1.231-.286.111-.9-.209-1.162-.513-1.47-1.694-2.843-3.472-4.314-5.165-2.861-3.29-5.766-6.541-8.65-9.811-.185-.21-.341-.446-.517-.665-.471-.587-.6-1.125.065-1.7.7-.609,1.131-.282,1.619.289q4.518,5.292,9.077,10.552c1.232,1.412,2.574,2.728,3.824,4.126A13.592,13.592,0,0,1,219,353.386Z"/><path class="b525b31c-ed18-4151-9240-3ebfb1e323b8" d="M231.793,286.884a21.634,21.634,0,0,1-1.433-2.24c-2.583-5.413-5.115-10.85-7.7-16.261-.483-1.011-1.172-1.921-1.693-2.916-.347-.662-.464-1.378.421-1.785.854-.393,1.295.064,1.638.8q4.237,9.034,8.5,18.058a8.813,8.813,0,0,0,.842,1.62C233.075,285.085,232.994,285.866,231.793,286.884Z"/><path class="b525b31c-ed18-4151-9240-3ebfb1e323b8" d="M149.355,75.326c-.585-.311-1.123-.437-1.162-.653a1.8,1.8,0,0,1,.266-1.271q2.324-3.093,4.754-6.108c2.182-2.7,4.4-5.373,6.622-8.043.292-.351.677-.851,1.038-.868a2.82,2.82,0,0,1,1.691.533c.162.12,0,1.026-.279,1.344-2.114,2.427-4.362,4.739-6.429,7.2-1.645,1.96-3.064,4.107-4.646,6.123A16.23,16.23,0,0,1,149.355,75.326Z"/><path class="b525b31c-ed18-4151-9240-3ebfb1e323b8" d="M91.792,123a4.909,4.909,0,0,1-3.585,4.017,6.21,6.21,0,0,0-2.581,1.764,12.129,12.129,0,0,1-7.585,4.671c-.775.118-1.507.52-2.282.631a1.566,1.566,0,0,1-1.3-.37,1.405,1.405,0,0,1,.18-1.337,5.2,5.2,0,0,1,1.675-.958c2.047-.9,4.179-1.628,6.139-2.682a24.838,24.838,0,0,0,3.223-2.661c.805-.632,1.706-1.141,2.532-1.747.656-.481,1.242-1.057,1.9-1.531a2.032,2.032,0,0,1,1.161-.478C91.5,122.338,91.7,122.876,91.792,123Z"/><path class="b525b31c-ed18-4151-9240-3ebfb1e323b8" d="M162.857,114.883c-.586-.819-1.176-1.646-1.767-2.473l.159-.3a4.794,4.794,0,0,1,1.2.521c1.784,1.452,3.579,2.9,5.272,4.449a18.875,18.875,0,0,1,2.432,2.88c.2.279.032.828.032,1.253a3.971,3.971,0,0,1-1.243-.3c-1.727-1.112-3.3-2.552-5.144-3.371a10.031,10.031,0,0,0-8.713.13c-.783.381-1.619.937-2.09-.256-.442-1.119.43-1.565,1.291-1.933C157.064,114.293,159.942,114.666,162.857,114.883Z"/><path class="b525b31c-ed18-4151-9240-3ebfb1e323b8" d="M181.859,198.106l-7.547-7.674.982-.73-1.179-1.918,1.423-.6c-.717-.666-1.681-1.2-2.034-2-.306-.7.078-1.7.191-2.943a34.158,34.158,0,0,1,3.675,3.132c.8.9.367,1.93-.8,2.821,1.135.708,2.151,1.347,3.172,1.978.277.171.76.27.815.486a9.942,9.942,0,0,1,.149,1.811c-.5-.052-1.1.056-1.473-.189a26.529,26.529,0,0,1-2.4-1.971l-.241.294c1.983,1.742,3.991,3.457,5.927,5.25a5.167,5.167,0,0,1,.8,1.562l-1.51.644Z"/><path class="b525b31c-ed18-4151-9240-3ebfb1e323b8" d="M196.774,234.19c1.088.955,2.184,1.9,3.262,2.869a6.836,6.836,0,0,1,1.575,1.584c.219.406-.076,1.089-.141,1.649-.444-.157-1.1-.18-1.3-.492-1.827-2.906-4.649-4.75-7.224-6.842a13.771,13.771,0,0,0-2.654-1.281,10.517,10.517,0,0,1-1.091-.752,4.811,4.811,0,0,1,4.715.639l.961-1.081,3.933,2.411.117-.166-2.187-2.466.154-.29a15.124,15.124,0,0,1,2.152.94,36.6,36.6,0,0,1,3.068,2.21,1.22,1.22,0,0,1,.494.873c-.025.208-.508.387-.812.524-.2.09-.582.006-.651.129-1.023,1.816-1.949.926-2.933-.041a6.238,6.238,0,0,0-1.148-.725Z"/><path class="b525b31c-ed18-4151-9240-3ebfb1e323b8" d="M73.046,346.872q.606.53,1.212,1.056c.251.725.3,1.659.786,2.14,3.46,3.393,7.012,6.693,10.534,10.022l-.041-.052c.749,1.777.647,1.982-.905,2.365-3.092-2.993-6.1-5.838-9.027-8.767-1.618-1.62-3.143-3.342-4.6-5.106a2.1,2.1,0,0,1-.4-1.82c.466-.881,1.255-.416,1.91.018A1.744,1.744,0,0,0,73.046,346.872Z"/><path class="b525b31c-ed18-4151-9240-3ebfb1e323b8" d="M104.677,120.7l-.748-1.5a5.88,5.88,0,0,1,4.213-2.767c2.987-.553,5.96-1.181,8.942-1.763a7.211,7.211,0,0,1,2.215-.3,5.04,5.04,0,0,1,1.62.911c-.365.519-.628,1.2-1.123,1.512a5.687,5.687,0,0,1-1.905.41c-2.934.559-5.891,1.021-8.793,1.716A31.984,31.984,0,0,0,104.677,120.7Z"/><path class="b525b31c-ed18-4151-9240-3ebfb1e323b8" d="M191.135,241.874c-.58-.571-1.2-1.112-1.723-1.73a3.12,3.12,0,0,1-.366-1.031,3.24,3.24,0,0,1,1.238-.3,2.376,2.376,0,0,1,1.009.725q8.155,7.842,16.278,15.719a7.941,7.941,0,0,1,1.1,1.982l-.39.435a9.5,9.5,0,0,1-1.986-1.192c-4.154-4.132-8.242-8.332-12.4-12.465a28.281,28.281,0,0,0-2.808-2.189Z"/><path class="b525b31c-ed18-4151-9240-3ebfb1e323b8" d="M62.56,288.327c1.468.1,3.1-.165,4.361.4a18.3,18.3,0,0,1,4.028,3.166,34.46,34.46,0,0,1,2.733,2.631c1.428,1.544,2.857,3.1,4.142,4.757a1.891,1.891,0,0,1,.03,1.824c-.634.661-1.332.138-1.9-.46-2.473-2.624-4.923-5.273-7.478-7.817a18.782,18.782,0,0,0-2.683-1.689c-1.106-.768-2.16-1.612-3.236-2.423Z"/><path class="b525b31c-ed18-4151-9240-3ebfb1e323b8" d="M197.649,110.048l-1.251,1.643c-.469-.37-1.1-.645-1.38-1.125-2.067-3.548-4.04-7.15-6.1-10.7a19.984,19.984,0,0,0-1.976-2.725.934.934,0,0,1,.306-1.6,1.884,1.884,0,0,1,1.557.132c.434.27.66.883.962,1.356,2.392,3.747,4.79,7.491,7.16,11.254A11.915,11.915,0,0,1,197.649,110.048Z"/><path class="b525b31c-ed18-4151-9240-3ebfb1e323b8" d="M69.955,348.615c.722.75,1.48,1.469,2.153,2.261.474.558.759,1.281,1.253,1.816,2.449,2.657,4.94,5.276,7.415,7.909a6.882,6.882,0,0,1,.659.732c.506.73,1.232,1.555.324,2.354-1,.879-1.573-.128-2.153-.771q-4.8-5.322-9.588-10.662a9.866,9.866,0,0,1-1.267-1.856C68.347,349.651,68.912,348.81,69.955,348.615Z"/><path class="b525b31c-ed18-4151-9240-3ebfb1e323b8" d="M225.156,261.1a11.244,11.244,0,0,1,1.994,2.187c1.808,3.649,3.484,7.363,5.224,11.046.48,1.015,1.015,2,1.531,3,.406.787.794,1.723-.236,2.136-.346.139-1.329-.658-1.649-1.235-.93-1.672-1.679-3.446-2.484-5.187-.766-1.657-1.546-3.308-2.26-4.987a10.905,10.905,0,0,0-3.226-4.526,1.4,1.4,0,0,1-.386-1.278C223.856,261.843,224.449,261.615,225.156,261.1Z"/><path class="b525b31c-ed18-4151-9240-3ebfb1e323b8" d="M156.807,94.582c-.266-.225-.725-.429-.752-.68a1.588,1.588,0,0,1,.332-1.252,11.9,11.9,0,0,1,1.966-.981,13.209,13.209,0,0,0,2.259-1.221c2.129-1.67,4.1-3.562,6.33-5.07.855-.578,2.251-.409,3.4-.429a1.608,1.608,0,0,1,.461,1.279,2.37,2.37,0,0,1-1.3,1.186c-3.049.9-5.173,3.147-7.486,5.086A8.518,8.518,0,0,1,156.807,94.582Z"/><path class="b525b31c-ed18-4151-9240-3ebfb1e323b8" d="M155.99,83.586c-.819-1.53-.6-2.411.89-3.066.979-.43,2.072-.6,3.049-1.035,1.78-.788,3.507-1.695,5.266-2.53a8.735,8.735,0,0,1,2.06-.825,5.311,5.311,0,0,1,1.7.249c-.282.783-.338,1.849-.892,2.289a15.811,15.811,0,0,1-3.888,2.188c-1.767.715-3.633,1.186-5.452,1.778C157.839,82.921,156.97,83.243,155.99,83.586Z"/><path class="b525b31c-ed18-4151-9240-3ebfb1e323b8" d="M156.251,332.451c.25-.526.341-1.113.627-1.232.5-.208,1.4-.386,1.64-.125a41.059,41.059,0,0,1,3.468,4.414,1.991,1.991,0,0,1,.073,1.743c-.163.3-1.058.411-1.557.3a12.275,12.275,0,0,1-7.264-4.914,1.288,1.288,0,0,1,.122-1.983c.722-.581,1.294-.13,1.776.47C155.456,331.521,155.793,331.907,156.251,332.451Z"/><path class="b525b31c-ed18-4151-9240-3ebfb1e323b8" d="M213.5,317.141a3.748,3.748,0,0,1-1.236.575,1.792,1.792,0,0,1-1.331-.415,11.842,11.842,0,0,1-1.086-1.962c-2.022-3.65-4.073-7.283-6.056-10.953-.412-.763-1.551-1.7-.242-2.514,1.35-.836,1.767.511,2.235,1.359,2.219,4.024,4.4,8.07,6.59,12.11.245.452.481.909.721,1.364Z"/><path class="b525b31c-ed18-4151-9240-3ebfb1e323b8" d="M202.113,276.779a28.127,28.127,0,0,1,1.687,2.361,5.4,5.4,0,0,1,.527,1.787c.016.095-.6.467-.728.39a3.454,3.454,0,0,1-1.383-1.147,28.517,28.517,0,0,0-6.674-8.8c-2.249-1.99-4.607-3.856-6.914-5.781-.286-.239-.67-.451-.8-.763a5.186,5.186,0,0,1-.2-1.366c.431,0,.977-.163,1.272.038a24.835,24.835,0,0,1,2.5,2.047c1.708,1.523,3.467,3,5.068,4.63,1.407,1.434,2.627,3.051,3.931,4.586q.882,1.038,1.768,2.072Z"/><path class="b525b31c-ed18-4151-9240-3ebfb1e323b8" d="M154.342,293.372a13.187,13.187,0,0,1,1.761,1.474c2.331,2.816,4.615,5.67,6.912,8.514a20.376,20.376,0,0,1,1.291,1.666c.422.652,1.058,1.431.1,2.07-.93.623-1.379-.209-1.892-.845-2.26-2.807-4.525-5.609-6.852-8.359-.595-.7-1.51-1.134-2.109-1.835a2.27,2.27,0,0,1-.407-1.629C153.2,294.09,153.8,293.829,154.342,293.372Z"/><path class="b525b31c-ed18-4151-9240-3ebfb1e323b8" d="M175.926,207.684l1.58-1.248c2.4,2.542,4.771,5.043,7.123,7.567,1.373,1.474,2.709,2.983,4.056,4.48.25.278.613.548.681.873a8.5,8.5,0,0,1,.037,1.7c-.576-.157-1.36-.128-1.693-.5-1.738-1.947-3.3-4.056-5.044-5.993-1.657-1.834-3.475-3.522-5.217-5.279C176.973,208.8,176.516,208.3,175.926,207.684Z"/><path class="b525b31c-ed18-4151-9240-3ebfb1e323b8" d="M100.006,90.484c-2.082-.465-3.853-.726-5.529-1.274-1.531-.5-2.726.244-4.054.612-.652.181-1.517,1.148-1.985-.135a1.68,1.68,0,0,1,1.192-2.313c2.064-.8,4.046-1.749,6.3-.385.6.363,1.562.095,2.352.175a5.378,5.378,0,0,1,2.038.38c.558.312,1.368,1.184,1.249,1.483C101.32,89.641,100.527,90.037,100.006,90.484Z"/><path class="b525b31c-ed18-4151-9240-3ebfb1e323b8" d="M220.567,349.991a5.019,5.019,0,0,1-1.287.546,1.6,1.6,0,0,1-1.228-.27c-3.2-3.561-6.364-7.149-9.469-10.791-.257-.3-.006-1.037.008-1.571.424.033.93-.068,1.256.129a7.672,7.672,0,0,1,1.72,1.417q3.912,4.346,7.758,8.752a11.766,11.766,0,0,1,.853,1.258Z"/><path class="b525b31c-ed18-4151-9240-3ebfb1e323b8" d="M189.818,218.182a7.145,7.145,0,0,1-.773-.676c-1.2-1.418-2.328-2.911-3.6-4.264-2.474-2.627-5.047-5.161-7.535-7.776-.538-.566-1.761-1.165-.773-2.125.9-.873,1.506.244,2.018.792q5.608,6.013,11.121,12.116c.264.293.206.935.174,1.406C190.437,217.83,190.071,217.982,189.818,218.182Z"/><path class="b525b31c-ed18-4151-9240-3ebfb1e323b8" d="M104.035,199.731c-1.318.038-1.673-.756-1.082-1.868,1.363-2.568,2.744-5.127,4.094-7.7.348-.662.589-1.378.913-2.053.579-1.208,1.409-1.562,2.313-.847a1.6,1.6,0,0,1,.462,1.436c-1.83,3.386-3.743,6.727-5.679,10.053A4.527,4.527,0,0,1,104.035,199.731Z"/><path class="b525b31c-ed18-4151-9240-3ebfb1e323b8" d="M221.431,112.394a7.093,7.093,0,0,1-.486-1.366c-.082-.474-.1-1.339.091-1.407.527-.195,1.571-.282,1.7-.034a15.026,15.026,0,0,1,1.254,3.439,3.09,3.09,0,0,1-.269,1.643,4.947,4.947,0,0,0,.243,4.074,5.245,5.245,0,0,1,.469,1.169c.153.676,1.024,1.488-.251,1.975a1.807,1.807,0,0,1-2.322-1.222c-.652-2.311-1.722-4.6-.579-7.07A4.685,4.685,0,0,0,221.431,112.394Z"/><path class="b525b31c-ed18-4151-9240-3ebfb1e323b8" d="M211.5,121.117c.273,1.6.591,3.2.791,4.817a4.944,4.944,0,0,1-.316,1.543c-.6-.266-1.592-.4-1.728-.822a19.224,19.224,0,0,1-1.182-5.283c-.055-1.871.389-3.719-.945-5.377-.176-.22.151-1.229.482-1.392.661-.327,1.653-.648,1.985.475.575,1.946,1.027,3.928,1.53,5.895Z"/><path class="b525b31c-ed18-4151-9240-3ebfb1e323b8" d="M155.861,313.315c-.257.477-.366,1-.659,1.142a2.8,2.8,0,0,1-1.328,0c-.113-.011-.217-.169-.316-.269-2.692-2.746-5.408-5.469-8.063-8.25-1.033-1.081-.907-1.965.264-2.254a1.831,1.831,0,0,1,1.43.483c2.591,2.518,5.138,5.082,7.669,7.661A9.752,9.752,0,0,1,155.861,313.315Z"/><path class="b525b31c-ed18-4151-9240-3ebfb1e323b8" d="M214.693,152.909c-.493,2.715.367,4.026,1.839,5.13a4.2,4.2,0,0,1,1.3,1.743,1.5,1.5,0,0,1-.342,1.406,1.587,1.587,0,0,1-1.485-.16,9.692,9.692,0,0,1-3.595-6.3,8.4,8.4,0,0,0-1.114-2.42,4.125,4.125,0,0,1-.607-1.232,7.188,7.188,0,0,1,.25-1.715,5.026,5.026,0,0,1,1.607.511C213.785,150.82,214.981,151.867,214.693,152.909Z"/><path class="b525b31c-ed18-4151-9240-3ebfb1e323b8" d="M80.642,141.025a4.3,4.3,0,0,1,.741-1.137c1.578-1.244,3.244-2.379,4.793-3.655a8.493,8.493,0,0,0,1.3-1.82l-.34-.425a13.956,13.956,0,0,1-2.49-.04c-.492-.091-.912-.574-1.364-.881a4.143,4.143,0,0,1,1.293-.733,14.034,14.034,0,0,1,2.8-.07c2.091.131,3.064,1.849,1.916,3.555a8.391,8.391,0,0,1-2.466,2.377c-1.884,1.169-3.9,2.132-5.855,3.181Z"/><path class="b525b31c-ed18-4151-9240-3ebfb1e323b8" d="M167.32,140.614a25.564,25.564,0,0,1,2.77-.362,1.222,1.222,0,0,1,.959.617c.087.233-.24.753-.52.969-2.224,1.722-3.788,1.589-5.748-.31a3.707,3.707,0,0,0-1.6-.752,3.169,3.169,0,0,1-2.49-3.271,2.023,2.023,0,0,1,1.261-1.319c.7-.177,1.163.354,1.1,1.212-.077,1.029.241,1.6,1.483,1.284C165.654,138.4,166.633,139.169,167.32,140.614Z"/><path class="b525b31c-ed18-4151-9240-3ebfb1e323b8" d="M236.041,271.549c-.46.508-.863,1.362-1.393,1.45-.95.157-.691-.89-.964-1.469-1.227-2.61-2.581-5.161-3.91-7.721-.147-.282-.577-.469-.622-.741a11.807,11.807,0,0,1-.034-1.845c.6.036,1.211.049,1.811.124a.682.682,0,0,1,.4.364q2.181,4.308,4.326,8.634a3.15,3.15,0,0,1,.133.973Z"/><path class="b525b31c-ed18-4151-9240-3ebfb1e323b8" d="M162.789,151.431a10.066,10.066,0,0,1,.834,1.008c.553.879,1.152,1.368,2.286.846a2.419,2.419,0,0,1,1.637.077,16.249,16.249,0,0,1,3.189,1.431c.433.27.565,1.024.834,1.558a4.931,4.931,0,0,1-1.671.684c-.616.007-1.222-.48-1.858-.571a7.258,7.258,0,0,0-2.652-.064c-1.183.287-2.094.318-2.677-.933a12.4,12.4,0,0,0-.721-1.2C161.159,152.908,161.252,152.513,162.789,151.431Z"/><path class="b525b31c-ed18-4151-9240-3ebfb1e323b8" d="M99.5,96.136a2.009,2.009,0,0,1-.785,2.76c-2.506,1.616-4.946,3.335-7.464,4.932a3.83,3.83,0,0,1-1.94.432c-.132,0-.374-.87-.378-1.34a1.245,1.245,0,0,1,.547-.87q4.465-2.832,8.977-5.591A4.494,4.494,0,0,1,99.5,96.136Z"/><path class="b525b31c-ed18-4151-9240-3ebfb1e323b8" d="M156.151,118.352c.841.741,1.613,1.4,2.359,2.08,2.428,2.223,4.606,2.528,7.6,1.278a12.208,12.208,0,0,1,3.067-.389c-.914,2.312-5.463,4-7.608,3.094C158.323,123.048,154.956,120.221,156.151,118.352Z"/><path class="b525b31c-ed18-4151-9240-3ebfb1e323b8" d="M221.046,150.791a3.18,3.18,0,0,0,1.5,3.51c.36.221.678,1.267.5,1.45a2.125,2.125,0,0,1-1.636.626c-1.509-.27-2-1.557-2.347-2.864a6.248,6.248,0,0,1-.251-1.522c-.012-1.089-.006-2.036-1.558-2.082-.29-.009-.668-1.175-.747-1.838-.027-.223.725-.742,1.154-.784C219.918,147.067,221.456,148.029,221.046,150.791Z"/><path class="b525b31c-ed18-4151-9240-3ebfb1e323b8" d="M106.461,88.042c-1.379-.617-2.8-1.15-4.12-1.879a9.726,9.726,0,0,1-2.393-1.933c-.432-.472-.933-1.367-.754-1.81.362-.892,1.243-.53,1.921-.148,1.06.6,2.069,1.294,3.163,1.815a8.884,8.884,0,0,0,2.755.884c.9.1,1.851.065,1.826,1.195-.023,1-.786,1.544-1.833,1.55H106.6Z"/><path class="b525b31c-ed18-4151-9240-3ebfb1e323b8" d="M76.376,105.31c-.992-.744-.883-1.4-.379-2.1a6.139,6.139,0,0,1,5.674-2.417c1.209.056,2.408.317,3.616.446,1.044.111,1.736.632,1.643,1.7-.1,1.155-1.05.979-1.845.87s-1.564-.278-2.35-.395C80.336,103.053,78.028,103.041,76.376,105.31Z"/><path class="b525b31c-ed18-4151-9240-3ebfb1e323b8" d="M217.789,106.928c-.989-.278-1.994-.515-2.958-.863a1.015,1.015,0,0,1-.537-.8,1.065,1.065,0,0,1,.6-.8,3.256,3.256,0,0,1,1.644.023c1.5.488,2.633-.067,3.933-.793a22.21,22.21,0,0,1,4.674-1.6,1.047,1.047,0,0,1,.9.48c.109.248-.083.91-.266.963C222.982,104.334,221.036,107.16,217.789,106.928Z"/><path class="b525b31c-ed18-4151-9240-3ebfb1e323b8" d="M80.457,307.365c.37.216.834.342,1.018.641A1.04,1.04,0,0,1,81.3,309c-.814.718-1.711,1.343-2.581,2-1.49,1.123-2.987,2.238-4.474,3.367a11.283,11.283,0,0,1-1.547,1.2,1.347,1.347,0,0,1-1.228-.039c-.213-.2-.149-.831-.027-1.215a2.02,2.02,0,0,1,.715-.839q3.484-2.733,7-5.425A8.963,8.963,0,0,1,80.457,307.365Z"/><path class="b525b31c-ed18-4151-9240-3ebfb1e323b8" d="M216.486,140.5c-.361-.309-1.138-.685-1.45-1.3a41.168,41.168,0,0,1-2.176-5.163c-.157-.448.261-1.095.415-1.651a4.964,4.964,0,0,1,1.282.947,12.581,12.581,0,0,1,1.049,2.134c.543,1.231,1.164,2.266,2.721,2.491.537.078.975.844,1.458,1.3-.591.348-1.162.74-1.782,1.027A6.651,6.651,0,0,1,216.486,140.5Z"/><path class="b525b31c-ed18-4151-9240-3ebfb1e323b8" d="M163.011,85.865c-.7-1.136-.672-1.884.612-2.547a12.251,12.251,0,0,0,2.431-2.063,19.919,19.919,0,0,1,1.686-1.667,2.19,2.19,0,0,1,3,.534,1.845,1.845,0,0,1,.307,1.414,1.417,1.417,0,0,1-1.261.533c-1.28-.318-1.97.387-2.773,1.166C165.876,84.338,165.057,85.982,163.011,85.865Z"/><path class="b525b31c-ed18-4151-9240-3ebfb1e323b8" d="M172.905,141.656a4.14,4.14,0,0,0,1.5.143,3.439,3.439,0,0,0,1.893-1.011c.477-.742.016-1.5-.8-1.961-.306-.173-.682-.464-.741-.759a.984.984,0,0,1,1.4-1.015,5.477,5.477,0,0,1,1.137.813c1.793,1.4,2.228,2.821,1.284,4.161-1.074,1.524-3.82,2.191-5.3,1.2-.368-.248-.5-.841-.749-1.275Z"/><path class="b525b31c-ed18-4151-9240-3ebfb1e323b8" d="M83.913,108.161c-.832-.151-1.834-.316-2.828-.519-.9-.182-1.059-.76-.831-1.579s.714-.991,1.479-.8c2.033.511,4.047.765,5.978-.429a.985.985,0,0,1,.953.116c.2.293.33.923.158,1.12a5.9,5.9,0,0,1-1.952,1.666A12.137,12.137,0,0,1,83.913,108.161Z"/><path class="b525b31c-ed18-4151-9240-3ebfb1e323b8" d="M214.46,146.645c-.2.291-.364.817-.646.888a1.443,1.443,0,0,1-1.251-.283,8.27,8.27,0,0,1-1.41-2.508,18.621,18.621,0,0,1-.681-3.991c-.035-.5.384-1.385.729-1.457a2.25,2.25,0,0,1,1.565.712c.239.215.124.8.221,1.2.353,1.471.724,2.939,1.1,4.4C214.168,145.922,214.305,146.22,214.46,146.645Z"/><path class="b525b31c-ed18-4151-9240-3ebfb1e323b8" d="M88.8,91.785c2.274.387,4.437.7,6.567,1.173.306.067.591.853.616,1.321.013.243-.569.743-.878.739-1.964-.023-3.931-.11-5.885-.3-.3-.029-.7-.67-.761-1.073A6.575,6.575,0,0,1,88.8,91.785Z"/><path class="b525b31c-ed18-4151-9240-3ebfb1e323b8" d="M176.9,197.761l8.473,8.15c-.648,1.382-1.253,1.483-2.344.336-1.9-2-3.824-3.968-5.754-5.934C176.529,199.559,175.953,198.817,176.9,197.761Z"/><path class="b525b31c-ed18-4151-9240-3ebfb1e323b8" d="M181.809,198.058a29.772,29.772,0,0,1,2.158,2.284,4.365,4.365,0,0,1,.444,1.494c-.577-.044-1.156-.075-1.729-.143-.111-.014-.233-.159-.3-.273-1.547-2.676-4.009-4.4-6.4-6.21-.473-.357-1.368-.791-.622-1.481.287-.266,1.352-.076,1.774.264,1.306,1.056,2.463,2.294,3.7,3.437a7.363,7.363,0,0,0,1.023.676Z"/><path class="b525b31c-ed18-4151-9240-3ebfb1e323b8" d="M199.848,100.332c.755-1.137,1.447-.825,1.982.052,1.318,2.157,2.616,4.33,3.816,6.553.174.321-.23.955-.367,1.444-.485-.236-1.193-.342-1.418-.728C202.474,105.269,201.2,102.821,199.848,100.332Z"/><path class="b525b31c-ed18-4151-9240-3ebfb1e323b8" d="M197.074,359.852c-1.971-.6-13.823-11.165-14.175-12.619C187.79,351.561,193.123,354.922,197.074,359.852Z"/><path class="b525b31c-ed18-4151-9240-3ebfb1e323b8" d="M79.887,125.355c1.038,1.178,1.034,1.544-.493,2.465a22.89,22.89,0,0,1-3.966,2.014c-.493.179-1.255-.385-1.895-.61A6.833,6.833,0,0,1,74.8,128C76.41,127.1,78.07,126.289,79.887,125.355Z"/><path class="b525b31c-ed18-4151-9240-3ebfb1e323b8" d="M212.88,169.528a11.158,11.158,0,0,1-1.869-.4,15.043,15.043,0,0,1-2.478-1.238,3.119,3.119,0,0,1-1.253-1.241c-.308-.737.022-1.667.93-1.3a27.527,27.527,0,0,1,4.688,2.588c.233.152-.035,1.072-.071,1.636Z"/><path class="b525b31c-ed18-4151-9240-3ebfb1e323b8" d="M88.832,100.368c-.8-.418-1.629-.607-2-1.123a2.249,2.249,0,0,1,.081-1.805c.082-.2.927-.1,1.424-.127.759-.037,1.518-.09,2.277-.085.492,0,.983.1,1.475.151-.139.492-.122,1.193-.446,1.433A22.59,22.59,0,0,1,88.832,100.368Z"/><path class="b525b31c-ed18-4151-9240-3ebfb1e323b8" d="M158.834,101.835a1.206,1.206,0,0,1-.508,2.074,13.939,13.939,0,0,1-3.8.735c-.379.028-.81-.637-1.217-.984.361-.395.664-1.036,1.095-1.137C155.792,102.2,157.226,102.068,158.834,101.835Z"/><path class="b525b31c-ed18-4151-9240-3ebfb1e323b8" d="M156.975,89.2c-.107-.539-.438-1.171-.261-1.583a2.733,2.733,0,0,1,1.329-1.138,10.888,10.888,0,0,1,2.7-.928c.323-.057,1.126.656,1.081.773-.269.691-.576,1.6-1.147,1.89A18.95,18.95,0,0,1,156.975,89.2Z"/></g></g></svg>