<svg id="Layer_1" data-name="Layer 1" xmlns="http://www.w3.org/2000/svg" xmlns:xlink="http://www.w3.org/1999/xlink" viewBox="0 0 243.73 1143.89"><defs><style>.cls-1,.cls-11,.cls-3,.cls-4,.cls-6,.cls-9{fill:none;}.cls-2{clip-path:url(#clip-path);}.cls-3{stroke:#f0f0cf;stroke-width:2px;}.cls-4{stroke:#d5c077;stroke-width:4px;}.cls-5{fill:#fff;}.cls-6{stroke:#fff;}.cls-11,.cls-6,.cls-9{stroke-linecap:round;stroke-miterlimit:10;}.cls-7{fill:#f8ac9f;}.cls-8{fill:#f16366;}.cls-9{stroke:#f16366;}.cls-10{fill:#231f20;}.cls-11{stroke:#231f20;}.cls-12{fill:#d5c077;}</style><clipPath id="clip-path"><rect class="cls-1" x="3.67" y="-1.06" width="236.4" height="1146"/></clipPath></defs><title>6Artboard 1</title><g class="cls-2"><line class="cls-3" x1="5.44" y1="693.29" x2="39.24" y2="665.21"/></g><line class="cls-3" x1="39.85" y1="665.11" x2="23.22" y2="664.04"/><line class="cls-3" x1="23.92" y1="663.99" x2="59.03" y2="638.18"/><line class="cls-3" x1="59.79" y1="568.04" x2="43.86" y2="545.08"/><line class="cls-3" x1="43.22" y1="544.62" x2="54.31" y2="546.83"/><line class="cls-3" x1="53.73" y1="546.43" x2="36.56" y2="524.64"/><g class="cls-2"><line class="cls-4" x1="119.85" y1="-1.06" x2="119.85" y2="265.32"/></g><line class="cls-4" x1="119.85" y1="273.28" x2="119.85" y2="460.29"/><line class="cls-4" x1="117.86" y1="460.2" x2="163.24" y2="460.2"/><line class="cls-4" x1="161.74" y1="458.2" x2="161.74" y2="522.16"/><line class="cls-4" x1="118.93" y1="520.15" x2="162.43" y2="520.15"/><line class="cls-4" x1="119.5" y1="518.15" x2="119.5" y2="548.9"/><line class="cls-4" x1="119.68" y1="866.94" x2="119.68" y2="660.75"/><g class="cls-2"><path class="cls-5" d="M181.21,603.56c-11.54-21.92-35.59-36-61.92-36.2-26.76-.22-51.41,13.91-63.15,36.2,10.17,23.56,35,39.11,62.45,39.15s52.43-15.53,62.62-39.15"/><path class="cls-6" d="M181.21,603.56c-11.54-21.92-35.59-36-61.92-36.2-26.76-.22-51.41,13.91-63.15,36.2,10.17,23.56,35,39.11,62.45,39.15S171,627.18,181.21,603.56Z"/><path class="cls-7" d="M181.92,604a108.85,108.85,0,0,0-126.67,0c10.67-23.25,35.53-38.49,63-38.62,27.7-.13,52.92,15.16,63.69,38.62"/><path class="cls-8" d="M142.72,610.73c0,12.22-10.76,22.13-24,22.13S94.63,623,94.63,610.73s10.77-22.12,24.05-22.12,24,9.9,24,22.12"/><ellipse class="cls-9" cx="118.68" cy="610.73" rx="24.04" ry="22.12"/><path class="cls-10" d="M141.23,604.65c0,3.67-3.25,6.64-7.25,6.64s-7.24-3-7.24-6.64S130,598,134,598s7.25,3,7.25,6.63"/><ellipse class="cls-11" cx="133.98" cy="604.65" rx="7.24" ry="6.64"/></g><line class="cls-3" x1="44.71" y1="583.24" x2="19.99" y2="570.22"/><line class="cls-3" x1="19.2" y1="570.12" x2="30.06" y2="566.95"/><g class="cls-2"><line class="cls-3" x1="29.36" y1="566.87" x2="4.08" y2="555.47"/></g><line class="cls-3" x1="178.57" y1="567.81" x2="194.49" y2="544.85"/><line class="cls-3" x1="195.14" y1="544.4" x2="184.04" y2="546.6"/><line class="cls-3" x1="184.62" y1="546.21" x2="201.79" y2="524.42"/><line class="cls-3" x1="193.64" y1="583.01" x2="218.37" y2="570"/><line class="cls-3" x1="219.15" y1="569.89" x2="208.29" y2="566.73"/><line class="cls-3" x1="208.99" y1="566.64" x2="234.27" y2="555.24"/><line class="cls-3" x1="62.37" y1="733.38" x2="81.83" y2="693.98"/><line class="cls-3" x1="82.34" y1="693.64" x2="66.71" y2="699.42"/><line class="cls-3" x1="67.33" y1="699.09" x2="88.91" y2="661.24"/><g class="cls-2"><line class="cls-3" x1="239.42" y1="693.29" x2="205.62" y2="665.21"/></g><line class="cls-3" x1="205.01" y1="665.11" x2="221.64" y2="664.04"/><line class="cls-3" x1="220.94" y1="663.99" x2="185.83" y2="638.18"/><line class="cls-3" x1="182.5" y1="733.38" x2="163.04" y2="693.98"/><line class="cls-3" x1="162.52" y1="693.64" x2="178.15" y2="699.42"/><line class="cls-3" x1="177.53" y1="699.09" x2="155.95" y2="661.24"/><polygon class="cls-12" points="112.18 547.07 119.5 559 119.5 559 126.82 547.07 112.18 547.07"/><polygon class="cls-12" points="119.88 652.45 112.17 665.02 127.59 665.02 119.88 652.45 119.88 652.45"/><g class="cls-2"><line class="cls-4" x1="119.68" y1="876.94" x2="119.68" y2="1144.94"/></g></svg>