<svg xmlns="http://www.w3.org/2000/svg" xmlns:xlink="http://www.w3.org/1999/xlink" viewBox="0 0 557.453 243.5"><defs><style>.\33 fe5661b-c171-4c78-b4cd-5d710974b155{fill:none;}.f5896e0c-a13d-44df-83de-4eb3d8d9b593{clip-path:url(#984bb1f5-92e7-4feb-85a9-7c58bdd82290);}.\33 75be9c6-6603-4cb0-a3ac-5dd7ec0e1a53{fill:#faa21e;}</style><clipPath id="984bb1f5-92e7-4feb-85a9-7c58bdd82290"><rect class="3fe5661b-c171-4c78-b4cd-5d710974b155" width="557.453" height="243.5"/></clipPath></defs><title>6Artboard 2</title><g id="11c4dd8e-df9b-43a1-a6e4-3ffc0adb976c" data-name="Layer 5"><g class="f5896e0c-a13d-44df-83de-4eb3d8d9b593"><path class="375be9c6-6603-4cb0-a3ac-5dd7ec0e1a53" d="M0,240.253A3,3,0,0,0,2.922,243.5h53.9a3.491,3.491,0,0,0,3.246-3.247V170.125a3.253,3.253,0,0,1,3.247-3.246H482.779c41.233,0,74.674-32.467,74.674-72.076V72.076C557.453,32.467,524.012,0,482.779,0H7.143V.325H2.922A3,3,0,0,0,0,3.571ZM63.31,106.491a3.068,3.068,0,0,1-3.247-3.247V63.635a3.068,3.068,0,0,1,3.247-3.247H482.779c7.792,0,14.286,5.2,14.286,11.688V94.8c0,6.493-6.494,11.688-14.286,11.688Z"/></g></g></svg>