<svg xmlns="http://www.w3.org/2000/svg" xmlns:xlink="http://www.w3.org/1999/xlink" viewBox="0 0 308.318 365.638"><defs><style>.\30 d95865e-8a90-4430-b263-6fa09cc3e42e,.eccfc5d2-c80e-4c1b-9ea0-85f3fafb519a{fill:none;}.\39 8637b35-2505-4d6e-b27f-aa29c98afacf{fill:#a8212b;}.b51e1123-1bb8-4a6a-8e35-e1f0776ad45c{clip-path:url(#338bac5e-d9c7-4016-9eda-e8180f718b29);}.d45254fe-eda5-4d99-b251-87df9fe047d8{fill:#a7212a;}.\30 d95865e-8a90-4430-b263-6fa09cc3e42e{stroke:#a7212a;}</style><clipPath id="338bac5e-d9c7-4016-9eda-e8180f718b29"><rect class="eccfc5d2-c80e-4c1b-9ea0-85f3fafb519a" x="106.625" y="132.427" width="95.606" height="32.728"/></clipPath></defs><title>6Artboard 10</title><g id="8418c584-93ad-432b-87af-30298e7ebfed" data-name="Layer 6"><g id="af003220-30c8-416c-9463-70af1a10c17d" data-name="Artwork 18"><path class="98637b35-2505-4d6e-b27f-aa29c98afacf" d="M179.652,259.019c.5,1.834.971,3.72,1.519,5.584a6.1,6.1,0,0,1,.01,3.891,2.925,2.925,0,0,1-.7,1.263,2.7,2.7,0,0,0-.888,1.379c-.118.507-.573.751-.923,1.089a14,14,0,0,1-4.634,2.724c-1.422.577-2.291,1.783-3.475,2.616a1.306,1.306,0,0,0-.405.713c-.463,1.813-1.334,3.481-1.736,5.331-.327,1.509-1.679,2.1-3.263,1.66a4.488,4.488,0,0,1-.925-.467,13.166,13.166,0,0,0-3.695-1.4,10.542,10.542,0,0,1-3.323-1.147,2.592,2.592,0,0,0-3.12.187,11.914,11.914,0,0,1-2.833,1.287c-1.591.747-3.1.077-4.57-.46a5.993,5.993,0,0,1-3.777-4.119,7.009,7.009,0,0,0-.542-1.348c-1.214-2.183-2.433-4.365-3.694-6.522a6.211,6.211,0,0,0-2.347-2.329c-1.153-.642-2.324-1.258-3.518-1.822-1.763-.833-2.2-1.5-2.061-3.4.026-.344.137-.682.183-1.026a3.2,3.2,0,0,0-.237-2.424c-.205-.3-.108-.668-.1-1.016a11.718,11.718,0,0,0-.1-1.874,18.082,18.082,0,0,1,.413-7.044,1.974,1.974,0,0,0-.591-2.226,2.49,2.49,0,0,1-.522-.643c-1.047-1.872-1.228-2.154.56-3.41a2.3,2.3,0,0,0,.951-1.548,44.06,44.06,0,0,0,1.276-7.594,2.424,2.424,0,0,1,.148-1.026c1.276-2.45.951-5.095.965-7.693.006-1.249-.089-2.5-.157-3.747a2.564,2.564,0,0,0-.167-.794,15.8,15.8,0,0,1-1.056-4.445,9.521,9.521,0,0,0-1.8-4.337,14.945,14.945,0,0,0-1.364-2.074c-1.215-1.338-2.048-2.933-3.149-4.333a59.726,59.726,0,0,0-5.358-5.784c-1.336-1.3-2.592-2.722-4.023-3.908a41.153,41.153,0,0,1-4.013-4.455,10.123,10.123,0,0,1-.857-1.17,58.5,58.5,0,0,0-4.873-6.48,32.064,32.064,0,0,1-2.193-3.033,45.121,45.121,0,0,1-3.085-5.075,3.474,3.474,0,0,0-.713-1.008,2.92,2.92,0,0,1-1.076-2.147c-.053-.855-.815-1.429-1.346-2.064a2.467,2.467,0,0,1-.79-1.591,4.746,4.746,0,0,0-.927-2.047,3.809,3.809,0,0,1-.808-2.52,1.551,1.551,0,0,0-.153-.81,8.966,8.966,0,0,1-.909-4.642,3.876,3.876,0,0,0-.126-1.033,27.26,27.26,0,0,1-.206-9.122q.273-2.166.451-4.344a6.116,6.116,0,0,1,.469-2.225,2.7,2.7,0,0,0,.209-1.213,27.661,27.661,0,0,1,2.157-10.73c.84-2.207,1.762-4.377,2.647-6.564a78.435,78.435,0,0,1,6.414-12.841,8.411,8.411,0,0,1,.873-1.172c1.313-1.433,2.645-2.85,3.978-4.266a3.243,3.243,0,0,1,.635-.534,12.975,12.975,0,0,0,3.494-3.241A10.752,10.752,0,0,1,119,99.731a55.265,55.265,0,0,0,6.761-4.5,3.93,3.93,0,0,1,1.847-.926,19.284,19.284,0,0,0,4.9-1.742,20.636,20.636,0,0,1,4.342-1.385c1.567-.313,3.108-.76,4.655-1.164a20.675,20.675,0,0,1,5.358-.742c.9,0,1.807-.106,2.711-.142,1.181-.047,2.362-.078,3.544-.1,2.22-.047,4.444-.02,6.659-.151,1.311-.078,2.594-.405,3.934-.4a26.155,26.155,0,0,1,6.165.919,15.853,15.853,0,0,0,3.454.68,8.773,8.773,0,0,1,3.22.834c1.661.712,3.31,1.45,4.957,2.194a4.2,4.2,0,0,1,.882.549,45.742,45.742,0,0,0,5.355,3.191,44.521,44.521,0,0,1,6.315,4.032,18.879,18.879,0,0,0,2.916,2.014,26.378,26.378,0,0,1,4,2.993,5.784,5.784,0,0,1,.993,1.052,26.922,26.922,0,0,0,3.492,3.844,18.192,18.192,0,0,1,3.256,4.295c1.663,2.963,3.225,5.983,4.822,8.983a21.841,21.841,0,0,1,1.424,3.243,29.862,29.862,0,0,0,1.594,4.069c1.135,2.2,1.406,4.607,1.965,6.954a17.829,17.829,0,0,1,.354,5.548,19.023,19.023,0,0,0,.469,4.135,3.584,3.584,0,0,1,.006,1.444,5.139,5.139,0,0,0-.122,2.477,2.308,2.308,0,0,1-.044,1.024c-.434,1.82-.852,3.645-1.358,5.446-.77,2.739-1.993,5.33-2.688,8.1a2.309,2.309,0,0,1-.7,1.248c-1.213.893-1.511,2.274-1.991,3.535a12.039,12.039,0,0,1-1.268,2.612,7.429,7.429,0,0,0-.735,1.259,65.227,65.227,0,0,1-4.148,7.2,21.889,21.889,0,0,1-2.25,3.257,2.331,2.331,0,0,0-.464.914,6.076,6.076,0,0,1-1.52,2.687,3.713,3.713,0,0,0-.794,1.218,29.648,29.648,0,0,1-2.956,4.722,13.153,13.153,0,0,1-2.789,3.29,38.692,38.692,0,0,0-2.66,2.909c-1.164,1.171-2.411,2.26-3.611,3.4a5.271,5.271,0,0,0-1.129,1.208c-.739,1.408-1.573,2.761-2.316,4.161a16,16,0,0,1-.993,1.811,4.884,4.884,0,0,0-.77,1.7,3.837,3.837,0,0,1-.433,1.158,18.959,18.959,0,0,0-2.589,9.724,40.412,40.412,0,0,1-.887,7.222c-.075.333-.279.784-.14,1a3.929,3.929,0,0,1,.243,3.207,1.545,1.545,0,0,0,.015.624,55.917,55.917,0,0,1,.95,6.374,1.442,1.442,0,0,0,.707.983,1.029,1.029,0,0,1,.215,1.483,16.541,16.541,0,0,1-1.4,2.31,1.5,1.5,0,0,0-.268,1.523,29.12,29.12,0,0,1,1.206,4.632c.025.276.095.548.146.821.325,1.753-.068,3.175-1.815,3.989C179.868,258.712,179.8,258.858,179.652,259.019ZM168.994,242.08c-.1.077-.21.152-.313.231-.051.039-.144.11-.136.126.064.129.183.139.282,0a2,2,0,0,0,.163-.357c.184.035.367.074.552.1.06.01.161.02.18-.01.082-.135.017-.16-.176-.123A3.485,3.485,0,0,1,168.994,242.08Zm5.66,6.69c.2-.175.408-.348.61-.525.137-.119.156-.267.025-.306a.534.534,0,0,0-.377.08c-.278.172-.21.482-.255.747a1.975,1.975,0,0,0-1.271.18,2.62,2.62,0,0,0-1.424-.121c-2.8.519-5.6,1-8.4,1.487a10.682,10.682,0,0,1-1.436.249q-3.12.107-6.221.456a8.273,8.273,0,0,1-1.869-.089c-1.517-.176-3.025-.453-4.546-.559a15.572,15.572,0,0,1-3.673-.666c-1.411-.451-2.967-.243-4.293-.772-2.487-.991-5.2-.831-7.676-1.782a.382.382,0,0,0-.348.13.417.417,0,0,0,.067.369,1.669,1.669,0,0,0,.464.406c.964.551,1.927,1.108,2.913,1.618a5.031,5.031,0,0,0,1.361.486,83.242,83.242,0,0,0,9.645,1.622,5.932,5.932,0,0,1,1.236.175,26.734,26.734,0,0,0,7.857.673,8.494,8.494,0,0,0,2.668-.4,9.914,9.914,0,0,1,1.837-.357c1.377-.188,2.761-.321,4.135-.523,2.344-.346,4.526-1.315,6.828-1.834.3-.068.55-.4.831-.6Zm-35.67-3.725c-.046.047-.085.111-.141.137-.04.019-.1-.014-.157-.023.068-.135.177-.161.329-.078q.962.615,1.929,1.23c.269.007.54.031.808.013.136-.009.436.192.356-.193-.008-.039-.259-.061-.386-.036-.266.053-.526.142-.788.216a1.02,1.02,0,0,0-.873-.9C139.688,245.32,139.276,245.358,138.984,245.045Zm14.371-4.377c.082-.33.237-.759-.051-.958a2.033,2.033,0,0,0-1.558-.1c-.235.045-.4.479-.665.839l2.331.162a1.6,1.6,0,0,0,1.184.3c1.653-.146,3.317-.251,4.948-.538a17.964,17.964,0,0,1,3.713-.34,3.775,3.775,0,0,0,3.759-3.161,37.238,37.238,0,0,0,.084-3.739.452.452,0,0,0-.045-.2.687.687,0,0,0-.611-.467c-.255-.007-.367.174-.471.346a4.618,4.618,0,0,0-.336,2.635,2.69,2.69,0,0,1-1.194,2.516,8.8,8.8,0,0,1-4.676,1.49,5.921,5.921,0,0,0-2.242.29,3.988,3.988,0,0,1-1.817.317A3.831,3.831,0,0,0,153.355,240.668Zm12.8-15.029c-.131,1.239-.25,2.479-.4,3.716a2.321,2.321,0,0,0,.13,1.222.691.691,0,0,0,.686.368.419.419,0,0,0,.451-.347,5.122,5.122,0,0,0-.5-3.6,1.928,1.928,0,0,1-.363-1.357c-.634-.532-1.249-1.089-1.905-1.592-1.538-1.177-3.322-2.007-4.71-3.406a7.58,7.58,0,0,0-1.416-.864,1.918,1.918,0,0,0-2.621.253,17.426,17.426,0,0,1-4.8,2.836,12.1,12.1,0,0,0-3.74,2.9,3.8,3.8,0,0,0-1.333,2.531c.027,1.18-.237,2.322-.276,3.473-.064,1.868.111,3.745.211,5.616.1,1.8.183,1.889,1.964,2.351a14.324,14.324,0,0,0,1.413.345,2.856,2.856,0,0,0,1.022-.04.629.629,0,0,0,.407-.407.574.574,0,0,0-.285-.47,15.824,15.824,0,0,1-2.9-2.372,1.472,1.472,0,0,1-.373-1.517,10.375,10.375,0,0,0,.319-3.511,7.963,7.963,0,0,1,.157-1.864,7.468,7.468,0,0,0,.207-2.89,1.081,1.081,0,0,1,.171-.777,2.439,2.439,0,0,1,2.679-.5,1.27,1.27,0,0,1,.455.654,2.1,2.1,0,0,1,.038.827c-.12,1.243-.2,2.494-.408,3.723a13.793,13.793,0,0,0,.1,4.143c.109.827.459,1.03,1.089.57a15.185,15.185,0,0,1,5.381-2.146q.5-.129,1-.281a2.269,2.269,0,0,0,1.2-.785,16.392,16.392,0,0,0,2.1-3.1c.423-.934.831-1.874,1.246-2.812q1.5-.358,3.007-.72C165.757,225.77,165.954,225.7,166.154,225.639Zm-1.63-4.474a10.02,10.02,0,0,0,.153-1.638c-.207-2.911.063-5.836-.39-8.745-.342-2.2.077-2.644,2.343-3.019a15.2,15.2,0,0,1,2.491-.263,10.053,10.053,0,0,0,2.456-.439c.766-.189.87-.327.9-1.17a27.89,27.89,0,0,1,.8-6.405,6.561,6.561,0,0,0,.162-1.452,35.455,35.455,0,0,1,.974-6.179,14.181,14.181,0,0,0,.258-1.427c.18-1.552.694-1.921,2.2-1.538a5.9,5.9,0,0,1,.592.2c.58.219.688.555.355,1.141a3.311,3.311,0,0,1-.463.689,4.465,4.465,0,0,0-1.1,2.434c-.185,1.026-.308,2.063-.444,3.1s-.208,2.075-.4,3.1a6.161,6.161,0,0,0-.076,1.831c.188,1.855.223,3.728.283,5.595a1.8,1.8,0,0,1-1.67,2.024c-.407.075-.833.044-1.245.1a9,9,0,0,0-3.244.706c-.613.342-1.485.183-1.9.777-.462.67.015,1.484-.03,2.238a35.956,35.956,0,0,0,.072,5.617,3.149,3.149,0,0,1-.326,1.615,11.254,11.254,0,0,0-.514,1.79.971.971,0,0,0,.406,1.091,7.492,7.492,0,0,1,2.627,4.142,1.341,1.341,0,0,0,.9.987c1.672.731,3.487.95,5.18,1.59.766.29.973.132,1.12-.685a7.921,7.921,0,0,0,.16-1.242,60.662,60.662,0,0,1,.872-8.091,32.008,32.008,0,0,1,3-9.065c1.352-2.8,3.514-4.976,5.491-7.286a25.19,25.19,0,0,1,3.869-3.8,2.987,2.987,0,0,0,.725-.742c1.085-1.715,2.7-2.965,3.946-4.542A46.063,46.063,0,0,0,199,188.631a30.911,30.911,0,0,1,3.708-5.78,3.819,3.819,0,0,0,.39-.727c1.162-2.055,2.267-4.147,3.506-6.155,1.6-2.6,2.976-5.318,4.431-7.992.719-1.322,1.284-2.745,1.96-4.106a10.049,10.049,0,0,0,1.072-3.142A20.4,20.4,0,0,1,215.3,155.9a13.516,13.516,0,0,0,.88-5.1c-.013-1.943-.061-3.885-.091-5.828a17.04,17.04,0,0,0-.05-2.5c-.376-2.261-.828-4.51-1.293-6.755-.169-.817-.378-1.619-.474-2.454a5.563,5.563,0,0,0-1.2-3.262,3.194,3.194,0,0,1-.576-1.1c-1.251-3.718-3.651-6.849-5.291-10.367-1.69-2.2-3.043-4.656-4.971-6.683-1-1.055-2-2.123-2.991-3.189a39.374,39.374,0,0,0-6.1-5.329,53.63,53.63,0,0,0-4.638-2.757,24.75,24.75,0,0,0-7.524-2.384,29.734,29.734,0,0,1-4.425-1.166,50.8,50.8,0,0,0-8.41-2.419c-1.574-.283-3.125-.688-4.695-1-3.877-.76-7.722-1.584-11.748-1.081-3.313.413-6.637.746-9.905,1.427-2.174.453-4.307,1.106-6.455,1.681a11.226,11.226,0,0,0-3.18.949c-2.173,1.408-4.87,1.716-6.874,3.421a.956.956,0,0,1-.387.15,8.32,8.32,0,0,0-2.885,1.636,9.549,9.549,0,0,1-1.361.957,24.994,24.994,0,0,0-4.745,3.69c-1,.846-1.753,1.974-2.695,2.895a27.8,27.8,0,0,0-2.816,2.982,17.082,17.082,0,0,0-2.09,3.324,11.586,11.586,0,0,1-1.416,2.525,10.682,10.682,0,0,0-1.35,2.342c-.754,1.717-1.461,3.458-2.314,5.125a24.546,24.546,0,0,0-1.747,4.232,75.429,75.429,0,0,0-2.893,12.549,7.97,7.97,0,0,1-.252,1.221,43.851,43.851,0,0,0-1.09,7.62,28.874,28.874,0,0,0,.219,6.247,31,31,0,0,0,1.4,6.512c.637,1.842,1.5,3.569,2.256,5.351.272.64.515,1.3.839,1.909,1.361,2.572,2.995,4.985,4.482,7.483a57.53,57.53,0,0,0,4.616,6.176,26.23,26.23,0,0,1,2.161,3.054,15.331,15.331,0,0,0,1.855,2.762c.747.8,1.783,1.327,2.6,2.073.869.792,1.347,1.909,2.223,2.741a28.381,28.381,0,0,1,4.034,3.886,17.591,17.591,0,0,0,2.093,2.32,40.928,40.928,0,0,1,5.981,6.929,32.49,32.49,0,0,1,1.885,3.209,26.044,26.044,0,0,1,2.394,8.6c.261,2.267.278,4.564.35,6.849a10.084,10.084,0,0,0,.209,2.369.88.88,0,0,0,.883.134,10.485,10.485,0,0,1,3.284-.513,1.232,1.232,0,0,0,1.348-1.033,10.981,10.981,0,0,1,3.029-4.89,1.712,1.712,0,0,0,.512-1.079c.27-1.709.61-3.4.735-5.136a32.042,32.042,0,0,1,.459-4.775,3.74,3.74,0,0,0-.047-.824A1.553,1.553,0,0,0,145.7,210c-2.093-.47-3.988-1.634-6.193-1.729a.8.8,0,0,1-.733-.872c-.006-.209,0-.419-.016-.627a74.707,74.707,0,0,0-1.412-11.152,15.418,15.418,0,0,0-.965-3.193,5.186,5.186,0,0,1-.421-1.385c-.2-1.276.5-2,1.792-1.86a4.276,4.276,0,0,1,1,.287c.742.277.978.533.732,1.23a3.878,3.878,0,0,0,.1,2.45c.314,1.138.627,2.28,1.02,3.393a5.2,5.2,0,0,1,.333,1.836,43.625,43.625,0,0,0,.886,6.6,1.148,1.148,0,0,0,.626,1.02c.842.33,1.5,1.05,2.433,1.163a16.852,16.852,0,0,1,4.7,1.632c.863.379.932.494.923,1.4a19.23,19.23,0,0,1-.584,3.705,53.136,53.136,0,0,0-.651,6.018c-.047.525.337.756.813.524a6.242,6.242,0,0,1,1.095-.591,7.423,7.423,0,0,0,2.639-1.632c.892-.689.959-1.061.535-1.967a20.087,20.087,0,0,1-1.124-4.012,1.952,1.952,0,0,1-.008-1.23c.291-.7.578-1.411.85-2.122a4.094,4.094,0,0,1,3.141-2.49A2.456,2.456,0,0,1,160.2,208.5a18.224,18.224,0,0,1-.06,4.574,3.772,3.772,0,0,1-1.081,2.422,3.986,3.986,0,0,0-.522.644.818.818,0,0,0,.2,1.263,47.05,47.05,0,0,1,4,2.98A2.689,2.689,0,0,0,164.524,221.165ZM133.7,263.629a1.179,1.179,0,0,0,.791,1.241,18.357,18.357,0,0,1,2.4,1.241c3.3,2.111,5.274,5.242,6.935,8.659a23.062,23.062,0,0,0,2.349,4.174c1.668,2.14,3.436,2.9,5.716,1.185a5.283,5.283,0,0,1,5.523-.569c2.441,1.01,5.112,1.336,7.442,2.636.273.152.551-.042.695-.3a1.916,1.916,0,0,0,.289-.765c.143-2.106,1.441-3.715,2.336-5.5a4.236,4.236,0,0,1,1.452-1.457,28.571,28.571,0,0,1,4.421-2.305,8.114,8.114,0,0,0,3.584-3.336,3.573,3.573,0,0,0,.362-3.171,8.2,8.2,0,0,1-.462-1.578c-.428-3.094-.506-3.12-3.654-2.405a4.639,4.639,0,0,0-1.215.282,15.373,15.373,0,0,1-3.791,1.083,38.783,38.783,0,0,1-5.677,1.263,28.015,28.015,0,0,0-4.273.808,8.793,8.793,0,0,1-3.283.255,40.606,40.606,0,0,1-5.387-.49,5.308,5.308,0,0,0-.832-.048c-1.108-.092-2.218-.172-3.323-.291-1.382-.148-2.757-.386-4.143-.486a16.351,16.351,0,0,1-6.156-1.772c-1.766-.887-1.792-.359-2.027,1.139C133.748,263.265,133.73,263.4,133.7,263.629Zm20.459-1.4a19.025,19.025,0,0,0,6.238-.48c1.9-.387,3.815-.681,5.713-1.1a66.209,66.209,0,0,0,9.99-2.918,8.57,8.57,0,0,0,1.769-1.087,2.072,2.072,0,0,0,.84-2.378c-.239-1.014-.533-2.015-.83-3.014a.788.788,0,0,0-1.022-.462,4.764,4.764,0,0,0-.767.321c-3.432,1.8-7.2,2.405-10.948,3.051-2.05.354-4.139.488-6.184.866a23.107,23.107,0,0,1-9.71-.393,5.638,5.638,0,0,0-1.857-.186,10.844,10.844,0,0,1-3.085-.295c-1.3-.247-2.561-.638-3.821-1.007a43.727,43.727,0,0,1-4.782-1.437c-1.556-.656-1.787-.766-2.058,1.235a10.964,10.964,0,0,0-.288,3.5,2.079,2.079,0,0,0,.948,1.534,18.328,18.328,0,0,0,4.252,2.184,27.62,27.62,0,0,0,4.668,1.046c1.515.183,3.007.708,4.518.747C149.9,262.02,152.029,262.475,154.157,262.234Zm11.032-19.375a1.056,1.056,0,0,0-.384-.131,68.707,68.707,0,0,1-7.238.574,2.044,2.044,0,0,0-.62.061,12.382,12.382,0,0,1-6.332-.089c-1.165-.254-2.23-.753-3.372-1.023a21.065,21.065,0,0,1-5.9-2.486,5.144,5.144,0,0,0-1.729-.7,4.541,4.541,0,0,1-1.875-.831,6.665,6.665,0,0,0-2.431-1.156,9.7,9.7,0,0,0-.487,2.281,1.139,1.139,0,0,0,.633,1.394,22.266,22.266,0,0,0,6.859,2.805,31.418,31.418,0,0,0,4.9.777,52.313,52.313,0,0,1,6.238.3,18.463,18.463,0,0,0,4.356-.114c2.352-.274,4.587-1.091,6.936-1.334C164.94,243.173,165.155,243.119,165.189,242.859Zm3.132-4.882c-.03.277-.042.346-.045.415-.027.685.225.905.848.764a10.591,10.591,0,0,0,5.437-2.816c1.928-1.951,1.7-3.7-1.014-4.668-.326-.116-.666-.188-1-.279a7.423,7.423,0,0,1-1.4-.4c-1.258-.634-1.431-.05-1.857.838a2.134,2.134,0,0,0-.261.786C168.956,234.5,168.3,236.3,168.321,237.977Zm-22.087,8.773c.176.123.325.307.5.337,2.048.346,4.088.8,6.152.97a50.534,50.534,0,0,0,11.411-.618c2.618-.385,5.15-1.138,7.759-1.556a30.8,30.8,0,0,0,4.206-1.177,10.324,10.324,0,0,0,1.507-.692.873.873,0,0,0,.5-.85c-.058-.827-.174-1.651-.274-2.475-.007-.059-.067-.157-.106-.159a.721.721,0,0,0-.382.051.934.934,0,0,0-.261.312c-1.027,1.593-2.149,3.068-4.158,3.5a1.364,1.364,0,0,0-.541.3,4,4,0,0,1-1.717.589c-1.106.28-2.195-.106-3.277.151a10.151,10.151,0,0,1-3.275.5,2.552,2.552,0,0,0-1,.245,20.82,20.82,0,0,1-9.225,1.128,51.85,51.85,0,0,1-6.807-.726A1.026,1.026,0,0,0,146.234,246.75Zm-3.625-9.142c-.078-1.586-.14-2.888-.207-4.189-.058-1.126-.142-1.19-1.4-1.135-.551.024-1.108,0-1.653.073a4.358,4.358,0,0,0-2.449.991c-.61.542-.6,1.069.08,1.5A31,31,0,0,0,142.609,237.608Zm-5.355,7.306c.1-.509-.018-.686-.191-.79-.761-.461-1.532-.908-2.3-1.35a.5.5,0,0,0-.724.123c-.3.433-.255,1.162.1,1.281.905.3,1.823.567,2.747.808C137.074,245.035,137.266,244.865,137.254,244.914Zm20.155-33.273c.025-.343.056-.425.03-.48-.083-.172-.149-.4-.293-.486-.2-.123-.395.043-.526.206a2.512,2.512,0,0,0-.286,2.742.385.385,0,0,0,.312.175c.115-.008.3-.111.32-.205C157.151,212.858,157.3,212.116,157.409,211.641Zm15.154,29.584.111.071.024-.1Z"/><path class="98637b35-2505-4d6e-b27f-aa29c98afacf" d="M218.543,218.349c1.225.9,2.413,1.86,3.686,2.689a8.761,8.761,0,0,1,2.728,2.814,35.974,35.974,0,0,1,3.58,7.95,21.737,21.737,0,0,1,.658,9.682,18.933,18.933,0,0,1-3.448,8.632,6.16,6.16,0,0,0-.918,2.484c-.482,2.24.328,4.285.775,6.363a6.489,6.489,0,0,0,1.574,2.669,3.521,3.521,0,0,1,.827,3.467c-.139.536-.2,1.092-.29,1.64-.391,2.374-2.121,3.846-3.683,5.414-.932.936-1.958,1.779-2.942,2.663a3.944,3.944,0,0,1-.468.412,1.555,1.555,0,0,1-1.761-.068,1.335,1.335,0,0,1-.248-1.552,3.286,3.286,0,0,1,.791-1.209,23.518,23.518,0,0,1,2.548-2.131,8.723,8.723,0,0,0,3.03-4.611,1.533,1.533,0,0,0-.033-1.016,9.2,9.2,0,0,0-.939-2.082,14.678,14.678,0,0,1-2.155-6.254,16.866,16.866,0,0,1-.454-2.867.739.739,0,0,0-.616-.743,3.055,3.055,0,0,0-2.04-.146,2.4,2.4,0,0,1-2.166-.4,1.219,1.219,0,0,1-.125-2.078A4.124,4.124,0,0,1,219.105,249a16.614,16.614,0,0,0,3.3-.475,2.775,2.775,0,0,0,2.087-1.572,37.514,37.514,0,0,0,1.65-3.8,20.649,20.649,0,0,0-.226-10.091,32.673,32.673,0,0,0-3.588-7.956c-.1-.182-.177-.435-.336-.517-1.207-.619-1.949-1.791-3.035-2.529a13.728,13.728,0,0,0-2.586-1.292,2.014,2.014,0,0,0-1.934.9,9.191,9.191,0,0,0-.744,1.715,15.4,15.4,0,0,0-.806,5.335,8.977,8.977,0,0,1-.9,4.861c-.385.734-.567,1.573-.93,2.32a6.472,6.472,0,0,0-.756,4.217,5.646,5.646,0,0,1-.1,1.655c-.039.345-.189.682-.2,1.024a30.431,30.431,0,0,1-.042,3.525,15.689,15.689,0,0,0-.479,3.286,3.768,3.768,0,0,1-.327,2.044,15.62,15.62,0,0,0-1.132,3.574c-.334,1.3-1,2.441-1.423,3.691a1.554,1.554,0,0,1-.3.542,25.931,25.931,0,0,0-2.7,4.2,13.427,13.427,0,0,0-1.414,11.193,2.28,2.28,0,0,1,.154.6c-.009,1.978.712,3.823,1.037,5.74a5.583,5.583,0,0,0,.386,1.408,24.132,24.132,0,0,1,1.506,6.683,27.406,27.406,0,0,0,1.572,6.465,14.5,14.5,0,0,1,.575,2.216,25.427,25.427,0,0,0,1.7,5.148,34.825,34.825,0,0,0,5.1,7.567,32.788,32.788,0,0,0,4.837,4.252,58.363,58.363,0,0,1,7.593,7.426,12.125,12.125,0,0,0,1.8,2.016,2.025,2.025,0,0,1,.711,1.245c.239,1.054-.541,1.883-1.545,1.522a10.88,10.88,0,0,1-2.806-1.353,11.127,11.127,0,0,1-3.406-3.84c-.482-.942-1.4-1.493-1.985-2.38a13.079,13.079,0,0,0-2.387-2.3.8.8,0,0,0-.565-.134.412.412,0,0,0-.325.467,25.018,25.018,0,0,0,1.469,8.8,15.19,15.19,0,0,1,.968,2.75,21.184,21.184,0,0,0,2.046,5.2c1.049,2.116,1.941,4.31,2.942,6.451,1.059,2.266,2.166,4.51,3.255,6.762a1.09,1.09,0,0,0,.221.353c1.888,1.669,2.449,4.188,3.916,6.129a2.034,2.034,0,0,1,.306.973c.112,1.006-.514,1.477-1.4,1.063a3.154,3.154,0,0,1-1.765-1.677,3.139,3.139,0,0,0-1.189-1.673.9.9,0,0,0-1.152,0c-.265.225-.522.461-.775.7-3.02,2.842-1.579,6.369,1.107,7.808a11.553,11.553,0,0,0,4.8,1.276,32.955,32.955,0,0,0,9.1-.832,2.573,2.573,0,0,0,.918-.455,6.156,6.156,0,0,1,1.474-.758,57.728,57.728,0,0,0,7.506-3.621,33.881,33.881,0,0,0,7.582-5.838c1.13-1.141,2.487-1.984,3.585-3.168a40.577,40.577,0,0,0,4.342-6.1,1.384,1.384,0,0,0,.228-.578.783.783,0,0,0-.134-.567.6.6,0,0,0-.55-.127,17.482,17.482,0,0,0-1.6.961c-.406.268-.765.61-1.179.863a1.655,1.655,0,0,1-2.579-1.09,1.925,1.925,0,0,1-.061-.413c-.069-2.624-1.211-4.963-2.009-7.387-.455-1.383-1.123-2.7-1.711-4.034-.278-.634-.838-.876-1.318-.431-1.308,1.214-3.079,1.6-4.474,2.635a1.653,1.653,0,0,1-2.122,0,1.169,1.169,0,0,1-.142-1.942,7.732,7.732,0,0,1,1.523-1.095,21.06,21.06,0,0,0,4.154-2.771,4.171,4.171,0,0,1,1.052-.672,2.514,2.514,0,0,0,1.122-.886,13.185,13.185,0,0,1,2.785-2.461,3.125,3.125,0,0,0,1.136-1.4,18.122,18.122,0,0,1,2.68-4.679,28.491,28.491,0,0,0,2.437-3.873,21.478,21.478,0,0,1,2.32-3.457,22.015,22.015,0,0,0,1.792-2.776c1.234-2.166,2.7-4.2,4.083-6.278.152-.23.433-.391.535-.634.895-2.13,2.82-3.4,4.216-5.111a49.432,49.432,0,0,0,3.583-4.825,2.556,2.556,0,0,0,.429-2.163,9.217,9.217,0,0,1-.031-4.137,14.252,14.252,0,0,0,.015-3.957,41.573,41.573,0,0,1-.321-6.43c.105-2.151-.36-4.3-.2-6.462.121-1.663.084-3.349.347-4.987a34.139,34.139,0,0,0,.215-4.156,3.335,3.335,0,0,0-2.337-3.539,7.309,7.309,0,0,0-2.842-.552c-2.154.09-4.319.007-6.466.171a34.5,34.5,0,0,1-6.239.1,2.594,2.594,0,0,0-1.4.359,23.927,23.927,0,0,0-5.481,3.787,8.658,8.658,0,0,0-1.612,2.666,26.66,26.66,0,0,0-2.614,8.546,3.62,3.62,0,0,0-.013.625.738.738,0,0,0,.593.742,4.02,4.02,0,0,0,4.561-1.057c1.386-1.482,2.517-3.144,3.77-4.719a2.758,2.758,0,0,0,.5-1.355c.062-.412.089-.83.161-1.241a1.75,1.75,0,0,1,2.416-1.521.476.476,0,0,1,.411.405c.144,1.284.718,2.561-.063,3.853a.634.634,0,0,0,.473.952,4.474,4.474,0,0,0,2.646-.163c1.8-.723,3.648-1.344,5.49-1.963a1.5,1.5,0,0,1,2.026,1.188,1.983,1.983,0,0,1-1.344,1.894,15.013,15.013,0,0,0-3.482,1.342,16.392,16.392,0,0,1-4.814,1.295c-.763.093-.911.387-.763,1.151a12.582,12.582,0,0,0,1.614,4.465c.725,1.14,1.516,2.185,3,2.361a1.015,1.015,0,0,1,.2.055c.869.3,1.3.823,1.219,1.462a1.694,1.694,0,0,1-1.393,1.376,2.791,2.791,0,0,1-2.187-.41,9.662,9.662,0,0,1-3.43-3.822,25.882,25.882,0,0,1-1.73-4.233c-.136-.533-.471-1.016-.6-1.549-.235-.942-.66-1.076-1.333-.115a11.535,11.535,0,0,1-2.787,2.789,6.673,6.673,0,0,1-7.248.01,2.347,2.347,0,0,1-.887-2.019,15.064,15.064,0,0,1,.559-4.126,18.989,18.989,0,0,1,1.424-4.35,2.015,2.015,0,0,0,.135-1.8,8.77,8.77,0,0,1-.332-3.506.926.926,0,0,0-.79-1.05c-1.011-.231-2.006-.528-3.01-.787a1.076,1.076,0,0,0-1.131.357c-.646.728-1.335,1.426-1.91,2.206-1.327,1.8-2.891,3.389-4.35,5.071a7.838,7.838,0,0,1-1.4,1.246,9.053,9.053,0,0,0-1.744,1.481,2.542,2.542,0,0,1-2.592.947,4.114,4.114,0,0,0-.417-.022,4.578,4.578,0,0,1-4.656-4.618,13.654,13.654,0,0,1,.836-5.108,58.8,58.8,0,0,1,2.769-6.29,41.123,41.123,0,0,0,1.609-4.471c.039-.131-.01-.317.066-.4,1.116-1.265,1.2-2.921,1.693-4.422a1.976,1.976,0,0,1,1.1-1.407,15.006,15.006,0,0,0,1.924-1.184,47.018,47.018,0,0,1-1.859-9.608,9.594,9.594,0,0,1,.535-4.11,11.062,11.062,0,0,0,.59-3.695,1.107,1.107,0,0,0-.723-1.132,12.466,12.466,0,0,1-5.273-4.882,11.655,11.655,0,0,1-1.6-4.659,7.188,7.188,0,0,1,.069-3.485,1.414,1.414,0,0,1,.731-.955c1.718-.735,3.4-1.664,5.387-1.044a2.169,2.169,0,0,0,.82.011.539.539,0,0,0,.539-.531,10.914,10.914,0,0,0-.151-1.862c-.17-.883-.433-1.748-.648-2.623a15.746,15.746,0,0,1,0-4.753c.06-1.03.42-2.04.584-3.068a8.074,8.074,0,0,1,3.65-5.384,15.956,15.956,0,0,1,6.641-2.9,3.933,3.933,0,0,1,4.563,2.4,13.019,13.019,0,0,1,.891,3.632c.192,1.307.324,2.625.424,3.943.211,2.772.354,5.549.587,8.319.127,1.518.376,3.026.58,4.538.109.807.455,1.631-.312,2.335-.155.142-.063.43.1.553,1.414,1.042,2.229,2.666,3.638,3.718a4.349,4.349,0,0,1,1.149,1.2c1.7,2.877,4.362,4.849,6.7,7.106a30.507,30.507,0,0,0,4.166,3.133,6.269,6.269,0,0,1,2.663,4.274,18.262,18.262,0,0,1-.28,6.184c-.148,1.034-.329,2.066-.564,3.083a10.65,10.65,0,0,0-.214,4.35,2.374,2.374,0,0,1-.218,1.615,1.6,1.6,0,0,0,.071,1.591,33.37,33.37,0,0,1,1.87,4.188.911.911,0,0,0,1.16.631,10.067,10.067,0,0,1,4.135.283,5.954,5.954,0,0,1,5.006,6.433c-.125,2.289-.166,4.588-.427,6.862a28.918,28.918,0,0,0-.4,5.187c.206,3.192.13,6.4.61,9.577a20.589,20.589,0,0,1,.112,3.744,13.518,13.518,0,0,0,.419,5.169,3.485,3.485,0,0,1-.506,2.79,9.83,9.83,0,0,1-1.613,2.417c-1.793,1.932-3.566,3.89-5.226,5.936a66.156,66.156,0,0,0-4.838,6.775c-1.241,2-2.193,4.188-3.8,5.966a10.5,10.5,0,0,0-1.168,1.972,30.854,30.854,0,0,1-3.126,4.638,11.312,11.312,0,0,0-1.595,2.437,17.3,17.3,0,0,1-3.031,4.438c-2.481,2.684-2.266,2.352-1.233,5.311.894,2.559,1.958,5.059,2.964,7.578a.992.992,0,0,0,1.5.609,8.055,8.055,0,0,0,1.08-.634,3.371,3.371,0,0,1,2.573-.522,2.371,2.371,0,0,1,2.185,2.571,10.549,10.549,0,0,1-2.055,5.813,67.532,67.532,0,0,1-10.539,10.671,43.252,43.252,0,0,1-6.977,4.5c-2.279,1.195-4.7,2.1-6.9,3.439a6.654,6.654,0,0,1-1.536.642,22.321,22.321,0,0,1-6.322,1.2,15.705,15.705,0,0,0-3.536.18,3.224,3.224,0,0,1-1.215-.192c-1.364-.27-2.733-.519-4.089-.826a3.723,3.723,0,0,1-2.18-1.145,3.086,3.086,0,0,0-.832-.612,6.934,6.934,0,0,1-2.928-3.89,7.023,7.023,0,0,1,.572-5.44,9.505,9.505,0,0,1,2.774-3.352c1.032-.849,1.092-1.1.431-2.283a25.856,25.856,0,0,0-1.683-2.624,6.172,6.172,0,0,1-1.2-2.176,9.923,9.923,0,0,0-1.809-3.49,7.9,7.9,0,0,1-1.335-3.022,11.833,11.833,0,0,0-1.324-3.484,11.924,11.924,0,0,1-1.23-3.292c-.325-1.545-1.349-2.924-1.1-4.6a.571.571,0,0,0-.1-.395c-1.316-1.65-1.1-3.7-1.38-5.594a12.2,12.2,0,0,1,.08-4.352,1.452,1.452,0,0,0-.424-1.505,11.222,11.222,0,0,1-2.415-3.37,3.481,3.481,0,0,0-.861-1.171c-2.122-1.778-3.032-4.257-3.938-6.731-.668-1.823-1.244-3.68-1.879-5.515a43.945,43.945,0,0,1-1.3-5.888c-.161-.811-.153-1.655-.235-2.482a28.8,28.8,0,0,0-1.941-8.049,2.792,2.792,0,0,1-.219-1.422,6.156,6.156,0,0,0-.444-2.864,11.79,11.79,0,0,1-.616-5.552c.14-1.174.247-2.354.428-3.523a10.8,10.8,0,0,1,1.333-3.686c1.288-2.291,2.813-4.43,4.076-6.731a4.8,4.8,0,0,0,.572-1.1,49.7,49.7,0,0,0,1.451-5.645c.218-1.851.573-3.686.86-5.528a2,2,0,0,0,.017-.613,40.077,40.077,0,0,1-.009-4.572,10.554,10.554,0,0,1,1.481-5.36,11.044,11.044,0,0,0,.977-2.7,33.533,33.533,0,0,0,.76-6.794,6.659,6.659,0,0,1,3.573-5.736,2.869,2.869,0,0,1,2.427-.178,5.3,5.3,0,0,0,2.047.282ZM266.63,249.8c1.251-.111,2.5.02,3.755-.123.709-.081.962-.157.654-1.087a6.621,6.621,0,0,0-.349-.751c-1.232-2.564-2.424-5.148-3.712-7.683a19.343,19.343,0,0,0-2.932-4.291,2.436,2.436,0,0,0-2.619-.926,46.8,46.8,0,0,1-4.608,1.176c-1.929.532-3.851,1.128-5.737,1.835A13.275,13.275,0,0,1,247.72,239a14.554,14.554,0,0,0-5.474,1.151,2.006,2.006,0,0,1-.817.139,2.6,2.6,0,0,0-2.338,1.789,33.446,33.446,0,0,0-2.075,4.752,42.4,42.4,0,0,1-1.65,4.281c-.763,1.865-1.538,3.725-2.342,5.573a8.143,8.143,0,0,0-.587,3.475c.036,1.728,1.35,2.483,2.9,1.718.306-.151.559-.406.855-.583,1.992-1.193,3.168-3.278,5.038-4.6a1.124,1.124,0,0,0,.229-.344,24.642,24.642,0,0,1,2.9-3.813,2.564,2.564,0,0,0,.6-2.893,6.157,6.157,0,0,1-.332-.987,1.144,1.144,0,0,1,.656-1.377,1.161,1.161,0,0,1,1.629.443c.275.48.406,1.05.716,1.5.468.683.6,1.72,1.35,2.041a6.311,6.311,0,0,0,3.061.507,4.56,4.56,0,0,1,.612-.115.9.9,0,0,1,.575.189,4.294,4.294,0,0,1,1.327,2.267c.034.23-.28.556.12.672a.694.694,0,0,0,.71-.35,12.515,12.515,0,0,1,3.681-3.02,8.221,8.221,0,0,1,5.274-1.624C265.1,249.85,265.865,249.8,266.63,249.8Zm3.18-11.45a40.959,40.959,0,0,0,1.239-8.2,4.512,4.512,0,0,0-2.042-4.3c-.629-.433-1.26-.865-1.872-1.322a17.119,17.119,0,0,1-2.124-1.674c-1.787-1.848-3.767-3.507-5.4-5.509a28.516,28.516,0,0,0-3.029-3.132c-1.166-1.055-2.231-2.24-3.331-3.368a6.462,6.462,0,0,0-3.841-1.814,20.145,20.145,0,0,0-3.529-.089,3.634,3.634,0,0,1-1.416-.251,38.344,38.344,0,0,0-8.01-2.211c-1.912-.295-2.582.162-2.717,2.077a3.9,3.9,0,0,0,.082,1.24,9.972,9.972,0,0,0,3.321,5.414,18.709,18.709,0,0,0,6.932,3.263A7.717,7.717,0,0,0,249,218.21c.586-.22,1.186-.411,1.75-.676a7.008,7.008,0,0,1,2.436-.507,1.113,1.113,0,0,1,.758.261,1.664,1.664,0,0,1-.7,2.673c-1.149.278-2.32.463-3.472.731a.832.832,0,0,0-.652,1.249c.19.52.408,1.029.622,1.541a20.16,20.16,0,0,0,5.85,8.234,3.606,3.606,0,0,0,2.475.89,7.528,7.528,0,0,0,2.415-.6,5.154,5.154,0,0,1,3.849.15,7.617,7.617,0,0,1,3.671,3.559A27.578,27.578,0,0,0,269.81,238.349Zm-17.756-38.62a62.493,62.493,0,0,0-.687-9.127c-.077-.758-.3-1.5-.37-2.259a4.608,4.608,0,0,0-.7-1.72,1.14,1.14,0,0,0-.978-.666,3.51,3.51,0,0,0-1.842.155c-.566.261-1.183.415-1.745.684a7.881,7.881,0,0,0-4.139,3.913,12.405,12.405,0,0,0-1.039,6.7c.3,2.119.934,4.191,1.416,6.285a1.6,1.6,0,0,0,1.254,1.2,13.085,13.085,0,0,0,4.834.773,10.236,10.236,0,0,1,2.893.008c1.354.315,1.513.075,1.378-1.4A31.471,31.471,0,0,1,252.054,199.729Zm1.242,33.844a10.824,10.824,0,0,1-3.111-3.4,35.612,35.612,0,0,1-2.153-3.567c-.612-1.312-1.431-2.528-2.156-3.787a2.592,2.592,0,0,0-2.166-1.4,10.873,10.873,0,0,1-1.938-.525c-1.387,2.754-1.333,5.638-1.187,8.46a30.958,30.958,0,0,0,1.294,6.727.713.713,0,0,0,.946.566,32.9,32.9,0,0,1,4.3-.771,8.581,8.581,0,0,0,1.787-.565C250.263,234.8,251.6,234.25,253.3,233.573Z"/><path class="98637b35-2505-4d6e-b27f-aa29c98afacf" d="M75.969,234.87c3.347,2.946,3.365,2.939,4.894,7.029.536,1.432.978,2.9,1.43,4.362a18.026,18.026,0,0,0,1.8,4.629,3.193,3.193,0,0,1,.3,2.033,22.619,22.619,0,0,1-1.164,5.058,1.259,1.259,0,0,1-.664.771,4.225,4.225,0,0,1-1.346.538,31.108,31.108,0,0,1-6.416.371c-.069-.008-.136-.042-.2-.043a10.175,10.175,0,0,1-6.233-2.564,2.193,2.193,0,0,0-.485-.389c-2.047-.815-2.765-2.614-3.317-4.51-.272-.931-.4-1.9-.633-2.847a1.786,1.786,0,0,0-1.378-1.376,10.343,10.343,0,0,0-3.269-.536c-.5.018-.782.345-.623.831.731,2.231,1.191,4.529,2.136,6.718a67.839,67.839,0,0,0,3.414,5.944,3.169,3.169,0,0,1,.5,1.978,2.935,2.935,0,0,1-2.216,2.732,16.2,16.2,0,0,0-2.581.754,1.09,1.09,0,0,1-.41.077c-2.508.069-5,.1-7.331-1.1a14.36,14.36,0,0,1-3.461-2.231c-.215.921-.433,1.631-.537,2.357a15.659,15.659,0,0,1-.722,2.374c-.554,1.807-1.912,2.864-3.289,3.912-.921.7-1.528.585-2.381-.247a.609.609,0,0,1-.074-.92,17.317,17.317,0,0,1,1.414-1.512,8.028,8.028,0,0,0,2.387-5.188c.051-.344.069-.693.089-1.041a10.114,10.114,0,0,1,.1-1.64,9.515,9.515,0,0,1,.628-1.529,9.607,9.607,0,0,0-2.224-.7,8.486,8.486,0,0,1-4.3-2.423,4.7,4.7,0,0,1-.861-1.42c-.149-.409-.245-.864.152-1.143a.81.81,0,0,1,.961.174c.43.353.849.721,1.259,1.1a9.336,9.336,0,0,0,2.051,1.427,2.938,2.938,0,0,0,1.2.322c.793.047,1.2-.252,1.25-1.033.049-.762.03-1.529.018-2.293-.005-.347-.1-.693-.091-1.037a1.124,1.124,0,0,1,.555-1.052,1.372,1.372,0,0,1,1.528.358,2.394,2.394,0,0,1,.562,1.945,8.137,8.137,0,0,0,1.209,5.387,8.376,8.376,0,0,0,4.593,4.039,9.254,9.254,0,0,0,6.522-.258.907.907,0,0,0,.59-1.177,4.79,4.79,0,0,0-.74-1.706,57.965,57.965,0,0,1-3.821-6.682,12.23,12.23,0,0,1-1.042-3.8c-.244-1.265-.533-2.467-2.05-2.8a.961.961,0,0,1-.478-.375,4.028,4.028,0,0,0-3.13-1.376c-2.07-.227-4.131-.55-6.186-.886a6.57,6.57,0,0,1-1.776-.591c-1.724-.839-3.253-.12-4.786.544a1.189,1.189,0,0,0-.534.617,11.659,11.659,0,0,0-1.151,3.96,30.954,30.954,0,0,0,.387,4.56,28.956,28.956,0,0,1-.688,9.5,63.536,63.536,0,0,1-2.957,8.43,14.524,14.524,0,0,0,.8,12.87c1.462,2.6,2.925,5.2,4.589,7.7a40.246,40.246,0,0,1,3.636,6.792c.885,2.116,1.852,4.2,2.91,6.24a19,19,0,0,0,2.142,3.076,46.877,46.877,0,0,0,4.074,4.469,29.027,29.027,0,0,0,7.731,4.825,5.215,5.215,0,0,0,2.592.7,1.369,1.369,0,0,1,1.24.635c.277.376.768.718.489,1.267a1.474,1.474,0,0,1-1.248.653,4.737,4.737,0,0,1-2.595-.614q-1.892-.858-3.816-1.64a.589.589,0,0,0-.91.509c-.415,2.54-.8,5.085-1.2,7.628a21.087,21.087,0,0,1-.436,2.464,13.993,13.993,0,0,0-.88,5.526,1.747,1.747,0,0,1-.284,1.2,1,1,0,0,1-1.274.38,1.763,1.763,0,0,1-1.176-2.311c.063-.341.128-.683.161-1.027a1.21,1.21,0,0,0-.107-.4c-.4-.138-.648.143-.9.358-.53.45-1.007.97-1.566,1.378a3.643,3.643,0,0,0-1.324,3.337,3.539,3.539,0,0,0,.243,1.225,20.771,20.771,0,0,0,2.3,4.66,28.8,28.8,0,0,0,4.377,4.75,28.413,28.413,0,0,1,2.317,2.1,24.194,24.194,0,0,0,4.932,4.164,43.54,43.54,0,0,0,8.928,4.475,11.921,11.921,0,0,0,2.049.376c2.482.388,4.857,1.208,7.289,1.8a10.054,10.054,0,0,0,4.753.081A6.711,6.711,0,0,0,85.1,359.39a3.391,3.391,0,0,0,1.128-2.575c.145-2.434-1.025-4.254-2.64-5.882a7.523,7.523,0,0,0-.646-.53c-1.352-1.092-1.977-1.041-3.1.287a7.045,7.045,0,0,0-.7,1.039,1.049,1.049,0,0,1-1.243.522c-.749-.159-1.091-.6-.761-1.328a6.322,6.322,0,0,0,.936-2.951.375.375,0,0,1,.069-.195c.071-.117.139-.31.235-.327,1.167-.21.8-1.724,1.812-2.088a3.847,3.847,0,0,0,1.916-1.847,37.953,37.953,0,0,0,3.753-7.207,26.1,26.1,0,0,1,1.248-2.872,139.449,139.449,0,0,0,5.3-14.04,18.344,18.344,0,0,0,.568-3.286A2.274,2.274,0,0,0,92.8,315.1a.736.736,0,0,0-.822-.494,2,2,0,0,0-.6.158q-4.506,1.9-9.009,3.818c-.383.163-.758.352-1.148.5-1.848.687-2.831-.011-3.6-1.762a.69.69,0,0,1,.088-.568c.165-.237.528-.4.737-.262,1.837,1.169,3.583.181,5.162-.446a33.93,33.93,0,0,0,6.283-2.759,5.354,5.354,0,0,1,1.744-.679,16.356,16.356,0,0,0,7.094-3.792,1.779,1.779,0,0,0,.458-.423,24.525,24.525,0,0,0,2.314-4.407c.846-2.937,1.5-5.926,2.5-8.825.61-1.763.931-3.627,1.384-5.445.15-.605.3-1.211.462-1.814a26.277,26.277,0,0,0,1.137-7.387,5.512,5.512,0,0,1,.309-2.264,35.466,35.466,0,0,0,1.709-7.5c.377-2.04.419-4.14.718-6.2a8.111,8.111,0,0,0-.908-4.814,19.958,19.958,0,0,1-1.82-5.082c-.085-.475-.271-.931-.4-1.4a14.12,14.12,0,0,1-.525-6.377,7.016,7.016,0,0,0-.919-5.027,23.8,23.8,0,0,1-1.815-4.2,6.062,6.062,0,0,1-.412-1.822,42.948,42.948,0,0,0-1.826-10.461,23.691,23.691,0,0,0-.937-3.4,15.725,15.725,0,0,0-2.918-4.287c-.964-1-1.9-1.032-2.776.094a35.409,35.409,0,0,0-2.071,3.123c-.4.648-.687,1.366-1.079,2.021a18,18,0,0,0-2.37,8.932,39.924,39.924,0,0,0,.425,7.033c.081.548.243,1.084.358,1.628.633,3.012,2.962,3.934,5.835,3.688.412-.035.817-.159,1.229-.18a.851.851,0,0,1,.831.525.816.816,0,0,1-.135.78,2.366,2.366,0,0,1-2.124,1.1c-.973.059-1.949.05-2.923.085-.4.015-.593.245-.678.643a11.8,11.8,0,0,0-.085,3.534,10.053,10.053,0,0,0,.171,1.03,7.175,7.175,0,0,1-1.725,6.378,6.023,6.023,0,0,0,.992,8.826,3.179,3.179,0,0,1,.775.677,8.2,8.2,0,0,0,2.415,2.271.957.957,0,0,1,.487,1.222,1.2,1.2,0,0,1-1.2.653,2.5,2.5,0,0,1-1.336-.527,24.361,24.361,0,0,1-4.86-4.2c-1-1.254-2.082-2.645-1.857-4.484-.593-2.514.763-4.414,2.025-6.329a6.637,6.637,0,0,0,1.1-1.987,5.618,5.618,0,0,0,.158-2.656,19.2,19.2,0,0,1-.125-6.228,1.558,1.558,0,0,0-.322-1.347,10.546,10.546,0,0,1-2.281-5.91c-.132-1.1-.11-2.2-.315-3.311-.329-1.778.158-3.581.126-5.378.813-1.987.743-4.213,1.779-6.16a36.034,36.034,0,0,1,3.34-5.507c.642-.816,1.141-1.743,1.732-2.6a1.561,1.561,0,0,1,1.592-.755,8.8,8.8,0,0,1,6.022,2.914,17.75,17.75,0,0,1,3.534,7.916,73.431,73.431,0,0,1,1.342,7.581,32.138,32.138,0,0,0,1.313,5.667,8.1,8.1,0,0,0,1.105,2.463,6.283,6.283,0,0,1,.9,5.391,21.161,21.161,0,0,0-.2,4.565,3.218,3.218,0,0,0,.392,1.394,4.48,4.48,0,0,1,.564,1.338c.17,2.619,1.649,4.841,2.176,7.35a6.844,6.844,0,0,1,.238,1.85c-.219,3.392-.247,6.8-1.2,10.115-.592,2.07-.838,4.23-1.247,6.345-.394,2.04-.557,4.118-1.1,6.148-.463,1.727-.565,3.562-1,5.322a35.392,35.392,0,0,1-.98,3.617c-.378,1.042-.612,2.136-.911,3.207-.747,2.676-1.474,5.359-2.249,8.027a10.2,10.2,0,0,1-3.235,5,10.669,10.669,0,0,1-3.394,2.355c-.567.191-.671.647-.688,1.158a27.17,27.17,0,0,1-1.791,8.339c-.877,2.418-1.9,4.782-2.85,7.175s-1.9,4.774-2.8,7.182c-.413,1.109-1.3,1.99-1.464,3.207-1.148,1.42-1.515,3.281-2.657,4.709a3.838,3.838,0,0,0-.478.922,1.386,1.386,0,0,0,.461,2c.809.654,1.671,1.241,2.488,1.885a3.085,3.085,0,0,1,1.426,2.421,1.907,1.907,0,0,0,.331,1.184c1.181,1.266.486,2.811.666,4.208a4.739,4.739,0,0,1-.877,2.947,3.66,3.66,0,0,1-.8.942,9.6,9.6,0,0,1-8.491,2.375c-1.831-.379-3.737-.478-5.516-1.012-2.274-.683-4.66-.677-6.924-1.42a24.877,24.877,0,0,1-5.46-2.489,59.429,59.429,0,0,1-5.667-3.872,25.863,25.863,0,0,1-3-2.892c-.986-1.085-2.023-2.11-3.106-3.092a13.917,13.917,0,0,1-2.959-3.49,4.458,4.458,0,0,0-.771-.978,5.451,5.451,0,0,1-1.383-2.295,5.648,5.648,0,0,0-1-2.046,2.994,2.994,0,0,1-.637-2.327c.027-.832.18-1.662.193-2.494a3.617,3.617,0,0,1,1.451-2.876,33.55,33.55,0,0,1,4.832-3.635,2.982,2.982,0,0,0,1.581-2.513c.3-2.485.671-4.961,1.014-7.44.038-.276.106-.549.122-.825a2.175,2.175,0,0,0-1.324-2.517,6.078,6.078,0,0,1-2.792-2.421,3.66,3.66,0,0,0-.661-.794c-2.936-2.586-4.737-5.929-6.4-9.392a53.928,53.928,0,0,0-4.219-8.143c-.957-1.353-1.566-2.939-2.443-4.366-1.344-2.187-2.559-4.452-3.85-6.671a7.861,7.861,0,0,1-.795-2.32c-.711-3.141-.277-6.234.114-9.339a6.277,6.277,0,0,1,.428-1.385c.392-1.04.758-2.094,1.222-3.1,1.289-2.8,1.786-5.828,2.579-8.771a5.677,5.677,0,0,0,.242-1.644,35.4,35.4,0,0,0-.7-7.041,8.089,8.089,0,0,1,1.489-7.257,3.448,3.448,0,0,1,2.081-1.306c.747-.165,1.5-.307,2.253-.434a1.729,1.729,0,0,0,1.573-1.433c.255-1.151.552-2.293.862-3.429a10.79,10.79,0,0,0,.074-5.361,14.452,14.452,0,0,1-.647-4.448,5.451,5.451,0,0,0-.549-2.424,8.434,8.434,0,0,1-.07-5.9,5.344,5.344,0,0,1,1.551-2.422,37.914,37.914,0,0,1,6.729-5.249,12.572,12.572,0,0,1,1.66-.858,12.89,12.89,0,0,0,2.927-1.583c1.19-.834,2.484-1.52,3.731-2.275.3-.18.57-.4.872-.567a2.968,2.968,0,0,0,1.5-2.521,32.9,32.9,0,0,1,1.314-6.738,14.3,14.3,0,0,0,.35-4.12c.031-.828-.172-1.675-.071-2.488a24.508,24.508,0,0,0-.631-7.04,5.687,5.687,0,0,1,1.227-4.266,1.846,1.846,0,0,1,1.459-.719,12.11,12.11,0,0,1,5.149.581,4.091,4.091,0,0,1,.749.366,15.933,15.933,0,0,1,6.79,8.434,16.924,16.924,0,0,1,1.267,6.292,10.557,10.557,0,0,1,.333,4.937c-.117.863.228,1.76.123,2.668a.6.6,0,0,0,.888.542c.554-.283,1.059-.666,1.618-.937,1.069-.52,2.163-1.01,3.373-.412a4.87,4.87,0,0,1,2.744,2.655,8.513,8.513,0,0,1,.045,5.117,4.794,4.794,0,0,1-1.779,2.528c-1.389,1.042-2.316,2.617-3.948,3.371-.174.081-.282.3-.424.455a15.881,15.881,0,0,1-3.078,2.784,1.128,1.128,0,0,0-.549,1.057c.034.834,0,1.677.1,2.5a83.114,83.114,0,0,1,.394,11.054,5.561,5.561,0,0,0,.031,1.456C76.819,233.489,77.043,234.34,75.969,234.87ZM61.516,245.4c.183-.089.663.152,1.147.122a.59.59,0,0,0,.62-.666c0-.207-.085-.413-.079-.619a1.125,1.125,0,0,1,1.518-1.165,1.887,1.887,0,0,1,1.745,2.125c.017.417.028.836.067,1.251a20.487,20.487,0,0,0,1.928,7.63,1.941,1.941,0,0,0,.583.834c.637.424,1.247.892,1.908,1.272,1.512.871,6.471,1.364,8.171.9a2.249,2.249,0,0,0,1.611-1.474,5.635,5.635,0,0,0,.053-4.841,17.61,17.61,0,0,1-1.332-4.365,46.345,46.345,0,0,0-1.94-6.158,5.442,5.442,0,0,0-1.815-2.468,26.434,26.434,0,0,0-4.275-2.521,21.759,21.759,0,0,0-5.95-1.726c-1.567-.308-3.045-1-4.667-1.051-1.633-.947-3.5-1.352-5.176-2.165-3.2-1.552-3.165-1-5.774-.36a5.883,5.883,0,0,0-2.288.96,2.26,2.26,0,0,0-.7.749c-.844,1.674-1.748,3.32-2.53,5.023a12.886,12.886,0,0,0-1.045,3.372c-.194,1.236-.172,1.357.97,1.6a18.571,18.571,0,0,0,4.105.652c2.264-.05,4.134,1.068,6.175,1.675,1.087,1.177,2.512,1.249,3.983,1.3A8.832,8.832,0,0,0,61.516,245.4Zm-17.542-15.6c.716-.229.826-.888,1.289-1.184a3.425,3.425,0,0,1,.858-.55c1.742-.452,3.424-1.1,5.215-1.413A31.028,31.028,0,0,0,62.521,222.3a14.369,14.369,0,0,0,3.588-3.444c.346-.441.972-.933.626-1.632-.258-.519-.874-.283-1.321-.413a3.376,3.376,0,0,1-1.947-1.12.834.834,0,0,1-.124-.963.8.8,0,0,1,.655-.448c.416-.025.835,0,1.252-.02a11.4,11.4,0,0,1,2.861.533c.97.21,2.093-.368,2.939.605.171.2.659.15,1,.157a4.556,4.556,0,0,0,3.188-1.331c2.387-2.124,4.72-4.306,6.929-6.614,1.283-1.339,1.282-3,.9-4.678-.143-.625-.627-.81-1.277-.767a4.4,4.4,0,0,0-2.088.88,5.476,5.476,0,0,1-3.747.842c-1.233-.126-2.468-.2-3.7-.356-1.573-.2-3.2.053-4.783-.084a6.99,6.99,0,0,0-4.6,1.618c-1.93,1.337-3.939,2.559-5.837,3.95a17.672,17.672,0,0,1-3.99,2.227,23.205,23.205,0,0,0-9.21,6.551,3.932,3.932,0,0,0-1.085,2.4,13.252,13.252,0,0,0,.226,4.753C43.436,226.511,43.646,228.152,43.974,229.793ZM62.3,201.454a17.725,17.725,0,0,0,3.232-.518,4.72,4.72,0,0,1,2.26-.276c1.777.319,3.61-.057,5.37.529.695.231,1.034-.139,1.016-.856-.021-.831-.065-1.661-.072-2.492-.006-.63.459-1.128.448-1.8a26.738,26.738,0,0,0-1.289-8.8c-.266-.734-.824-1.3-1.047-2.023-.793-2.566-2.736-3.9-5.043-4.905a5.657,5.657,0,0,0-2.644-.385,1.391,1.391,0,0,0-1.33,1.112,4.527,4.527,0,0,0-.009,2.675,13.857,13.857,0,0,1,.388,3.715c.042,1.589.044,3.18.061,4.77a17.043,17.043,0,0,1-.57,4.938A13.124,13.124,0,0,0,62.3,201.454Zm-5.2,26.341c.863.78,1.783.729,2.483,1.18a13.07,13.07,0,0,0,5.1,1.675,20.284,20.284,0,0,1,5.2,1.387,9.273,9.273,0,0,0,1.762.608c1.3.295,1.625.376,1.906-1.09a13.723,13.723,0,0,0,.257-3.914c-.156-1.521.061-3.019-.032-4.529a17.54,17.54,0,0,0-.592-4.284.871.871,0,0,0-.888-.709c-.417,0-.834,0-1.249-.016a1.125,1.125,0,0,0-1.071.513,26.427,26.427,0,0,1-4.024,4.448,7.143,7.143,0,0,1-1.979,1.482,14.712,14.712,0,0,0-3.779,2.109,3.373,3.373,0,0,1-1.127.5C58.472,227.362,57.877,227.541,57.093,227.8Z"/><path class="98637b35-2505-4d6e-b27f-aa29c98afacf" d="M147.057,348.256c.221-1.582.422-3.167.67-4.744q.453-2.885.973-5.757c.821-4.575,1.662-9.147,2.487-13.722.1-.544.146-1.1.213-1.648.115-.957-.187-1.256-1.2-1.086a9.437,9.437,0,0,0-2.934,1.006,1.966,1.966,0,0,1-1.4.277,1.784,1.784,0,0,1-1.38-2.668,16.252,16.252,0,0,0,.957-3.607q.571-3.7,1.346-7.373c.428-2.042.588-4.122,1.056-6.163.406-1.774,1.044-3.455,1.615-5.163a3.729,3.729,0,0,0,.319-1.992,1.613,1.613,0,0,1,1.468-1.882,4.846,4.846,0,0,1,1.862.067c1.088.222,2.18.454,3.283.57a9.46,9.46,0,0,0,3.514-.217,2.614,2.614,0,0,1,3.139,2.668,3.91,3.91,0,0,1-.058.622c-.526,2.657-.774,5.364-1.492,7.987-.538,1.966-.327,4.011-.534,6.014-.053.515.322.777.8.621a21.512,21.512,0,0,0,2.363-.813,2.727,2.727,0,0,1,2.215.046,2.063,2.063,0,0,1,1.03,3.077,41.138,41.138,0,0,0-4.414,8.223,24.807,24.807,0,0,1-1.73,3.546,8.789,8.789,0,0,0-1.116,2.68,14.13,14.13,0,0,1-1.621,4.047,10.549,10.549,0,0,0-.631,1.317c-.832,1.91-1.766,3.785-2.457,5.745-1.182,3.351-3.015,6.417-4.151,9.783a7.167,7.167,0,0,1-.677,1.291,1.458,1.458,0,0,1-1.62.683c-.659-.131-1.393-.322-1.569-1.168A7.125,7.125,0,0,1,147.057,348.256Zm4.738-8c.454-.093.49-.39.592-.612.846-1.83,1.746-3.639,2.5-5.508.574-1.428,1.485-2.706,1.963-4.139.815-2.449,2.062-4.7,2.931-7.12a30.774,30.774,0,0,1,1.637-3.6c.664-1.294,1.188-2.66,1.754-4,.032-.078-.091-.236-.167-.338a.222.222,0,0,0-.2-.012,8.011,8.011,0,0,0-1.079.6c-.447.328-.83.742-1.276,1.071a1.314,1.314,0,0,1-1.188.226A2.126,2.126,0,0,1,158,315.073c-.022-.486-.021-.973-.028-1.46a35.965,35.965,0,0,1,.942-9.31c.454-1.816.653-3.695.955-5.548a2.779,2.779,0,0,0-.022-.623c-.05-.75-.294-1-1.023-1.02-1.527-.05-3.054-.092-4.581-.144-1.214-.04-1.325-.006-1.567,1.145a32.157,32.157,0,0,1-1.333,4.6,15.833,15.833,0,0,0-.657,2.837q-.269,1.539-.5,3.084a5.479,5.479,0,0,0-.1,1.241,10.988,10.988,0,0,1-.67,4.5,22.6,22.6,0,0,0-.694,3.257c-.09.5.223.8.744.7,1.413-.279,2.874-.4,3.786-1.835a1.333,1.333,0,0,1,2.146.1,1.65,1.65,0,0,1,.2,1.939c-.526.892-1.081,1.786-.482,2.9.112.2.009.549-.046.819a43.144,43.144,0,0,1-.961,4.453,22.9,22.9,0,0,0-.714,3.034c-.315,1.851-.665,3.7-.95,5.551C152.2,336.927,152.014,338.568,151.795,340.253Z"/><path class="98637b35-2505-4d6e-b27f-aa29c98afacf" d="M189.933,91.612a4.374,4.374,0,0,0-1.218-.109.835.835,0,0,1-.849-1.127,30.027,30.027,0,0,1,1.067-2.927c1.2-2.883,2.431-5.75,3.628-8.633a17.491,17.491,0,0,0,.558-1.784,5.213,5.213,0,0,1,.467-1.592c.884-1.208.948-2.7,1.563-4a23.347,23.347,0,0,0,1.474-3.876c.657-2.441,2.013-4.55,3.016-6.824.671-1.519,1.658-2.9,1.93-4.593a2.661,2.661,0,0,1,.3-.773c1.965-3.746,3.5-7.692,5.319-11.505a13.209,13.209,0,0,0,1.559-3.622,1.406,1.406,0,0,1,.445-.681,8.39,8.39,0,0,0,1.759-3.028c.813-2.049,1.631-4.1,2.427-6.151a17.794,17.794,0,0,0,.643-1.976,6.634,6.634,0,0,1,1.667-3.307,2.9,2.9,0,0,0,.8-1.439,16.843,16.843,0,0,1,1.592-3.834,6.618,6.618,0,0,0,.606-1.323c.908-3.514,2.782-6.655,3.861-10.1.458-1.46.935-2.915,1.459-4.352.512-1.4,1.389-1.5,2.479-.471a1.8,1.8,0,0,1,.416,2.4c-.645,1.306-1.261,2.628-1.875,3.949-1.995,4.291-3.516,8.77-5.255,13.164-.486,1.228-.94,2.473-1.5,3.665-1.968,4.155-3.4,8.519-5.061,12.792a57.119,57.119,0,0,1-2.969,7.083,23.134,23.134,0,0,0-.969,2.3,26.082,26.082,0,0,1-1.071,2.491c-2.284,4.155-3.807,8.651-5.838,12.919-1.313,2.76-2.656,5.508-3.892,8.3a105.383,105.383,0,0,0-4.787,11.542c-.691,2.251-1.606,4.435-2.442,6.641A1.1,1.1,0,0,1,189.933,91.612Z"/><path class="98637b35-2505-4d6e-b27f-aa29c98afacf" d="M212.9,107.875a1.1,1.1,0,0,1-1.008-1.607,3.373,3.373,0,0,1,.6-.837c.836-.83,1.694-1.638,2.552-2.445a8.084,8.084,0,0,0,.938-.821,75.983,75.983,0,0,1,9.034-9.18,11.605,11.605,0,0,0,1.3-1.343c1.668-2.141,3.653-3.991,5.457-6.007a1.862,1.862,0,0,1,.3-.29,36.65,36.65,0,0,0,5.577-5.567c.515-.562,1.14-1.023,1.655-1.585,1.638-1.787,3.239-3.608,4.873-5.4.7-.767,1.465-1.474,2.167-2.239,1.689-1.843,3.35-3.712,5.039-5.555,1.031-1.125,2.186-2.149,3.117-3.35a31.163,31.163,0,0,1,4.5-4.608,68.909,68.909,0,0,0,5.279-5.271,1.085,1.085,0,0,1,1.5-.2,2.972,2.972,0,0,1,1.134,1.193,1.265,1.265,0,0,1-.238,1.522c-.817.851-1.68,1.66-2.483,2.525-3.591,3.868-7.417,7.513-10.8,11.587-1.72,2.075-3.725,3.913-5.585,5.874a15.779,15.779,0,0,0-1.471,1.756A7.352,7.352,0,0,1,244.6,77.8a4.841,4.841,0,0,0-1.628,1.586,1.227,1.227,0,0,1-.4.469c-1.942,1.174-3.21,3.059-4.828,4.574-2.176,2.037-4.107,4.31-6.094,6.533-2.125,2.377-4.536,4.5-6.833,6.721-1.7,1.642-3.421,3.259-5.113,4.908-.394.383-.7.861-1.057,1.28a4.623,4.623,0,0,1-1,1.043,5.114,5.114,0,0,0-1.463,1.434A4.009,4.009,0,0,1,212.9,107.875Z"/><path class="98637b35-2505-4d6e-b27f-aa29c98afacf" d="M95.4,18.882a1.4,1.4,0,0,1,.931-1.259,1.813,1.813,0,0,1,1.884.528,8.029,8.029,0,0,1,.745,1.252c.82,1.607,1.589,3.24,2.443,4.828,1.613,3,2.824,6.191,4.691,9.068.9,1.38,1.335,3.047,2.117,4.511,1.175,2.2,2.059,4.553,3.437,6.653.416.633.633,1.393,1.009,2.057,1.061,1.871,2.13,3.739,3.254,5.573a15.861,15.861,0,0,1,1.184,2.431,28.41,28.41,0,0,0,2.785,5.575,6.724,6.724,0,0,1,.616,1.315,42.59,42.59,0,0,0,2.244,4.923c.566,1.027.917,2.171,1.384,3.255.274.639.574,1.267.881,1.89.858,1.736,1.666,3.5,2.61,5.19a23.216,23.216,0,0,1,1.946,3.667c.1.3.453.512.693.761a1.49,1.49,0,0,1,.275,2.2,4.966,4.966,0,0,1-.673.793.624.624,0,0,0-.174.733,1.012,1.012,0,0,1-.652,1.343,1.859,1.859,0,0,1-1.752-.848,8.055,8.055,0,0,1-.425-1.4,11.138,11.138,0,0,0-1.4-3.232c-1.285-2.3-2.4-4.691-3.681-7-1.216-2.194-1.9-4.608-3-6.851a20.538,20.538,0,0,1-1.656-3.088c-1-3.343-2.763-6.35-4.291-9.46-.49-1-1-1.99-1.485-2.99-.426-.87-1-1.686-1.4-2.532A24.091,24.091,0,0,1,108.228,45a17.854,17.854,0,0,0-1.82-3.964c-.915-1.645-1.626-3.372-2.473-5.037a66.282,66.282,0,0,0-3.489-6.6,50.1,50.1,0,0,1-2.754-5.106,11.735,11.735,0,0,0-1.75-3.06A5.2,5.2,0,0,1,95.4,18.882Z"/><path class="98637b35-2505-4d6e-b27f-aa29c98afacf" d="M75.466,27.992a2.269,2.269,0,0,1,.67.393,11.96,11.96,0,0,1,1.631,2.145c1.071,2.128,2.751,3.836,3.9,5.907.877,1.576,1.894,3.075,2.869,4.595.638,1,1.3,1.973,1.976,2.946a11.23,11.23,0,0,1,1.557,2.7,4.208,4.208,0,0,0,.749,1.234,50.95,50.95,0,0,1,3.96,5.618,38.125,38.125,0,0,0,3.027,4.239,25.316,25.316,0,0,1,2,2.9c1.4,2.306,2.979,4.487,4.5,6.707a5.628,5.628,0,0,1,.573.87c1.168,2.666,3.131,4.727,5.071,6.823a24.164,24.164,0,0,1,2.238,2.991c1.5,2.238,2.962,4.506,4.437,6.764a5.034,5.034,0,0,1,.31.538c.381.779.318,1.053-.371,1.6a7.484,7.484,0,0,1-.676.489c-1.183.742-2.449.4-2.777-.923a7.959,7.959,0,0,0-1.859-3.181,8.22,8.22,0,0,1-1.817-2.767,1.987,1.987,0,0,0-.588-.84,18.6,18.6,0,0,1-3.587-4.82,78.666,78.666,0,0,0-5.148-7.839c-.509-.682-.782-1.466-1.237-2.163-1.781-2.729-3.488-5.5-5.494-8.083a21.477,21.477,0,0,1-3.028-4.466,14.534,14.534,0,0,0-1.646-2.406q-3.261-4.581-6.523-9.161c-.52-.733-.935-1.544-1.489-2.249-1.709-2.178-3.274-4.472-5.189-6.487a2.114,2.114,0,0,1,.445-3.213C74.424,28.558,74.919,28.3,75.466,27.992Z"/><path class="98637b35-2505-4d6e-b27f-aa29c98afacf" d="M192.506,3.747c-.529,3.38-1,6.471-1.5,9.556-.123.751-.4,1.477-.542,2.226a7,7,0,0,0-.4,3.043A4.561,4.561,0,0,1,189.675,21a7.836,7.836,0,0,0-.559,2.636,25.175,25.175,0,0,1-1.429,6.893,10.871,10.871,0,0,0-.687,4.5,3.948,3.948,0,0,1-.344,1.829,32.282,32.282,0,0,0-1.492,6.92,41.756,41.756,0,0,1-1.695,7.94,42.737,42.737,0,0,0-1.623,7.954,58.357,58.357,0,0,1-1.286,6.763,39.2,39.2,0,0,0-1.243,6.972,4.632,4.632,0,0,1-.115.824c-.326,1.211-.86,1.772-1.549,1.659-1.571-.26-2.405-1.166-2.236-2.476a5.457,5.457,0,0,1,.335-1.42c1.1-2.593,1.261-5.391,1.832-8.1.114-.542.25-1.08.385-1.618a17.463,17.463,0,0,0,.786-3.237c.188-3.779,1.8-7.278,2.048-11.045a12.145,12.145,0,0,1,.892-3.2,14.77,14.77,0,0,0,.8-3.873,30.111,30.111,0,0,1,1.044-5.1,36.212,36.212,0,0,0,1.148-6.144,4.588,4.588,0,0,1,.147-1.031,44.209,44.209,0,0,0,1.743-9.211,2.086,2.086,0,0,1,.082-.619c.647-1.493.631-3.126,1-4.677a27.685,27.685,0,0,0,.939-7.018,19.314,19.314,0,0,1,.562-4.131,1.762,1.762,0,0,1,.977-1.276.961.961,0,0,1,1.311.2C191.956,2.515,192.831,2.989,192.506,3.747Z"/><path class="98637b35-2505-4d6e-b27f-aa29c98afacf" d="M286.693,165.046c-3.985.1-6.973.2-9.962.242-3.475.054-6.95.1-10.425.081-1.592-.007-3.184-.146-4.773-.258a9.684,9.684,0,0,0-2.494-.007,29.046,29.046,0,0,1-7.053.36c-2.911-.162-5.837-.064-8.755-.111-1.669-.027-3.338-.19-5-.159-1.941.037-3.879.21-5.817.341-.762.052-1.52.163-2.282.222a3.567,3.567,0,0,1-1.639-.227,1.114,1.114,0,0,1-.812-1.282,4.611,4.611,0,0,0,.249-1.826c-.1-.447.34-.735.831-.675,2.826.351,5.664.518,8.5.691,1.733.106,3.452.16,5.187.165,1.58,0,3.183.189,4.78.21a8.423,8.423,0,0,0,1.251,0c4.346-.606,8.721-.291,13.082-.424,1.112-.034,2.223-.1,3.334-.154a3.834,3.834,0,0,1,.829-.051c2.492.443,5,.086,7.5.133,1.73.032,3.466-.1,5.194-.222a33.54,33.54,0,0,1,5.625.112,8.4,8.4,0,0,0,1.664.085c3.264-.352,6.539.1,9.781-.07,3.668-.19,7.37.05,11.013-.624a2,2,0,0,1,1.015.109.991.991,0,0,1,.744.907c.009.274.063.548.063.823a1.377,1.377,0,0,1-1.384,1.475c-2.843-.064-5.685.205-8.534-.094a30.224,30.224,0,0,0-4.365.1C291.256,165.027,288.478,165.123,286.693,165.046Z"/><path class="98637b35-2505-4d6e-b27f-aa29c98afacf" d="M55.97,43.288a2.333,2.333,0,0,1,.685.34,11.456,11.456,0,0,1,1.244,1.4c2.005,2.748,3.943,5.545,5.991,8.259a108.985,108.985,0,0,0,7.577,9.139,2.681,2.681,0,0,0,.418.465c2.138,1.373,3.431,3.606,5.328,5.223,1.183,2.246,3.345,3.69,4.73,5.778a12.051,12.051,0,0,0,1.571,1.67,101.65,101.65,0,0,1,7.617,9.1c1.15,1.475,2.465,2.822,3.7,4.228a7.276,7.276,0,0,1,.952,1.106,32.474,32.474,0,0,0,4.181,5.171,48.084,48.084,0,0,1,4.6,5.919,10.681,10.681,0,0,1,1.113,2.685.939.939,0,0,1-.282,1.13.876.876,0,0,1-1.144-.105,9.666,9.666,0,0,0-2.363-1.688c-.286-.118-.379-.365-.521-.608a33.534,33.534,0,0,0-4.994-6.4c-1.256-1.3-2.387-2.718-3.511-4.133-2.377-2.994-4.759-5.986-7.051-9.045-2-2.674-4.315-5.075-6.464-7.615-2.2-2.6-4.556-5.058-6.692-7.713-1.125-1.4-2.411-2.669-3.5-4.114s-2.259-2.822-3.389-4.233a20.818,20.818,0,0,0-2.855-3.034,19.9,19.9,0,0,1-3.277-3.446c-1.572-2.117-3.3-4.117-4.958-6.17-1.2-1.486-1.071-2.072.646-3.024C55.507,43.469,55.7,43.4,55.97,43.288Z"/><path class="98637b35-2505-4d6e-b27f-aa29c98afacf" d="M247.66,27.472c.9-.013,1,.171,1.48,1.085a1.866,1.866,0,0,1-.248,2.291c-2.731,3.347-4.909,7.071-7.309,10.646-1.78,2.652-3.528,5.332-5.376,7.941-.762,1.076-1.5,2.165-2.259,3.247-.913,1.31-1.779,2.645-2.61,4.014a81.235,81.235,0,0,1-6.651,9.555,29.3,29.3,0,0,0-1.92,2.731c-1.849,2.859-3.554,5.821-5.547,8.574-1.511,2.086-2.972,4.2-4.334,6.377-1.322,2.116-2.584,4.269-3.868,6.408a7.035,7.035,0,0,1-2.81,2.711c-.394.2-.722.353-1.145.059a1.326,1.326,0,0,1-.713-1.384,2.621,2.621,0,0,1,.59-1.318,23.3,23.3,0,0,0,1.988-2.905c.695-1.1,1.642-2.049,2.433-3.107,1.627-2.174,3.091-4.454,4.572-6.725.873-1.338,1.767-2.666,2.724-3.943a16.38,16.38,0,0,0,1.866-3,3.1,3.1,0,0,1,.514-.9,15.384,15.384,0,0,0,2.563-4.266,34.7,34.7,0,0,1,3.03-4.484,13.554,13.554,0,0,0,1.526-2.475,4.516,4.516,0,0,1,.4-.729c1.544-2.31,3.124-4.6,4.632-6.931,1.39-2.152,3.285-3.954,4.349-6.328a1.787,1.787,0,0,1,.334-.528c2.272-2.308,3.471-5.353,5.418-7.886a40.086,40.086,0,0,1,2.594-3.512,2.422,2.422,0,0,0,.478-.91,4.574,4.574,0,0,1,1.069-1.771,3.343,3.343,0,0,0,.757-1.458C246.479,27.591,246.662,27.487,247.66,27.472Z"/><path class="98637b35-2505-4d6e-b27f-aa29c98afacf" d="M142.806,72.785c0,.834-.853,1.365-1.377,1.063s-1.1-.652-1.117-1.391c-.055-2.88-1.311-5.523-1.65-8.354-.107-.885-.341-1.764-.421-2.667a12.042,12.042,0,0,0-1.173-4.83,1.852,1.852,0,0,1-.285-.775,13.2,13.2,0,0,0-1.5-5.156,17.413,17.413,0,0,1-1.1-4.006c-.683-3.613-1.426-7.216-2.07-10.836-.377-2.119-.5-4.275-.907-6.4-.575-3.006-1.159-6-1.931-8.968-.35-1.342-.535-2.729-.755-4.1a16.486,16.486,0,0,0-.979-3.609,20.735,20.735,0,0,1-1.09-3.588,55.8,55.8,0,0,0-1.969-7.661.675.675,0,0,1,.051-.578,2.31,2.31,0,0,1,1.991-.9,1.241,1.241,0,0,1,1.159,1.045,5.7,5.7,0,0,0,.717,2.159,3.223,3.223,0,0,1,.285,1.63,19.376,19.376,0,0,0,1.188,6.116,47.672,47.672,0,0,1,1.76,7.284,21.02,21.02,0,0,0,.773,3.239c.261.79.438,1.61.62,2.424.7,3.119,1.532,6.205,2.1,9.358.608,3.41,1.5,6.767,1.992,10.2a1.9,1.9,0,0,0,.17.808c.827,1.139.771,2.491.952,3.778a56.527,56.527,0,0,0,1.784,8.127,11.2,11.2,0,0,1,.368,1.625c.434,3.168.876,6.336,1.251,9.512a34.322,34.322,0,0,0,.855,4.08C142.624,71.949,142.74,72.491,142.806,72.785Z"/><path class="98637b35-2505-4d6e-b27f-aa29c98afacf" d="M251.628,149.781a13.41,13.41,0,0,0,4.635-.437c4.109-.665,8.189-1.494,12.329-1.987,1.859-.221,3.689-.684,5.531-1.04a3.3,3.3,0,0,1,.608-.142c3.434.016,6.727-.833,10.06-1.512,1.48-.3,3.023-.421,4.51-.754,2.844-.637,5.724-1.1,8.515-2a17,17,0,0,1,4.485-.87,14.015,14.015,0,0,0,2.6-.687,1.372,1.372,0,0,1,1.836,1.16,2.145,2.145,0,0,1-1.564,2.151c-3.26.318-6.451,1.026-9.66,1.631-.817.154-1.642.285-2.445.5-4.778,1.272-9.764,1.434-14.539,2.735a17.6,17.6,0,0,1-3.083.42,57.807,57.807,0,0,0-5.761.869c-2.045.389-4.128.58-6.188.9-2.267.348-4.543.666-6.785,1.137a57.773,57.773,0,0,1-5.991.788c-2.969.306-5.932.662-8.9.977a22.927,22.927,0,0,0-5.289,1.112,13.388,13.388,0,0,1-3.486.539,32.445,32.445,0,0,0-4.107.7,3.272,3.272,0,0,1-1.438.067,1.4,1.4,0,0,1-1.179-1.477,10.3,10.3,0,0,1,.045-1.039c.082-.852.3-1.1,1.164-1.154,1.666-.1,3.334-.16,5-.217a21.847,21.847,0,0,0,3.5-.357c1.628-.319,3.3-.427,4.955-.591,2.763-.275,5.5-.731,8.236-1.186C250.047,149.877,250.884,149.85,251.628,149.781Z"/><path class="98637b35-2505-4d6e-b27f-aa29c98afacf" d="M11.608,150.86c2.644,0,5.712-.132,8.763.035,3.266.18,6.529.337,9.8.3,2.712-.031,5.426.038,8.136.043,2.779,0,5.557.029,8.334-.077a2.321,2.321,0,0,1,.417.015c3.653.543,7.355.453,11.017.864,1.036.116,2.063.316,3.1.449a124.677,124.677,0,0,0,12.7.791c.695.017,1.393.035,2.082.119a47.441,47.441,0,0,0,10.206-.029,28.3,28.3,0,0,0,2.873-.511,2.087,2.087,0,0,1,1.612.153c.355.219.786.38.8.868a1.641,1.641,0,0,1-1.072,1.393c-1.447.2-2.9.355-4.351.509-.343.037-.7-.047-1.041,0-3.688.55-7.349-.073-11.024-.193-4.17-.136-8.328-.42-12.485-.739-3.19-.244-6.372-.6-9.555-.928a98.9,98.9,0,0,0-11.036-.339q-5.631.048-11.262-.1c-5.768-.146-11.533-.351-17.3-.3a42.934,42.934,0,0,1-5-.217c-1.445-.157-2.919-.039-4.38-.067a11.894,11.894,0,0,1-2.071-.15A1.115,1.115,0,0,1,0,151.687a1.159,1.159,0,0,1,.788-1.111,5.939,5.939,0,0,1,2.475-.173C5.906,150.562,8.548,150.694,11.608,150.86Z"/><path class="98637b35-2505-4d6e-b27f-aa29c98afacf" d="M157.171,73.278c.375-4.933-.129-9.869.057-14.8.1-2.772-.142-5.55.144-8.318-.526-4.162.2-8.336-.128-12.5a38.717,38.717,0,0,1,0-4.376c.113-3.133-.294-6.258-.08-9.391.113-1.663.166-3.331.215-5,.069-2.364.181-4.73.136-7.093a10.415,10.415,0,0,0-.894-5.081.3.3,0,0,1-.044-.2c.2-.75,1.083-1.041,1.242-1.854.046-.236.446-.259.734-.266,1.368-.034,1.978.5,1.978,1.8a11.033,11.033,0,0,1-.164,1.658,7.34,7.34,0,0,0-.007,2.9,4.106,4.106,0,0,1-.012,1.656,18.129,18.129,0,0,0-.087,6.011,2.512,2.512,0,0,1,.023,1.031c-.653,2.466-.37,4.97-.314,7.461.025,1.107.213,2.21.3,3.317a5.058,5.058,0,0,1,0,1.449,27.249,27.249,0,0,0-.3,7.05c.125,2.916.067,5.84.091,8.761q.039,4.69.082,9.381c.007.832.02,1.66-.037,2.5-.089,1.313-.017,2.639.026,3.959.048,1.459.1,2.912.05,4.376-.092,2.707-.076,5.418-.077,8.128a16.952,16.952,0,0,1-.344,3.5.73.73,0,0,1-.705.647.707.707,0,0,1-.654-.422q-.372-.623-.778-1.224a3.306,3.306,0,0,1-.613-2.348C157.12,75.09,157.121,74.181,157.171,73.278Z"/><path class="98637b35-2505-4d6e-b27f-aa29c98afacf" d="M281.064,103.557c-.009.492-.339.732-.73.921-1.629.784-3.29,1.51-4.883,2.363-3,1.609-6.007,3.228-8.938,4.965-1.684,1-3.5,1.7-5.21,2.63-1.892,1.03-3.794,2.041-5.692,3.06-4.471,2.4-8.973,4.742-13.4,7.219-2.974,1.663-6.071,3.064-9.105,4.6-1.55.785-3.033,1.705-4.53,2.589a10.973,10.973,0,0,1-2.69,1.119.931.931,0,0,1-1.109-.36,6.5,6.5,0,0,0-.96-1.075,1.386,1.386,0,0,1,.385-2.245c1.708-.78,3.425-1.548,5.173-2.23a63.467,63.467,0,0,0,8.332-4.324,37.5,37.5,0,0,1,4.265-2.163,43.236,43.236,0,0,0,3.947-1.9c4.65-2.5,9.484-4.643,14.089-7.249,3.5-1.978,7.213-3.564,10.829-5.331a42.628,42.628,0,0,0,6.753-3.7,6.573,6.573,0,0,1,.907-.516C279.971,101.174,281.116,101.9,281.064,103.557Z"/><path class="98637b35-2505-4d6e-b27f-aa29c98afacf" d="M234.379,140.708a1.839,1.839,0,0,1-1.769-1.154,1.043,1.043,0,0,1,.172-.775c.581-.68,1.212-1.32,1.843-1.956a1.4,1.4,0,0,1,.974-.3,6.676,6.676,0,0,0,1.246-.107c3.219-.836,6.548-1.139,9.747-2.117a43.7,43.7,0,0,1,5.518-1.026,5.778,5.778,0,0,0,1.986-.559,2.509,2.509,0,0,1,1-.3,49.317,49.317,0,0,0,8.72-2.018,11.921,11.921,0,0,1,1.432-.268,59.592,59.592,0,0,0,8.519-1.929c2.328-.69,4.717-1.181,7.085-1.734,3.921-.915,7.868-1.734,11.765-2.741,2.281-.589,4.488-1.463,6.726-2.213.264-.088.513-.221.779-.3a1.443,1.443,0,0,1,1.96,1.021,1.515,1.515,0,0,1-.835,1.9,10.024,10.024,0,0,1-2.21.592,46.672,46.672,0,0,0-5.449,1.416c-3.486.939-6.967,1.889-10.493,2.675-2.374.53-4.724,1.177-7.11,1.646a36.523,36.523,0,0,0-5.427,1.454,25.046,25.046,0,0,1-4.107.7,25.1,25.1,0,0,0-2.649.553c-4.2,1.253-8.543,1.93-12.7,3.32a3.585,3.585,0,0,1-.613.127,24.254,24.254,0,0,0-4.836,1.2,37.651,37.651,0,0,1-5.859,1.293,47.81,47.81,0,0,0-4.61,1.3C234.848,140.519,234.531,140.652,234.379,140.708Z"/><path class="98637b35-2505-4d6e-b27f-aa29c98afacf" d="M85.95,168.136a3.607,3.607,0,0,0-2.216.211,50.209,50.209,0,0,1-9.418,1.717c-3.323.257-6.621.825-9.94,1.146-2.422.234-4.853.369-7.261.739-2.061.317-4.121.636-6.186.927-.961.136-1.932.209-2.9.307q-3.525.358-7.051.714c-2.7.268-5.4.487-8.074.936a2.241,2.241,0,0,1-.415.044c-3.776-.1-7.473.688-11.212,1-1.384.117-2.755.379-4.135.545-1.223.147-1.479-.033-1.8-1.138-.2-.705-.067-1.125.571-1.344.762-.26,1.5-.749,2.388-.284a1.74,1.74,0,0,0,1.026.074c3.149-.545,6.4-.277,9.5-1.157a96.5,96.5,0,0,0,10.383-.871c1.582-.17,3.187-.2,4.773-.427a25.851,25.851,0,0,1,3.935-.424,10.885,10.885,0,0,0,2.029-.406c3.141-.584,6.309-.939,9.491-1.23,1.863-.171,3.706-.577,5.58-.728,2.563-.208,5.127-.426,7.681-.714a83.4,83.4,0,0,0,8.453-1.281c1.079-.235,2.139-.561,3.212-.824a7.931,7.931,0,0,1,1.434-.256c1.485-.084,2.162.994,1.452,2.324a1.1,1.1,0,0,1-.665.441A1.648,1.648,0,0,1,85.95,168.136Z"/><path class="98637b35-2505-4d6e-b27f-aa29c98afacf" d="M26.028,91.532a2.042,2.042,0,0,1,.388.123,2.194,2.194,0,0,1,.515.352,19.073,19.073,0,0,0,5.034,3.3c2.838,1.464,5.651,2.98,8.542,4.337a8.72,8.72,0,0,1,2.291,1.421,3.314,3.314,0,0,0,.864.582,55.516,55.516,0,0,1,7.206,4.12c.519.337,1.152.494,1.687.812,3.764,2.234,7.7,4.144,11.538,6.235,3.475,1.893,6.99,3.7,10.507,5.513,2.83,1.455,5.582,3.062,8.5,4.353a29.362,29.362,0,0,1,4.105,2.47,4.473,4.473,0,0,0,2.257.948,1.61,1.61,0,0,1,1.471,1.516,1.268,1.268,0,0,1-.441,1.12.967.967,0,0,1-1.16.194,45,45,0,0,1-5.284-2.916,12.909,12.909,0,0,0-3.4-1.915,15.551,15.551,0,0,1-3.349-1.678c-2.718-1.705-5.713-2.859-8.524-4.375-.917-.494-1.852-.955-2.751-1.479a89.351,89.351,0,0,0-9.238-4.815,14.976,14.976,0,0,1-1.47-.792c-3.308-1.912-6.574-3.9-9.934-5.717-1.959-1.059-3.84-2.22-5.722-3.4a38.816,38.816,0,0,0-4.62-2.413c-1.087-.492-1.994-1.25-3.039-1.783-1.793-.916-3.606-1.794-5.418-2.671a3.368,3.368,0,0,1-1.2-.8,1.5,1.5,0,0,1,.26-2.48A1.613,1.613,0,0,1,26.028,91.532Z"/><path class="98637b35-2505-4d6e-b27f-aa29c98afacf" d="M87.388,133.817a1.264,1.264,0,0,1-1.31,1.4,2.622,2.622,0,0,1-.811-.172,22.041,22.041,0,0,0-4.019-1.08,12.726,12.726,0,0,1-2.756-.942,20.31,20.31,0,0,0-4.151-1.283c-1.484-.345-2.927-.863-4.4-1.273-1.407-.392-2.828-.731-4.236-1.116a22.708,22.708,0,0,1-2.185-.691,41.532,41.532,0,0,0-6.183-1.855c-1.148-.25-2.237-.763-3.374-1.083q-3.617-1.017-7.134-2.326a45.089,45.089,0,0,0-4.617-1.3,14.93,14.93,0,0,1-4.281-1.6,15.649,15.649,0,0,0-2.741-.988,69.355,69.355,0,0,0-11.447-3.137,49.717,49.717,0,0,1-6.739-2.2,1.33,1.33,0,0,1-1.061-1.367c.033-.993.826-1.573,1.7-1.128a53.619,53.619,0,0,0,6.657,2.382c1.457.517,2.979.648,4.45,1.06,1.4.393,2.791.779,4.179,1.232,4.749,1.551,9.352,3.53,14.226,4.73a29.726,29.726,0,0,1,6.089,2.124,2.843,2.843,0,0,0,.979.336c2.593.219,4.982,1.257,7.485,1.834,2.033.469,3.9,1.449,5.89,2.077,1.793.565,3.6,1.047,5.414,1.52,2.083.543,4.135,1.177,6.191,1.817a38.109,38.109,0,0,0,6.456,1.63,2.268,2.268,0,0,1,1.431.756A.792.792,0,0,1,87.388,133.817Z"/><path class="98637b35-2505-4d6e-b27f-aa29c98afacf" d="M225.565,114.362c-.821.05-1.17.108-1.513.086a1.1,1.1,0,0,1-.825-1.823,4.11,4.11,0,0,1,1.4-1.226q1.53-.889,3.069-1.765c2.839-1.614,5.445-3.592,8.285-5.215,2.166-1.238,4.186-2.737,6.235-4.17A48.933,48.933,0,0,1,246.4,97.5a19.2,19.2,0,0,0,2.952-1.936c2.627-2.188,5.582-3.907,8.308-5.953,2.5-1.877,5.111-3.613,7.663-5.424a49.043,49.043,0,0,0,6.872-5.724c1.127-1.16,2-.991,2.688.469a1.546,1.546,0,0,1-.5,1.867,24.666,24.666,0,0,1-2.575,2.124c-2.138,1.437-4.185,2.99-6.2,4.585a21.731,21.731,0,0,1-2.077,1.392,35.409,35.409,0,0,0-3.228,2.289c-1.2.94-2.526,1.715-3.791,2.57-2.421,1.635-4.825,3.294-7.261,4.907-.984.651-2.062,1.161-3.043,1.817-1.328.887-2.6,1.865-3.905,2.782-2.5,1.754-4.98,3.555-7.544,5.218-1.994,1.294-3.739,2.883-5.588,4.349-.327.259-.637.539-.961.8a2.579,2.579,0,0,1-2.291.736C225.654,114.311,225.366,114.362,225.565,114.362Z"/><path class="98637b35-2505-4d6e-b27f-aa29c98afacf" d="M10.808,128.566c.9.157,1.715.323,2.539.442,2.827.407,5.67.63,8.521.78a41.2,41.2,0,0,1,7.181,1.226c2.229.522,4.477.964,6.714,1.455,1.084.238,2.17.478,3.241.768a68.025,68.025,0,0,0,6.983,1.208,56.556,56.556,0,0,1,6.9,1.4,44.368,44.368,0,0,0,5.325,1.023c4.59.749,9.189,1.443,13.777,2.2,1.5.249,2.988.625,4.475.968a2.121,2.121,0,0,1,1.476,1.07,1.042,1.042,0,0,1-.011,1.182.987.987,0,0,1-.92.392,10.515,10.515,0,0,1-1.631-.337,61.685,61.685,0,0,0-8.594-1.643,6.083,6.083,0,0,1-1.03-.14,15.841,15.841,0,0,0-4.1-.684,38.356,38.356,0,0,1-6.947-1.382c-2.969-.772-5.987-1.241-8.988-1.818-3.821-.735-7.661-1.367-11.486-2.083-4.165-.781-8.329-1.567-12.477-2.433a36.935,36.935,0,0,0-5.2-.326,37.8,37.8,0,0,1-5.737-1,3.509,3.509,0,0,1-.785-.278,1.045,1.045,0,0,1-.548-1.044c.016-.477.381-.72.784-.87A2.1,2.1,0,0,1,10.808,128.566Z"/><path class="98637b35-2505-4d6e-b27f-aa29c98afacf" d="M46.65,75.985a1.848,1.848,0,0,1,.5.265c3.975,3.936,8.734,6.879,13.1,10.322,2.889,2.281,5.894,4.419,8.719,6.775,1.817,1.515,3.709,2.917,5.582,4.355,1.044.8,2,1.722,3,2.571a18.2,18.2,0,0,0,1.488,1.135c2.356,1.6,4.739,3.155,7.081,4.771,2.171,1.5,4.328,3.019,6.444,4.593,1.287.957,2.619,1.83,3.991,2.654a13.686,13.686,0,0,1,1.355.957,1.189,1.189,0,0,1,.293,1.34,1.123,1.123,0,0,1-.906.77,1.773,1.773,0,0,1-1.9-.569c-1.464-1.762-3.5-2.717-5.334-3.956-.69-.466-1.395-.911-2.077-1.39-2.159-1.515-4.365-2.971-6.448-4.585-1.759-1.364-3.838-2.241-5.484-3.753-.664-.609-1.265-1.292-1.966-1.851-1.36-1.083-2.769-2.1-4.16-3.146a13.9,13.9,0,0,1-1.663-1.251,43.013,43.013,0,0,0-6.209-4.882,47.272,47.272,0,0,1-3.873-3.159,17.1,17.1,0,0,0-2.663-2A54.17,54.17,0,0,1,50.534,82.2c-1.224-.909-2.405-1.876-3.6-2.818-.383-.3-.788-.577-1.14-.91a1.407,1.407,0,0,1,.606-2.442A2.238,2.238,0,0,1,46.65,75.985Z"/><path class="98637b35-2505-4d6e-b27f-aa29c98afacf" d="M304.486,191.671a1.041,1.041,0,0,1-.85,1.021,2.584,2.584,0,0,1-1.439-.11c-2.79-.85-5.724-1.212-8.4-2.438-.785-.36-1.662-.255-2.427-.562-3.169-1.271-6.466-2.122-9.716-3.133a42.855,42.855,0,0,0-5.366-1.608,13.406,13.406,0,0,1-2.144-.786,19.922,19.922,0,0,0-2.368-.8c-2.792-.621-5.445-1.671-8.159-2.535-1.849-.588-3.756-.993-5.637-1.478a.9.9,0,0,0-.207-.026c-1.052-.039-1.675-.967-2.579-1.258a17.823,17.823,0,0,1-2.581-.807,1.369,1.369,0,0,1-.475-.4,1.394,1.394,0,0,1-.283-1.369,1.257,1.257,0,0,1,1.219-.665,2.6,2.6,0,0,1,1.2.277,41.27,41.27,0,0,0,7.895,2.606c1.614.4,3.184.986,4.82,1.336,3.268.7,6.426,1.792,9.613,2.781,3.12.968,6.253,1.891,9.372,2.86q2.189.679,4.346,1.464a45.736,45.736,0,0,0,8.4,2.455,37.369,37.369,0,0,1,4.438,1.148C304.271,189.972,304.512,190.4,304.486,191.671Z"/><path class="98637b35-2505-4d6e-b27f-aa29c98afacf" d="M255.588,168.642c.553.047,1.111.063,1.658.149,2.265.356,4.529.719,6.789,1.108,1.231.212,2.451.488,3.678.721.955.181,1.91.364,2.871.5,2.195.318,4.354.866,6.576,1.014.274.018.544.156.816.156,3.226,0,6.336.852,9.5,1.279,2.473.334,4.963.559,7.449.776a1.47,1.47,0,0,1,1.3.843c.74,1.319.213,2.372-1.292,2.438a4.993,4.993,0,0,1-1.028-.145c-4.658-.8-9.305-1.654-13.975-2.37-3.3-.506-6.622-.805-9.931-1.23a22.138,22.138,0,0,1-2.444-.52,20.215,20.215,0,0,0-5.556-.779,38.355,38.355,0,0,1-7.857-.977A1.219,1.219,0,0,1,253,170.353a1.634,1.634,0,0,1,1.335-1.613,10.032,10.032,0,0,1,1.251-.01Z"/><path class="98637b35-2505-4d6e-b27f-aa29c98afacf" d="M166.313,58.566q.188-2.393.374-4.784c.24-3.11.367-6.234.744-9.327.51-4.195.509-8.439,1.261-12.609a8.341,8.341,0,0,0,.08-1.666,35.758,35.758,0,0,1,.509-6.016,1.052,1.052,0,0,1,1.1-1.013,1.926,1.926,0,0,1,2.076,2.556,40.349,40.349,0,0,0-1.014,5.739c-.865,4.951-.7,9.984-1.289,14.956-.31,2.614-.5,5.253-.552,7.884-.044,2.437-.185,4.859-.427,7.28-.027.277-.033.559-.087.83a1.327,1.327,0,0,1-1.257,1.177,1.633,1.633,0,0,1-1.485-1.252,18.322,18.322,0,0,1-.049-2.084c.005-.556.054-1.111.084-1.667Z"/><path class="98637b35-2505-4d6e-b27f-aa29c98afacf" d="M75.007,285.273c-.568,2.326-1.056,4.131-1.44,5.958a29.436,29.436,0,0,1-.85,3.419c-.467,1.377-.789,2.8-1.136,4.219a9.444,9.444,0,0,1-.7,1.945c-.547,1.118-.939,2.312-1.406,3.47a1.094,1.094,0,0,1-1.309.75c-.591-.094-.892-.5-.932-1.187a2.205,2.205,0,0,1,.411-1.582,6.234,6.234,0,0,0,1.1-2.656c.432-1.75,1.138-3.417,1.591-5.148.557-2.128,1.515-4.183,1.407-6.466a2.075,2.075,0,0,1,.265-1c.972-1.881.793-3.9.745-5.9a.794.794,0,0,0-.029-.206c-.539-1.862-.979-3.761-1.654-5.572a3.84,3.84,0,0,1,.588-3.483c.188-.333.814-.26,1.107.045a1.392,1.392,0,0,1,.365.946,24.6,24.6,0,0,0,.757,3.667,2.2,2.2,0,0,0,.846,1.606,1.374,1.374,0,0,1,.508.865A26.89,26.89,0,0,0,77.9,284.6a13.31,13.31,0,0,0,2.174,2.518,5.657,5.657,0,0,0,2.442,1.106c.394.13.823.151,1.219.277.519.165.69.653.883,1.1.177.408-.095.633-.367.864A2.142,2.142,0,0,0,84,290.8c-.807,1.026-.808,1.028-2.062.49a3.112,3.112,0,0,0-.75-.355,5.47,5.47,0,0,1-3.777-2.693A27.294,27.294,0,0,1,75.007,285.273Z"/><path class="98637b35-2505-4d6e-b27f-aa29c98afacf" d="M202.418,29.761a14.694,14.694,0,0,1-1.239,3.822c-1.214,2.577-2.511,5.12-3.6,7.748a77.274,77.274,0,0,0-3.71,10.612,25.419,25.419,0,0,1-1.032,2.943c-.827,2.131-1.277,4.393-2.359,6.443a15.96,15.96,0,0,0-.814,2.791,15.142,15.142,0,0,1-.716,1.945.826.826,0,0,1-1.061.415,1.661,1.661,0,0,1-1.257-2.224c.539-1.8,1.081-3.6,1.718-5.359,1.723-4.769,3.614-9.479,5.214-14.288,1.3-3.893,2.982-7.618,4.444-11.438a6.081,6.081,0,0,0,.654-2.4c-.031-.823.555-1.4.851-2.1a.751.751,0,0,1,.879-.393,3.548,3.548,0,0,1,1.807.982C202.331,29.389,202.362,29.631,202.418,29.761Z"/><path class="98637b35-2505-4d6e-b27f-aa29c98afacf" d="M260.718,188.173a2.132,2.132,0,0,1,1.286.4,17.229,17.229,0,0,0,3.3,1.722c.945.364,1.748,1.087,2.705,1.528,1.568.724,3.056,1.619,4.595,2.408.926.474,1.9.855,2.825,1.328,4.512,2.3,9.015,4.624,13.526,6.927a4.034,4.034,0,0,0,1.172.416,9.134,9.134,0,0,1,2.72,1.032,19.936,19.936,0,0,0,3.854,1.529,1.7,1.7,0,1,1-.9,3.273A8.663,8.663,0,0,1,293,207.391a31.927,31.927,0,0,0-7.035-3.573,33.708,33.708,0,0,1-6.864-3.473,32.52,32.52,0,0,0-5.613-2.744c-2.3-.993-4.429-2.313-6.645-3.463a41.419,41.419,0,0,0-5.106-2.358,4.366,4.366,0,0,1-1.855-1.589,1.3,1.3,0,0,1-.038-1.384C260.008,188.355,260.434,188.273,260.718,188.173Z"/><path class="98637b35-2505-4d6e-b27f-aa29c98afacf" d="M131.738,69.526a1.189,1.189,0,0,1-.457.961,1.544,1.544,0,0,1-2.518-.76,14.71,14.71,0,0,0-1.114-2.9,3.647,3.647,0,0,1-.226-1.635c-.073-2.378-.826-4.66-.975-7.026-.9-1.4-.6-3.1-1.162-4.6a34.522,34.522,0,0,1-1.239-4.407,34.076,34.076,0,0,1-.713-4.105,28.71,28.71,0,0,0-.5-2.866c-.3-1.429-.593-2.858-.834-4.3a12.974,12.974,0,0,0-1.141-4.426,4.12,4.12,0,0,1-.334-1.2c-.177-.878.019-1.212.858-1.661a1.455,1.455,0,0,1,1.745.1,1.081,1.081,0,0,1,.537.827,41.333,41.333,0,0,0,1.236,7.8c.427,1.749.611,3.556.95,5.327.169.886.487,1.742.659,2.627.636,3.281,1.552,6.493,2.329,9.739.6,2.5,1.017,5.037,1.574,7.545.331,1.492.775,2.958,1.17,4.436C131.634,69.187,131.7,69.384,131.738,69.526Z"/><path class="98637b35-2505-4d6e-b27f-aa29c98afacf" d="M248.549,129.19a3.508,3.508,0,0,1-2.1-1.353,1.525,1.525,0,0,1,.669-1.634,4.6,4.6,0,0,1,1.291-.652c.854-.289,1.731-.511,2.6-.763a47.691,47.691,0,0,0,8.189-3.007,4.747,4.747,0,0,1,.767-.317c4.986-1.5,9.722-3.665,14.563-5.547a13.211,13.211,0,0,0,1.788-1.057,2.044,2.044,0,0,1,2.213.589,1.551,1.551,0,0,1-.169,2.079,5.567,5.567,0,0,1-1.426.842c-3.923,1.582-7.86,3.127-11.785,4.7-2.063.83-4.236,1.309-6.326,2.077-2.483.912-4.867,2.024-7.255,3.132C250.541,128.758,249.361,128.575,248.549,129.19Z"/><path class="98637b35-2505-4d6e-b27f-aa29c98afacf" d="M243.4,113.627c-.828-.024-1.242-.3-1.431-.953a1.292,1.292,0,0,1,.607-1.616c.506-.362,1.061-.658,1.6-.969,3.919-2.25,7.805-4.562,11.772-6.723,2.93-1.6,5.748-3.384,8.744-4.868a47.543,47.543,0,0,0,7.048-4.437,2.229,2.229,0,0,1,1.726-.527,1.366,1.366,0,0,1,1.278,1.488c-.118.588-.2,1.234-.877,1.572-1.305.651-2.573,1.373-3.875,2.029a16.965,16.965,0,0,0-2.186,1.213,18.848,18.848,0,0,1-3.265,1.815,39.569,39.569,0,0,0-4.195,2.33c-2.332,1.385-4.637,2.816-6.967,4.2-.715.426-1.483.762-2.216,1.16a40.461,40.461,0,0,0-5.287,3.34A3.738,3.738,0,0,1,243.4,113.627Z"/><path class="98637b35-2505-4d6e-b27f-aa29c98afacf" d="M149.262,40.542a19.6,19.6,0,0,0,.489,5.178,34.409,34.409,0,0,1,.477,4.349c.3,3.742.578,7.485.867,11.228.029.372-.02.7-.444.813-.7.187-1.322.019-1.41-.475a8.6,8.6,0,0,0-.975-2.512,2.018,2.018,0,0,1-.22-.795c-.217-3.4-.918-6.753-.806-10.181a14.008,14.008,0,0,0-.319-2.69,21.946,21.946,0,0,1-.326-3.526,38.362,38.362,0,0,0-1.064-8.465c-.519-2.251-.544-4.555-.864-6.826-.095-.668.358-1.02.849-1.306a1.249,1.249,0,0,1,1.545.157,1.981,1.981,0,0,1,.767,1.207,15.249,15.249,0,0,1,.447,3.09,30.283,30.283,0,0,0,.716,6.625A18.891,18.891,0,0,1,149.262,40.542Z"/><path class="98637b35-2505-4d6e-b27f-aa29c98afacf" d="M259.19,79.526c.013-.1-.076.237-.354.475a18.554,18.554,0,0,1-1.616,1.315,68.615,68.615,0,0,0-6.806,5.153c-1.568,1.368-3.25,2.611-4.826,3.982-.932.811-2.09,1.334-3.11,2.062a54.983,54.983,0,0,0-4.858,3.939,62.991,62.991,0,0,1-5.192,3.846,11.054,11.054,0,0,0-1.552,1.043,3.1,3.1,0,0,1-.9.514,1.253,1.253,0,0,1-1.493-.413c-.379-.355-.235-.735-.062-1.138.19-.442.258-.939.8-1.152a10.281,10.281,0,0,0,2.518-1.834c2.106-1.686,4.347-3.173,6.546-4.727,2.547-1.8,4.9-3.87,7.412-5.72,1.63-1.2,2.976-2.709,4.573-3.935a52.086,52.086,0,0,0,4.528-3.689,22.594,22.594,0,0,1,2.108-1.7,1.009,1.009,0,0,1,1.345.037A1.848,1.848,0,0,1,259.19,79.526Z"/><path class="98637b35-2505-4d6e-b27f-aa29c98afacf" d="M221.386,44.076a1.991,1.991,0,0,1,.611.263,7.856,7.856,0,0,1,.956,1.1,1.125,1.125,0,0,1-.007,1.359,68.674,68.674,0,0,0-4.368,7.79c-.932,1.937-2.075,3.774-3.036,5.707-1.977,3.975-4.03,7.913-6.079,11.852a20.727,20.727,0,0,1-1.35,2.1,1.839,1.839,0,0,1-1.629.767.733.733,0,0,1-.785-.55,3.911,3.911,0,0,1,.42-3.536c.772-1.064,1.36-2.26,2.116-3.337,1.809-2.576,2.892-5.516,4.288-8.3a44.132,44.132,0,0,1,2.258-3.978c1.537-2.407,2.711-5,4.025-7.524a13.141,13.141,0,0,0,.8-2.143C219.893,44.735,220.645,44.421,221.386,44.076Z"/><path class="98637b35-2505-4d6e-b27f-aa29c98afacf" d="M78.748,52.934a1.2,1.2,0,0,1,.9.3A6.952,6.952,0,0,1,81,54.789a45.941,45.941,0,0,0,5.219,6.48c.553.622,1.146,1.212,1.658,1.865,1.584,2.02,3.135,4.066,4.709,6.094a6.629,6.629,0,0,0,.849.915,15.7,15.7,0,0,1,3.317,4.191,6.95,6.95,0,0,0,2.265,2.41,1.18,1.18,0,0,1,.443,1.471,1.831,1.831,0,0,1-1.442,1.351.822.822,0,0,1-.589-.134,3.722,3.722,0,0,1-.9-.857,55.949,55.949,0,0,0-6.605-8.019,32.738,32.738,0,0,1-2.179-2.789,30.266,30.266,0,0,1-2.679-3.433c-.359-.638-1.108-1.043-1.559-1.644-1.841-2.45-4.129-4.5-6.065-6.864a5.472,5.472,0,0,1-.523-.633,1.118,1.118,0,0,1-.144-.6A2.4,2.4,0,0,1,78.748,52.934Z"/><path class="98637b35-2505-4d6e-b27f-aa29c98afacf" d="M239.717,61.7a4.186,4.186,0,0,1-.684,1.919,20.612,20.612,0,0,1-2.278,2.912,5.5,5.5,0,0,0-1.111,1.5,11.63,11.63,0,0,1-3.128,3.839,4.213,4.213,0,0,0-1.386,1.8,9.209,9.209,0,0,1-2.035,2.88,33.572,33.572,0,0,0-3.974,4.8c-.791,1.217-1.711,2.35-2.562,3.528-.206.285-.387.613-.756.67a6.9,6.9,0,0,0-2.03,1.031,1.01,1.01,0,0,1-1.513-1.018,2.031,2.031,0,0,1,.515-1.321c2.419-2.683,4.476-5.673,7.025-8.249a22.973,22.973,0,0,0,1.7-2.107c.213-.274.361-.6.594-.857,2.023-2.2,3.422-4.861,5.277-7.175,1.31-1.633,2.29-3.464,3.51-5.142.684-.94.876-1.015,1.674-.737A1.623,1.623,0,0,1,239.717,61.7Z"/><path class="98637b35-2505-4d6e-b27f-aa29c98afacf" d="M100.608,42.854c.991-.039,1.472.227,1.774.891,1.464,3.217,2.995,6.4,4.334,9.678a24.523,24.523,0,0,0,1.826,3.263,16.694,16.694,0,0,1,1.519,3.421,47.828,47.828,0,0,0,2.276,5.352c.651,1.378,1.317,2.749,1.909,4.152.5,1.188-.123,2.038-1.415,2.074a1.033,1.033,0,0,1-1.023-.571c-.772-1.444-1.925-2.654-2.146-4.432a11.735,11.735,0,0,0-1.307-3.273c-1.053-2.263-2.1-4.532-3.243-6.748-1.017-1.968-2.127-3.891-3.275-5.785a13.667,13.667,0,0,1-1.124-2.214,6.032,6.032,0,0,0-.7-1.5c-.742-.983-.786-2.2-1.223-3.285a.619.619,0,0,1,.475-.8A11.366,11.366,0,0,1,100.608,42.854Z"/><path class="98637b35-2505-4d6e-b27f-aa29c98afacf" d="M270.663,154.38a49.216,49.216,0,0,0,6.449-.029,25.855,25.855,0,0,1,3.119.072c2.632.035,5.271.3,7.878-.353a1.225,1.225,0,0,1,1.439,1.16,4.02,4.02,0,0,1-.08,1.035.712.712,0,0,1-.7.653c-1.723,0-3.386.468-5.167.277a83.142,83.142,0,0,0-8.537-.241c-4.727-.019-9.454.016-14.181.04-1.877.009-3.753.069-5.63.064-.9,0-1.095-.214-1.254-1.057a1.221,1.221,0,0,1,.838-1.457,3.223,3.223,0,0,1,.823-.069c4.307,0,8.614.019,12.921.016C269.275,154.491,269.969,154.419,270.663,154.38Z"/><path class="98637b35-2505-4d6e-b27f-aa29c98afacf" d="M231.051,294.419c-.2-2.641,1.026-5.084,2.276-7.485a8.57,8.57,0,0,1,3.711-3.252,19.831,19.831,0,0,0,2.368-1.3,6.522,6.522,0,0,1,2.156-.7c.552-.174,1.314.551,1.457,1.23a1,1,0,0,1-.7,1.136c-1.7.659-3.055,1.892-4.682,2.675a4.612,4.612,0,0,0-2.1,2.243,13.134,13.134,0,0,0-1.055,9.1,21.427,21.427,0,0,0,2.362,6.192,7.065,7.065,0,0,1,.436,1.164,1.18,1.18,0,0,1-.288,1.507,1.522,1.522,0,0,1-1.918.024,3.664,3.664,0,0,1-.994-1.044,23.017,23.017,0,0,1-3.117-9.619C230.931,295.735,231.011,295.178,231.051,294.419Z"/><path class="98637b35-2505-4d6e-b27f-aa29c98afacf" d="M30.036,165.423c-.7,0-1.39.012-2.084,0a1.034,1.034,0,0,1-1.1-.75,1.351,1.351,0,0,1,.726-1.565,2.284,2.284,0,0,1,1.209-.174,11.411,11.411,0,0,0,4.133-.068c1.728-.153,3.467-.171,5.2-.247,3.408-.15,6.784-.545,10.154-1,2.213-.3,4.434-.193,6.648-.322a21.73,21.73,0,0,0,4.924-.767,18.982,18.982,0,0,1,2.233-.509,1.456,1.456,0,0,1,1.775,1.317.85.85,0,0,1-.677,1.094,68.111,68.111,0,0,1-9.654,1.355c-4.381.065-8.723.637-13.077,1.046-.346.032-.692.071-1.039.087q-4.683.213-9.366.418Z"/><path class="98637b35-2505-4d6e-b27f-aa29c98afacf" d="M27.931,142.814c4.754.3,9.26.525,13.777.4a4.425,4.425,0,0,1,1.246.089c3.057.819,6.2.757,9.319.943,1.377.082,2.759.107,4.132.223a12.675,12.675,0,0,1,2.252.411,2.36,2.36,0,0,1,1.555,1.569.722.722,0,0,1-.694,1,3.918,3.918,0,0,1-1.219-.208,11.681,11.681,0,0,0-4.306-.653,71.779,71.779,0,0,1-9.351-.662,27.813,27.813,0,0,0-7.478-.3,2.364,2.364,0,0,1-.83.007,29.527,29.527,0,0,0-6.435-.416c-1.25-.016-2.5-.055-3.75-.066a1.978,1.978,0,0,1-1.343-.464c-.667-.579-.539-1.266.277-1.6A9.582,9.582,0,0,1,27.931,142.814Z"/><path class="98637b35-2505-4d6e-b27f-aa29c98afacf" d="M43.9,88.791a1.779,1.779,0,0,1,1.114.5,27.971,27.971,0,0,0,6.074,3.9,79.02,79.02,0,0,1,9.6,5.4,38.652,38.652,0,0,0,6.009,2.868c1.91.826,3.8,1.711,5.69,2.574a2.372,2.372,0,0,1,.355.219c.651.45.906,1.1.626,1.574a1.678,1.678,0,0,1-1.761.83,1.615,1.615,0,0,1-.575-.234,25.181,25.181,0,0,0-3.665-1.977,24.569,24.569,0,0,0-4.15-1.928,17.279,17.279,0,0,1-4.729-2.606A20.176,20.176,0,0,0,56,98.409a106.6,106.6,0,0,1-10.351-5.773A16.686,16.686,0,0,1,43.113,91.2c-.433-.413-.5-.721-.217-1.506C43.069,89.208,43.328,88.826,43.9,88.791Z"/><path class="98637b35-2505-4d6e-b27f-aa29c98afacf" d="M298.461,233.282a2.606,2.606,0,0,1-1.562-.5,59.124,59.124,0,0,0-7.159-3.371c-2.561-1.077-5.093-2.221-7.659-3.286a29.543,29.543,0,0,1-6.087-3.155,15.788,15.788,0,0,0-2.427-1.19,1.6,1.6,0,0,1-.939-1.7,1.066,1.066,0,0,1,1.3-1.011,3.252,3.252,0,0,1,1.143.467,36.885,36.885,0,0,0,4.382,2.382c5.13,2.637,10.565,4.56,15.806,6.933a26.216,26.216,0,0,0,2.766.921c.593.192,1.192.366,1.782.567a.88.88,0,0,1,.636.957c-.01.207-.018.416-.048.621-.141.962-.341,1.153-1.314,1.284Z"/><path class="98637b35-2505-4d6e-b27f-aa29c98afacf" d="M56.77,70.082a1.515,1.515,0,0,1,1.059.593c.838.829,1.647,1.686,2.459,2.54,1.244,1.307,2.475,2.626,3.72,3.932,2.117,2.221,4.663,3.94,6.964,5.945a39.862,39.862,0,0,1,4.663,4.441,39.98,39.98,0,0,0,5.32,5.265,2.976,2.976,0,0,1,1.028,1.279,1.413,1.413,0,0,1-.045,1.2.913.913,0,0,1-1.514.375,9.869,9.869,0,0,1-.756-.706q-2.525-2.461-5.043-4.928a11.393,11.393,0,0,1-1.287-1.361,29.833,29.833,0,0,0-5.307-5.25C66.324,82,64.609,80.589,62.9,79.176a5.123,5.123,0,0,1-.931-.83,55.477,55.477,0,0,0-5.611-6.128A1.42,1.42,0,0,1,56.1,70.5.7.7,0,0,1,56.77,70.082Z"/><path class="98637b35-2505-4d6e-b27f-aa29c98afacf" d="M282.945,216.793a2.165,2.165,0,0,1-1.18-.343c-1.825-1-3.65-1.995-5.571-2.814-1.977-.843-3.865-1.906-5.872-2.659-2.091-.785-4.016-1.893-6.05-2.779a29.3,29.3,0,0,0-4-1.747,2.9,2.9,0,0,1-1.573-.966,1.018,1.018,0,0,1,.262-1.6,1.468,1.468,0,0,1,1.381-.173,40.868,40.868,0,0,1,4.253,1.614A26.55,26.55,0,0,0,268.626,207a45.474,45.474,0,0,1,6.154,3.036,30.611,30.611,0,0,0,7.288,3.012,12.389,12.389,0,0,1,1.571.548c.87.344,1.16.784,1.068,1.555a1.581,1.581,0,0,1-1.555,1.628C283.083,216.782,283.014,216.787,282.945,216.793Z"/><path class="98637b35-2505-4d6e-b27f-aa29c98afacf" d="M282.659,136.537c-1.137-.406-2.307.01-3.531.333-5.1,1.351-10.211,2.7-15.381,3.8a35.365,35.365,0,0,0-4.6,1.331c-1.373.493-2.785.878-4.191,1.274a4.3,4.3,0,0,1-1.242.119.727.727,0,0,1-.706-.645c-.215-.993.039-1.429.969-1.693,2.542-.72,5.072-1.483,7.626-2.155,5.716-1.5,11.444-2.961,17.168-4.435,1.01-.261,2.017-.539,3.037-.758a2.089,2.089,0,0,1,2.35,1.275C284.473,135.743,283.722,136.6,282.659,136.537Z"/><path class="98637b35-2505-4d6e-b27f-aa29c98afacf" d="M54.188,191.344a2.294,2.294,0,0,1-1.623,1.956c-1.474.4-2.976.711-4.438,1.153-3.592,1.084-7.139,2.305-10.613,3.726a6.728,6.728,0,0,1-3.228.646,5.538,5.538,0,0,0-3.116,1.016,4.384,4.384,0,0,1-1.737.661,1.251,1.251,0,0,1-1.356-1.033,1.15,1.15,0,0,1,.654-1.382c1.09-.453,2.192-.886,3.311-1.257,1.975-.655,3.972-1.243,5.951-1.885,2.97-.963,5.934-1.945,8.9-2.926,1.843-.61,3.679-1.244,5.525-1.847a1.171,1.171,0,0,1,1.658.778C54.124,191.077,54.151,191.213,54.188,191.344Z"/><path class="98637b35-2505-4d6e-b27f-aa29c98afacf" d="M35.287,107.5a2.718,2.718,0,0,1,1.7.6,8.48,8.48,0,0,0,2.247,1.056c2.215.806,4.413,1.667,6.575,2.606a14.625,14.625,0,0,0,2.751.945,38.061,38.061,0,0,1,4.941,1.611,43.357,43.357,0,0,0,4.191,1.228,10.466,10.466,0,0,1,2.743.954,6.59,6.59,0,0,0,1.8.479,2.68,2.68,0,0,1,1.818,1.282.917.917,0,0,1,.033.974c-.212.384-.47.739-.949.673a6.608,6.608,0,0,1-2.211-.547c-3.3-1.707-6.922-2.468-10.424-3.584-1.585-.5-3.132-1.125-4.706-1.665-3.287-1.127-6.432-2.6-9.646-3.908a12.02,12.02,0,0,1-1.3-.651,1.549,1.549,0,0,1-.662-.774.774.774,0,0,1,.652-1.2Z"/><path class="98637b35-2505-4d6e-b27f-aa29c98afacf" d="M31.981,124.061c.221.03.568.054.905.126,2.51.536,5.009,1.133,7.531,1.606,1.7.319,3.434.461,5.151.694,3.02.409,6.041.814,9.057,1.247,1.1.158,2.193.358,3.274.6a1.222,1.222,0,0,1,1.028,1.159,1.283,1.283,0,0,1-1.423,1.416,5.68,5.68,0,0,1-1.617-.343,15.077,15.077,0,0,0-5.093-.95,31.5,31.5,0,0,1-5.732-.917c-1.57-.306-3.143-.509-4.737-.664a57.367,57.367,0,0,1-5.733-1.009,18.378,18.378,0,0,0-2.834-.653,2.128,2.128,0,0,1-.783-.256,1.15,1.15,0,0,1-.634-1.191,1.106,1.106,0,0,1,.892-.782C31.438,124.113,31.647,124.1,31.981,124.061Z"/><path class="98637b35-2505-4d6e-b27f-aa29c98afacf" d="M231.413,198.892a2.3,2.3,0,0,1-1.213-.24,21.656,21.656,0,0,0-4.832-1.914,72.087,72.087,0,0,1-10.967-4.572,10.589,10.589,0,0,1-2.364-1.3,1.494,1.494,0,0,1,.019-2.2,1.015,1.015,0,0,1,1.162-.2c2.758,1.326,5.666,2.291,8.407,3.678a39.772,39.772,0,0,0,8.76,3.262,5.169,5.169,0,0,1,1.887.815c.855.616,1,.983.75,1.72C232.748,198.72,232.442,198.9,231.413,198.892Z"/><path class="98637b35-2505-4d6e-b27f-aa29c98afacf" d="M28.554,189.558a.9.9,0,0,1-.938-.583,1.329,1.329,0,0,1,.682-1.9,1.9,1.9,0,0,1,.365-.2c3.43-.911,6.512-2.778,9.973-3.614a11.8,11.8,0,0,0,2.119-.858c2.772-1.284,5.762-2.048,8.443-3.557a14.741,14.741,0,0,1,1.567-.558c.5-.21.947-.276,1.273.248a1.237,1.237,0,0,1-.3,1.67c-.278.205-.6.35-.9.528a42.32,42.32,0,0,1-6.518,2.767q-1.649.642-3.3,1.272a8.2,8.2,0,0,1-1.18.409,28.647,28.647,0,0,0-6.6,2.546c-1.183.579-2.406,1.079-3.626,1.579A5.931,5.931,0,0,1,28.554,189.558Z"/><path class="98637b35-2505-4d6e-b27f-aa29c98afacf" d="M102.464,212.913a1.352,1.352,0,0,1-1.085-.547,1.3,1.3,0,0,1,.033-1.379,1.4,1.4,0,0,1,.415-.459c1.958-1.481,3.337-3.515,5.016-5.262,1.488-1.547,2.913-3.155,4.339-4.76.547-.615.963-1.353,1.542-1.933a1.833,1.833,0,0,1,2.617.081.945.945,0,0,1,.314,1.12,5.135,5.135,0,0,1-1.426,2.254,50.672,50.672,0,0,0-8.853,8.745c-.446.528-.929,1.027-1.422,1.513A2.17,2.17,0,0,1,102.464,212.913Z"/><path class="98637b35-2505-4d6e-b27f-aa29c98afacf" d="M219.74,181.064a2.053,2.053,0,0,1,.609-1.575,1.121,1.121,0,0,1,1.643-.338c1.484.749,2.95,1.535,4.413,2.324a43.372,43.372,0,0,0,8.368,3.651,12.474,12.474,0,0,1,2.464,1.108,1.463,1.463,0,0,1,.491,2.011,1.4,1.4,0,0,1-1.568.729,2.234,2.234,0,0,1-.591-.2c-3.262-1.848-6.839-3.045-10.1-4.909-1.079-.617-2.262-1.051-3.385-1.594C221.282,181.886,220.5,181.456,219.74,181.064Z"/><path class="98637b35-2505-4d6e-b27f-aa29c98afacf" d="M228.69,171.014c-.055-.476.219-.731.66-.888a2.168,2.168,0,0,1,1.81.17,72.525,72.525,0,0,0,9.669,3.859,34.634,34.634,0,0,0,3.642.863c.733.17.938.829,1.091,1.4a1.325,1.325,0,0,1-.549,1.464,1.348,1.348,0,0,1-1.374.185c-1.528-.648-3.127-1.073-4.648-1.8-2.311-1.1-4.8-1.842-7.216-2.714a6.785,6.785,0,0,0-1.221-.242C229.248,173.1,228.7,172.441,228.69,171.014Z"/><path class="98637b35-2505-4d6e-b27f-aa29c98afacf" d="M51.763,205.721a3.586,3.586,0,0,1-1.595,1.981c-2.488,1.044-5.02,1.982-7.536,2.958-1.225.475-2.45.947-3.68,1.407a16.776,16.776,0,0,1-1.769.594c-.91.229-1.314,0-1.6-.831a1.285,1.285,0,0,1,.769-1.855c1.5-.529,3.006-1.024,4.528-1.472a20.176,20.176,0,0,0,3.3-1.19,37.813,37.813,0,0,0,5.171-2.636,1.654,1.654,0,0,1,1.946-.084C51.618,204.789,51.779,205.076,51.763,205.721Z"/><path class="98637b35-2505-4d6e-b27f-aa29c98afacf" d="M82.49,186.649c-.585-.02-1.228-.5-1.258-.925a1.886,1.886,0,0,1,.858-1.529c2.279-.672,4.243-2.008,6.385-2.963a30.881,30.881,0,0,0,4.886-2.726,3.447,3.447,0,0,1,1.473-.733c.405-.052.835-.148,1.165.208a1.69,1.69,0,0,1,.1,1.554,2.533,2.533,0,0,1-1.129,1.176c-3.644,1.834-7.163,3.913-10.894,5.577A4.849,4.849,0,0,1,82.49,186.649Z"/><path class="98637b35-2505-4d6e-b27f-aa29c98afacf" d="M218.611,218.413a25.331,25.331,0,0,0-3.83-6.385A24.8,24.8,0,0,0,211,207.61a1.407,1.407,0,0,1,.139-2.321.879.879,0,0,1,.973-.122,4.02,4.02,0,0,1,1.67,1.506c.769,1.237,1.629,2.418,2.49,3.593a3.03,3.03,0,0,0,1.908,1.5.619.619,0,0,1,.543.555,5.281,5.281,0,0,0,1.38,2.519,3.237,3.237,0,0,1,.726,1.239,1.793,1.793,0,0,1-.252,1.763,1.552,1.552,0,0,1-2.033.5Z"/><path class="98637b35-2505-4d6e-b27f-aa29c98afacf" d="M98.4,190.6a.891.891,0,0,1,.891.42,1.67,1.67,0,0,1,0,1.952,3.719,3.719,0,0,1-1.033,1,48.328,48.328,0,0,0-5.943,4.883,12.509,12.509,0,0,1-2.462,1.908,1.147,1.147,0,0,1-1.726-.879,1.855,1.855,0,0,1,.6-1.876c1.668-1.235,3.1-2.758,4.886-3.86a23.474,23.474,0,0,0,2.436-1.936c.537-.44,1.038-.926,1.6-1.331A2.415,2.415,0,0,1,98.4,190.6Z"/><path class="98637b35-2505-4d6e-b27f-aa29c98afacf" d="M20.829,201.85a1.144,1.144,0,0,1,1.138.851c.16.411-.077.659-.369.863a2.1,2.1,0,0,0-.852.881,1.3,1.3,0,0,1-1.473.888,2.163,2.163,0,0,0-1.19.309c-1.373.655-2.74,1.326-4.135,1.93a15.415,15.415,0,0,1-2.362.782c-.7.176-1.16-.177-1.376-.916-.244-.834-.032-1.506.689-1.7,1.347-.368,2.583-1.018,3.9-1.431a13.957,13.957,0,0,0,3.756-1.744A8.778,8.778,0,0,1,20.829,201.85Z"/><path class="98637b35-2505-4d6e-b27f-aa29c98afacf" d="M159.6,189.941a20.9,20.9,0,0,0-4.05,2.507,2.9,2.9,0,0,1-2.756.474.789.789,0,0,1-.483-1.3,5.635,5.635,0,0,0,1-3.545.953.953,0,0,0-1.1-.983,3.961,3.961,0,0,0-2.343.77,29.987,29.987,0,0,1-2.742,1.438.872.872,0,0,1-.984-.038c-.219-.144-.338-.594-.134-.714,1.434-.845,2.841-1.75,4.33-2.486a29.666,29.666,0,0,1,3.513-1.3,2.388,2.388,0,0,1,2.015.126c.592.325.728.578.647,1.337-.094.886-.18,1.772-.269,2.661.281,0,.438.047.544-.007a37.3,37.3,0,0,0,3.485-1.856,2.478,2.478,0,0,1,2.316-.4c.329.111.681.151,1.01.261a.766.766,0,0,1,.471,1c-.117.452-.489.836-.353,1.392a2.792,2.792,0,0,0,1.9-.612,3.147,3.147,0,0,1,2.611.113c.329.1.385.871.077,1.085a8.055,8.055,0,0,1-1.244.744,15.794,15.794,0,0,0-2.244,1.09,3.448,3.448,0,0,1-1.589.456c-1.957.192-2.367-.009-3.34-1.739-.1-.182-.217-.356-.322-.527,0,.007.1.1.1.1Z"/></g><g class="b51e1123-1bb8-4a6a-8e35-e1f0776ad45c"><path class="d45254fe-eda5-4d99-b251-87df9fe047d8" d="M201.731,164.127v-1.344c-3.936-.288-4.32-.528-4.32-4.656v-19.2c0-4.08.384-4.368,4.32-4.656v-1.344h-12.72v1.344c3.936.288,4.32.576,4.32,4.656v19.2c0,4.08-.384,4.368-4.32,4.656v1.344Zm-21.167,0v-1.344c-3.936-.288-4.32-.528-4.32-4.656v-19.2c0-4.08.384-4.368,4.32-4.656v-1.344h-12.72v1.344c3.936.288,4.32.576,4.32,4.656v19.2c0,4.08-.384,4.368-4.32,4.656v1.344Zm-21.168,0v-1.344c-3.936-.288-4.32-.528-4.32-4.656v-19.2c0-4.08.384-4.368,4.32-4.656v-1.344h-12.72v1.344c3.936.288,4.32.576,4.32,4.656v19.2c0,4.08-.384,4.368-4.32,4.656v1.344Zm-20.111-31.2h-10.8v1.344c3.888.48,4.176.816,3.264,3.6-1.536,4.8-5.184,14.16-7.584,20.208h-.1c-3.264-8.256-6.768-17.568-7.968-20.976-.768-2.112-.624-2.5,2.784-2.832v-1.344h-11.76v1.344c2.88.288,3.648.672,5.04,4.224,2.784,6.96,6.72,17.376,9.936,26.16h1.488c3.648-9.936,8.688-22.128,9.984-25.3,1.824-4.272,2.448-4.7,5.712-5.088Z"/><path class="0d95865e-8a90-4430-b263-6fa09cc3e42e" d="M201.731,164.127v-1.344c-3.936-.288-4.32-.528-4.32-4.656v-19.2c0-4.08.384-4.368,4.32-4.656v-1.344h-12.72v1.344c3.936.288,4.32.576,4.32,4.656v19.2c0,4.08-.384,4.368-4.32,4.656v1.344Zm-21.167,0v-1.344c-3.936-.288-4.32-.528-4.32-4.656v-19.2c0-4.08.384-4.368,4.32-4.656v-1.344h-12.72v1.344c3.936.288,4.32.576,4.32,4.656v19.2c0,4.08-.384,4.368-4.32,4.656v1.344Zm-21.168,0v-1.344c-3.936-.288-4.32-.528-4.32-4.656v-19.2c0-4.08.384-4.368,4.32-4.656v-1.344h-12.72v1.344c3.936.288,4.32.576,4.32,4.656v19.2c0,4.08-.384,4.368-4.32,4.656v1.344Zm-20.111-31.2h-10.8v1.344c3.888.48,4.176.816,3.264,3.6-1.536,4.8-5.184,14.16-7.584,20.208h-.1c-3.264-8.256-6.768-17.568-7.968-20.976-.768-2.112-.624-2.5,2.784-2.832v-1.344h-11.76v1.344c2.88.288,3.648.672,5.04,4.224,2.784,6.96,6.72,17.376,9.936,26.16h1.488c3.648-9.936,8.688-22.128,9.984-25.3,1.824-4.272,2.448-4.7,5.712-5.088Z"/></g></g></svg>