<svg id="Layer_1" data-name="Layer 1" xmlns="http://www.w3.org/2000/svg" xmlns:xlink="http://www.w3.org/1999/xlink" viewBox="0 0 185.72 220.25"><defs><style>.cls-1,.cls-4{fill:none;}.cls-2{fill:#a7212a;}.cls-3{clip-path:url(#clip-path);}.cls-4{stroke:#a7202a;stroke-width:1.19px;}.cls-5{fill:#a7202a;}</style><clipPath id="clip-path"><rect class="cls-1" x="36.46" y="69.77" width="142.5" height="66.23"/></clipPath></defs><title>5Artboard 1</title><path class="cls-2" d="M108.22,156c.3,1.1.58,2.24.91,3.36a3.67,3.67,0,0,1,0,2.34,1.78,1.78,0,0,1-.42.76,1.72,1.72,0,0,0-.54.83c-.07.31-.34.46-.55.66a8.38,8.38,0,0,1-2.79,1.64,10.9,10.9,0,0,0-2.1,1.58.76.76,0,0,0-.24.43c-.28,1.09-.8,2.09-1,3.21a1.42,1.42,0,0,1-2,1,2.93,2.93,0,0,1-.56-.28,7.76,7.76,0,0,0-2.22-.84,6.33,6.33,0,0,1-2-.7,1.57,1.57,0,0,0-1.88.12,6.84,6.84,0,0,1-1.7.77,3.43,3.43,0,0,1-2.75-.27,3.63,3.63,0,0,1-2.28-2.49,5.1,5.1,0,0,0-.33-.81c-.73-1.31-1.46-2.63-2.22-3.93a3.74,3.74,0,0,0-1.42-1.4c-.69-.39-1.4-.76-2.11-1.1-1.07-.5-1.33-.9-1.25-2,0-.21.09-.42.11-.62a1.9,1.9,0,0,0-.14-1.46c-.12-.18-.06-.41-.06-.62a7,7,0,0,0-.06-1.12,10.86,10.86,0,0,1,.25-4.25,1.18,1.18,0,0,0-.36-1.34,1.48,1.48,0,0,1-.31-.39c-.63-1.12-.74-1.29.33-2a1.41,1.41,0,0,0,.58-.93,27.21,27.21,0,0,0,.77-4.58,1.25,1.25,0,0,1,.09-.61c.76-1.48.57-3.07.58-4.64,0-.75-.06-1.5-.1-2.26a1.52,1.52,0,0,0-.1-.47,9.42,9.42,0,0,1-.63-2.68,5.69,5.69,0,0,0-1.09-2.61A9,9,0,0,0,77.8,127c-.73-.81-1.24-1.77-1.9-2.61a35.51,35.51,0,0,0-3.23-3.49c-.8-.78-1.56-1.64-2.42-2.35a25.46,25.46,0,0,1-2.42-2.68,7.08,7.08,0,0,1-.51-.71,35.86,35.86,0,0,0-2.94-3.9,18.49,18.49,0,0,1-1.32-1.83,28,28,0,0,1-1.86-3.06,2,2,0,0,0-.43-.6,1.82,1.82,0,0,1-.65-1.3c0-.51-.49-.86-.81-1.24a1.47,1.47,0,0,1-.47-1,2.85,2.85,0,0,0-.56-1.23,2.31,2.31,0,0,1-.49-1.52A.93.93,0,0,0,57.7,99a5.48,5.48,0,0,1-.55-2.79,2.26,2.26,0,0,0-.07-.63A16.32,16.32,0,0,1,57,90.11c.11-.87.2-1.74.27-2.62a3.66,3.66,0,0,1,.29-1.34,1.63,1.63,0,0,0,.12-.73A16.86,16.86,0,0,1,58.93,79c.51-1.33,1.06-2.64,1.6-4a46.47,46.47,0,0,1,3.86-7.73,5.24,5.24,0,0,1,.53-.71c.79-.86,1.59-1.71,2.39-2.57a2,2,0,0,1,.39-.32,7.8,7.8,0,0,0,2.1-2,6.6,6.6,0,0,1,1.88-1.65,32.33,32.33,0,0,0,4.07-2.71,2.53,2.53,0,0,1,1.12-.56,11.51,11.51,0,0,0,2.95-1,11.87,11.87,0,0,1,2.61-.84c.95-.19,1.87-.46,2.81-.7a12.45,12.45,0,0,1,3.22-.45c.55,0,1.09-.06,1.64-.08q1.07,0,2.13-.06c1.34,0,2.68,0,4-.1.79,0,1.56-.24,2.37-.24a15.57,15.57,0,0,1,3.72.56,9.57,9.57,0,0,0,2.08.4,5.37,5.37,0,0,1,1.94.51c1,.43,2,.87,3,1.32a2.24,2.24,0,0,1,.53.33,26.94,26.94,0,0,0,3.23,1.92,26.6,26.6,0,0,1,3.8,2.43A11.21,11.21,0,0,0,118.65,62a16.31,16.31,0,0,1,2.41,1.81,2.94,2.94,0,0,1,.59.63,16.61,16.61,0,0,0,2.11,2.32,11.07,11.07,0,0,1,2,2.58c1,1.79,1.94,3.61,2.9,5.41a12.66,12.66,0,0,1,.86,2,17.78,17.78,0,0,0,1,2.45,17.44,17.44,0,0,1,1.19,4.19,11,11,0,0,1,.21,3.34,11.81,11.81,0,0,0,.28,2.49,2.13,2.13,0,0,1,0,.87,3,3,0,0,0-.08,1.49,1.44,1.44,0,0,1,0,.62c-.27,1.1-.52,2.19-.82,3.28-.47,1.65-1.2,3.21-1.62,4.88a1.38,1.38,0,0,1-.43.75,4.15,4.15,0,0,0-1.2,2.13,6.9,6.9,0,0,1-.76,1.57,3.85,3.85,0,0,0-.44.76,39.69,39.69,0,0,1-2.5,4.34,13.18,13.18,0,0,1-1.36,2,1.37,1.37,0,0,0-.28.55,3.59,3.59,0,0,1-.91,1.62,2.26,2.26,0,0,0-.48.73,17.88,17.88,0,0,1-1.78,2.85,7.93,7.93,0,0,1-1.68,2,22.29,22.29,0,0,0-1.6,1.75c-.7.71-1.46,1.36-2.18,2a3.29,3.29,0,0,0-.68.72c-.44.85-1,1.67-1.39,2.51a10.43,10.43,0,0,1-.6,1.09,3,3,0,0,0-.47,1,2.11,2.11,0,0,1-.26.7,11.48,11.48,0,0,0-1.56,5.86,24.39,24.39,0,0,1-.53,4.35c0,.2-.17.47-.08.6a2.37,2.37,0,0,1,.14,1.93,1.21,1.21,0,0,0,0,.38,33.23,33.23,0,0,1,.57,3.84.92.92,0,0,0,.43.59.62.62,0,0,1,.13.89,10.69,10.69,0,0,1-.84,1.39.92.92,0,0,0-.17.92,16.84,16.84,0,0,1,.73,2.79c0,.17.06.33.09.5a2,2,0,0,1-1.09,2.4C108.35,155.84,108.3,155.93,108.22,156Zm-6.42-10.21-.19.14s-.09.07-.08.08.11.08.17,0a1.12,1.12,0,0,0,.09-.22l.34.07s.09,0,.11,0,0-.1-.11-.07A1.82,1.82,0,0,1,101.8,145.82Zm3.41,4,.36-.31c.09-.08.1-.17,0-.19a.33.33,0,0,0-.23.05c-.17.1-.12.29-.15.45a1.21,1.21,0,0,0-.77.11,1.66,1.66,0,0,0-.86-.08c-1.68.32-3.37.6-5.06.9a6.19,6.19,0,0,1-.86.15c-1.25,0-2.5.13-3.75.28a4.68,4.68,0,0,1-1.12-.06c-.92-.1-1.83-.27-2.74-.34a9.07,9.07,0,0,1-2.21-.4c-.85-.27-1.79-.14-2.59-.46-1.5-.6-3.14-.5-4.62-1.07a.21.21,0,0,0-.21.07.24.24,0,0,0,0,.23.94.94,0,0,0,.28.24c.58.33,1.16.67,1.75,1a3.48,3.48,0,0,0,.82.29,51.8,51.8,0,0,0,5.81,1,3,3,0,0,1,.74.1,16.46,16.46,0,0,0,4.74.41,5.14,5.14,0,0,0,1.6-.25,7,7,0,0,1,1.11-.21c.83-.11,1.66-.19,2.49-.32,1.41-.2,2.73-.79,4.11-1.1.19,0,.34-.24.51-.36Zm-21.49-2.24-.08.08s-.07,0-.1,0a.13.13,0,0,1,.2-.05l1.16.74c.16,0,.33,0,.49,0s.26.11.21-.12c0,0-.15,0-.23,0s-.32.09-.48.13a.62.62,0,0,0-.52-.54C84.14,147.77,83.9,147.8,83.72,147.61ZM92.38,145c.05-.2.14-.46,0-.58a1.23,1.23,0,0,0-.94,0c-.14,0-.24.28-.4.5l1.4.1a1,1,0,0,0,.71.18c1-.09,2-.15,3-.33a11.25,11.25,0,0,1,2.24-.2,2.28,2.28,0,0,0,2.27-1.9c.08-.75,0-1.51,0-2.26a.27.27,0,0,0,0-.12c-.08-.15-.17-.28-.37-.28s-.22.1-.28.21a2.8,2.8,0,0,0-.21,1.59,1.61,1.61,0,0,1-.71,1.51,5.35,5.35,0,0,1-2.82.9,3.61,3.61,0,0,0-1.35.17,2.37,2.37,0,0,1-1.1.19A2.35,2.35,0,0,0,92.38,145Zm7.71-9.05c-.08.74-.15,1.49-.24,2.24a1.39,1.39,0,0,0,.07.73.43.43,0,0,0,.42.22.24.24,0,0,0,.27-.2,3.09,3.09,0,0,0-.3-2.17,1.17,1.17,0,0,1-.22-.82c-.38-.32-.75-.66-1.15-1a25.9,25.9,0,0,1-2.84-2.05,4.49,4.49,0,0,0-.85-.52,1.16,1.16,0,0,0-1.58.15,10.31,10.31,0,0,1-2.89,1.71A7.1,7.1,0,0,0,88.53,136a2.27,2.27,0,0,0-.81,1.52c0,.71-.14,1.4-.16,2.09,0,1.13.06,2.26.12,3.39s.11,1.13,1.19,1.41a6.21,6.21,0,0,0,.85.21,1.78,1.78,0,0,0,.61,0,.39.39,0,0,0,.25-.25.38.38,0,0,0-.17-.28,9.79,9.79,0,0,1-1.75-1.43.89.89,0,0,1-.22-.91,6.32,6.32,0,0,0,.19-2.12,5.29,5.29,0,0,1,.09-1.12,4.45,4.45,0,0,0,.13-1.74.65.65,0,0,1,.1-.47,1.47,1.47,0,0,1,1.62-.3.83.83,0,0,1,.27.39,1.21,1.21,0,0,1,0,.5c-.07.75-.12,1.51-.24,2.25a8,8,0,0,0,.06,2.49c.06.5.28.62.65.34a9.34,9.34,0,0,1,3.25-1.29l.6-.17a1.38,1.38,0,0,0,.72-.47,9.44,9.44,0,0,0,1.26-1.87c.26-.56.5-1.12.75-1.69l1.82-.43Zm-1-2.7a5.72,5.72,0,0,0,.1-1c-.13-1.76,0-3.52-.24-5.27-.2-1.33.05-1.59,1.41-1.82a9.55,9.55,0,0,1,1.5-.16,6,6,0,0,0,1.48-.26c.46-.12.53-.2.55-.71a16.79,16.79,0,0,1,.48-3.86,4.21,4.21,0,0,0,.09-.87,22.33,22.33,0,0,1,.59-3.72c.06-.29.12-.57.16-.86.11-.94.42-1.16,1.32-.93.13,0,.24.08.36.12.35.14.41.34.21.69a2,2,0,0,1-.27.42,2.62,2.62,0,0,0-.67,1.46c-.11.62-.18,1.24-.27,1.87s-.12,1.25-.24,1.86a3.75,3.75,0,0,0,0,1.11c.11,1.11.13,2.24.17,3.37a1.08,1.08,0,0,1-1,1.21c-.24,0-.5,0-.75.07a5.41,5.41,0,0,0-2,.42c-.37.21-.9.11-1.14.47s0,.89,0,1.35a21.19,21.19,0,0,0,0,3.38,1.94,1.94,0,0,1-.19,1,5.79,5.79,0,0,0-.31,1.08.57.57,0,0,0,.24.66,4.45,4.45,0,0,1,1.58,2.5.81.81,0,0,0,.55.59c1,.44,2.1.57,3.12,1,.46.17.58.08.67-.42a6,6,0,0,0,.1-.74,36.39,36.39,0,0,1,.52-4.88,19.27,19.27,0,0,1,1.81-5.46,20.82,20.82,0,0,1,3.31-4.39,14.79,14.79,0,0,1,2.33-2.28,2,2,0,0,0,.43-.45c.66-1,1.63-1.79,2.38-2.74a28.6,28.6,0,0,0,2.37-3.35,19.32,19.32,0,0,1,2.23-3.49,2,2,0,0,0,.24-.43c.7-1.24,1.36-2.5,2.11-3.71,1-1.57,1.79-3.2,2.67-4.82.43-.79.77-1.65,1.18-2.47a5.79,5.79,0,0,0,.64-1.89,12.71,12.71,0,0,1,.75-2.91,8.08,8.08,0,0,0,.53-3.07c0-1.17,0-2.34-.06-3.51a9.47,9.47,0,0,0,0-1.51c-.22-1.36-.5-2.72-.78-4.07-.1-.49-.22-1-.28-1.48a3.37,3.37,0,0,0-.72-2,2,2,0,0,1-.35-.66c-.75-2.24-2.2-4.13-3.19-6.25a47,47,0,0,0-3-4c-.61-.64-1.21-1.28-1.8-1.93a24.41,24.41,0,0,0-3.68-3.21c-.88-.62-1.85-1.12-2.79-1.66A15.05,15.05,0,0,0,109,59.15a17.82,17.82,0,0,1-2.67-.71A30.59,30.59,0,0,0,101.28,57c-.94-.17-1.88-.42-2.82-.6a21.91,21.91,0,0,0-7.08-.65c-2,.25-4,.45-6,.86-1.31.27-2.59.66-3.89,1a6.62,6.62,0,0,0-1.91.57c-1.31.85-2.93,1-4.14,2.06a.57.57,0,0,1-.24.09,5.06,5.06,0,0,0-1.73,1,5.49,5.49,0,0,1-.82.57,14.76,14.76,0,0,0-2.86,2.23c-.6.51-1.06,1.19-1.62,1.74a17,17,0,0,0-1.7,1.8,9.91,9.91,0,0,0-1.26,2,7.06,7.06,0,0,1-.85,1.52,6.65,6.65,0,0,0-.82,1.41c-.45,1-.88,2.08-1.39,3.09a14.55,14.55,0,0,0-1,2.55,44.32,44.32,0,0,0-1.74,7.56,4.77,4.77,0,0,1-.16.73,26.43,26.43,0,0,0-.65,4.59,16.91,16.91,0,0,0,.13,3.76,19,19,0,0,0,.84,3.93c.39,1.11.91,2.15,1.36,3.22.17.39.31.78.51,1.15.82,1.55,1.8,3,2.7,4.51a34.27,34.27,0,0,0,2.78,3.72,14.88,14.88,0,0,1,1.3,1.84,9.47,9.47,0,0,0,1.12,1.66c.45.49,1.07.8,1.57,1.25s.81,1.15,1.33,1.65a16.29,16.29,0,0,1,2.43,2.34,10.5,10.5,0,0,0,1.27,1.4,24.69,24.69,0,0,1,3.6,4.17,20.86,20.86,0,0,1,1.13,1.94,15.58,15.58,0,0,1,1.45,5.18c.15,1.36.16,2.75.21,4.12a5.92,5.92,0,0,0,.12,1.43.53.53,0,0,0,.53.08,6.66,6.66,0,0,1,2-.31.73.73,0,0,0,.81-.62,6.69,6.69,0,0,1,1.83-2.95,1,1,0,0,0,.31-.64c.16-1,.37-2.05.44-3.1a18.6,18.6,0,0,1,.28-2.88,2.74,2.74,0,0,0,0-.49.93.93,0,0,0-.81-1c-1.26-.29-2.4-1-3.73-1a.47.47,0,0,1-.44-.52c0-.13,0-.25,0-.38a47.48,47.48,0,0,0-.85-6.72,9.45,9.45,0,0,0-.59-1.92,3.45,3.45,0,0,1-.25-.83A.88.88,0,0,1,83,114a2.7,2.7,0,0,1,.6.17c.45.17.59.32.44.74a2.41,2.41,0,0,0,.06,1.48c.19.68.38,1.37.62,2a3.25,3.25,0,0,1,.2,1.11,25.25,25.25,0,0,0,.53,4,.72.72,0,0,0,.38.62c.51.2.9.63,1.46.7a10.18,10.18,0,0,1,2.84,1c.52.23.56.3.55.84a11.14,11.14,0,0,1-.35,2.23,34.12,34.12,0,0,0-.39,3.63c0,.31.2.45.49.31a3.48,3.48,0,0,1,.66-.35,4.45,4.45,0,0,0,1.59-1c.54-.41.58-.63.32-1.18a11.92,11.92,0,0,1-.68-2.42,1.24,1.24,0,0,1,0-.74c.17-.42.35-.85.51-1.28a2.5,2.5,0,0,1,1.89-1.5,1.48,1.48,0,0,1,1.8,1.27,10.62,10.62,0,0,1,0,2.76,2.22,2.22,0,0,1-.65,1.46,2.42,2.42,0,0,0-.31.39.49.49,0,0,0,.12.76A26.38,26.38,0,0,1,98,132.75,1.62,1.62,0,0,0,99.1,133.22ZM80.54,158.8a.71.71,0,0,0,.47.75,10.49,10.49,0,0,1,1.45.75,12,12,0,0,1,4.17,5.21A14.1,14.1,0,0,0,88.05,168c1,1.29,2.07,1.75,3.44.71a3.19,3.19,0,0,1,3.33-.34c1.47.61,3.08.8,4.48,1.59.17.09.33,0,.42-.18a1.38,1.38,0,0,0,.18-.46,8.68,8.68,0,0,1,1.4-3.31,2.56,2.56,0,0,1,.88-.88,16.82,16.82,0,0,1,2.66-1.39,4.88,4.88,0,0,0,2.16-2,2.17,2.17,0,0,0,.22-1.91,5,5,0,0,1-.28-.95c-.26-1.86-.31-1.88-2.2-1.45a2.78,2.78,0,0,0-.73.17,9.21,9.21,0,0,1-2.29.65,21.35,21.35,0,0,1-3.42.76,17.14,17.14,0,0,0-2.57.49,5.27,5.27,0,0,1-2,.15,23.36,23.36,0,0,1-3.24-.29,2.85,2.85,0,0,0-.51,0c-.66-.06-1.33-.1-2-.18-.83-.08-1.66-.23-2.49-.29a9.64,9.64,0,0,1-3.71-1.07c-1.06-.53-1.08-.21-1.22.69C80.57,158.58,80.55,158.67,80.54,158.8ZM92.86,158a11.32,11.32,0,0,0,3.76-.29c1.14-.23,2.3-.41,3.44-.66a39.51,39.51,0,0,0,6-1.76,5,5,0,0,0,1.06-.65,1.26,1.26,0,0,0,.51-1.43c-.15-.61-.32-1.22-.5-1.82a.49.49,0,0,0-.62-.28,2.67,2.67,0,0,0-.46.2,21.71,21.71,0,0,1-6.59,1.83c-1.24.22-2.5.3-3.73.53a14.07,14.07,0,0,1-5.85-.24,3.26,3.26,0,0,0-1.12-.11,6.53,6.53,0,0,1-1.86-.18,22.91,22.91,0,0,1-2.3-.61,27.12,27.12,0,0,1-2.88-.86c-.94-.4-1.07-.46-1.24.74a6.78,6.78,0,0,0-.17,2.11,1.25,1.25,0,0,0,.57.92,10.71,10.71,0,0,0,2.56,1.32,16.8,16.8,0,0,0,2.81.63c.92.11,1.81.43,2.73.45A27.76,27.76,0,0,0,92.86,158Zm6.65-11.67a.75.75,0,0,0-.24-.08,39.62,39.62,0,0,1-4.36.35,1.16,1.16,0,0,0-.37,0,7.35,7.35,0,0,1-3.81-.05c-.71-.15-1.35-.45-2-.62a12.74,12.74,0,0,1-3.55-1.49,3.12,3.12,0,0,0-1-.42,2.69,2.69,0,0,1-1.13-.5,4.08,4.08,0,0,0-1.47-.7,6.46,6.46,0,0,0-.29,1.37.69.69,0,0,0,.38.84,13.33,13.33,0,0,0,4.13,1.69,18.43,18.43,0,0,0,3,.47,31.65,31.65,0,0,1,3.76.18,11,11,0,0,0,2.62-.06c1.42-.17,2.76-.66,4.18-.81C99.36,146.48,99.48,146.45,99.51,146.29Zm1.88-2.94c0,.17,0,.21,0,.25,0,.41.14.55.51.46a6.34,6.34,0,0,0,3.28-1.7c1.16-1.17,1-2.23-.61-2.81-.2-.07-.4-.11-.6-.17a4.51,4.51,0,0,1-.84-.23c-.76-.39-.87,0-1.12.5a1.38,1.38,0,0,0-.16.47C101.77,141.26,101.38,142.34,101.39,143.35Zm-13.3,5.28c.1.08.19.19.3.21,1.23.21,2.46.48,3.7.58a29.94,29.94,0,0,0,6.88-.37c1.57-.23,3.1-.69,4.67-.94a18.64,18.64,0,0,0,2.53-.71,5.29,5.29,0,0,0,.91-.41.54.54,0,0,0,.31-.52c0-.49-.11-1-.17-1.49,0,0,0-.09-.06-.09a.35.35,0,0,0-.23,0,.49.49,0,0,0-.16.19,4.12,4.12,0,0,1-2.51,2.11.73.73,0,0,0-.32.18,2.38,2.38,0,0,1-1,.35c-.66.17-1.32-.06-2,.09a5.75,5.75,0,0,1-2,.3,1.71,1.71,0,0,0-.61.15,12.5,12.5,0,0,1-5.55.68,29.54,29.54,0,0,1-4.1-.44A.65.65,0,0,0,88.09,148.63Zm-2.19-5.5c0-1-.08-1.74-.12-2.53s-.09-.71-.85-.68c-.33,0-.66,0-1,0a2.72,2.72,0,0,0-1.48.6c-.36.33-.36.65.05.91A19.81,19.81,0,0,0,85.9,143.13Zm-3.22,4.4c.06-.31,0-.41-.12-.48l-1.39-.81a.3.3,0,0,0-.43.07c-.18.26-.16.7.06.78.55.18,1.1.34,1.66.48C82.57,147.6,82.68,147.5,82.68,147.53Zm12.14-20c0-.21,0-.26,0-.29a.69.69,0,0,0-.18-.3c-.12-.07-.24,0-.32.13a1.53,1.53,0,0,0-.17,1.65.27.27,0,0,0,.19.11c.07,0,.18-.07.19-.13C94.66,128.22,94.76,127.77,94.82,127.49ZM104,145.31l.06,0,0-.06Z"/><path class="cls-2" d="M131.64,131.53c.74.54,1.46,1.12,2.22,1.62a5.22,5.22,0,0,1,1.65,1.69,21.73,21.73,0,0,1,2.15,4.79,13,13,0,0,1,.4,5.83,11.33,11.33,0,0,1-2.08,5.2,3.83,3.83,0,0,0-.55,1.5,8.84,8.84,0,0,0,.47,3.83,3.87,3.87,0,0,0,.95,1.61,2.13,2.13,0,0,1,.49,2.09c-.08.32-.12.66-.17,1-.24,1.43-1.28,2.31-2.22,3.26-.56.56-1.18,1.07-1.77,1.6-.1.08-.18.18-.28.25a.93.93,0,0,1-1.06,0,.81.81,0,0,1-.15-.94,1.91,1.91,0,0,1,.47-.72,13.49,13.49,0,0,1,1.54-1.29,5.22,5.22,0,0,0,1.82-2.78.86.86,0,0,0,0-.61,5.38,5.38,0,0,0-.56-1.25,8.76,8.76,0,0,1-1.3-3.77,9.16,9.16,0,0,1-.27-1.73.45.45,0,0,0-.38-.44,1.77,1.77,0,0,0-1.22-.09,1.48,1.48,0,0,1-1.31-.24.73.73,0,0,1-.07-1.25A2.41,2.41,0,0,1,132,150a9.56,9.56,0,0,0,2-.29,1.66,1.66,0,0,0,1.26-.94c.28-.79.78-1.46,1-2.29a12.39,12.39,0,0,0-.14-6.08,19.29,19.29,0,0,0-2.16-4.79c-.06-.11-.1-.26-.2-.31-.73-.38-1.17-1.08-1.83-1.53a8.65,8.65,0,0,0-1.55-.78,1.23,1.23,0,0,0-1.17.55,6.3,6.3,0,0,0-.45,1,9.22,9.22,0,0,0-.48,3.22,5.49,5.49,0,0,1-.54,2.92c-.24.45-.34,1-.56,1.4a3.87,3.87,0,0,0-.46,2.54,3.39,3.39,0,0,1-.06,1c0,.21-.11.41-.12.61a18.9,18.9,0,0,1,0,2.13,9.37,9.37,0,0,0-.29,2,2.28,2.28,0,0,1-.2,1.23,9.26,9.26,0,0,0-.68,2.15c-.2.79-.6,1.47-.86,2.22a1,1,0,0,1-.18.33,15.3,15.3,0,0,0-1.62,2.53,8.09,8.09,0,0,0-.86,6.74,1.27,1.27,0,0,1,.1.37,20.12,20.12,0,0,0,.62,3.45,3.44,3.44,0,0,0,.23.85,14.37,14.37,0,0,1,.91,4,16.38,16.38,0,0,0,.95,3.89,8.48,8.48,0,0,1,.34,1.34,16.11,16.11,0,0,0,1,3.1,21,21,0,0,0,3.07,4.55,19.69,19.69,0,0,0,2.92,2.57,35.09,35.09,0,0,1,4.57,4.47,7.3,7.3,0,0,0,1.08,1.21,1.18,1.18,0,0,1,.43.75c.15.64-.32,1.14-.93.92a6.92,6.92,0,0,1-1.69-.81,6.74,6.74,0,0,1-2-2.32c-.29-.56-.84-.9-1.19-1.43a8.26,8.26,0,0,0-1.44-1.39.5.5,0,0,0-.34-.08.26.26,0,0,0-.2.28,15,15,0,0,0,.89,5.31,10.12,10.12,0,0,1,.58,1.65,12.83,12.83,0,0,0,1.23,3.13c.63,1.28,1.17,2.6,1.77,3.89s1.31,2.72,2,4.07a.83.83,0,0,0,.14.22c1.13,1,1.47,2.52,2.36,3.69a1.24,1.24,0,0,1,.18.58c.07.61-.31.89-.84.64a1.86,1.86,0,0,1-1.07-1,1.88,1.88,0,0,0-.71-1,.54.54,0,0,0-.7,0c-.16.13-.31.27-.47.42a2.79,2.79,0,0,0,.67,4.7,6.92,6.92,0,0,0,2.89.77,19.79,19.79,0,0,0,5.48-.5,1.55,1.55,0,0,0,.56-.28,3.66,3.66,0,0,1,.88-.45,36.26,36.26,0,0,0,4.53-2.18,20.74,20.74,0,0,0,4.56-3.52c.68-.69,1.5-1.2,2.16-1.91a24.76,24.76,0,0,0,2.62-3.67,1.17,1.17,0,0,0,.14-.35.44.44,0,0,0-.09-.34.37.37,0,0,0-.33-.08,9.41,9.41,0,0,0-1,.58c-.25.16-.46.37-.71.52a1.06,1.06,0,0,1-1.59-.91,16,16,0,0,0-1.21-4.45c-.28-.83-.68-1.62-1-2.43-.17-.38-.51-.52-.8-.25a27,27,0,0,1-2.69,1.58,1,1,0,0,1-1.28,0,.7.7,0,0,1-.09-1.17,5.34,5.34,0,0,1,.92-.66,12.35,12.35,0,0,0,2.5-1.66,2.41,2.41,0,0,1,.64-.41,1.59,1.59,0,0,0,.67-.53,8.2,8.2,0,0,1,1.68-1.49,1.77,1.77,0,0,0,.68-.84,11,11,0,0,1,1.62-2.82,18.25,18.25,0,0,0,1.47-2.33,12.87,12.87,0,0,1,1.39-2.09,12.21,12.21,0,0,0,1.08-1.67c.75-1.3,1.63-2.53,2.46-3.78.09-.14.26-.24.33-.38.53-1.28,1.69-2.05,2.53-3.08a28.1,28.1,0,0,0,2.16-2.91,1.53,1.53,0,0,0,.26-1.3,5.66,5.66,0,0,1,0-2.49,8.32,8.32,0,0,0,0-2.39,25,25,0,0,1-.19-3.87c.06-1.29-.22-2.59-.12-3.89.07-1,0-2,.21-3a23.26,23.26,0,0,0,.13-2.5,2,2,0,0,0-1.41-2.13,4.38,4.38,0,0,0-1.71-.33c-1.3.05-2.61,0-3.9.1a20.53,20.53,0,0,1-3.76.06,1.55,1.55,0,0,0-.84.22,14.18,14.18,0,0,0-3.3,2.28,5,5,0,0,0-1,1.61,16,16,0,0,0-1.58,5.14,2.41,2.41,0,0,0,0,.38.45.45,0,0,0,.36.45,2.42,2.42,0,0,0,2.75-.64c.83-.89,1.51-1.89,2.27-2.84a1.64,1.64,0,0,0,.3-.82c0-.25.06-.5.1-.75a1.06,1.06,0,0,1,1.46-.91.28.28,0,0,1,.24.24c.09.78.44,1.54,0,2.32a.39.39,0,0,0,.28.58,2.71,2.71,0,0,0,1.59-.1c1.09-.44,2.2-.81,3.31-1.18a.9.9,0,0,1,1.22.71,1.19,1.19,0,0,1-.81,1.14,9.22,9.22,0,0,0-2.1.81,9.66,9.66,0,0,1-2.9.78c-.45.06-.54.23-.46.69a7.58,7.58,0,0,0,1,2.69,2.52,2.52,0,0,0,1.8,1.43l.12,0c.53.18.79.49.74.88a1,1,0,0,1-.84.83,1.69,1.69,0,0,1-1.32-.25,5.78,5.78,0,0,1-2.06-2.3,15.72,15.72,0,0,1-1-2.55c-.08-.32-.28-.61-.36-.93-.14-.57-.4-.65-.8-.07a7.24,7.24,0,0,1-1.68,1.68,4,4,0,0,1-4.37,0,1.39,1.39,0,0,1-.53-1.21,9.46,9.46,0,0,1,.33-2.49,11.66,11.66,0,0,1,.86-2.62,1.2,1.2,0,0,0,.08-1.08,5.6,5.6,0,0,1-.2-2.12.55.55,0,0,0-.47-.63c-.61-.14-1.21-.32-1.82-.47a.65.65,0,0,0-.68.21c-.39.44-.8.86-1.15,1.33-.8,1.09-1.74,2-2.62,3.06a5.49,5.49,0,0,1-.84.75,5.27,5.27,0,0,0-1.05.89,1.53,1.53,0,0,1-1.56.57H141a2.76,2.76,0,0,1-2.81-2.79,8.22,8.22,0,0,1,.51-3.07,32.77,32.77,0,0,1,1.67-3.79,23.41,23.41,0,0,0,1-2.7c0-.07,0-.19,0-.24a6.61,6.61,0,0,0,1-2.66,1.19,1.19,0,0,1,.67-.85,9.13,9.13,0,0,0,1.15-.71,29,29,0,0,1-1.12-5.79,5.74,5.74,0,0,1,.33-2.48,6.7,6.7,0,0,0,.35-2.22.67.67,0,0,0-.43-.68,7.52,7.52,0,0,1-3.18-2.94,7.13,7.13,0,0,1-1-2.81,4.27,4.27,0,0,1,.05-2.1.81.81,0,0,1,.44-.57c1-.45,2-1,3.24-.63a1.4,1.4,0,0,0,.5,0,.32.32,0,0,0,.32-.32,7,7,0,0,0-.09-1.12c-.1-.53-.26-1-.39-1.58a9.14,9.14,0,0,1,0-2.86c0-.62.25-1.23.35-1.85a4.87,4.87,0,0,1,2.2-3.24,9.67,9.67,0,0,1,4-1.75,2.38,2.38,0,0,1,2.75,1.44,8,8,0,0,1,.54,2.19c.11.79.19,1.58.25,2.37.13,1.67.21,3.35.35,5,.08.91.23,1.82.35,2.73.07.49.28,1-.18,1.41-.1.08,0,.25.06.33.85.63,1.34,1.6,2.19,2.24a2.48,2.48,0,0,1,.69.72c1,1.74,2.63,2.92,4,4.28a18.73,18.73,0,0,0,2.51,1.89,3.83,3.83,0,0,1,1.61,2.58,11.33,11.33,0,0,1-.17,3.72c-.09.62-.2,1.24-.34,1.86a6.44,6.44,0,0,0-.13,2.62,1.46,1.46,0,0,1-.13,1,1,1,0,0,0,0,1,20.38,20.38,0,0,1,1.13,2.52.55.55,0,0,0,.7.38,6.16,6.16,0,0,1,2.49.17,3.59,3.59,0,0,1,3,3.88c-.07,1.38-.1,2.76-.26,4.13a17.24,17.24,0,0,0-.24,3.13c.13,1.92.08,3.85.37,5.76a13.11,13.11,0,0,1,.07,2.26,8,8,0,0,0,.25,3.11,2.08,2.08,0,0,1-.3,1.68,6,6,0,0,1-1,1.46c-1.08,1.16-2.14,2.34-3.14,3.58a38.23,38.23,0,0,0-2.92,4.08,23.71,23.71,0,0,1-2.29,3.59,6.1,6.1,0,0,0-.7,1.19,18.74,18.74,0,0,1-1.89,2.79,7.59,7.59,0,0,0-1,1.47,10.19,10.19,0,0,1-1.82,2.67c-1.5,1.62-1.37,1.42-.74,3.2.53,1.54,1.17,3,1.78,4.57a.6.6,0,0,0,.91.36,4.78,4.78,0,0,0,.65-.38,2,2,0,0,1,1.55-.31,1.42,1.42,0,0,1,1.31,1.55,6.42,6.42,0,0,1-1.23,3.5,41.52,41.52,0,0,1-6.35,6.43,26.5,26.5,0,0,1-4.21,2.71c-1.37.72-2.82,1.27-4.15,2.07a4.47,4.47,0,0,1-.93.39,13.31,13.31,0,0,1-3.81.72,9.52,9.52,0,0,0-2.13.11,1.93,1.93,0,0,1-.73-.12c-.82-.16-1.65-.31-2.46-.5a2.24,2.24,0,0,1-1.32-.69,1.69,1.69,0,0,0-.5-.36,4.28,4.28,0,0,1-1.42-5.63,5.79,5.79,0,0,1,1.67-2c.63-.52.66-.67.26-1.38a15.61,15.61,0,0,0-1-1.58,3.6,3.6,0,0,1-.72-1.31,5.93,5.93,0,0,0-1.09-2.1,5,5,0,0,1-.81-1.82,6.94,6.94,0,0,0-.79-2.1,7.07,7.07,0,0,1-.74-2c-.2-.94-.82-1.77-.67-2.78a.35.35,0,0,0-.06-.24c-.79-1-.66-2.23-.83-3.37a7.22,7.22,0,0,1,.05-2.62.86.86,0,0,0-.26-.9,6.92,6.92,0,0,1-1.45-2A2,2,0,0,0,126,186a8.79,8.79,0,0,1-2.37-4c-.4-1.1-.75-2.22-1.13-3.33a26.63,26.63,0,0,1-.79-3.54c-.09-.49-.09-1-.14-1.5a17.28,17.28,0,0,0-1.17-4.85,1.66,1.66,0,0,1-.13-.85,3.67,3.67,0,0,0-.27-1.73,7,7,0,0,1-.37-3.34c.09-.71.15-1.42.26-2.12a6.44,6.44,0,0,1,.8-2.22c.78-1.38,1.7-2.67,2.46-4.06a2.76,2.76,0,0,0,.34-.66,30.85,30.85,0,0,0,.88-3.4c.13-1.12.34-2.22.51-3.33a1.15,1.15,0,0,0,0-.37,25.41,25.41,0,0,1,0-2.76,6.39,6.39,0,0,1,.89-3.22,6.51,6.51,0,0,0,.59-1.63,20.18,20.18,0,0,0,.46-4.09A4,4,0,0,1,129,131.5a1.74,1.74,0,0,1,1.46-.1,3.46,3.46,0,0,0,1.23.17Zm29,18.94c.75-.07,1.51,0,2.26-.07.43-.05.58-.1.4-.66-.06-.15-.14-.3-.21-.45-.75-1.54-1.46-3.1-2.24-4.63a11.37,11.37,0,0,0-1.77-2.58,1.47,1.47,0,0,0-1.57-.56,27.64,27.64,0,0,1-2.78.71c-1.16.32-2.32.68-3.46,1.1a8.07,8.07,0,0,1-2,.64,8.75,8.75,0,0,0-3.3.69,1.12,1.12,0,0,1-.49.08,1.57,1.57,0,0,0-1.41,1.08,21.35,21.35,0,0,0-1.25,2.86,23.66,23.66,0,0,1-1,2.58q-.69,1.69-1.41,3.36a4.86,4.86,0,0,0-.36,2.09,1.12,1.12,0,0,0,1.75,1c.18-.09.34-.25.51-.35,1.2-.72,1.91-2,3-2.78.06,0,.09-.13.14-.2a14.47,14.47,0,0,1,1.74-2.3,1.54,1.54,0,0,0,.37-1.74,2.64,2.64,0,0,1-.2-.6.69.69,0,0,1,.39-.83.7.7,0,0,1,1,.27c.17.29.25.63.43.9s.36,1,.82,1.23a3.81,3.81,0,0,0,1.84.31,2.41,2.41,0,0,1,.37-.07.58.58,0,0,1,.35.11,2.54,2.54,0,0,1,.79,1.37c0,.14-.16.33.08.4a.4.4,0,0,0,.42-.21,7.78,7.78,0,0,1,2.22-1.82,4.94,4.94,0,0,1,3.18-1C159.69,150.5,160.15,150.47,160.61,150.47Zm1.92-6.9a25.17,25.17,0,0,0,.74-4.94,2.7,2.7,0,0,0-1.23-2.58c-.38-.26-.76-.52-1.13-.8a11.36,11.36,0,0,1-1.28-1c-1.07-1.11-2.26-2.11-3.25-3.32a17,17,0,0,0-1.82-1.88c-.7-.64-1.34-1.35-2-2a3.84,3.84,0,0,0-2.31-1.09,11.62,11.62,0,0,0-2.13-.06,2.06,2.06,0,0,1-.85-.15,23,23,0,0,0-4.82-1.33c-1.16-.18-1.56.1-1.64,1.25a2.35,2.35,0,0,0,0,.75,6,6,0,0,0,2,3.26,11.18,11.18,0,0,0,4.17,2,4.58,4.58,0,0,0,3-.16c.35-.13.71-.24,1-.4a4.16,4.16,0,0,1,1.47-.31.72.72,0,0,1,.46.16,1,1,0,0,1-.43,1.61c-.69.17-1.4.28-2.09.44a.49.49,0,0,0-.39.75c.11.31.24.62.37.93a12.2,12.2,0,0,0,3.52,5,2.19,2.19,0,0,0,1.5.53,4.29,4.29,0,0,0,1.45-.36,3.11,3.11,0,0,1,2.32.09,4.62,4.62,0,0,1,2.21,2.15A17.32,17.32,0,0,0,162.53,143.57Zm-10.7-23.26a38.93,38.93,0,0,0-.41-5.5c0-.45-.18-.9-.23-1.36a2.67,2.67,0,0,0-.42-1,.7.7,0,0,0-.59-.41,2.12,2.12,0,0,0-1.11.1c-.34.16-.71.25-1,.41a4.74,4.74,0,0,0-2.49,2.36,7.39,7.39,0,0,0-.63,4c.18,1.28.56,2.53.85,3.79a1,1,0,0,0,.76.73,8,8,0,0,0,2.91.46,6.34,6.34,0,0,1,1.74,0c.82.19.92,0,.83-.85A19.29,19.29,0,0,1,151.83,120.31Zm.75,20.39a6.55,6.55,0,0,1-1.88-2,21.09,21.09,0,0,1-1.29-2.15c-.37-.79-.86-1.52-1.3-2.28a1.57,1.57,0,0,0-1.31-.84,7.16,7.16,0,0,1-1.16-.32,9.72,9.72,0,0,0-.72,5.1,18.82,18.82,0,0,0,.78,4.05.43.43,0,0,0,.57.34,19,19,0,0,1,2.59-.46,5.89,5.89,0,0,0,1.08-.34Z"/><path class="cls-2" d="M45.76,141.48c2,1.77,2,1.77,3,4.23.32.87.59,1.75.86,2.63a10.79,10.79,0,0,0,1.09,2.79,2,2,0,0,1,.17,1.22,13.24,13.24,0,0,1-.7,3.05.73.73,0,0,1-.4.46,2.56,2.56,0,0,1-.81.33,18.46,18.46,0,0,1-3.86.22l-.13,0a6.17,6.17,0,0,1-3.75-1.55,1.22,1.22,0,0,0-.29-.23,3.63,3.63,0,0,1-2-2.72c-.16-.56-.24-1.15-.38-1.71a1.07,1.07,0,0,0-.83-.83,6.31,6.31,0,0,0-2-.33.36.36,0,0,0-.38.5c.44,1.35.72,2.73,1.29,4a40.58,40.58,0,0,0,2.06,3.58,2,2,0,0,1,.3,1.19A1.77,1.77,0,0,1,37.64,160a10.55,10.55,0,0,0-1.55.45.56.56,0,0,1-.25.05,8.78,8.78,0,0,1-4.41-.66,8.42,8.42,0,0,1-2.09-1.35c-.13.56-.26,1-.32,1.42a8.47,8.47,0,0,1-.44,1.43,4.79,4.79,0,0,1-2,2.36c-.55.42-.92.35-1.43-.15a.36.36,0,0,1-.05-.55,10.51,10.51,0,0,1,.85-.91A4.81,4.81,0,0,0,27.41,159c0-.21,0-.42.06-.63a4.53,4.53,0,0,1,.06-1,6,6,0,0,1,.37-.93,5.62,5.62,0,0,0-1.34-.42A5.07,5.07,0,0,1,24,154.53a2.67,2.67,0,0,1-.52-.85c-.09-.25-.15-.52.09-.69a.48.48,0,0,1,.58.1l.76.66a5.23,5.23,0,0,0,1.23.86,1.85,1.85,0,0,0,.72.2c.48,0,.73-.16.76-.63s0-.92,0-1.38c0-.21-.07-.41-.06-.62a.68.68,0,0,1,.34-.64.84.84,0,0,1,.92.22,1.42,1.42,0,0,1,.33,1.17,5,5,0,0,0,.73,3.25,5.09,5.09,0,0,0,2.77,2.43,5.55,5.55,0,0,0,3.93-.16.54.54,0,0,0,.35-.7,2.62,2.62,0,0,0-.44-1,34.08,34.08,0,0,1-2.3-4,7.22,7.22,0,0,1-.63-2.29c-.15-.76-.32-1.48-1.24-1.69a.59.59,0,0,1-.28-.22,2.43,2.43,0,0,0-1.89-.83c-1.25-.14-2.49-.33-3.73-.54a4.19,4.19,0,0,1-1.07-.35,3.23,3.23,0,0,0-2.88.33.69.69,0,0,0-.32.37,7,7,0,0,0-.69,2.38,17.9,17.9,0,0,0,.23,2.75,17.74,17.74,0,0,1-.41,5.72,37.78,37.78,0,0,1-1.79,5.08,8.77,8.77,0,0,0,.48,7.75c.88,1.57,1.77,3.14,2.77,4.64a24.3,24.3,0,0,1,2.19,4.09c.53,1.28,1.11,2.53,1.75,3.76A11.15,11.15,0,0,0,28,185.49a26.06,26.06,0,0,0,2.46,2.69,17.31,17.31,0,0,0,4.65,2.91,3.18,3.18,0,0,0,1.56.43.8.8,0,0,1,.75.38c.17.22.46.43.29.76a.84.84,0,0,1-.75.39,2.78,2.78,0,0,1-1.56-.37c-.76-.34-1.53-.67-2.3-1a.35.35,0,0,0-.55.3c-.25,1.53-.48,3.07-.72,4.6a14.77,14.77,0,0,1-.26,1.48,8.23,8.23,0,0,0-.53,3.33,1.1,1.1,0,0,1-.18.72.59.59,0,0,1-.76.23,1.06,1.06,0,0,1-.71-1.39c0-.21.08-.41.1-.62a1.09,1.09,0,0,0-.07-.24c-.24-.08-.39.09-.54.22-.32.27-.61.58-.94.83a2.17,2.17,0,0,0-.8,2,2.11,2.11,0,0,0,.14.74,12.61,12.61,0,0,0,1.39,2.8,17,17,0,0,0,2.64,2.86,18.69,18.69,0,0,1,1.39,1.27,14.81,14.81,0,0,0,3,2.51A26,26,0,0,0,41,216a6.32,6.32,0,0,0,1.24.23c1.49.23,2.92.73,4.39,1.08a5.89,5.89,0,0,0,2.86.05,4,4,0,0,0,1.76-.91,2,2,0,0,0,.68-1.56,4.53,4.53,0,0,0-1.59-3.54c-.12-.12-.26-.21-.39-.32-.81-.66-1.19-.62-1.87.18a4.49,4.49,0,0,0-.42.62.63.63,0,0,1-.74.32c-.46-.1-.66-.37-.46-.8a3.88,3.88,0,0,0,.56-1.78.28.28,0,0,1,0-.12c0-.07.09-.19.14-.2.71-.12.49-1,1.1-1.25a2.36,2.36,0,0,0,1.15-1.12,22.65,22.65,0,0,0,2.26-4.34,16.43,16.43,0,0,1,.75-1.73,82,82,0,0,0,3.19-8.46,11,11,0,0,0,.34-2,1.43,1.43,0,0,0-.1-.61.45.45,0,0,0-.5-.3,1.58,1.58,0,0,0-.36.09l-5.42,2.31c-.24.09-.46.21-.7.29-1.11.42-1.7,0-2.17-1.06a.42.42,0,0,1,.06-.34c.1-.14.32-.24.44-.16,1.11.71,2.16.11,3.11-.27a20.19,20.19,0,0,0,3.79-1.66,3.11,3.11,0,0,1,1.05-.41A9.8,9.8,0,0,0,59.47,186c.09-.08.22-.15.27-.26a14,14,0,0,0,1.4-2.65c.51-1.77.9-3.57,1.51-5.32.36-1.06.56-2.18.83-3.28.09-.36.18-.73.28-1.09a16,16,0,0,0,.68-4.45,3.28,3.28,0,0,1,.19-1.36,21.3,21.3,0,0,0,1-4.52c.22-1.23.25-2.49.43-3.73a4.85,4.85,0,0,0-.55-2.9,11.89,11.89,0,0,1-1.09-3.06,8.29,8.29,0,0,0-.25-.85,8.46,8.46,0,0,1-.31-3.84,4.24,4.24,0,0,0-.56-3,14.52,14.52,0,0,1-1.09-2.53,3.82,3.82,0,0,1-.25-1.1,25.46,25.46,0,0,0-1.1-6.3,13.86,13.86,0,0,0-.56-2.05,9.52,9.52,0,0,0-1.76-2.58,1,1,0,0,0-1.67.06,21.89,21.89,0,0,0-1.25,1.88c-.24.39-.41.82-.65,1.21a10.91,10.91,0,0,0-1.43,5.38,24,24,0,0,0,.26,4.24c.05.33.15.65.22,1,.38,1.82,1.78,2.37,3.51,2.22.25,0,.49-.09.74-.11a.53.53,0,0,1,.5.32.48.48,0,0,1-.08.47,1.41,1.41,0,0,1-1.28.66c-.59,0-1.17,0-1.76.06a.41.41,0,0,0-.41.38,7.25,7.25,0,0,0-.05,2.13,6.17,6.17,0,0,0,.1.62,4.32,4.32,0,0,1-1,3.84,3.63,3.63,0,0,0,.6,5.32,1.88,1.88,0,0,1,.47.41,5.12,5.12,0,0,0,1.45,1.37.57.57,0,0,1,.3.73.74.74,0,0,1-.73.4,1.48,1.48,0,0,1-.8-.32,14.86,14.86,0,0,1-2.93-2.53,3.69,3.69,0,0,1-1.12-2.7c-.36-1.52.46-2.66,1.22-3.82a4,4,0,0,0,.66-1.19,3.46,3.46,0,0,0,.1-1.6,11.85,11.85,0,0,1-.08-3.76.94.94,0,0,0-.19-.81,6.28,6.28,0,0,1-1.37-3.56c-.08-.66-.07-1.32-.19-2a19.51,19.51,0,0,1,.07-3.24c.49-1.2.45-2.54,1.07-3.71a22.39,22.39,0,0,1,2-3.32c.39-.49.69-1,1-1.57a.94.94,0,0,1,1-.45,5.28,5.28,0,0,1,3.62,1.75,10.67,10.67,0,0,1,2.13,4.77,42.05,42.05,0,0,1,.81,4.57,19.64,19.64,0,0,0,.79,3.41,5,5,0,0,0,.67,1.49,3.8,3.8,0,0,1,.54,3.24,12.73,12.73,0,0,0-.12,2.75,1.86,1.86,0,0,0,.24.84,3.11,3.11,0,0,1,.34.81c.1,1.58,1,2.92,1.31,4.43a4.69,4.69,0,0,1,.14,1.11,28.48,28.48,0,0,1-.72,6.1c-.36,1.24-.51,2.54-.75,3.82s-.34,2.48-.67,3.7c-.27,1-.34,2.15-.6,3.21A21.31,21.31,0,0,1,64,177.3c-.23.62-.37,1.28-.55,1.93-.45,1.61-.89,3.22-1.35,4.83a6.13,6.13,0,0,1-2,3,6.29,6.29,0,0,1-2,1.42c-.34.12-.4.39-.41.7a16.28,16.28,0,0,1-1.08,5c-.53,1.46-1.15,2.89-1.72,4.33s-1.14,2.87-1.68,4.32c-.25.67-.79,1.2-.89,1.93-.69.86-.91,2-1.6,2.84a2.44,2.44,0,0,0-.28.56.83.83,0,0,0,.27,1.2c.49.4,1,.75,1.5,1.14A1.85,1.85,0,0,1,53,212a1.19,1.19,0,0,0,.2.71c.71.76.29,1.69.4,2.53a2.8,2.8,0,0,1-.53,1.78,2.21,2.21,0,0,1-.48.57A5.79,5.79,0,0,1,47.52,219c-1.11-.23-2.26-.29-3.33-.61-1.37-.41-2.8-.41-4.17-.86a14.81,14.81,0,0,1-3.29-1.5,36,36,0,0,1-3.41-2.33A15.65,15.65,0,0,1,31.51,212a25.24,25.24,0,0,0-1.87-1.86A8.36,8.36,0,0,1,27.86,208a2.9,2.9,0,0,0-.47-.59,3.3,3.3,0,0,1-.83-1.38,3.53,3.53,0,0,0-.6-1.23,1.82,1.82,0,0,1-.39-1.4c0-.5.11-1,.12-1.5a2.22,2.22,0,0,1,.87-1.74A21.39,21.39,0,0,1,29.48,198a1.8,1.8,0,0,0,.95-1.51c.18-1.5.4-3,.61-4.48,0-.17.06-.33.07-.5a1.31,1.31,0,0,0-.8-1.52,3.74,3.74,0,0,1-1.68-1.45,1.86,1.86,0,0,0-.4-.48,17,17,0,0,1-3.85-5.66,31.6,31.6,0,0,0-2.54-4.9c-.58-.82-.94-1.78-1.47-2.63-.81-1.32-1.54-2.69-2.32-4a4.56,4.56,0,0,1-.48-1.4,15.89,15.89,0,0,1,.07-5.63,3.63,3.63,0,0,1,.26-.83c.23-.63.45-1.26.73-1.87a32.61,32.61,0,0,0,1.56-5.28,3.34,3.34,0,0,0,.14-1,20.88,20.88,0,0,0-.42-4.24,4.9,4.9,0,0,1,.9-4.38,2.12,2.12,0,0,1,1.26-.78c.44-.1.9-.19,1.35-.26a1.05,1.05,0,0,0,.95-.87c.15-.69.33-1.38.52-2.06a6.54,6.54,0,0,0,0-3.23,9,9,0,0,1-.39-2.68,3.25,3.25,0,0,0-.33-1.46,5.13,5.13,0,0,1,0-3.56,3.36,3.36,0,0,1,.93-1.46,23,23,0,0,1,4.06-3.16,7.23,7.23,0,0,1,1-.51,7.91,7.91,0,0,0,1.76-1c.72-.5,1.5-.91,2.25-1.37.18-.11.34-.24.52-.34A1.8,1.8,0,0,0,35.6,122a20.38,20.38,0,0,1,.79-4.06,8.56,8.56,0,0,0,.21-2.48c0-.5-.1-1,0-1.5a14.74,14.74,0,0,0-.38-4.24,3.42,3.42,0,0,1,.74-2.57,1.11,1.11,0,0,1,.88-.43,7.25,7.25,0,0,1,3.1.35,2.67,2.67,0,0,1,.45.22,9.61,9.61,0,0,1,4.09,5.08,10.09,10.09,0,0,1,.76,3.79,6.22,6.22,0,0,1,.2,3c-.07.52.14,1.06.08,1.61a.36.36,0,0,0,.53.33c.34-.17.64-.4,1-.57a2.19,2.19,0,0,1,2-.25,2.94,2.94,0,0,1,1.65,1.6,5.17,5.17,0,0,1,0,3.09,2.94,2.94,0,0,1-1.07,1.52c-.84.63-1.4,1.58-2.38,2-.11.05-.17.18-.26.27a9.23,9.23,0,0,1-1.85,1.68.67.67,0,0,0-.33.64c0,.5,0,1,.06,1.5a49.44,49.44,0,0,1,.24,6.66,2.86,2.86,0,0,0,0,.88C46.27,140.65,46.41,141.16,45.76,141.48Zm-8.7,6.34c.11,0,.39.09.69.07a.35.35,0,0,0,.37-.4c0-.12,0-.25,0-.37a.68.68,0,0,1,.92-.7,1.13,1.13,0,0,1,1,1.28c0,.25,0,.5,0,.75a12.49,12.49,0,0,0,1.16,4.6,1.26,1.26,0,0,0,.35.5c.38.25.75.54,1.15.77a10.27,10.27,0,0,0,4.92.54,1.38,1.38,0,0,0,1-.89,3.36,3.36,0,0,0,0-2.92,11,11,0,0,1-.8-2.63,28.51,28.51,0,0,0-1.17-3.71,3.23,3.23,0,0,0-1.09-1.48A15.92,15.92,0,0,0,43,141.71a13.21,13.21,0,0,0-3.59-1,16.8,16.8,0,0,0-2.81-.63c-1-.58-2.11-.82-3.12-1.31-1.93-.93-1.9-.6-3.48-.22a3.69,3.69,0,0,0-1.37.58,1.42,1.42,0,0,0-.43.45c-.5,1-1.05,2-1.52,3a7.49,7.49,0,0,0-.63,2c-.12.74-.1.82.58,1a11.23,11.23,0,0,0,2.48.39c1.36,0,2.49.65,3.72,1a3.09,3.09,0,0,0,2.4.79A5.2,5.2,0,0,0,37.06,147.82Zm-10.57-9.4c.43-.14.5-.53.77-.71s.33-.29.52-.33c1-.28,2.06-.66,3.14-.86a18.54,18.54,0,0,0,6.74-2.62,8.51,8.51,0,0,0,2.16-2.07c.21-.27.59-.56.38-1s-.53-.17-.8-.25a2,2,0,0,1-1.17-.68.5.5,0,0,1-.07-.58.47.47,0,0,1,.39-.27h.75a7.24,7.24,0,0,1,1.73.32c.58.13,1.26-.22,1.77.37.1.12.4.09.6.09a2.72,2.72,0,0,0,1.92-.8c1.44-1.28,2.85-2.59,4.18-4a2.89,2.89,0,0,0,.54-2.82c-.09-.38-.38-.49-.77-.46a2.58,2.58,0,0,0-1.26.53,3.31,3.31,0,0,1-2.26.5c-.74-.07-1.48-.12-2.23-.21-.94-.12-1.92,0-2.88,0a4.21,4.21,0,0,0-2.77,1c-1.16.81-2.37,1.54-3.52,2.38a10.46,10.46,0,0,1-2.4,1.34,14.14,14.14,0,0,0-5.55,4,2.35,2.35,0,0,0-.65,1.45,8.12,8.12,0,0,0,.13,2.86C26.16,136.44,26.29,137.43,26.49,138.42Zm11-17.07a10.94,10.94,0,0,0,1.94-.31,2.89,2.89,0,0,1,1.36-.17,22.08,22.08,0,0,1,3.24.32c.42.14.62-.08.61-.52s0-1,0-1.5.27-.68.27-1.08a16.18,16.18,0,0,0-.78-5.3c-.16-.44-.5-.78-.63-1.22a4.82,4.82,0,0,0-3-2.95,3.46,3.46,0,0,0-1.59-.23.84.84,0,0,0-.8.67,2.76,2.76,0,0,0,0,1.61,8.1,8.1,0,0,1,.24,2.24c0,1,0,1.91,0,2.87a10.23,10.23,0,0,1-.34,3A7.77,7.77,0,0,0,37.53,121.35Zm-3.14,15.87c.52.47,1.07.44,1.5.71a8,8,0,0,0,3.07,1,12.17,12.17,0,0,1,3.13.83,5.13,5.13,0,0,0,1.06.37c.79.18,1,.22,1.15-.66a8.14,8.14,0,0,0,.15-2.36c-.09-.91,0-1.81,0-2.72a10.63,10.63,0,0,0-.35-2.58.53.53,0,0,0-.54-.43h-.75a.69.69,0,0,0-.65.31,16.16,16.16,0,0,1-2.42,2.68,4.31,4.31,0,0,1-1.19.89,8.8,8.8,0,0,0-2.28,1.27,1.83,1.83,0,0,1-.68.3C35.22,137,34.86,137.06,34.39,137.22Z"/><path class="cls-2" d="M88.58,209.78c.14-.95.26-1.91.41-2.86.18-1.16.37-2.31.58-3.47l1.5-8.26c.06-.33.09-.66.13-1,.07-.57-.11-.75-.72-.65a5.55,5.55,0,0,0-1.77.61,1.19,1.19,0,0,1-.84.16,1.07,1.07,0,0,1-.83-1.6,9.59,9.59,0,0,0,.57-2.18q.35-2.22.81-4.44c.26-1.23.36-2.48.64-3.71.24-1.07.63-2.08,1-3.11a2.14,2.14,0,0,0,.19-1.2,1,1,0,0,1,.89-1.13,2.82,2.82,0,0,1,1.12,0c.66.13,1.31.27,2,.34a5.8,5.8,0,0,0,2.11-.13,1.58,1.58,0,0,1,1.9,1.61c0,.12,0,.25,0,.37-.32,1.6-.47,3.23-.9,4.81A22,22,0,0,0,97,187.6c0,.32.19.47.48.38a14.17,14.17,0,0,0,1.43-.49,1.62,1.62,0,0,1,1.33,0,1.23,1.23,0,0,1,.62,1.85,25.11,25.11,0,0,0-2.66,4.95,13.62,13.62,0,0,1-1,2.14,5.12,5.12,0,0,0-.67,1.61,8.33,8.33,0,0,1-1,2.44,7.33,7.33,0,0,0-.38.8c-.5,1.15-1.06,2.28-1.48,3.46-.71,2-1.81,3.86-2.5,5.89a4.49,4.49,0,0,1-.41.78.88.88,0,0,1-1,.41c-.4-.08-.84-.2-1-.71A4.48,4.48,0,0,1,88.58,209.78ZM91.44,205c.27-.06.29-.24.35-.37.51-1.1,1-2.19,1.51-3.32.34-.86.89-1.63,1.18-2.49.49-1.48,1.24-2.84,1.77-4.29a19.21,19.21,0,0,1,1-2.17c.4-.78.72-1.6,1.06-2.41,0,0-.06-.14-.1-.2s-.09,0-.12,0a3.72,3.72,0,0,0-.65.36c-.27.2-.5.45-.77.64a.78.78,0,0,1-.72.14,1.3,1.3,0,0,1-.76-1.05c0-.29,0-.59,0-.88a21.23,21.23,0,0,1,.57-5.61c.27-1.09.39-2.22.57-3.34a1.53,1.53,0,0,0,0-.37c0-.46-.18-.6-.62-.62l-2.76-.09c-.73,0-.8,0-.94.69a20.54,20.54,0,0,1-.8,2.78,9,9,0,0,0-.4,1.71c-.11.61-.21,1.23-.3,1.85a3.21,3.21,0,0,0-.06.75,6.57,6.57,0,0,1-.4,2.71,13,13,0,0,0-.42,2c-.06.3.13.48.45.42.85-.17,1.73-.24,2.28-1.11a.8.8,0,0,1,1.29.06,1,1,0,0,1,.12,1.17c-.32.54-.65,1.08-.29,1.74.07.13,0,.34,0,.5a24.1,24.1,0,0,1-.58,2.68,14.71,14.71,0,0,0-.43,1.83c-.19,1.11-.4,2.22-.57,3.34S91.57,203.94,91.44,205Z"/><path class="cls-2" d="M114.41,55.18a2.55,2.55,0,0,0-.73-.06.5.5,0,0,1-.51-.68,15.39,15.39,0,0,1,.64-1.76c.72-1.74,1.46-3.47,2.18-5.2a10.39,10.39,0,0,0,.34-1.08,3.25,3.25,0,0,1,.28-1,13.09,13.09,0,0,0,.94-2.41,14,14,0,0,0,.89-2.33,29,29,0,0,1,1.82-4.11,11.61,11.61,0,0,0,1.16-2.77,1.69,1.69,0,0,1,.18-.47c1.19-2.25,2.11-4.63,3.21-6.93a8.13,8.13,0,0,0,.94-2.18.87.87,0,0,1,.26-.41A5,5,0,0,0,127.07,22c.49-1.24,1-2.47,1.47-3.71a9.69,9.69,0,0,0,.38-1.19,4,4,0,0,1,1-2,1.75,1.75,0,0,0,.48-.87,10.84,10.84,0,0,1,1-2.31,4,4,0,0,0,.36-.79c.55-2.12,1.68-4,2.33-6.09.28-.88.56-1.75.88-2.62s.84-.9,1.49-.28a1.07,1.07,0,0,1,.25,1.44c-.39.79-.76,1.58-1.13,2.38-1.2,2.58-2.11,5.28-3.16,7.93-.29.74-.57,1.49-.91,2.21-1.18,2.5-2,5.13-3,7.7a33.22,33.22,0,0,1-1.79,4.27,13.12,13.12,0,0,0-.58,1.39c-.21.5-.38,1-.64,1.5-1.38,2.5-2.3,5.21-3.52,7.78-.79,1.66-1.6,3.32-2.35,5a63.93,63.93,0,0,0-2.88,7c-.42,1.36-1,2.67-1.47,4A.66.66,0,0,1,114.41,55.18Z"/><path class="cls-2" d="M128.24,65a.66.66,0,0,1-.6-1,1.77,1.77,0,0,1,.36-.5c.5-.5,1-1,1.54-1.47a5.39,5.39,0,0,0,.56-.5A46.58,46.58,0,0,1,135.54,56a6,6,0,0,0,.79-.81c1-1.29,2.2-2.4,3.28-3.62l.18-.17a22.64,22.64,0,0,0,3.36-3.35c.31-.34.69-.62,1-1,1-1.08,1.95-2.17,2.93-3.25.43-.46.89-.89,1.31-1.35,1-1.11,2-2.24,3-3.35.62-.67,1.31-1.29,1.87-2A17.89,17.89,0,0,1,156,34.36c1.15-1,2.14-2.09,3.18-3.17a.65.65,0,0,1,.9-.13,1.88,1.88,0,0,1,.68.72.78.78,0,0,1-.14.92c-.5.51-1,1-1.5,1.52-2.16,2.33-4.47,4.52-6.5,7-1,1.25-2.25,2.36-3.37,3.54a9.79,9.79,0,0,0-.88,1,4.68,4.68,0,0,1-1,1.08,2.79,2.79,0,0,0-1,1,.73.73,0,0,1-.24.28,19,19,0,0,0-2.91,2.76c-1.31,1.23-2.48,2.6-3.67,3.93s-2.74,2.71-4.12,4.05l-3.08,3c-.24.23-.42.52-.64.77a2.78,2.78,0,0,1-.6.63,3.14,3.14,0,0,0-.88.86A2.41,2.41,0,0,1,128.24,65Z"/><path class="cls-2" d="M57.46,11.37a.83.83,0,0,1,.57-.75,1.09,1.09,0,0,1,1.13.31,4.47,4.47,0,0,1,.45.76c.49,1,1,2,1.47,2.91,1,1.8,1.7,3.73,2.83,5.46.54.83.8,1.83,1.27,2.72.71,1.32,1.24,2.74,2.07,4,.25.38.38.84.61,1.24.64,1.13,1.28,2.25,2,3.36a9.36,9.36,0,0,1,.71,1.46,17.29,17.29,0,0,0,1.68,3.36,4.38,4.38,0,0,1,.37.79,26.49,26.49,0,0,0,1.35,3c.34.62.56,1.31.84,2,.16.38.34.76.53,1.14.51,1,1,2.11,1.57,3.13A12.87,12.87,0,0,1,78,48.39c.06.18.27.31.42.46a.9.9,0,0,1,.17,1.32,3.15,3.15,0,0,1-.41.48.38.38,0,0,0-.11.44.61.61,0,0,1-.39.81,1.1,1.1,0,0,1-1-.51,4.81,4.81,0,0,1-.26-.84,6.74,6.74,0,0,0-.84-1.95c-.78-1.38-1.45-2.82-2.22-4.21s-1.15-2.78-1.81-4.13a13.19,13.19,0,0,1-1-1.86A37.37,37.37,0,0,0,68,32.71c-.29-.61-.6-1.2-.89-1.81s-.6-1-.84-1.52a14.16,14.16,0,0,1-1-2.28,10.49,10.49,0,0,0-1.09-2.38c-.55-1-1-2-1.49-3a40.7,40.7,0,0,0-2.1-4,29.42,29.42,0,0,1-1.66-3.08,7,7,0,0,0-1.06-1.84A3.3,3.3,0,0,1,57.46,11.37Z"/><path class="cls-2" d="M45.46,16.86a1.25,1.25,0,0,1,.4.24,6.37,6.37,0,0,1,1,1.29c.65,1.28,1.66,2.31,2.36,3.56.52.95,1.14,1.85,1.72,2.77.39.6.79,1.19,1.19,1.77a6.78,6.78,0,0,1,.94,1.63,2.45,2.45,0,0,0,.45.74,29.57,29.57,0,0,1,2.39,3.39,22.72,22.72,0,0,0,1.82,2.55,14.66,14.66,0,0,1,1.2,1.75c.85,1.39,1.8,2.7,2.72,4a2.9,2.9,0,0,1,.34.52A15.25,15.25,0,0,0,65,45.22,15.94,15.94,0,0,1,66.38,47c.9,1.35,1.78,2.72,2.67,4.08a3.37,3.37,0,0,1,.19.32c.22.47.19.64-.23,1a3.08,3.08,0,0,1-.41.3,1,1,0,0,1-1.67-.56,4.72,4.72,0,0,0-1.12-1.91,5,5,0,0,1-1.09-1.67,1.29,1.29,0,0,0-.36-.51,11.36,11.36,0,0,1-2.16-2.9,47.35,47.35,0,0,0-3.1-4.72c-.31-.41-.47-.88-.74-1.3-1.08-1.65-2.1-3.32-3.31-4.87a13.3,13.3,0,0,1-1.83-2.69,8.65,8.65,0,0,0-1-1.45L48.3,24.58c-.31-.44-.56-.93-.89-1.36-1-1.31-2-2.69-3.13-3.9a1.28,1.28,0,0,1,.27-1.94C44.83,17.2,45.13,17.05,45.46,16.86Z"/><path class="cls-2" d="M116,2.26c-.32,2-.6,3.9-.91,5.75-.07.46-.24.89-.32,1.34a4.2,4.2,0,0,0-.24,1.84,2.71,2.71,0,0,1-.24,1.46,4.85,4.85,0,0,0-.33,1.59,15.41,15.41,0,0,1-.86,4.15,6.59,6.59,0,0,0-.42,2.71,2.34,2.34,0,0,1-.2,1.1,19.28,19.28,0,0,0-.9,4.17,25.91,25.91,0,0,1-1,4.78,25.46,25.46,0,0,0-1,4.79,35,35,0,0,1-.78,4.08,23,23,0,0,0-.74,4.2,4.13,4.13,0,0,1-.07.49c-.2.73-.52,1.07-.94,1-.94-.15-1.45-.7-1.34-1.49a3,3,0,0,1,.2-.85,25.7,25.7,0,0,0,1.1-4.88c.07-.33.15-.65.23-1a10.48,10.48,0,0,0,.48-1.95c.11-2.27,1.08-4.38,1.23-6.65a7.14,7.14,0,0,1,.54-1.93,9,9,0,0,0,.48-2.33,17.9,17.9,0,0,1,.63-3.08,21.94,21.94,0,0,0,.69-3.7,3.2,3.2,0,0,1,.09-.62,26.92,26.92,0,0,0,1-5.55,1.14,1.14,0,0,1,0-.37,15.9,15.9,0,0,0,.6-2.82,16.7,16.7,0,0,0,.57-4.22,11.56,11.56,0,0,1,.33-2.49,1.06,1.06,0,0,1,.59-.77.58.58,0,0,1,.79.12C115.63,1.51,116.16,1.8,116,2.26Z"/><path class="cls-2" d="M172.7,99.42c-2.41.06-4.21.12-6,.14q-3.13.06-6.28,0c-.95,0-1.91-.08-2.87-.15a5.79,5.79,0,0,0-1.5,0,17.29,17.29,0,0,1-4.25.22c-1.75-.1-3.52,0-5.28-.07-1,0-2-.11-3-.09-1.17,0-2.34.12-3.5.2-.46,0-.92.1-1.38.14a2.23,2.23,0,0,1-1-.14.66.66,0,0,1-.48-.77,2.9,2.9,0,0,0,.14-1.1c0-.27.21-.44.51-.41,1.7.21,3.41.31,5.12.42,1,.06,2.08.09,3.12.1s1.92.11,2.88.12a3.86,3.86,0,0,0,.76,0,73.92,73.92,0,0,1,7.88-.25c.67,0,1.34-.06,2-.1a2.85,2.85,0,0,1,.5,0,27.3,27.3,0,0,0,4.52.08c1,0,2.09-.06,3.13-.13a20.21,20.21,0,0,1,3.39.07,5.59,5.59,0,0,0,1,.05c2-.21,3.94.06,5.89,0a50.63,50.63,0,0,0,6.63-.38,1.2,1.2,0,0,1,.62.07.58.58,0,0,1,.44.54c0,.17,0,.33,0,.5a.83.83,0,0,1-.83.89c-1.71,0-3.43.12-5.14-.06a17.77,17.77,0,0,0-2.63.06C175.44,99.41,173.77,99.46,172.7,99.42Z"/><path class="cls-2" d="M33.71,26.08a1.16,1.16,0,0,1,.42.2,6.62,6.62,0,0,1,.75.84c1.2,1.66,2.37,3.34,3.61,5a64.55,64.55,0,0,0,4.56,5.5c.09.09.15.22.25.28,1.29.83,2.07,2.18,3.21,3.15.71,1.35,2,2.22,2.85,3.48a6.94,6.94,0,0,0,1,1A61.4,61.4,0,0,1,54.89,51c.7.89,1.49,1.7,2.24,2.55a4.49,4.49,0,0,1,.57.67,18.84,18.84,0,0,0,2.52,3.11A29.11,29.11,0,0,1,63,60.89a6.23,6.23,0,0,1,.67,1.62.57.57,0,0,1-.17.68.52.52,0,0,1-.69-.07,5.65,5.65,0,0,0-1.42-1c-.18-.07-.23-.22-.32-.37a20,20,0,0,0-3-3.85c-.75-.78-1.43-1.64-2.11-2.49-1.43-1.81-2.87-3.61-4.25-5.45-1.21-1.61-2.6-3.06-3.89-4.59s-2.75-3-4-4.65c-.68-.84-1.46-1.6-2.11-2.47s-1.36-1.7-2-2.55a13,13,0,0,0-1.72-1.83,12.19,12.19,0,0,1-2-2.08c-.94-1.27-2-2.48-3-3.71-.72-.9-.65-1.25.39-1.83A2.9,2.9,0,0,1,33.71,26.08Z"/><path class="cls-2" d="M149.18,16.55c.54,0,.61.1.89.65a1.13,1.13,0,0,1-.14,1.38c-1.65,2-3,4.26-4.41,6.41-1.07,1.6-2.12,3.22-3.24,4.79l-1.36,1.95c-.55.79-1.07,1.6-1.57,2.42a47.44,47.44,0,0,1-4,5.76,17.2,17.2,0,0,0-1.15,1.64c-1.12,1.72-2.14,3.51-3.34,5.17-.91,1.25-1.79,2.53-2.61,3.84s-1.56,2.57-2.33,3.86a4.23,4.23,0,0,1-1.7,1.63.59.59,0,0,1-.69,0,.81.81,0,0,1-.43-.84,1.59,1.59,0,0,1,.36-.79,13.9,13.9,0,0,0,1.2-1.75c.42-.66,1-1.23,1.46-1.87,1-1.31,1.86-2.68,2.76-4.05.52-.81,1.06-1.61,1.64-2.38a9.84,9.84,0,0,0,1.12-1.8,2.11,2.11,0,0,1,.31-.55,9.47,9.47,0,0,0,1.55-2.57,21.27,21.27,0,0,1,1.82-2.7,7.86,7.86,0,0,0,.92-1.49,2.7,2.7,0,0,1,.24-.44c.93-1.39,1.88-2.77,2.79-4.17a29.93,29.93,0,0,0,2.62-3.81,1,1,0,0,1,.2-.32c1.37-1.39,2.09-3.23,3.27-4.75a23.11,23.11,0,0,1,1.56-2.12,1.45,1.45,0,0,0,.29-.55,2.74,2.74,0,0,1,.64-1.06,2,2,0,0,0,.46-.88C148.47,16.62,148.58,16.56,149.18,16.55Z"/><path class="cls-2" d="M86,43.84c0,.51-.51.83-.83.64s-.66-.39-.67-.83c0-1.74-.79-3.33-1-5-.07-.53-.21-1.06-.26-1.6a7.32,7.32,0,0,0-.7-2.91,1.24,1.24,0,0,1-.18-.47,7.91,7.91,0,0,0-.9-3.11,9.89,9.89,0,0,1-.66-2.41c-.41-2.17-.86-4.34-1.25-6.53-.23-1.27-.3-2.57-.55-3.85-.34-1.81-.69-3.62-1.16-5.4-.21-.81-.32-1.65-.45-2.47a10.34,10.34,0,0,0-.59-2.18,12.26,12.26,0,0,1-.66-2.16A33.18,33.18,0,0,0,75,.91c0-.11,0-.29,0-.35A1.4,1.4,0,0,1,76.21,0a.75.75,0,0,1,.7.63,3.46,3.46,0,0,0,.44,1.3,2.1,2.1,0,0,1,.17,1,11.5,11.5,0,0,0,.71,3.68A27.79,27.79,0,0,1,79.29,11,13.18,13.18,0,0,0,79.76,13a14.86,14.86,0,0,1,.37,1.46c.42,1.88.92,3.74,1.26,5.64s.91,4.07,1.2,6.14a1.22,1.22,0,0,0,.11.49A4.75,4.75,0,0,1,83.27,29a34.25,34.25,0,0,0,1.07,4.9,6.64,6.64,0,0,1,.23,1c.26,1.91.52,3.82.75,5.73A22.84,22.84,0,0,0,85.83,43C85.91,43.34,86,43.67,86,43.84Z"/><path class="cls-2" d="M151.57,90.22a7.91,7.91,0,0,0,2.8-.26c2.47-.4,4.93-.9,7.42-1.2,1.12-.13,2.22-.41,3.33-.62a1.81,1.81,0,0,1,.37-.09,29.58,29.58,0,0,0,6.06-.91c.89-.18,1.82-.25,2.72-.45,1.71-.39,3.44-.67,5.13-1.21a10.09,10.09,0,0,1,2.7-.52,9.38,9.38,0,0,0,1.57-.42.82.82,0,0,1,1.1.7,1.3,1.3,0,0,1-.94,1.3c-2,.19-3.89.61-5.82,1-.49.09-1,.17-1.47.3-2.88.76-5.88.86-8.76,1.65a10.41,10.41,0,0,1-1.86.25,33.76,33.76,0,0,0-3.47.52c-1.23.24-2.48.35-3.73.54s-2.73.4-4.08.69a34,34,0,0,1-3.61.47l-5.36.59a13.64,13.64,0,0,0-3.19.67,8.53,8.53,0,0,1-2.1.33,18.74,18.74,0,0,0-2.47.42,2,2,0,0,1-.87,0,.85.85,0,0,1-.71-.89q0-.31,0-.63c0-.51.18-.66.7-.69,1-.06,2-.1,3-.13a13.6,13.6,0,0,0,2.11-.22c1-.19,2-.25,3-.35,1.66-.17,3.31-.44,5-.72C150.62,90.28,151.13,90.26,151.57,90.22Z"/><path class="cls-2" d="M7,90.87c1.6,0,3.44-.08,5.28,0s3.93.21,5.9.18c1.64,0,3.27,0,4.9,0s3.35,0,5,0h.25c2.2.33,4.43.28,6.64.52.62.07,1.24.19,1.87.27a75,75,0,0,0,7.64.48c.42,0,.84,0,1.26.07a28.74,28.74,0,0,0,6.15,0c.58-.06,1.15-.2,1.73-.31a1.27,1.27,0,0,1,1,.09c.21.13.47.23.48.52a1,1,0,0,1-.65.84c-.87.12-1.74.22-2.62.31-.2,0-.42,0-.62,0a35.92,35.92,0,0,1-6.64-.12c-2.52-.08-5-.25-7.52-.44-1.93-.15-3.84-.36-5.76-.56a59,59,0,0,0-6.65-.2q-3.39,0-6.78-.07c-3.48-.08-6.95-.21-10.43-.18a25.35,25.35,0,0,1-3-.13c-.87-.09-1.75,0-2.63,0A7.36,7.36,0,0,1,.52,92,.69.69,0,0,1,0,91.37a.71.71,0,0,1,.48-.67A3.55,3.55,0,0,1,2,90.6Z"/><path class="cls-2" d="M94.67,44.14c.23-3-.07-5.94,0-8.92.06-1.67-.09-3.34.09-5-.32-2.5.12-5-.08-7.53a23.08,23.08,0,0,1,0-2.63c.07-1.89-.18-3.77,0-5.66.07-1,.1-2,.13-3,0-1.42.11-2.85.08-4.27a6.2,6.2,0,0,0-.54-3.06.27.27,0,0,1,0-.12c.12-.46.65-.63.75-1.12,0-.14.27-.16.44-.16.82,0,1.19.3,1.19,1.08a6.64,6.64,0,0,1-.1,1,4.3,4.3,0,0,0,0,1.75,2.59,2.59,0,0,1,0,1,11,11,0,0,0,0,3.62,1.62,1.62,0,0,1,0,.62,16.09,16.09,0,0,0-.19,4.49c0,.67.13,1.33.18,2a2.82,2.82,0,0,1,0,.87,16.37,16.37,0,0,0-.18,4.25c.07,1.76,0,3.52,0,5.28s0,3.77,0,5.65c0,.5,0,1,0,1.5a23.84,23.84,0,0,0,0,2.39c0,.88.06,1.75,0,2.63-.06,1.63,0,3.27,0,4.9a10,10,0,0,1-.21,2.11.44.44,0,0,1-.42.39.43.43,0,0,1-.4-.26c-.14-.25-.3-.49-.46-.73a2,2,0,0,1-.37-1.42C94.64,45.23,94.65,44.68,94.67,44.14Z"/><path class="cls-2" d="M169.3,62.38c0,.3-.2.44-.44.55-1,.48-2,.91-2.94,1.43-1.81,1-3.61,1.94-5.38,3-1,.6-2.11,1-3.14,1.58L154,70.78c-2.69,1.44-5.4,2.85-8.07,4.34-1.79,1-3.66,1.85-5.48,2.78-.94.47-1.83,1-2.73,1.56a6.93,6.93,0,0,1-1.62.67.56.56,0,0,1-.67-.22,4,4,0,0,0-.58-.65.83.83,0,0,1,.23-1.35c1-.47,2.06-.93,3.12-1.34a37.92,37.92,0,0,0,5-2.61,22.91,22.91,0,0,1,2.57-1.3,25.8,25.8,0,0,0,2.37-1.14c2.8-1.51,5.72-2.8,8.49-4.37C158.73,66,161,65,163.14,63.94a25.54,25.54,0,0,0,4.07-2.23,4.88,4.88,0,0,1,.55-.31C168.65,60.94,169.34,61.38,169.3,62.38Z"/><path class="cls-2" d="M141.18,84.76a1.1,1.1,0,0,1-1.06-.7.62.62,0,0,1,.1-.46c.35-.41.73-.8,1.11-1.18a.83.83,0,0,1,.59-.18,3.74,3.74,0,0,0,.75-.07c1.94-.5,3.94-.68,5.87-1.27a26.26,26.26,0,0,1,3.32-.62,3.37,3.37,0,0,0,1.2-.34,1.55,1.55,0,0,1,.6-.18,29.4,29.4,0,0,0,5.25-1.21,6.49,6.49,0,0,1,.86-.16,36,36,0,0,0,5.14-1.16c1.4-.42,2.84-.72,4.26-1,2.37-.55,4.74-1,7.09-1.65,1.37-.36,2.7-.88,4.05-1.33a4.52,4.52,0,0,1,.47-.18.86.86,0,0,1,1.18.61.9.9,0,0,1-.5,1.14,6.24,6.24,0,0,1-1.33.36,28.19,28.19,0,0,0-3.28.85c-2.1.57-4.2,1.14-6.32,1.61-1.44.32-2.85.71-4.29,1a21.9,21.9,0,0,0-3.27.87,16,16,0,0,1-2.47.43,12.27,12.27,0,0,0-1.6.33c-2.52.75-5.14,1.16-7.65,2a2.21,2.21,0,0,1-.37.08A14.57,14.57,0,0,0,148,83a23.66,23.66,0,0,1-3.53.78c-.95.19-1.86.5-2.78.78C141.47,84.64,141.27,84.72,141.18,84.76Z"/><path class="cls-2" d="M51.77,101.28a2.15,2.15,0,0,0-1.33.13,30.26,30.26,0,0,1-5.67,1c-2,.16-4,.5-6,.69-1.46.14-2.93.22-4.38.45l-3.72.56c-.58.08-1.17.12-1.75.18l-4.25.43c-1.62.16-3.25.29-4.86.56a1.07,1.07,0,0,1-.25,0,61.1,61.1,0,0,0-6.75.61c-.84.07-1.66.22-2.49.32s-.89,0-1.09-.68c-.12-.43,0-.68.35-.81s.9-.45,1.44-.17a1,1,0,0,0,.61,0c1.9-.33,3.86-.16,5.73-.69a59.41,59.41,0,0,0,6.25-.53c1-.1,1.92-.12,2.88-.26a15.48,15.48,0,0,1,2.37-.25,6.78,6.78,0,0,0,1.22-.25c1.89-.35,3.8-.56,5.72-.74,1.12-.1,2.23-.35,3.36-.44,1.54-.12,3.09-.25,4.63-.43a48.85,48.85,0,0,0,5.09-.77c.65-.14,1.29-.34,1.93-.49a5.31,5.31,0,0,1,.87-.16c.89,0,1.3.6.87,1.4a.67.67,0,0,1-.4.27A1.07,1.07,0,0,1,51.77,101.28Z"/><path class="cls-2" d="M15.68,55.14a.88.88,0,0,1,.23.07,1.13,1.13,0,0,1,.31.21,11.41,11.41,0,0,0,3,2c1.7.88,3.4,1.79,5.14,2.61a5.07,5.07,0,0,1,1.38.86,2.06,2.06,0,0,0,.52.35,33.29,33.29,0,0,1,4.34,2.48c.31.2.7.3,1,.49,2.26,1.34,4.64,2.49,7,3.75,2.09,1.14,4.21,2.23,6.33,3.32,1.7.88,3.36,1.85,5.12,2.63a17.74,17.74,0,0,1,2.47,1.48,2.71,2.71,0,0,0,1.36.57,1,1,0,0,1,.89.92.78.78,0,0,1-.27.67.58.58,0,0,1-.7.12,26.7,26.7,0,0,1-3.18-1.76,7.63,7.63,0,0,0-2.05-1.15,9.31,9.31,0,0,1-2-1c-1.63-1-3.44-1.72-5.13-2.64-.55-.29-1.12-.57-1.66-.89a55.34,55.34,0,0,0-5.56-2.9,9.42,9.42,0,0,1-.89-.47c-2-1.16-4-2.35-6-3.45-1.18-.64-2.32-1.34-3.45-2a23.64,23.64,0,0,0-2.78-1.45c-.66-.3-1.2-.75-1.83-1.07-1.08-.56-2.17-1.08-3.27-1.61a2.05,2.05,0,0,1-.72-.49.9.9,0,0,1,.16-1.49A.79.79,0,0,1,15.68,55.14Z"/><path class="cls-2" d="M52.64,80.61a.76.76,0,0,1-.79.84,1.64,1.64,0,0,1-.49-.1,12.72,12.72,0,0,0-2.42-.65,7.58,7.58,0,0,1-1.66-.57,12.06,12.06,0,0,0-2.5-.77c-.89-.21-1.76-.52-2.65-.77l-2.55-.67a12.63,12.63,0,0,1-1.32-.42,24.1,24.1,0,0,0-3.72-1.11c-.69-.15-1.35-.46-2-.66-1.45-.4-2.88-.87-4.3-1.4-.9-.33-1.85-.54-2.78-.78a8.85,8.85,0,0,1-2.58-1A9.53,9.53,0,0,0,21.2,72a40.94,40.94,0,0,0-6.9-1.89,29.63,29.63,0,0,1-4.06-1.33A.78.78,0,0,1,9.61,68c0-.6.49-1,1-.68a33.6,33.6,0,0,0,4,1.44c.88.31,1.79.39,2.68.63s1.68.47,2.52.75c2.86.93,5.63,2.12,8.57,2.84a18.71,18.71,0,0,1,3.66,1.28,1.67,1.67,0,0,0,.59.21,31.89,31.89,0,0,1,4.51,1.1c1.23.28,2.35.87,3.55,1.25s2.17.63,3.26.92c1.26.33,2.49.71,3.73,1.09a22.61,22.61,0,0,0,3.89,1,1.38,1.38,0,0,1,.86.46C52.58,80.35,52.67,80.48,52.64,80.61Z"/><path class="cls-2" d="M135.87,68.89c-.49,0-.7.06-.91,0a.66.66,0,0,1-.49-1.1,2.39,2.39,0,0,1,.84-.74L137.16,66c1.71-1,3.28-2.16,5-3.14,1.3-.75,2.52-1.65,3.76-2.51a27.93,27.93,0,0,1,2.51-1.66,10.51,10.51,0,0,0,1.78-1.17c1.58-1.31,3.36-2.35,5-3.58,1.5-1.13,3.07-2.18,4.61-3.27A29,29,0,0,0,164,47.26c.68-.69,1.2-.59,1.62.29a.93.93,0,0,1-.3,1.12A14.42,14.42,0,0,1,163.73,50c-1.29.87-2.52,1.8-3.74,2.76a11.86,11.86,0,0,1-1.25.84,22,22,0,0,0-1.94,1.38c-.72.57-1.52,1-2.29,1.55-1.45,1-2.9,2-4.37,3-.59.4-1.24.7-1.83,1.1-.8.53-1.57,1.12-2.36,1.67-1.5,1.06-3,2.15-4.54,3.15-1.2.78-2.25,1.73-3.37,2.62l-.57.48a1.54,1.54,0,0,1-1.38.44C135.93,68.86,135.75,68.89,135.87,68.89Z"/><path class="cls-2" d="M6.51,77.44c.54.1,1,.2,1.53.27,1.7.25,3.42.38,5.13.47a25.45,25.45,0,0,1,4.33.74c1.34.31,2.7.58,4,.88.66.14,1.31.28,1.95.46,1.38.37,2.81.5,4.21.73a33,33,0,0,1,4.16.84,26.56,26.56,0,0,0,3.2.61c2.77.45,5.54.87,8.3,1.33.91.15,1.8.38,2.7.58A1.29,1.29,0,0,1,47,85a.61.61,0,0,1-.56,1,6.71,6.71,0,0,1-1-.21,38,38,0,0,0-5.17-1,4,4,0,0,1-.62-.08,9,9,0,0,0-2.47-.41A23,23,0,0,1,33,83.42c-1.79-.46-3.6-.74-5.41-1.09-2.3-.44-4.62-.82-6.92-1.26-2.51-.47-5-.94-7.52-1.46a21.93,21.93,0,0,0-3.13-.2,23.84,23.84,0,0,1-3.46-.6A2.64,2.64,0,0,1,6,78.64.63.63,0,0,1,5.71,78c0-.29.23-.43.47-.52A1.1,1.1,0,0,1,6.51,77.44Z"/><path class="cls-2" d="M28.1,45.77a1.24,1.24,0,0,1,.3.16c2.4,2.37,5.26,4.14,7.89,6.22,1.74,1.37,3.55,2.66,5.25,4.08,1.1.91,2.24,1.76,3.37,2.62.62.49,1.2,1,1.8,1.55.29.24.59.47.9.68C49,62.05,50.47,63,51.88,64s2.6,1.82,3.88,2.77c.77.57,1.58,1.1,2.4,1.59a10,10,0,0,1,.82.58.72.72,0,0,1,.17.81.66.66,0,0,1-.54.46,1.06,1.06,0,0,1-1.14-.34,13.84,13.84,0,0,0-3.22-2.38c-.41-.28-.84-.55-1.25-.84-1.3-.91-2.63-1.79-3.88-2.76-1.06-.82-2.31-1.35-3.31-2.26-.4-.37-.76-.78-1.18-1.12-.82-.65-1.67-1.27-2.51-1.89a8.23,8.23,0,0,1-1-.76,26.6,26.6,0,0,0-3.74-2.94A26.45,26.45,0,0,1,35.05,53a11,11,0,0,0-1.6-1.21,33.18,33.18,0,0,1-3-2.25c-.74-.55-1.45-1.13-2.17-1.7-.23-.18-.48-.35-.69-.55A.85.85,0,0,1,28,45.8Z"/><path class="cls-2" d="M183.41,115.46a.62.62,0,0,1-.51.61A1.6,1.6,0,0,1,182,116a40.63,40.63,0,0,1-5.06-1.47c-.47-.22-1-.16-1.46-.34-1.91-.77-3.89-1.28-5.85-1.89a27.32,27.32,0,0,0-3.23-1,7.68,7.68,0,0,1-1.29-.47,12.64,12.64,0,0,0-1.43-.48c-1.68-.38-3.28-1-4.92-1.53-1.11-.35-2.26-.6-3.39-.89l-.13,0c-.63,0-1-.58-1.55-.75a10.72,10.72,0,0,1-1.55-.49.75.75,0,0,1-.29-.24.83.83,0,0,1-.17-.82.73.73,0,0,1,.73-.4,1.55,1.55,0,0,1,.73.16,24.81,24.81,0,0,0,4.76,1.57c1,.24,1.91.6,2.9.81,2,.42,3.87,1.08,5.79,1.67s3.77,1.14,5.65,1.73c.87.27,1.75.56,2.61.88a28.76,28.76,0,0,0,5.06,1.48,20.94,20.94,0,0,1,2.67.69C183.28,114.43,183.43,114.69,183.41,115.46Z"/><path class="cls-2" d="M154,101.58c.33,0,.67,0,1,.09l4.09.67c.74.13,1.47.3,2.21.44.58.11,1.15.22,1.73.3,1.32.19,2.62.52,4,.61.17,0,.33.09.49.09a45.86,45.86,0,0,1,5.73.77c1.49.21,3,.34,4.49.47a.89.89,0,0,1,.78.51c.44.79.13,1.43-.78,1.47a2.73,2.73,0,0,1-.62-.09c-2.8-.48-5.6-1-8.42-1.43-2-.3-4-.48-6-.74a12.39,12.39,0,0,1-1.47-.31,12.21,12.21,0,0,0-3.35-.47,22.93,22.93,0,0,1-4.73-.59.73.73,0,0,1-.69-.75,1,1,0,0,1,.8-1,6.42,6.42,0,0,1,.76,0Z"/><path class="cls-2" d="M100.18,35.28c.08-1,.15-1.92.23-2.88.14-1.88.22-3.76.45-5.62.3-2.53.3-5.09.76-7.6a5.54,5.54,0,0,0,0-1,20.9,20.9,0,0,1,.31-3.62.63.63,0,0,1,.66-.61,1.15,1.15,0,0,1,1.25,1.54,24.9,24.9,0,0,0-.61,3.45c-.52,3-.42,6-.78,9-.18,1.58-.3,3.17-.33,4.75s-.11,2.93-.26,4.39a2.92,2.92,0,0,1-.05.5.78.78,0,0,1-.75.7,1,1,0,0,1-.9-.75c0-.41,0-.84,0-1.26s0-.66,0-1Z"/><path class="cls-2" d="M45.18,171.84c-.34,1.4-.63,2.49-.87,3.59a16.74,16.74,0,0,1-.51,2.06c-.28.83-.47,1.69-.68,2.54a6,6,0,0,1-.42,1.17c-.33.67-.57,1.39-.85,2.09a.66.66,0,0,1-.79.45c-.36-.05-.54-.3-.56-.71a1.3,1.3,0,0,1,.25-.95,3.87,3.87,0,0,0,.66-1.6c.26-1.06.68-2.06,1-3.11a13,13,0,0,0,.84-3.89,1.28,1.28,0,0,1,.16-.6,7,7,0,0,0,.45-3.56.49.49,0,0,0,0-.12c-.33-1.12-.59-2.27-1-3.36a2.3,2.3,0,0,1,.35-2.1c.12-.2.49-.15.67,0a.83.83,0,0,1,.22.57,15.22,15.22,0,0,0,.46,2.21,1.31,1.31,0,0,0,.5,1,.77.77,0,0,1,.31.52,16,16,0,0,0,1.6,3.4A8.22,8.22,0,0,0,48.23,173a3.41,3.41,0,0,0,1.47.67c.24.08.5.09.74.16s.41.4.53.67-.06.38-.22.52a1,1,0,0,0-.15.2c-.49.61-.49.62-1.24.29a2.35,2.35,0,0,0-.46-.21,3.29,3.29,0,0,1-2.27-1.62A17.2,17.2,0,0,1,45.18,171.84Z"/><path class="cls-2" d="M121.93,17.93a8.74,8.74,0,0,1-.75,2.3c-.73,1.55-1.51,3.08-2.17,4.67a47.36,47.36,0,0,0-2.23,6.39,17.63,17.63,0,0,1-.62,1.77,35.27,35.27,0,0,1-1.42,3.88,9.3,9.3,0,0,0-.49,1.68,9.83,9.83,0,0,1-.44,1.18.49.49,0,0,1-.63.25,1,1,0,0,1-.76-1.34c.32-1.09.65-2.17,1-3.23,1-2.87,2.18-5.71,3.14-8.61.78-2.34,1.8-4.59,2.68-6.89a3.78,3.78,0,0,0,.4-1.44c0-.5.33-.85.51-1.26a.46.46,0,0,1,.53-.24,2.13,2.13,0,0,1,1.09.59C121.88,17.7,121.9,17.85,121.93,17.93Z"/><path class="cls-2" d="M157.05,113.35a1.24,1.24,0,0,1,.77.24,10.46,10.46,0,0,0,2,1c.57.22,1.06.65,1.63.92.95.43,1.84,1,2.77,1.45.56.28,1.14.51,1.7.8l8.15,4.17a2.26,2.26,0,0,0,.7.25,5.68,5.68,0,0,1,1.64.62,12.49,12.49,0,0,0,2.32.93,1,1,0,1,1-.54,2,5.28,5.28,0,0,1-1.69-.81,19.25,19.25,0,0,0-4.24-2.16,20.28,20.28,0,0,1-4.13-2.09,19.94,19.94,0,0,0-3.38-1.65c-1.39-.6-2.67-1.39-4-2.09a25.21,25.21,0,0,0-3.08-1.42,2.66,2.66,0,0,1-1.12-1,.82.82,0,0,1,0-.84C156.62,113.46,156.88,113.41,157.05,113.35Z"/><path class="cls-2" d="M79.36,41.88a.72.72,0,0,1-.28.58A.94.94,0,0,1,77.56,42a8.88,8.88,0,0,0-.67-1.75,2.23,2.23,0,0,1-.13-1c-.05-1.43-.5-2.81-.59-4.23-.55-.85-.36-1.87-.7-2.78a22.2,22.2,0,0,1-.75-2.65,20.73,20.73,0,0,1-.43-2.48,16.72,16.72,0,0,0-.3-1.72c-.18-.86-.36-1.72-.5-2.59a7.81,7.81,0,0,0-.69-2.67,2.48,2.48,0,0,1-.2-.72c-.11-.53,0-.73.52-1a.87.87,0,0,1,1,.05.66.66,0,0,1,.32.5,24.88,24.88,0,0,0,.75,4.7c.25,1.06.36,2.14.57,3.21.1.53.29,1.05.39,1.58.39,2,.94,3.91,1.41,5.87.36,1.5.61,3,1,4.54.2.9.46,1.79.7,2.68C79.29,41.68,79.33,41.79,79.36,41.88Z"/><path class="cls-2" d="M149.72,77.82a2.14,2.14,0,0,1-1.27-.81.93.93,0,0,1,.4-1,2.85,2.85,0,0,1,.78-.39c.52-.18,1.05-.31,1.57-.46a28.83,28.83,0,0,0,4.93-1.81,2,2,0,0,1,.46-.19c3-.91,5.86-2.21,8.78-3.35a7.31,7.31,0,0,0,1.07-.63,1.24,1.24,0,0,1,1.33.35.94.94,0,0,1-.1,1.26,3.34,3.34,0,0,1-.86.5c-2.36,1-4.73,1.89-7.09,2.84-1.25.5-2.56.78-3.81,1.25-1.5.55-2.94,1.22-4.38,1.88C150.92,77.56,150.21,77.45,149.72,77.82Z"/><path class="cls-2" d="M146.62,68.45c-.5,0-.75-.19-.87-.58a.78.78,0,0,1,.37-1c.31-.22.64-.4,1-.59,2.36-1.35,4.7-2.74,7.09-4.05,1.76-1,3.46-2,5.26-2.93a28.86,28.86,0,0,0,4.25-2.67,1.36,1.36,0,0,1,1-.32.83.83,0,0,1,.77.9,1.15,1.15,0,0,1-.53.95c-.79.39-1.55.82-2.33,1.22a10,10,0,0,0-1.32.73,11.11,11.11,0,0,1-2,1.09,22.21,22.21,0,0,0-2.52,1.41c-1.41.83-2.8,1.69-4.2,2.53-.43.25-.89.46-1.34.7a24,24,0,0,0-3.18,2A2.32,2.32,0,0,1,146.62,68.45Z"/><path class="cls-2" d="M89.91,24.42a11.68,11.68,0,0,0,.3,3.12,20.78,20.78,0,0,1,.28,2.62c.19,2.25.35,4.51.53,6.76,0,.23,0,.43-.27.49-.43.12-.8,0-.85-.28a5.22,5.22,0,0,0-.59-1.52,1.27,1.27,0,0,1-.13-.47c-.13-2-.55-4.07-.49-6.14a8.14,8.14,0,0,0-.19-1.62,13.7,13.7,0,0,1-.2-2.12,22.4,22.4,0,0,0-.64-5.1c-.31-1.36-.32-2.74-.52-4.11,0-.41.22-.62.51-.79a.77.77,0,0,1,.93.09,1.24,1.24,0,0,1,.47.73,9.28,9.28,0,0,1,.27,1.86,17.74,17.74,0,0,0,.43,4A11.63,11.63,0,0,1,89.91,24.42Z"/><path class="cls-2" d="M156.13,47.9c0-.06,0,.15-.22.29a9.28,9.28,0,0,1-1,.79,40.92,40.92,0,0,0-4.1,3.11c-.94.82-2,1.57-2.91,2.39-.56.49-1.25.81-1.87,1.25a31.79,31.79,0,0,0-2.92,2.37c-1,.88-2.09,1.55-3.13,2.32a8,8,0,0,0-.94.62,1.69,1.69,0,0,1-.54.31c-.37.18-.64,0-.9-.24s-.14-.45,0-.69.16-.57.49-.69a6.33,6.33,0,0,0,1.51-1.11c1.27-1,2.62-1.91,3.95-2.85,1.53-1.08,3-2.33,4.46-3.44,1-.72,1.79-1.63,2.75-2.37a32.62,32.62,0,0,0,2.73-2.22,13.93,13.93,0,0,1,1.27-1,.6.6,0,0,1,.81,0A1.1,1.1,0,0,1,156.13,47.9Z"/><path class="cls-2" d="M133.36,26.55a1.21,1.21,0,0,1,.36.16,4.57,4.57,0,0,1,.58.66.69.69,0,0,1,0,.82,41.46,41.46,0,0,0-2.64,4.69c-.56,1.17-1.24,2.27-1.82,3.44-1.19,2.39-2.43,4.77-3.67,7.14a14.3,14.3,0,0,1-.81,1.27,1.12,1.12,0,0,1-1,.46.44.44,0,0,1-.47-.33,2.34,2.34,0,0,1,.25-2.13c.47-.64.82-1.37,1.27-2a38.83,38.83,0,0,0,2.59-5,24.66,24.66,0,0,1,1.36-2.4c.92-1.45,1.63-3,2.42-4.53a7.72,7.72,0,0,0,.48-1.29C132.46,27,132.91,26.76,133.36,26.55Z"/><path class="cls-2" d="M47.44,31.89a.7.7,0,0,1,.54.18,3.82,3.82,0,0,1,.81.93,28.23,28.23,0,0,0,3.15,3.91c.33.37.69.73,1,1.12,1,1.22,1.88,2.45,2.83,3.67a4.49,4.49,0,0,0,.51.55,9.44,9.44,0,0,1,2,2.53,4.21,4.21,0,0,0,1.37,1.45.7.7,0,0,1,.26.88,1.09,1.09,0,0,1-.87.82.48.48,0,0,1-.35-.08,2.06,2.06,0,0,1-.54-.52,34.06,34.06,0,0,0-4-4.83,18,18,0,0,1-1.31-1.68,18.25,18.25,0,0,1-1.62-2.07c-.21-.38-.66-.63-.94-1-1.1-1.47-2.48-2.71-3.65-4.13a3.68,3.68,0,0,1-.31-.38.67.67,0,0,1-.09-.36A1.43,1.43,0,0,1,47.44,31.89Z"/><path class="cls-2" d="M144.4,37.17a2.5,2.5,0,0,1-.41,1.15,12.14,12.14,0,0,1-1.38,1.76,3.13,3.13,0,0,0-.66.9,7,7,0,0,1-1.89,2.31,2.58,2.58,0,0,0-.83,1.08A5.66,5.66,0,0,1,138,46.11,19.42,19.42,0,0,0,135.61,49c-.48.73-1,1.41-1.55,2.12-.12.18-.23.37-.45.41a4.07,4.07,0,0,0-1.23.62.61.61,0,0,1-.91-.61,1.27,1.27,0,0,1,.31-.8c1.46-1.62,2.7-3.42,4.24-5a14.16,14.16,0,0,0,1-1.27c.13-.16.22-.36.36-.51,1.21-1.33,2.06-2.93,3.18-4.33.78-1,1.37-2.08,2.11-3.09.41-.57.53-.62,1-.45A1,1,0,0,1,144.4,37.17Z"/><path class="cls-2" d="M60.6,25.81c.6,0,.89.14,1.07.54.88,1.94,1.81,3.86,2.61,5.83a14.71,14.71,0,0,0,1.1,2,9.75,9.75,0,0,1,.92,2.06,29.35,29.35,0,0,0,1.37,3.22c.39.83.79,1.66,1.15,2.5s-.08,1.23-.85,1.25a.63.63,0,0,1-.62-.34,7.53,7.53,0,0,1-1.29-2.67,7.2,7.2,0,0,0-.79-2c-.63-1.37-1.26-2.73-1.95-4.07-.62-1.18-1.29-2.34-2-3.48a8.82,8.82,0,0,1-.67-1.34,3.56,3.56,0,0,0-.43-.9,7.86,7.86,0,0,1-.73-2,.36.36,0,0,1,.28-.48A7.69,7.69,0,0,1,60.6,25.81Z"/><path class="cls-2" d="M163,93a29.55,29.55,0,0,0,3.88,0,14.75,14.75,0,0,1,1.88,0,18.43,18.43,0,0,0,4.75-.21.74.74,0,0,1,.87.7,3.31,3.31,0,0,1,0,.62.42.42,0,0,1-.42.39,29.07,29.07,0,0,1-3.12.17c-1.7-.18-3.42-.14-5.14-.15-2.85,0-5.69,0-8.54,0-1.13,0-2.26,0-3.39,0-.54,0-.66-.13-.76-.64a.74.74,0,0,1,.51-.88,2,2,0,0,1,.49,0h7.79C162.2,93.06,162.62,93,163,93Z"/><path class="cls-2" d="M139.18,177.35a8.64,8.64,0,0,1,1.37-4.51,5.24,5.24,0,0,1,2.23-2,11,11,0,0,0,1.43-.78,3.74,3.74,0,0,1,1.3-.42c.33-.11.79.33.88.74a.61.61,0,0,1-.43.68c-1,.4-1.83,1.14-2.82,1.61a2.85,2.85,0,0,0-1.26,1.35,7.93,7.93,0,0,0-.64,5.48,12.87,12.87,0,0,0,1.43,3.73,5,5,0,0,1,.26.71.71.71,0,0,1-.17.9.93.93,0,0,1-1.16,0,2.24,2.24,0,0,1-.6-.63,14,14,0,0,1-1.88-5.8C139.11,178.14,139.15,177.81,139.18,177.35Z"/><path class="cls-2" d="M18.09,99.65H16.84a.61.61,0,0,1-.67-.45.82.82,0,0,1,.44-.94,1.35,1.35,0,0,1,.73-.11,6.72,6.72,0,0,0,2.49,0c1-.09,2.09-.1,3.13-.15,2.05-.09,4.08-.32,6.12-.59,1.33-.18,2.67-.12,4-.2a12.94,12.94,0,0,0,3-.46,12.38,12.38,0,0,1,1.34-.31.88.88,0,0,1,1.07.8.5.5,0,0,1-.41.65,40.63,40.63,0,0,1-5.81.82c-2.64,0-5.26.38-7.88.63l-.63,0-5.64.26Z"/><path class="cls-2" d="M16.82,86c2.87.18,5.58.31,8.3.24a2.66,2.66,0,0,1,.75,0,27.27,27.27,0,0,0,5.62.57c.83,0,1.66.07,2.49.13a7.82,7.82,0,0,1,1.35.25,1.42,1.42,0,0,1,.94,1,.43.43,0,0,1-.42.6,2.19,2.19,0,0,1-.73-.12,7.22,7.22,0,0,0-2.6-.4,44.39,44.39,0,0,1-5.63-.39,16.53,16.53,0,0,0-4.5-.19,1.21,1.21,0,0,1-.5,0A18,18,0,0,0,18,87.48l-2.26,0a1.21,1.21,0,0,1-.81-.28c-.4-.35-.32-.76.17-1A5.62,5.62,0,0,1,16.82,86Z"/><path class="cls-2" d="M26.45,53.49a1,1,0,0,1,.67.3,16.68,16.68,0,0,0,3.66,2.35,46.93,46.93,0,0,1,5.78,3.25,22.69,22.69,0,0,0,3.62,1.73c1.15.5,2.28,1,3.42,1.55a1,1,0,0,1,.22.13c.39.27.54.66.38,1a1,1,0,0,1-1.06.5,1,1,0,0,1-.35-.14,14.25,14.25,0,0,0-2.21-1.19,15,15,0,0,0-2.5-1.17,10.56,10.56,0,0,1-2.85-1.56,11.53,11.53,0,0,0-1.5-.91A64.3,64.3,0,0,1,27.5,55.8,10,10,0,0,1,26,54.94c-.26-.25-.3-.44-.13-.91A.67.67,0,0,1,26.45,53.49Z"/><path class="cls-2" d="M179.78,140.52a1.59,1.59,0,0,1-.94-.3,35.31,35.31,0,0,0-4.31-2c-1.54-.65-3.07-1.34-4.61-2a17.5,17.5,0,0,1-3.67-1.9,9.91,9.91,0,0,0-1.46-.72,1,1,0,0,1-.57-1A.65.65,0,0,1,165,132a1.78,1.78,0,0,1,.68.28,22.43,22.43,0,0,0,2.64,1.43c3.09,1.59,6.37,2.75,9.52,4.18a16.31,16.31,0,0,0,1.67.55l1.07.35a.53.53,0,0,1,.39.57c0,.13,0,.25,0,.38-.09.58-.21.69-.79.77Z"/><path class="cls-2" d="M34.2,42.22a.86.86,0,0,1,.63.35c.51.5,1,1,1.49,1.53l2.24,2.37c1.27,1.34,2.81,2.37,4.19,3.58a23.74,23.74,0,0,1,2.81,2.68,24,24,0,0,0,3.2,3.17,1.72,1.72,0,0,1,.62.77.83.83,0,0,1,0,.72c-.22.42-.56.51-.91.23a4.68,4.68,0,0,1-.46-.43l-3-3a7.41,7.41,0,0,1-.77-.82A18.11,18.11,0,0,0,41,50.24l-3.09-2.55a3,3,0,0,1-.56-.5A34.71,34.71,0,0,0,34,43.5a.84.84,0,0,1-.15-1A.4.4,0,0,1,34.2,42.22Z"/><path class="cls-2" d="M170.44,130.59a1.28,1.28,0,0,1-.71-.21c-1.1-.6-2.2-1.2-3.36-1.69s-2.33-1.15-3.54-1.6-2.42-1.14-3.64-1.68a17.22,17.22,0,0,0-2.41-1,1.79,1.79,0,0,1-.95-.58.62.62,0,0,1,.16-1,.87.87,0,0,1,.83-.1,24,24,0,0,1,2.56,1,16.16,16.16,0,0,0,2.43,1,26.62,26.62,0,0,1,3.71,1.83,18.31,18.31,0,0,0,4.39,1.81,8.93,8.93,0,0,1,1,.33c.52.21.69.47.64.94a1,1,0,0,1-.94,1Z"/><path class="cls-2" d="M170.27,82.25a3.52,3.52,0,0,0-2.13.2c-3.08.81-6.15,1.62-9.27,2.28a20.87,20.87,0,0,0-2.77.81c-.83.29-1.68.53-2.52.76a2.36,2.36,0,0,1-.75.07.43.43,0,0,1-.43-.38c-.13-.6,0-.86.59-1,1.53-.44,3-.9,4.59-1.3,3.44-.91,6.89-1.78,10.34-2.67.61-.16,1.22-.33,1.83-.46a1.26,1.26,0,0,1,1.42.77C171.36,81.77,170.91,82.29,170.27,82.25Z"/><path class="cls-2" d="M32.64,115.26a1.37,1.37,0,0,1-1,1.18c-.88.24-1.79.43-2.67.69-2.16.66-4.3,1.39-6.39,2.25a4.21,4.21,0,0,1-2,.39,3.24,3.24,0,0,0-1.87.61,2.69,2.69,0,0,1-1.05.4.76.76,0,0,1-.82-.63.7.7,0,0,1,.4-.83c.65-.27,1.32-.53,2-.76,1.19-.39,2.39-.74,3.59-1.13l5.36-1.76,3.32-1.12a.71.71,0,0,1,1,.47A2.17,2.17,0,0,1,32.64,115.26Z"/><path class="cls-2" d="M21.26,64.75a1.63,1.63,0,0,1,1,.36,4.92,4.92,0,0,0,1.35.64c1.34.48,2.66,1,4,1.57a9.21,9.21,0,0,0,1.65.57,22.06,22.06,0,0,1,3,1c.82.29,1.67.53,2.52.74a6.52,6.52,0,0,1,1.66.57,3.76,3.76,0,0,0,1.08.29,1.68,1.68,0,0,1,1.1.77.55.55,0,0,1,0,.59c-.12.23-.28.44-.57.4a4.11,4.11,0,0,1-1.33-.32,38.81,38.81,0,0,0-6.28-2.16c-1-.31-1.88-.68-2.83-1-2-.68-3.88-1.56-5.81-2.35A8.26,8.26,0,0,1,21,66a1,1,0,0,1-.4-.47A.47.47,0,0,1,21,64.8Z"/><path class="cls-2" d="M19.26,74.73a4.86,4.86,0,0,1,.55.08c1.51.32,3,.68,4.54,1,1,.2,2.06.28,3.1.42,1.82.25,3.64.49,5.45.75.67.1,1.33.22,2,.37a.73.73,0,0,1,.62.69.78.78,0,0,1-.86.86,3.65,3.65,0,0,1-1-.21,9,9,0,0,0-3.06-.57,19.19,19.19,0,0,1-3.46-.55,27.14,27.14,0,0,0-2.85-.4c-1.16-.12-2.31-.38-3.45-.61a9.86,9.86,0,0,0-1.71-.39,1.38,1.38,0,0,1-.47-.16.69.69,0,0,1-.38-.72.66.66,0,0,1,.53-.47Z"/><path class="cls-2" d="M139.4,119.81a1.39,1.39,0,0,1-.73-.15,13,13,0,0,0-2.91-1.15,43.45,43.45,0,0,1-6.61-2.75,6.66,6.66,0,0,1-1.43-.79.9.9,0,0,1,0-1.33.62.62,0,0,1,.7-.12c1.66.8,3.41,1.38,5.06,2.22a24.11,24.11,0,0,0,5.28,2,3.18,3.18,0,0,1,1.13.49c.52.37.61.59.46,1S140,119.81,139.4,119.81Z"/><path class="cls-2" d="M17.2,114.18a.53.53,0,0,1-.56-.35.79.79,0,0,1,.41-1.14.94.94,0,0,1,.22-.12c2.06-.55,3.92-1.67,6-2.18a6.37,6.37,0,0,0,1.28-.52c1.67-.77,3.47-1.23,5.09-2.14a7,7,0,0,1,.94-.33c.3-.13.57-.17.77.15a.75.75,0,0,1-.18,1c-.17.12-.36.21-.54.32a26.65,26.65,0,0,1-3.93,1.67l-2,.76a4.61,4.61,0,0,1-.71.25,17.08,17.08,0,0,0-4,1.53c-.72.35-1.45.65-2.19,1A2.74,2.74,0,0,1,17.2,114.18Z"/><path class="cls-2" d="M61.72,128.25a.79.79,0,0,1-.65-.33.78.78,0,0,1,0-.83.72.72,0,0,1,.25-.27,28.25,28.25,0,0,0,3-3.17c.9-.94,1.75-1.9,2.61-2.87.33-.37.58-.82.93-1.17a1.11,1.11,0,0,1,1.58,0,.58.58,0,0,1,.19.68,3.16,3.16,0,0,1-.86,1.36A30.16,30.16,0,0,0,63.48,127a12.33,12.33,0,0,1-.86.91A1.29,1.29,0,0,1,61.72,128.25Z"/><path class="cls-2" d="M132.36,109.07a1.26,1.26,0,0,1,.37-.95.67.67,0,0,1,1-.2c.9.45,1.78.92,2.66,1.4a26.23,26.23,0,0,0,5,2.19,7.9,7.9,0,0,1,1.48.67.88.88,0,0,1,.3,1.21.83.83,0,0,1-.94.44,1.39,1.39,0,0,1-.36-.12c-2-1.11-4.12-1.83-6.08-2.95-.65-.37-1.36-.64-2-1C133.29,109.56,132.82,109.3,132.36,109.07Z"/><path class="cls-2" d="M137.76,103c0-.28.13-.44.39-.53a1.3,1.3,0,0,1,1.09.1,45.12,45.12,0,0,0,5.83,2.33c.7.24,1.46.34,2.19.52.44.1.57.5.66.84a.8.8,0,0,1-.33.88.82.82,0,0,1-.83.11c-.92-.39-1.88-.64-2.8-1.08a46.3,46.3,0,0,0-4.35-1.64,4.29,4.29,0,0,0-.73-.14C138.09,104.27,137.76,103.87,137.76,103Z"/><path class="cls-2" d="M31.18,123.92a2.1,2.1,0,0,1-1,1.19c-1.5.63-3,1.2-4.54,1.79-.74.28-1.48.57-2.22.84a10.17,10.17,0,0,1-1.06.36c-.55.14-.79,0-1-.5a.78.78,0,0,1,.47-1.12c.9-.32,1.81-.61,2.72-.88a12.78,12.78,0,0,0,2-.72,22.88,22.88,0,0,0,3.12-1.59,1,1,0,0,1,1.17-.05C31.09,123.36,31.19,123.53,31.18,123.92Z"/><path class="cls-2" d="M49.69,112.43c-.35,0-.74-.3-.76-.56a1.15,1.15,0,0,1,.52-.92,31.82,31.82,0,0,0,3.84-1.78,18.83,18.83,0,0,0,3-1.64,2.09,2.09,0,0,1,.89-.45.74.74,0,0,1,.7.13,1,1,0,0,1,.06.94,1.54,1.54,0,0,1-.68.7c-2.2,1.11-4.32,2.36-6.56,3.36A3,3,0,0,1,49.69,112.43Z"/><path class="cls-2" d="M131.68,131.57a15,15,0,0,0-2.3-3.85,15.2,15.2,0,0,0-2.28-2.66.85.85,0,0,1,.08-1.4.52.52,0,0,1,.59-.07,2.43,2.43,0,0,1,1,.9c.46.75,1,1.46,1.5,2.17a1.78,1.78,0,0,0,1.15.9.37.37,0,0,1,.32.34,3.25,3.25,0,0,0,.83,1.52,1.85,1.85,0,0,1,.44.74,1.06,1.06,0,0,1-.15,1.06.93.93,0,0,1-1.23.31Z"/><path class="cls-2" d="M59.27,114.81a.55.55,0,0,1,.54.25,1,1,0,0,1,0,1.18,2.21,2.21,0,0,1-.62.6,27.38,27.38,0,0,0-3.58,3,7.85,7.85,0,0,1-1.49,1.14.69.69,0,0,1-1-.52,1.11,1.11,0,0,1,.36-1.13c1-.75,1.87-1.67,2.94-2.33a13.71,13.71,0,0,0,1.47-1.17c.33-.26.63-.55,1-.8A1.62,1.62,0,0,1,59.27,114.81Z"/><path class="cls-2" d="M12.55,121.59a.67.67,0,0,1,.68.51c.1.25,0,.4-.22.52a1.24,1.24,0,0,0-.51.53.8.8,0,0,1-.89.54,1.23,1.23,0,0,0-.72.18c-.82.4-1.65.8-2.49,1.17a11.8,11.8,0,0,1-1.42.47c-.42.1-.7-.11-.83-.56s0-.9.42-1c.81-.22,1.55-.61,2.35-.86a8.79,8.79,0,0,0,2.26-1A5,5,0,0,1,12.55,121.59Z"/><path class="cls-2" d="M96.14,114.41a13.6,13.6,0,0,0-2.44,1.51,1.72,1.72,0,0,1-1.66.29.48.48,0,0,1-.29-.78,3.4,3.4,0,0,0,.6-2.14.57.57,0,0,0-.66-.59,2.34,2.34,0,0,0-1.41.47,18.49,18.49,0,0,1-1.65.86.53.53,0,0,1-.6,0c-.13-.09-.2-.36-.08-.43.87-.51,1.72-1,2.61-1.5a19.15,19.15,0,0,1,2.12-.78,1.43,1.43,0,0,1,1.21.08c.36.19.44.35.39.8s-.11,1.07-.16,1.61a1.05,1.05,0,0,0,.33,0,21.13,21.13,0,0,0,2.1-1.12,1.49,1.49,0,0,1,1.39-.24c.2.07.41.09.61.16a.45.45,0,0,1,.28.6c-.07.28-.29.51-.21.84a1.64,1.64,0,0,0,1.15-.37,1.91,1.91,0,0,1,1.57.07c.2.06.23.53,0,.66a4.74,4.74,0,0,1-.75.44,9.37,9.37,0,0,0-1.35.66,2.23,2.23,0,0,1-1,.28c-1.18.11-1.43,0-2-1.05a3.45,3.45,0,0,0-.2-.32l.07.06Z"/><g class="cls-3"><path class="cls-4" d="M84.29,81.65H77.48v.76c2.46.26,2.64.45,2.06,2-1,2.68-3.27,7.9-4.78,11.28H74.7c-2.06-4.61-4.27-9.81-5-11.71-.48-1.18-.39-1.4,1.76-1.58v-.76H64v.76c1.82.16,2.3.37,3.18,2.35,1.76,3.89,4.24,9.71,6.27,14.61h.94c2.3-5.54,5.47-12.35,6.29-14.12,1.15-2.39,1.55-2.63,3.6-2.84Z"/><path class="cls-4" d="M97,99.08v-.75c-2.48-.16-2.73-.3-2.73-2.6V85c0-2.28.25-2.44,2.73-2.6v-.76H89v.76c2.48.16,2.72.32,2.72,2.6V95.73c0,2.28-.24,2.44-2.72,2.6v.75Z"/><path class="cls-4" d="M110.33,99.08v-.75c-2.49-.16-2.73-.3-2.73-2.6V85c0-2.28.24-2.44,2.73-2.6v-.76h-8v.76c2.49.16,2.73.32,2.73,2.6V95.73c0,2.28-.24,2.44-2.73,2.6v.75Z"/><path class="cls-4" d="M123.68,99.08v-.75c-2.49-.16-2.73-.3-2.73-2.6V85c0-2.28.24-2.44,2.73-2.6v-.76h-8v.76c2.49.16,2.73.32,2.73,2.6V95.73c0,2.28-.24,2.44-2.73,2.6v.75Z"/></g><path class="cls-5" d="M84.3,82.4c-2.06.22-2.46.46-3.61,2.85-.81,1.77-4,8.57-6.29,14.12h-.94c-2-4.9-4.51-10.72-6.27-14.61-.88-2-1.36-2.19-3.18-2.36v-.75h7.42v.75c-2.15.19-2.24.41-1.76,1.59.76,1.9,3,7.1,5,11.71h.06c1.51-3.38,3.81-8.6,4.78-11.29.58-1.55.4-1.74-2.06-2v-.75H84.3Z"/><path class="cls-5" d="M89,99.08v-.75c2.48-.16,2.72-.32,2.72-2.6V85c0-2.27-.24-2.43-2.72-2.6v-.75h8v.75c-2.48.17-2.73.33-2.73,2.6V95.73c0,2.3.25,2.44,2.73,2.6v.75Z"/><path class="cls-5" d="M102.3,99.08v-.75c2.49-.16,2.73-.32,2.73-2.6V85c0-2.27-.24-2.43-2.73-2.6v-.75h8v.75c-2.48.17-2.73.33-2.73,2.6V95.73c0,2.3.25,2.44,2.73,2.6v.75Z"/><path class="cls-5" d="M115.65,99.08v-.75c2.49-.16,2.73-.32,2.73-2.6V85c0-2.27-.24-2.43-2.73-2.6v-.75h8v.75c-2.49.17-2.73.33-2.73,2.6V95.73c0,2.3.24,2.44,2.73,2.6v.75Z"/></svg>