<svg id="Layer_1" data-name="Layer 1" xmlns="http://www.w3.org/2000/svg" xmlns:xlink="http://www.w3.org/1999/xlink" viewBox="0 0 916.92 1524.01"><defs><style>.cls-1{fill:none;}.cls-2{clip-path:url(#clip-path);}.cls-3{fill:#fff;}</style><clipPath id="clip-path"><rect class="cls-1" x="4" y="4" width="896" height="1486"/></clipPath></defs><title>Artboard 4</title><g id="Artwork_2" data-name="Artwork 2"><g class="cls-2"><polygon class="cls-3" points="64 4 64 28.6 41.5 84.4 19 28.6 19 4 4 4 4 214 19 214 19 63.4 41.5 119.5 64 63.4 64 214 79 214 79 4 64 4"/><g class="cls-2"><path class="cls-3" d="M224,522a15,15,0,0,1-30,0V366a15,15,0,0,1,30,0Zm15,0V366a30,30,0,0,0-60,0V522a30,30,0,0,0,60,0"/><path class="cls-3" d="M436,534H421V354h15a15,15,0,0,1,15,15V519A15,15,0,0,1,436,534Zm30-15V369a30.09,30.09,0,0,0-30-30H406V549h30a30.09,30.09,0,0,0,30-30"/><path class="cls-3" d="M599,821V638H584V820.68a15.19,15.19,0,0,1-13.6,15.26A14.89,14.89,0,0,1,554,821V638H539V820.88c0,15.19,11.07,28.42,26.14,30.33A30.07,30.07,0,0,0,599,821.46"/></g><polygon class="cls-3" points="425 1155 425 1140 387 1140 387 945 372 945 372 1155 425 1155"/><g class="cls-2"><path class="cls-3" d="M885,1393H855v-85.18a15.19,15.19,0,0,1,13.6-15.26A14.89,14.89,0,0,1,885,1307.5Zm15,97V1307.58c0-15.19-11.07-28.42-26.14-30.33A30.07,30.07,0,0,0,840,1307v183h15v-83h30v83Z"/></g></g></g></svg>