<svg id="Layer_1" data-name="Layer 1" xmlns="http://www.w3.org/2000/svg" viewBox="0 0 283.89 325.29"><defs><style>.cls-1{fill:#ee3a27;}</style></defs><title>3Artboard 1</title><path class="cls-1" d="M44.4,71.15c-.91-1.91-1.7-2.17-4.66-.62a23.42,23.42,0,0,0,2.92,2c3.62,1.69,3.78,2,2.4,5.66a6.33,6.33,0,0,0-.42,2.1c0,2.79.5,5.74-3,7.49,2.9.4,2.83,1.79,2.38,3.75-.24,1,.46,2.28.88,4-.79-.68-1.35-1.12-1.86-1.61-1.42-1.36-2.39-1-3.09.79a5.23,5.23,0,0,1-1.87,2c-.16.12-1.4-.75-1.36-.89A12.37,12.37,0,0,1,38,93.4c.25-.39.93-.66.94-1q.13-3.84.06-7.68a36.32,36.32,0,0,0-.4-4.17,15.06,15.06,0,0,0-.6-2.66c-.53-1.65-.8-3.19,1-4.35l1.22,3.79L44,75.44a8,8,0,0,0-1.72-1.54c-1.6-.79-3.13-1.46-3.67-3.47-.13-.46-1.43-.83-2.2-.86-1.67-.08-3.36.16-5,.13a3.28,3.28,0,0,1-3.55-3.38c0-2.12,1.46-2.65,3.24-2.67,3,0,6.07,0,9.11-.06q33.71-.18,67.4-.37c6,0,12,.06,18,.07a4.56,4.56,0,0,0,1.6-.27,21.58,21.58,0,0,0,3.72-1.59,3.89,3.89,0,0,0,1.75-2c.3-1.2-.1-2.57.13-3.81.34-1.84,1-3.6,1.47-5.43a33.61,33.61,0,0,0,1.3-6.73c.15-6-.42-12,.13-18,.24-2.62-.52-5-.21-7.58.25-2.05-1-2.68-2.77-2.67a14.21,14.21,0,0,0-2.14.26c-3.58.56-4.79-.15-5.89-3.55-.57-1.74-1.13-3.49-1.57-5.28-.51-2.1.2-3.59,2.43-4.18,10.2-2.68,20.41-3.72,30.68-.34C161.73,4,161.76,4,160.05,9.66c-.2.69-.39,1.38-.63,2.06-1.41,3.94-2.29,4.44-6.44,3.66-3.7-.69-4.34-.28-4.39,3.41-.09,7,0,14.07-.05,21.11,0,1-.11,1.92,0,2.87.17,2.59.44,5.17.62,7.75s.44,5.25.39,7.87c0,1.56.65,2,1.88,2.81,3.71,2.34,7.73,1.82,11.71,1.8q39.84-.24,79.66-.52,3.84,0,7.68-.2a2.59,2.59,0,0,1,3,2.46c.26,1.62.43,3.5-1.5,4.07a17.56,17.56,0,0,1-5.61.53c-2.09-.08-3.95-.23-5.07,2.09-.34.7-1.37,1-2,1.61-1,.85-1.79,1.8-.88,3.38l3-1.22-.46-2.28c2.56,0,3.55,1.42,2.81,3.59a14.31,14.31,0,0,0-.79,3.91c-.11,3.39-.07,3.45-2.79,5.63a8.31,8.31,0,0,1,1.47,1.06c.44.51,1.18,1.44,1,1.72-1.49,2.54.3,4.06,1.66,5.6-1,1.24-1.78,2.39-2.72,3.43a1.9,1.9,0,0,1-1.46.53,5.48,5.48,0,0,1-1.61-.86c.48-.2,1-.44,1.45-.6a5.47,5.47,0,0,1,1.1-.1l-.91-2.07,1.69-.85c-1-1.86-3.94,1-4.4-2-.27-1.71-1.34-3.53,1.31-4.37-1-3.9-2.15-7.6-2.8-11.38-.2-1.17.94-2.58,1.57-4.15-1-2.43-3.15-2.67-6-2.55-13.82.6-27.65,1-41.48,1.3-9.9.24-19.8.39-29.71.32-8.27-.07-12.18,3.44-12.2,12.62-.06,24.55.16,49.1.19,73.65,0,16.3-.13,32.61-.13,48.92,0,23,.09,45.9.06,68.85,0,9-.28,18.06-.32,27.09a2.5,2.5,0,0,0,1.51,1.82,124.79,124.79,0,0,0,31.37,3c10.86-.22,21.74-.05,32.6-.05,3,0,4.67,1.05,5.62,3.86a17.52,17.52,0,0,1,.9,4.92,5.33,5.33,0,0,1-5.1,5.38c-5.56.4-11.15.59-16.72.63-6.32,0-12.63-.17-18.94-.3-7.7-.17-15.36-.19-22.75,2.5a13.53,13.53,0,0,1-3.51.72,107.14,107.14,0,0,1-26.05-.55,115.87,115.87,0,0,0-15.17-1.73c-11.18-.28-22.37-.14-33.55-.16-3.67,0-7.35.31-11,0-3.23-.29-6.09-3.12-5.77-5.43.72-5.07,2.13-8.42,5.68-8.68,3.82-.28,7.62-.93,11.44-1,11.68-.13,23.36.21,35-.15,6-.19,12-1.56,18-2.26,2-.23,2.38-1.15,2.34-3-.21-9.43-.43-18.87-.4-28.3.09-37.76.32-75.51.39-113.26,0-24.39-.09-48.78-.12-73.17,0-1.92.12-3.83.17-5.75.17-5.58-2.76-9.15-8.37-9.67-3.48-.33-7-.09-10.53-.14-15.59-.26-31.18-.5-46.77-.82-6.39-.13-12.78-.54-19.17-.65C47.6,70,46.17,70.71,44.4,71.15ZM86.69,67l-.64,2c1.43-.41,2.67-1.22,3.58-1,2.57.76,4.93.07,6.25-2.47a11,11,0,0,0-9.28,1.53L87.1,66c-8.27-.64-16.42-1.35-24.46,1.18l-1-1.68L58.8,67.83l.33.65c1.3,0,2.61.07,3.91,0,.5,0,1.15-.78,1.43-.63,3.54,1.88,7.3.56,10.94.82C79.25,68.92,83.12,68.87,86.69,67Zm59,36.84c-5,1-5.34,4.5-5.23,8.55.22,7.67.12,15.34.15,23,0,13.66.16,27.32.13,41,0,10.23-.31,20.46-.37,30.69-.07,10.87,0,21.74,0,32.61q.06,32.73.1,65.48c0,1.49.71,2,2,2.08,2.27.17,3.31-.88,3.29-3.26-.11-12.71-.31-25.42-.3-38.13,0-20.62.18-41.25.21-61.88q.06-42.93,0-85.87Zm-10.94-45,.7.46c.87-1,1.55-2.56,2.64-3a2.29,2.29,0,0,0,1.81-2.56c.09-7.2.25-14.39.36-21.58.1-5.76.12-11.51.27-17.26a10,10,0,0,1,2.27-6.7,29.63,29.63,0,0,1,.56,3.11c.2,4.39.51,8.78.49,13.18,0,9.19,0,18.39-.47,27.57-.16,3.48,2.61,4.26,4.29,6.26a36.07,36.07,0,0,0-.53-7c-.24-1.55-1-3.07-1-4.6,0-9.2.06-18.39.11-27.59,0-4.74,1.4-6.17,6.12-5.42,2.77.44,3.82-.9,4.71-2.9a14.47,14.47,0,0,0,.87-3c.57-2.8.07-3.59-2.74-4.17-2.5-.51-5-1-7.55-1.3a62.21,62.21,0,0,0-6.26,0,7.66,7.66,0,0,0,2.85.76c3.49.71,7,1.37,10.43,2.34A2.92,2.92,0,0,1,156,8c-.36,1.27-1.57,3.4-2.2,3.32a87.41,87.41,0,0,1-9.74-2.15l.15-.83a46.55,46.55,0,0,1,6.59,1.15c3.29,1,3.81.76,3.74-3l-1.82.84c-1-1.36-6.17-2.39-7.65-1.6l-1.28-1.92-1.17,2.4-.35-.84c-3.95-.3-7.82.8-11.73,1.24-.22,2.52.22,2.95,2.69,2.68,2.12-.23,4.25-.42,6.37-.63l.44,1c-.31.1-.6.23-.92.3-2.56.54-5.13,1.12-7.72,1.54a1.78,1.78,0,0,1-1.41-1c-.65-1.9-1.12-3.85-1.67-5.83-2.16.4-2.6,1.08-2,3.43,1.39,4.95,1.39,4.95,6.4,5,3.11.05,4.87,1.52,5,4.59s-.14,5.9-.16,8.85c0,6.07.06,12.15,0,18.22,0,1.64-.08,3.62-1,4.84C134.56,52.58,134.93,55.69,134.79,58.82Zm-.27,247.48c-1.69.11-2.93.09-4.13.3-4,.7-8,1.95-12,2.14-8.7.42-17.42.3-26.14.41-1.83,0-4.06-.53-5.43.3a8.67,8.67,0,0,1-7.22.77c-3.84-1.18-7.21,1-10.84.69-.3,0-.64.45-1.29.94.82.1,1.2.18,1.57.18,5.51.05,11,.11,16.52.14,8.71.05,17.43,0,26.14.19a73.64,73.64,0,0,1,11.67,1.1c9.89,1.79,19.79,3.28,29.69.45a66.71,66.71,0,0,1,18.74-2.19c.8,0,2.18-.63,2.3-1.18.31-1.52-1-1.56-2.18-1.7-6.26-.72-12.51-1.54-18.76-2.34-1.62-.21-3.24-.45-5.47-.75a11.13,11.13,0,0,0,1.07,2.39c1.39,1.53.95,2.77-.74,3.34a24.15,24.15,0,0,1-13.66.24c-2.08-.5-2.2-1.82-.88-3.56A19.39,19.39,0,0,0,134.52,306.3Zm1.92.08.7-.12c.05-.75.15-1.5.15-2.25q.11-31.42.18-62.84t.17-62.59c0-11.51-.14-23-.12-34.53,0-13.19.14-26.38.17-39.57a7.21,7.21,0,0,0-.71-2.21l-.85.2c-.06.83-.17,1.66-.17,2.49,0,20,.07,40,.06,59.94q0,37.53-.09,75.07c0,6.08-.05,12.16-.07,18.23q-.08,23-.12,46.06A7.13,7.13,0,0,0,136.44,306.38ZM119,68.73l.1,1.06c5.94-.4,11.73-.36,15.76,5.22a32.21,32.21,0,0,0,.33-6.09c-.16-5.24-.19-5.68,4.84-5.83,7.27-.21,8.1-1.29,7.53,6.9-.1,1.42,0,2.85,0,4.75l10.14-9.51a15,15,0,0,1-1.75-.39c-1.27-.45-2.52-.93-3.76-1.45a14.65,14.65,0,0,1-2.53-1.28c-1.34-.9-2.62-1.91-3.89-2.9-.73-.56-1.39-1.66-2.1-1.68-2.83-.08-5.86-.45-7.61,2.75a4.53,4.53,0,0,1-1.87,1.41c-3.42,1.8-6.87,3.56-10.41,5.39l-.51-1.39ZM144.48,320c-1.29.43-3.19.59-3.37,1.22-.54,1.95-1.89,1.23-2.82,1.08-.41-.06-.76-1.37-.87-2.15s.24-1.6.18-2.38c-.11-1.38-1.61-1.67-1.93-.9a14,14,0,0,0-.83,5.4c0,.47,1.52,1.34,2.31,1.32,4.14-.12,8.28-.39,12.41-.76a11.73,11.73,0,0,0,3-1.23c1.29,1.65,2.5.25,3.77-.65s2.31-2,4.64-1.24L158.22,321a9.44,9.44,0,0,0,4.08-.62c.77-.3,1.93-1,1.95-1.59a30.14,30.14,0,0,0-.54-5.58c0-.14-.73-.29-1.08-.23a33.94,33.94,0,0,0-5.63,1.08,48.09,48.09,0,0,1-15.56,2.26c-2.67,0-3.24.9-2.26,4.24l.43-2.93h3.45L141,319l.07.54Zm-64.62-.7,0-.75H93.31l0-.69c-4.5-.22-9-.32-13.49-.7-2.72-.23-4.64.44-5.69,3.71,11.48-.74,22.87,1.39,34.77-1.7l-3.49-.79,3.54-1.91-2.21-1.26,1.83-1.45H74l-.13.52,3.78,1-2.77.37a1.55,1.55,0,0,0,1.23.82c1.61,0,3.11-1,4.41-1.2,3.84-.68,7.88-.24,11.84-.24v.33l-5.25.49,0,.89a18.88,18.88,0,0,0,2.47.22c3-.12,5.91-.47,8.86-.4a20.35,20.35,0,0,1,4.6,1.18l-.15.91c-4.73.36-9.45.86-14.18,1C85.76,319.79,82.81,319.42,79.86,319.27Zm57.39-252.5-.79.17c0,4.82-.06,9.64.08,14.46,0,.51,1.09,1.37,1.72,1.41a30.66,30.66,0,0,0,6.21-.16A2.63,2.63,0,0,0,146,80.73c.31-3.32.45-6.66.53-10a33,33,0,0,0-.33-4l-.92,0c-.66,2.84-1.23,5.71-2,8.51-.22.73-1.27,1.79-1.8,1.72a3.23,3.23,0,0,1-2.16-1.72,19.89,19.89,0,0,1-.7-4.23l3-1,.52.61a6.83,6.83,0,0,0-1.46,1.24,4.12,4.12,0,0,0-.79,2.19c0,.54.78,1,1.22,1.55.52-.51,1.34-.94,1.51-1.56a59.64,59.64,0,0,0,1.7-7.46A2.47,2.47,0,0,0,143,64.6a6.6,6.6,0,0,0-4.09.13c-.69.34-.66,2.12-.9,3Zm71.49-1-.59-.86c-5.1,0-10.21-.23-15.28.14-1.53.12-2.93,1.91-4.7,3.15.91.49,1.11.69,1.3.69,5.19-.15,10.4-.15,15.56-.6C206.33,68.13,207.51,66.6,208.74,65.72ZM181.85,314.93V316a28.93,28.93,0,0,1,5.59.08,26.51,26.51,0,0,1,5,2.08l-.17.52-3.78.3,0,.75h14.91v-.47h-5.6a10.06,10.06,0,0,1,.85-2,3,3,0,0,1,.91-.7,14.89,14.89,0,0,1-2-2.16c-.74-1.21-4.15-2-4.74-.82-1,2-2.57,1.17-3.92,1.25C186.6,315,184.22,314.93,181.85,314.93ZM141.07,92.81a4.83,4.83,0,0,0-4.5,4.93,4.61,4.61,0,0,0,4.77,4.62c2.86-.2,4.66-2.11,4.55-4.83A4.93,4.93,0,0,0,141.07,92.81Zm4.7-.5c0-1.57.1-3.14,0-4.7-.08-1-.17-2.45-.8-2.86a3.75,3.75,0,0,0-3.3-.24,3.91,3.91,0,0,0-1.32,3C140.35,91.18,141.64,92.27,145.77,92.31Zm46.16,216.62v.22a8,8,0,0,0-1.9,0,12.8,12.8,0,0,0-2.06,1c.62.66,1.17,1.78,1.88,1.89a27.22,27.22,0,0,0,5.71.1c.54,0,1.51-.89,1.44-1.15a2.49,2.49,0,0,0-1.29-1.66A21.22,21.22,0,0,0,191.93,308.93Zm-12,2.82v.11a14.34,14.34,0,0,0,2.86-.05,6.32,6.32,0,0,0,1.8-1.12c-.54-.57-1-1.58-1.61-1.64a36.56,36.56,0,0,0-6.45-.07c-.52,0-1,1-1.47,1.56.5.4,1,1.06,1.52,1.15A19.68,19.68,0,0,0,180,311.75Zm-48.21,5.69c-.35-.41-.73-1.24-1.2-1.3a1.92,1.92,0,0,0-1.55,1,26.12,26.12,0,0,0-.44,4.68c0,.31.56.82.91.88a1.28,1.28,0,0,0,1-.65C131,320.64,131.29,319.18,131.74,317.44ZM41.85,78.28c-1.37,1.57-1.9,3.08-1.27,4.8a2,2,0,0,0,1.35,1.11c.33,0,1-.69,1.11-1.18C43.51,81.38,43.65,79.74,41.85,78.28Zm100.6,234c.93-.93,2.07-1.87,2-2-.58-.89-1.32-1.95-2.23-2.23-.48-.15-1.41,1.19-2.13,1.86ZM136.32,93.88c1.7-2.8,1.62-7.93,0-9.24Zm71.06,225.91.47.53,3.84-3.57C208.88,316.12,208.88,316.12,207.38,319.79ZM188.05,66.68l-6.35,1.41C184.07,69.84,186.61,69.44,188.05,66.68ZM211.2,315l-.1-.93-5,.4C207.83,316.05,209.55,316.78,211.2,315ZM230.54,67.21c2.68.69,4.06-.25,4.44-3ZM132.25,3.09l.06.92,7.86-1L140,2.09ZM215.63,65.5l-.73-1-4.07,2.91.75,1ZM240.31,79h-.69c-1.11,2.19-1.08,2.49.69,3.88Zm.75-8.72-.54-1c-.75,0-1.91-.28-2.16.07-.37.53-.09,1.51-.09,2.85Z"/><path class="cls-1" d="M42.8,205.79c-.65-1.23-1.08-2-1.49-2.83-.27-.56-.89-1.34-.71-1.65,1.11-2,.19-3.67-.28-5.51-.14-.55.52-1.86.88-1.89a6.62,6.62,0,0,1,2.84.71,6.82,6.82,0,0,1-.32,1.76l-.8,3.76c1.81,1.24,1.81,1.27.78,3.46,5.8.34,11.72.3,17.52,1.14,5.49.81,10.85,2.57,16.28,3.85a14.17,14.17,0,0,0,3.66.4c1.69-.06,2.79,0,2.6,2.28-.09,1,.81,2,1.47,3.47a54.41,54.41,0,0,1-2.08,5.79c-2.53,5.32-6.73,8.35-12.59,9.65-12.89,2.85-25.88,2.75-38.91,1.94A113.14,113.14,0,0,1,15.77,230C8.33,228.52,3.41,223.61.32,216.87a5,5,0,0,1,0-3.61,39.08,39.08,0,0,1,2.84-5,21.25,21.25,0,0,0,4.54-.05c9.35-2.2,18.68-4.46,28.36-4.39,1.56,0,3.12.28,4.68.44l0,1.06-2.94.76-1.74,2.18,1.36.85-1.3,1.38,1.58,1.2-1.39,1L38,215.21c-3.27.34-6.1.69-8.93.91-3,.23-6.08.25-9.1.54a15.79,15.79,0,0,0-4.88,1.07,3,3,0,0,1-4-.93c-1.38-1.87-2.59-3.87-4.19-6.28l-4,3.33c2.66,6.17,8.4,5.73,13,6.4,7.56,1.12,15.3,1,23,1.34a3,3,0,0,0,2-1c1.12-1.14,2-1.41,3.12,0a3.44,3.44,0,0,0,2.36,1.15c11,.1,21.89-.75,32.54-3.71,1.69-.47,3.35-1,3.4-3.09s-1.26-3-3.12-3.7a75.83,75.83,0,0,0-22.91-4.73C51.6,206.38,47,206,42.8,205.79Zm-30,6.5.21,1,7.21-2,.29.93-6.29,1.95.13.38,8-1.45.14.72L18,214.9l.15.67L34.38,214c-.87-3.08-2.3-5.49-.07-8.36L15.43,209.4l.1.68,4.48-.26.1.67Zm67.57,7.6c-4.49,1.16-6,2.92-5.76,6.63A8.55,8.55,0,0,0,80.4,219.89Zm-59.13,5.52.12-.86L15,223.81l-.1.85Z"/><path class="cls-1" d="M279.23,215.75c-.13-2.38-.24-4.25-.37-6.53,2,1.35,3.49,2.09,4.53,3.26a3.28,3.28,0,0,1,.23,3,55.92,55.92,0,0,1-6.48,9.46,14,14,0,0,1-6.61,3.57,131.28,131.28,0,0,1-40.15,3.28c-1.13-.07-2.22-.82-3.2-.94a24.87,24.87,0,0,1-4.94.16c-3.78-.63-7.53-1.45-11.25-2.36-5-1.21-8.1-4.53-10.13-9.11a12,12,0,0,0-2.39-3.43c-1.23-1.25-1.53-2.3-.27-3.68a30.42,30.42,0,0,1,2.39-3c.48-.41,1.5-.19,2.27-.24a4,4,0,0,0,.69,0c5.09-1.51,10.11-3.37,15.29-4.43a108.85,108.85,0,0,1,15-1.61c1.72-.1,3.49.76,5.26,1.12.78.16,1.6.16,2.94.29-.44.83-.63,1.77-1.17,2.06a3.34,3.34,0,0,1-2.18-.15c-.73-.2-1.38-.88-2.08-.91-8.51-.36-16.86.89-25.84,2.51l2.63.75.08.51-3.13,1.08.1.74,11.39-1.62.14.55c-1.29.24-2.59.5-3.88.71-1.5.25-3,.35-4.5.73a11.47,11.47,0,0,0-3.86,1.83l7.18-1.22.2.67L215,214.19l.13.55c1.68-.24,3.35-.5,5-.7,4.67-.56,9.34-1.16,14-1.61a9.71,9.71,0,0,1,2.89.66l-.11,1c-2.09.09-4.18.34-6.25.25a53.52,53.52,0,0,0-19.63,2.49,5.08,5.08,0,0,1-2.56.2c-2-.43-2.19-1.22-1-2.57a10.08,10.08,0,0,1-2.29-1.8c-.94-1.33-2-.94-2.9-.31-1.13.78-1.56,2.08-.38,3a13.07,13.07,0,0,0,4,2.05c8,2.68,16.21,3.49,24.56,3.61,1.6,0,3.19.15,4.79.22.4,0,1,.23,1.17,0,3.22-3.06,6.63-.23,9.92-.27a133.43,133.43,0,0,0,31.24-4.63A8.73,8.73,0,0,0,279.23,215.75Zm-4.86,7.84c2.6-.79,3.88-2.69,3.48-5.19C275.31,219.26,274.93,221.38,274.37,223.59Z"/><path class="cls-1" d="M254.17,134.2a9.42,9.42,0,0,1-1.8-4.74,15.91,15.91,0,0,0-1.86-6.44c-1.48-2.27-1.9-2-.85-4.89,4.39,2.8,4.11,1.23,2.58,4.67,1.27,1.1,2.92,2.18,1.48,4.34a1.61,1.61,0,0,0,.56,1.45c3.1.93,2.24,2.89,1.56,4.12.73,1.83,1.21,3,1.68,4.26,0,.07,0,.18,0,.24,1.55,2.2,2.79,4.45,1.8,7.33-.09.27,1.2.82,1.38,1.39.68,2.23,1.17,4.52,1.71,6.79,0,.14-.1.34-.05.46,1.19,2.58,2.46,5.13,3.57,7.74a6.59,6.59,0,0,1,.56,3.13c0,.36-1.69,1-2.07.77a4.35,4.35,0,0,1-1.92-2.53c-.23-1.7.3-3.51-1.65-4.62-.26-.15,0-1-.17-1.56a5.31,5.31,0,0,0-.83-2.38c-1-1-1.76-1.86-.56-3.18.05-.06.1-.17.08-.22q-1.37-3.56-2.77-7.1c-.08-.19-.39-.28-.54-.45-.31-.35-.88-1-.81-1.05C257.63,138.79,251.54,137.18,254.17,134.2Z"/><path class="cls-1" d="M242.44,203.79c1-.31,2.07-.94,3.07-.87,6,.43,12,.74,17.87,1.62,4.46.67,8.81,2.14,13.43,3.3l1.15-3.15c.61.43,1.33.9,2,1.43.4.31,1.06.77,1,1.06a2.18,2.18,0,0,1-1,1.45c-2.23,1.07-4.41,1.94-7,.68a25,25,0,0,0-6.81-2.07,6.62,6.62,0,0,0-4.17.84c-2,1.2-3.39,1.07-4.81-.69a5.16,5.16,0,0,0-2.95-1.7c-2.43-.35-4.92-.32-7.39-.47-1.4-.08-2.79-.2-4.19-.31C242.59,204.54,242.52,204.16,242.44,203.79Z"/><path class="cls-1" d="M57.69,134.36c.44.6,1.21,1.18,1.26,1.81a11.53,11.53,0,0,0,2.75,6.4c.09.12-.25.55-.33.85-.4,1.46-.51,2.76,1.12,3.74.55.33.69,1.35,1,2.05a9.61,9.61,0,0,1-3,.25c-.44-.1-1.09-1.61-.87-1.92,1.24-1.72.27-2.48-1-3.41-.45-.32-.52-1.2-.69-1.85a9.56,9.56,0,0,0-.68-2.82c-.8-1.21-1.9-2.15-.93-3.81.21-.36-.15-1.18-.45-1.66s-1.12-.68-1.19-1.1a24.28,24.28,0,0,1-.18-3.52c.92.43,2.11.65,2.68,1.36A10.57,10.57,0,0,1,58.37,134Z"/><path class="cls-1" d="M222.58,145.63c2.53,3-1.92,3.33-1.63,5.3a7.6,7.6,0,0,1,.35,2.54c-.07.34-1.3.82-1.77.64s-1.51-1.46-1.4-1.61c1.41-2,1-4.54,1.82-6.37a8.25,8.25,0,0,0,1.18-4.57c-.08-1.11,1.83-2.37,2.85-3.56.33.29,1,.58.94.86,0,2.34.64,4.95-2.11,6.41C222.75,145.3,222.72,145.4,222.58,145.63Z"/><path class="cls-1" d="M18.37,167.42a63.87,63.87,0,0,1-2.25,8c-.52,1.24-2.08,2-1,3.7.11.18-.33,1-.34,1a22.57,22.57,0,0,1-3.21-1.22,3,3,0,0,1,.62-1.69c1.11-.86,1.84-1.62,1.22-3.18a2.69,2.69,0,0,1,.56-2,5.21,5.21,0,0,0,.8-3.91c-.15-1.23,1.52-2.68,2.39-4,.43.34,1.11.6,1.26,1a9.22,9.22,0,0,1,.21,2.37Z"/><path class="cls-1" d="M42.43,218.25c-3.16-2.33-1.75-4.22-.23-6.26.74,2.44,2.68,2.12,4.56,2.23,4.69.25,9.37.62,14.05,1a5.25,5.25,0,0,1,3,1.56,10.26,10.26,0,0,1-1.65.12c-4.93-.43-9.86-.87-14.78-1.36C45.21,215.36,43,215,42.43,218.25Z"/><path class="cls-1" d="M266.74,215.75l-23.45-2c-.21-1.35.76-2,2.09-1.86,6.48.81,12.94,1.72,19.4,2.67C265.43,214.7,266,215.31,266.74,215.75Z"/><path class="cls-1" d="M78.17,193.31c0,1.32-.27,2.15,0,2.53a9.81,9.81,0,0,1,2,6.62c0,.44.74.84,1,1.34s.74,1.8.5,2a3,3,0,0,1-2.27.66c-.39-.08-.63-1.22-.79-1.92s.14-1.4-.16-1.83c-1.06-1.53-2.36-2.84-1.43-5,.18-.43-1.2-1.44-1.73-2.27-.38-.59-.89-1.79-.73-1.91a6.14,6.14,0,0,1,2.7-1.23C77.6,192.19,78.11,193.24,78.17,193.31Z"/><path class="cls-1" d="M42.31,193.07c-1.37-4.92-1.37-4.92-.5-5.84-2.14-4-2-5.95.78-8,1.93,4.49,1.94,5,.18,8.16C45.37,188.89,45.28,190.68,42.31,193.07Z"/><path class="cls-1" d="M268.71,176.78c-1-1.05-3-2.18-3-3.14.2-2.42-1-4-1.91-5.92a4.08,4.08,0,0,1,2.17-1.35c.69,0,2,1.21,1.87,1.69-.29,1.62.29,2.35,1.38,3.56,1.28,1.41.61,3.59-.64,5.24Z"/><path class="cls-1" d="M71,179.49c2.66.2,4.09,1.6,3.41,3.36s0,2.44,1.13,3.44c.55.5,1.07,1.83.79,2.27a2.59,2.59,0,0,1-2.32.9c-.57-.17-.89-1.36-1.21-2.15a22.41,22.41,0,0,1-1.24-3.53C71.23,182.39,71.16,181,71,179.49Z"/><path class="cls-1" d="M73.28,177.32a22.92,22.92,0,0,1-2.45.71c-1.18.17-1.85,0-1.85-1.6s.24-3.54-1.82-4.71c-.52-.3-.08-2.28-.08-3.6,2.87.73,3.54,1.81,3.34,3.81a5.25,5.25,0,0,0,.87,2.69A23.83,23.83,0,0,0,73.28,177.32Z"/><path class="cls-1" d="M246.22,107.8c1.63,1,4.2,1.14,2.41,4.06-.16.27,1,1.3,1.49,2a16.93,16.93,0,0,1,.91,2,23,23,0,0,1-3,.8,10.87,10.87,0,0,1-.61-1.74c-.29-.85-.34-2-.94-2.46C244.47,111.08,245,109.64,246.22,107.8Z"/><path class="cls-1" d="M272.08,192.24c-.3-.75-1.07-1.73-.83-2.2,1-1.93.07-3-1.24-4.25a2.29,2.29,0,0,1-.28-1.87,18.73,18.73,0,0,1,3.17-1.06c.12.74.61,1.75.3,2.19-1.09,1.51-.47,2.39.68,3.41a2.4,2.4,0,0,1,.79,1.85,10.85,10.85,0,0,1-1.23,2.58Z"/><path class="cls-1" d="M273.26,196a5.88,5.88,0,0,1,1.46-1.08,2.39,2.39,0,0,1,1.93,0,2.48,2.48,0,0,1,.52,1.91,22.84,22.84,0,0,1-.7,3.17l.42.37,2.31,1.78c-.91.4-1.83,1.14-2.73,1.12-1.44,0-1.64-.94-1.53-2.49S274,197.85,273.26,196Z"/><path class="cls-1" d="M35.63,110a14.22,14.22,0,0,1-1.27,2.5c-.87,1.11-2.12,2-.93,3.66.17.24-.4,1.45-.62,1.45a4.13,4.13,0,0,1-2.34-.62,2.08,2.08,0,0,1,.05-1.81c2-.91,1.4-2.56,1.4-4.09a3.76,3.76,0,0,1,.54-2.14,8.6,8.6,0,0,1,2-1.49Z"/><path class="cls-1" d="M42.53,137.34a16.68,16.68,0,0,1,1.08,2.1,16.67,16.67,0,0,1,.51,2.33c-.71,0-1.61.35-2.09,0a3.76,3.76,0,0,1-1.64-2.2c-.09-.79.66-1.69.49-2.51v-3.65c1,.26,2.49.24,2.79.84s-.31,2-.53,3Z"/><path class="cls-1" d="M55,121.5a7.39,7.39,0,0,1-.44,1.08c-.8,1.22-.32,1.93.71,2.8.59.5.65,1.63,1,2.47a5.59,5.59,0,0,1-2.09.29c-.91-.24-1.93-.46-1.59-2.09.2-1-.65-2.17-1-3.26-.2-.6-.67-1.65-.54-1.73a7.1,7.1,0,0,1,2.72-1.16c.64-.08,1.36.48,2,.75Z"/><path class="cls-1" d="M42.36,168.49c.67.39,1.67.63,1.87,1.17a2.26,2.26,0,0,1-.64,2.05c-1.65,1.18-1,2.11-.1,3.36a7.78,7.78,0,0,1,.72,2.61c-1.05,0-2.22.21-3.12-.18-1.3-.57-.82-1.59-.15-2.57.83-1.25,1.69-2.56,0-4a1.93,1.93,0,0,1-.14-1.73C41,168.9,41.71,168.79,42.36,168.49Z"/><path class="cls-1" d="M240.79,170.22c-2.33.06-3-1.17-2.25-2.94.32-.76,0-1.76.07-2.65s0-2.32.39-2.44a7.3,7.3,0,0,1,2.86.22,15.5,15.5,0,0,0-.42,2.22,15.26,15.26,0,0,0,.1,2.87c.09.63.76,1.36.58,1.8S241.06,170.05,240.79,170.22Z"/><path class="cls-1" d="M204.85,207.54c-1.09-2-2.63-3.36,0-4.66.41-.21,0-2.12,0-3.25,0-.63.06-1.79.22-1.81a4.57,4.57,0,0,1,2.44.24c.32.15.38,1.19.29,1.78a28.79,28.79,0,0,1-1,4.71A15.81,15.81,0,0,1,204.85,207.54Z"/><path class="cls-1" d="M41.18,121.74c-.33-1.51-.76-3-1-4.54a2.12,2.12,0,0,1,.68-1.77,5.44,5.44,0,0,1,2.21,0,7.6,7.6,0,0,0-.26,1.8c.13,1.5.4,3,.58,4.46.08.64.09,1.29.13,1.94a4.61,4.61,0,0,1-2,0c-.56-.25-.91-1-1.35-1.49Z"/><path class="cls-1" d="M37.43,98c.52,1.61,1.74,3.16-.2,4.85-.39.34-.12,1.34-.36,2s-.59,1.49-1.13,1.73A1.93,1.93,0,0,1,34,106c-.25-.38.17-1.22.32-1.84a24.06,24.06,0,0,1,.73-2.68c.45-1.26,1-2.47,1.54-3.71Z"/><path class="cls-1" d="M241.74,131.74c-.74,2.81-2,4.85-.23,7a1.61,1.61,0,0,1-.23,1.38,2.85,2.85,0,0,1-2-.05c-.46-.28-1-1.36-.81-1.66,1.15-1.81.79-3.42-.22-5.11-.17-.28.05-1.18.21-1.21A30,30,0,0,1,241.74,131.74Z"/><path class="cls-1" d="M230.66,123.34c-.84,1-1.68,2-2.53,3-.07.07-.3,0-.54,0-.24-.69-.49-1.42-.75-2.15-.63-1.7.87-4.78,2.62-5.27a1.13,1.13,0,0,1,1,.27,2.44,2.44,0,0,1,.14,1.3c-.07.82-.21,1.64-.32,2.45Z"/><path class="cls-1" d="M212.26,178.73c-.24-.56-.39-1-.6-1.43a3.72,3.72,0,0,1,2-5.09,1.16,1.16,0,0,1,1.06.46C215.46,174.5,214.3,177.46,212.26,178.73Z"/><path class="cls-1" d="M268.62,176.86c.91.27,2.51.38,2.61.83a20.91,20.91,0,0,1,.13,4.64c-1.52-.94-2.49-1.46-3.37-2.12-2.13-1.6-.12-2.4.72-3.43Z"/><path class="cls-1" d="M44.77,98.58a33.26,33.26,0,0,1-3.61,1c-.34.06-1-.52-1.13-.93s.16-1.28.46-1.38a17.65,17.65,0,0,1,4.37-1,2.33,2.33,0,0,1,1.7,1.41c.12.41-.79,1.13-1.24,1.71Z"/><path class="cls-1" d="M217.75,162.8c.06.45.3,1,.13,1.35a15.89,15.89,0,0,1-1.45,2.15c-.71-.62-2.11-1.52-2-1.8a22.3,22.3,0,0,1,2.31-3.67l1.55,1.55Z"/><path class="cls-1" d="M13,180.64a31.32,31.32,0,0,1,.32,4c0,.6-.42,1.58-.82,1.67a3,3,0,0,1-2.31-.4,2.11,2.11,0,0,1-.32-2A24.57,24.57,0,0,1,13,180.64Z"/><path class="cls-1" d="M21.83,152.62c0,1,0,1.92,0,2.87,0,.72.05,1.66-.35,2.08a2,2,0,0,1-1.95,0c-.59-.47-1.33-1.69-1.11-2.06A23.91,23.91,0,0,1,21.29,152Z"/><path class="cls-1" d="M42.14,142.54a19.53,19.53,0,0,1,2,3.25c.21.57-.15,1.92-.47,2a5.35,5.35,0,0,1-2.85-.23c-.22-.07-.19-1.35,0-2A25.25,25.25,0,0,1,42.14,142.54Z"/><path class="cls-1" d="M227.42,136.06c-.66.4-1.54,1.26-1.93,1.08a13.84,13.84,0,0,1-2.78-2.17c.53-.58,1.26-1.74,1.56-1.64a17.92,17.92,0,0,1,3.23,1.83Z"/><path class="cls-1" d="M209.08,189.14a40.14,40.14,0,0,1,.5,4.24c0,.38-.68,1.1-1,1.08a3.69,3.69,0,0,1-2.29-.76,2.13,2.13,0,0,1-.18-2.09A18.72,18.72,0,0,1,209.08,189.14Z"/><path class="cls-1" d="M240.45,160.88c-1.69-.54-3.11-2.45-2.36-3.55a3.43,3.43,0,0,1,2.54-.87c.33,0,1,1.14,1,1.68A11.1,11.1,0,0,1,240.45,160.88Z"/><path class="cls-1" d="M240,177.93l2.37,2.64c-.85.6-1.66,1.57-2.56,1.66-.58.07-1.77-1.11-1.82-1.79S239,179.07,240,177.93Z"/><path class="cls-1" d="M239.5,190.89a20.73,20.73,0,0,1-1.43-3.43c-.11-.49.5-1.65.8-1.65a5.12,5.12,0,0,1,2.57.7c.29.17.38,1.21.15,1.62A22.82,22.82,0,0,1,239.5,190.89Z"/><path class="cls-1" d="M48,108.6a4.34,4.34,0,0,1-.94-.92,1,1,0,0,1,.23-1c.22-.2.87-.28,1-.13a23.73,23.73,0,0,1,2.49,3.36c.12.22-.64,1.32-1.11,1.42A6.76,6.76,0,0,1,47.3,111Z"/><path class="cls-1" d="M42.13,133.14a23.94,23.94,0,0,1-1.53-3.52,1.89,1.89,0,0,1,.64-1.7,3.65,3.65,0,0,1,2.44.08c.26.11.19,1.41,0,2.07A22.08,22.08,0,0,1,42.13,133.14Z"/><path class="cls-1" d="M239.8,149.06c-.6-1.44-1.31-3-1.83-4.59-.06-.2.89-1.07,1.28-1a4.19,4.19,0,0,1,2.2,1c.24.22,0,1.13-.23,1.67C240.89,147,240.42,147.81,239.8,149.06Z"/><path class="cls-1" d="M26,135.65a32.62,32.62,0,0,1-.54-3.79,1.91,1.91,0,0,1,1.48-.55c.81.34,2.16,1.3,2.08,1.51a16.91,16.91,0,0,1-2,3Z"/><path class="cls-1" d="M242.45,194.27c-.76.36-1.71,1.18-2.23,1-.92-.38-1.57-1.4-2.33-2.15.55-.48,1.23-1.44,1.62-1.34a13.65,13.65,0,0,1,3,1.57Z"/><path class="cls-1" d="M42.23,154.81c1.82,1.36,3.06,2.55,2,4.1-.37.55-2.65.61-3.2.05C39.13,157,42.43,156.71,42.23,154.81Z"/><path class="cls-1" d="M42.64,160.3a11.14,11.14,0,0,1,1.52,2.79,2.79,2.79,0,0,1-.62,2.35c-.57.34-1.64-.17-2.5-.31a16.38,16.38,0,0,1,.4-2.24A24.9,24.9,0,0,1,42.64,160.3Z"/><path class="cls-1" d="M229.66,128.89c-1.43.84-2.33,1.77-2.84,1.58a3.75,3.75,0,0,1-1.81-2.08c-.11-.27,1.1-1.56,1.5-1.47C227.41,127.13,228.18,127.91,229.66,128.89Z"/><path class="cls-1" d="M240.14,207.82c.44,1.53,2.93,2.77.68,4.5a1.91,1.91,0,0,1-1.82-.24C237.24,210.24,239.41,209.2,240.14,207.82Z"/><path class="cls-1" d="M49.69,112.78c.93.79,1.89,1.52,2.72,2.37.22.22.18,1.13,0,1.22a4.71,4.71,0,0,1-2.34.71c-.43,0-1.11-1-1.1-1.5A10.9,10.9,0,0,1,49.69,112.78Z"/><path class="cls-1" d="M25.3,140.8l-.85,4.42-3.63-2Z"/><path class="cls-1" d="M11.89,192c-1.6.11-3.29,1-3.9-1.1-.15-.52.7-1.92,1.09-1.91C10.7,189,11.85,189.84,11.89,192Z"/><path class="cls-1" d="M19.48,159.26c-1,1.34,2.5,2.54-.05,3.75-.63.3-1.8-.53-2.71-.84l2.12-3.2Z"/><path class="cls-1" d="M220.38,158.29c-1.12.85-1.95,1.74-2.17,1.6a13.12,13.12,0,0,1-2.29-2.07c.45-.46,1-1.38,1.33-1.29A17.87,17.87,0,0,1,220.38,158.29Z"/><path class="cls-1" d="M67,162.64c.85,1.13,1.72,1.8,1.64,2.33-.11.68-.95,1.71-1.51,1.74a2.29,2.29,0,0,1-1.8-1.45C65.23,164.62,66.12,163.88,67,162.64Z"/><path class="cls-1" d="M215.8,167.76a9.39,9.39,0,0,1,.22,2.91c-.08.36-1.42.81-2,.61s-1.29-1.42-1.11-1.75a9.39,9.39,0,0,1,2.06-2.07Z"/><path class="cls-1" d="M25.06,135.94l2.1,2.58c-.57.42-1.31,1.3-1.69,1.16A4,4,0,0,1,23.55,138C23.42,137.73,24.31,136.91,25.06,135.94Z"/><path class="cls-1" d="M7.26,195.68l2.85,2.63c-.45.33-1.09,1.05-1.32.94a12.39,12.39,0,0,1-2.6-1.9A10.83,10.83,0,0,1,7.26,195.68Z"/><path class="cls-1" d="M63.73,156.14l-2.33-2c.64-.46,1.38-1.38,1.9-1.27.82.18,1.5,1,2.24,1.62Z"/><path class="cls-1" d="M243,151.16c-1,.76-1.67,1.61-2.24,1.57-.76-.06-1.47-.81-2.21-1.27.68-.68,1.27-1.62,2.09-2C241,149.35,241.87,150.34,243,151.16Z"/><path class="cls-1" d="M242,127.46c-.81.3-1.67.91-2.42.8-.6-.09-1.07-1-1.6-1.62.63-.46,1.29-1.31,1.88-1.26.77.06,1.48.83,2.22,1.29Z"/><path class="cls-1" d="M232.51,116.88c-.67.41-1.41,1.23-2,1.12a3.94,3.94,0,0,1-2-1.6c-.1-.12.76-1.41,1-1.36a15.39,15.39,0,0,1,2.89,1.09Z"/><path class="cls-1" d="M237.51,100.76c-1.67.84-3.09,1.2-4.24-.25-.18-.23.37-1.49.8-1.64C235.74,98.29,236.62,99.4,237.51,100.76Z"/><path class="cls-1" d="M67.72,159.7c-1.37.77-2.1,1.44-2.89,1.52-.48.05-1-.83-1.58-1.29.67-.55,1.26-1.33,2-1.55C65.74,158.25,66.46,159,67.72,159.7Z"/><path class="cls-1" d="M44.67,208.1,42,210.37c-.5-.59-1.26-1.13-1.4-1.79-.1-.46.66-1.56,1.05-1.57C42.46,207,43.26,207.54,44.67,208.1Z"/><path class="cls-1" d="M44.8,103.14c1.44,0,2.24-2.52,3.68-.44a2,2,0,0,1-.27,1.94C47,105.17,45.61,105.29,44.8,103.14Z"/><path class="cls-1" d="M213.85,181.76c-1.35.62-2.17,1.32-2.61,1.14-.72-.31-1.2-1.19-1.78-1.83.45-.4,1-1.22,1.33-1.12A17.3,17.3,0,0,1,213.85,181.76Z"/><path class="cls-1" d="M42.4,150.41l1.85,2.06a6.94,6.94,0,0,1-2.32,1.08c-.47,0-1-.88-1.5-1.37Z"/><path class="cls-1" d="M28.45,125.54l2.12,2.19c-.57.35-1.33,1.13-1.65,1a9.79,9.79,0,0,1-2.15-1.85Z"/><path class="cls-1" d="M32.49,122.09c-1.09.7-1.79,1.5-2.26,1.38-.76-.19-1.37-1-2-1.52.57-.43,1.15-1.21,1.71-1.2S31.29,121.43,32.49,122.09Z"/><path class="cls-1" d="M236.3,106c-1.19.66-1.91,1.38-2.38,1.24-.72-.21-1.27-1-1.89-1.56.51-.48,1.11-1.42,1.53-1.35C234.35,104.42,235,105.14,236.3,106Z"/><path class="cls-1" d="M8.56,203.86c-.79.71-1.34,1.39-1.5,1.31a26.79,26.79,0,0,1-2.66-1.72c.46-.41,1-1.25,1.36-1.16A14.31,14.31,0,0,1,8.56,203.86Z"/><path class="cls-1" d="M239.41,177c-.41-1-1.13-1.9-.9-2.35a3,3,0,0,1,2-1.35c.46-.06,1.06.85,1.59,1.32Z"/><path class="cls-1" d="M242.11,200.31a8.37,8.37,0,0,1-2.43.74c-.44,0-.88-.83-1.31-1.28.66-.43,1.29-1.14,2-1.21.55-.06,1.19.66,1.79,1Z"/><path class="cls-1" d="M207.89,185.35l3.22,2c-.42.47-.86,1.36-1.26,1.34C208.4,188.69,207.54,187.88,207.89,185.35Z"/><path class="cls-1" d="M43.76,103.66l-.4,2.48L40,104.31,43.25,103Z"/><path class="cls-1" d="M239.93,110.72c-.72-1-1.53-1.59-1.5-2.16s1.16-1.42,1.52-1.3a3,3,0,0,1,1.51,1.69C241.56,109.19,240.73,109.83,239.93,110.72Z"/><path class="cls-1" d="M44.11,110.58c-.62.32-1.28,1-1.84.89s-1.32-.78-2-1.21c.45-.4.91-1.15,1.36-1.14a8.53,8.53,0,0,1,2.42.74Z"/><path class="cls-1" d="M21.27,152.05c-.43-1-1.11-1.87-.92-2.43s1.25-1,1.93-1,1.15.74,1.72,1.15Z"/><path class="cls-1" d="M245.83,104.35l1.6,1.51c-.59.42-1.17,1.15-1.78,1.16s-1.24-.67-1.87-1Z"/><path class="cls-1" d="M242.63,99.71l3.08,1c-.35.57-.59,1.48-1.07,1.63-1.5.48-2.09-.52-2.4-1.71Z"/><path class="cls-1" d="M232.21,112.7l-2-2c.38-.31.89-1,1.12-.86a14.12,14.12,0,0,1,2.26,1.36Z"/><path class="cls-1" d="M240,122.78l-1.51-1.6a12.08,12.08,0,0,1,2.27-1.36c.22-.08.77.74,1.16,1.15Z"/><path class="cls-1" d="M238.38,96.49l-3.27-.83c.32-.56.57-1.53,1-1.61C237.4,93.8,238.4,94.31,238.38,96.49Z"/><path class="cls-1" d="M239.81,214.79l1.75,2c-.39.3-1,.94-1.15.84a7.28,7.28,0,0,1-1.74-1.59A14,14,0,0,1,239.81,214.79Z"/><path class="cls-1" d="M241.73,103.87c-.51-.16-1-.29-1.51-.48s-1.14-.47-1.71-.72a6,6,0,0,1,2.09-.54c.59.07,1.1.71,1.65,1.09Z"/><path class="cls-1" d="M160.68,315.72l-5.83,1.54-.27-.93,5.78-1.7Z"/><path class="cls-1" d="M155.84,318.43l4.51-1.73.43,1.11-4.54,1.72Z"/><path class="cls-1" d="M140,99.56c-.15,0-.28,0-.3,0-.4-.68-1.1-1.35-1.13-2-.06-1.62,2.07-3.36,3.84-3.09.67.1,1.24,1,1.81,1.52.07.07-.07.49-.22.62-1.11,1-2.25,1.9-3.39,2.82A1.46,1.46,0,0,1,140,99.56Z"/></svg>