<svg xmlns="http://www.w3.org/2000/svg" viewBox="0 0 317.198 363.457"><defs><style>.\32 159e742-6d5b-443f-958c-c8d62cd8032f{fill:#ee3a27;}</style></defs><title>6Artboard 8</title><g id="86f4bdab-1485-461d-877a-e30da831f851" data-name="Layer 8"><g id="2c615b29-ab79-433e-8b08-4c61459f0e48" data-name="Artwork 2"><path class="2159e742-6d5b-443f-958c-c8d62cd8032f" d="M49.61,79.5c-1.019-2.141-1.9-2.427-5.212-.692a25.946,25.946,0,0,0,3.266,2.215c4.052,1.9,4.229,2.263,2.68,6.329a6.994,6.994,0,0,0-.466,2.349c-.04,3.115.554,6.414-3.358,8.366,3.231.445,3.154,2,2.65,4.185-.265,1.153.522,2.548.99,4.473-.885-.759-1.513-1.248-2.084-1.8-1.586-1.521-2.665-1.156-3.445.884a5.909,5.909,0,0,1-2.09,2.29c-.179.134-1.573-.846-1.519-1a13.528,13.528,0,0,1,1.463-2.752c.276-.427,1.034-.73,1.047-1.108q.154-4.291.068-8.59A40.753,40.753,0,0,0,43.155,90a17.44,17.44,0,0,0-.672-2.97c-.6-1.846-.892-3.563,1.157-4.863L45.011,86.4l4.16-2.112a9.055,9.055,0,0,0-1.92-1.721c-1.787-.881-3.5-1.629-4.1-3.874-.139-.52-1.592-.923-2.46-.963-1.866-.088-3.746.176-5.617.148-2.421-.038-4-1.569-3.969-3.775.034-2.368,1.632-2.961,3.619-2.984,3.394-.039,6.789-.045,10.183-.064q37.658-.213,75.314-.416c6.692-.031,13.385.06,20.078.07a5.162,5.162,0,0,0,1.786-.294,24.6,24.6,0,0,0,4.154-1.782,4.346,4.346,0,0,0,1.961-2.272c.329-1.35-.12-2.878.137-4.26.383-2.053,1.169-4.026,1.647-6.066a37.965,37.965,0,0,0,1.454-7.519c.163-6.69-.471-13.429.138-20.063.269-2.928-.579-5.641-.229-8.463.284-2.289-1.127-3-3.1-2.987a16.34,16.34,0,0,0-2.391.29c-4,.622-5.354-.169-6.583-3.962-.632-1.951-1.264-3.908-1.751-5.9-.577-2.356.221-4.02,2.713-4.675,11.4-2.994,22.809-4.154,34.282-.379,6.184,2.035,6.218,2.082,4.315,8.409-.231.769-.437,1.548-.707,2.3-1.576,4.409-2.554,4.96-7.2,4.094-4.134-.771-4.849-.318-4.9,3.808-.1,7.859-.043,15.721-.058,23.582,0,1.072-.119,2.149-.046,3.214.2,2.889.5,5.771.7,8.66.2,2.929.485,5.865.436,8.793-.029,1.737.722,2.272,2.095,3.138,4.15,2.615,8.638,2.038,13.092,2.011q44.5-.272,89.006-.587,4.287-.03,8.573-.216a2.9,2.9,0,0,1,3.312,2.75c.291,1.809.477,3.912-1.673,4.548a19.773,19.773,0,0,1-6.272.587c-2.33-.087-4.417-.257-5.667,2.332-.377.781-1.523,1.171-2.266,1.8-1.126.955-2,2.018-.985,3.776l3.339-1.355-.507-2.557c2.855-.008,3.958,1.59,3.141,4.019a15.627,15.627,0,0,0-.882,4.369c-.131,3.783-.082,3.854-3.118,6.288a8.722,8.722,0,0,1,1.634,1.182c.5.577,1.321,1.606,1.132,1.929-1.663,2.835.332,4.527,1.86,6.252-1.077,1.38-1.988,2.672-3.046,3.831a2.126,2.126,0,0,1-1.634.594,5.994,5.994,0,0,1-1.8-.961c.542-.229,1.072-.491,1.629-.675a6.233,6.233,0,0,1,1.219-.112l-1.016-2.31,1.895-.951c-1.168-2.079-4.4,1.136-4.918-2.18-.3-1.909-1.5-3.946,1.46-4.883-1.116-4.359-2.395-8.488-3.122-12.711-.226-1.312,1.044-2.882,1.751-4.636-1.146-2.714-3.516-2.988-6.69-2.85-15.44.672-30.893,1.1-46.345,1.458-11.063.257-22.133.435-33.2.348-9.248-.072-13.614,3.842-13.639,14.1-.065,27.429.182,54.858.218,82.287.024,18.223-.143,36.446-.149,54.669-.009,25.64.1,51.281.063,76.922-.013,10.093-.31,20.185-.347,30.279a2.785,2.785,0,0,0,1.686,2.029,139.5,139.5,0,0,0,35.051,3.374c12.136-.246,24.282-.057,36.424-.052,3.345,0,5.212,1.163,6.275,4.307a19.889,19.889,0,0,1,1.012,5.5,5.958,5.958,0,0,1-5.7,6.016c-6.216.445-12.458.657-18.691.7-7.053.046-14.108-.179-21.161-.332-8.6-.186-17.162-.215-25.413,2.793a15.29,15.29,0,0,1-3.927.812,120.356,120.356,0,0,1-29.107-.618,128.445,128.445,0,0,0-16.946-1.936c-12.491-.312-24.994-.154-37.492-.172-4.094,0-8.214.336-12.273-.025-3.615-.323-6.812-3.493-6.447-6.066.8-5.664,2.38-9.412,6.34-9.7,4.267-.311,8.522-1.044,12.788-1.093,13.043-.148,26.1.234,39.128-.177,6.733-.213,13.418-1.737,20.142-2.52,2.218-.259,2.662-1.279,2.616-3.329-.238-10.54-.475-21.083-.45-31.625.1-42.182.356-84.363.44-126.545.054-27.252-.1-54.5-.139-81.756,0-2.143.136-4.286.2-6.429.186-6.23-3.085-10.219-9.356-10.807-3.894-.364-7.844-.091-11.768-.156-17.42-.287-34.841-.552-52.26-.913-7.141-.148-14.277-.6-21.418-.725C53.181,78.253,51.587,79.01,49.61,79.5Zm47.251-4.652-.719,2.215c1.605-.466,2.987-1.37,4.011-1.067,2.871.849,5.508.077,6.981-2.761a12.309,12.309,0,0,0-10.376,1.708l.565-1.194c-9.242-.714-18.354-1.5-27.332,1.326L68.91,73.2,65.7,75.787l.362.73c1.456,0,2.918.072,4.367-.036.558-.042,1.285-.869,1.6-.7,3.955,2.1,8.164.625,12.23.921C88.547,77.011,92.876,76.953,96.861,74.851Zm65.966,41.166c-5.6,1.136-5.965,5.028-5.839,9.555.24,8.563.129,17.137.161,25.706.059,15.265.189,30.53.149,45.8-.03,11.431-.35,22.86-.416,34.291-.07,12.146,0,24.292.021,36.437q.06,36.584.107,73.165c0,1.67.794,2.211,2.238,2.322,2.53.2,3.7-.977,3.673-3.635-.129-14.2-.345-28.4-.342-42.6,0-23.047.2-46.094.236-69.141q.066-47.976.012-95.952ZM150.6,65.719l.787.518c.967-1.153,1.725-2.862,2.951-3.321a2.574,2.574,0,0,0,2.021-2.862c.1-8.038.274-16.076.4-24.114.1-6.426.127-12.854.3-19.278A11.1,11.1,0,0,1,159.6,9.177a31.512,31.512,0,0,1,.625,3.469c.227,4.906.567,9.816.551,14.724-.034,10.271-.059,20.551-.524,30.807-.177,3.892,2.918,4.764,4.79,6.993a40.2,40.2,0,0,0-.586-7.826c-.277-1.731-1.072-3.429-1.08-5.144-.046-10.274.064-20.549.13-30.823.033-5.3,1.562-6.9,6.833-6.06,3.1.495,4.272-1.007,5.263-3.239a16.2,16.2,0,0,0,.969-3.335c.639-3.132.082-4.021-3.057-4.666-2.8-.574-5.6-1.16-8.436-1.452a68.531,68.531,0,0,0-7-.048,8.241,8.241,0,0,0,3.183.849c3.906.792,7.832,1.537,11.659,2.623A3.227,3.227,0,0,1,174.329,8.9c-.407,1.424-1.752,3.8-2.456,3.715a97.813,97.813,0,0,1-10.889-2.4l.173-.933a54.116,54.116,0,0,1,7.357,1.284c3.68,1.153,4.259.857,4.185-3.345l-2.04.938c-1.108-1.518-6.886-2.667-8.543-1.786l-1.427-2.15-1.312,2.683-.391-.936c-4.414-.337-8.734.89-13.1,1.378-.255,2.822.24,3.3,3,3,2.368-.259,4.742-.474,7.112-.708l.491,1.125a9.312,9.312,0,0,1-1.021.338c-2.871.605-5.734,1.259-8.626,1.728a1.989,1.989,0,0,1-1.577-1.068c-.732-2.117-1.259-4.3-1.873-6.512-2.406.449-2.908,1.21-2.173,3.831,1.551,5.537,1.551,5.537,7.146,5.64,3.48.064,5.439,1.707,5.574,5.138.13,3.285-.157,6.584-.173,9.878-.033,6.787.062,13.577-.052,20.363-.031,1.834-.085,4.042-1.063,5.412C150.348,58.746,150.758,62.23,150.6,65.719Zm-.3,276.521c-1.891.13-3.277.106-4.618.34-4.481.782-8.921,2.175-13.421,2.39-9.718.463-19.463.334-29.2.462-2.054.027-4.538-.6-6.067.331a9.7,9.7,0,0,1-8.074.856c-4.291-1.315-8.058,1.1-12.109.77-.338-.028-.722.5-1.449,1.051.921.11,1.342.2,1.764.2q9.228.09,18.456.157c9.736.06,19.474-.01,29.206.208a83.928,83.928,0,0,1,13.035,1.228c11.057,2,22.115,3.673,33.18.507A74.4,74.4,0,0,1,191.95,348.3c.894,0,2.439-.705,2.563-1.313.349-1.706-1.085-1.745-2.433-1.9-6.992-.812-13.972-1.729-20.955-2.618-1.813-.231-3.622-.5-6.113-.84a11.793,11.793,0,0,0,1.2,2.676c1.547,1.71,1.058,3.092-.829,3.732a27.07,27.07,0,0,1-15.271.27c-2.319-.562-2.453-2.042-.973-3.985A21.077,21.077,0,0,0,150.305,342.24Zm2.148.1.778-.138c.06-.839.169-1.678.172-2.517q.108-35.107.2-70.216.1-34.968.19-69.935c.013-12.86-.153-25.72-.137-38.579.019-14.738.165-29.474.2-44.211a8.482,8.482,0,0,0-.8-2.474l-.954.224c-.066.928-.191,1.857-.19,2.785q.029,33.486.075,66.971-.01,41.944-.1,83.888c-.01,6.789-.052,13.578-.076,20.367q-.091,25.728-.142,51.456A8.04,8.04,0,0,0,152.453,342.336ZM133,76.793l.109,1.189c6.639-.445,13.106-.406,17.61,5.829a35.548,35.548,0,0,0,.374-6.8c-.179-5.856-.214-6.353,5.4-6.517,8.126-.238,9.053-1.442,8.412,7.708-.112,1.585-.016,3.184-.016,5.31l11.324-10.63a16.243,16.243,0,0,1-1.955-.438c-1.414-.5-2.818-1.034-4.2-1.62a16.72,16.72,0,0,1-2.835-1.427c-1.5-1.008-2.918-2.13-4.347-3.237-.806-.626-1.547-1.858-2.345-1.881-3.158-.091-6.542-.5-8.494,3.069a4.969,4.969,0,0,1-2.095,1.573c-3.823,2.02-7.675,3.985-11.633,6.028l-.569-1.548Zm28.434,280.718c-1.446.487-3.561.66-3.759,1.369-.609,2.176-2.119,1.377-3.159,1.21-.454-.073-.842-1.537-.965-2.411-.12-.857.267-1.778.2-2.652-.127-1.549-1.8-1.874-2.156-1.013a15.525,15.525,0,0,0-.925,6.042c.007.526,1.691,1.491,2.583,1.467,4.627-.126,9.252-.437,13.863-.849a13.014,13.014,0,0,0,3.357-1.365c1.444,1.844,2.8.27,4.214-.726,1.346-.951,2.58-2.282,5.191-1.391l-3.092,1.5a10.481,10.481,0,0,0,4.558-.688c.866-.341,2.164-1.14,2.189-1.777a34.424,34.424,0,0,0-.6-6.239c-.022-.149-.818-.323-1.216-.257a38.53,38.53,0,0,0-6.287,1.213,54.107,54.107,0,0,1-17.389,2.529c-2.98.027-3.618,1-2.526,4.731l.482-3.272h3.86l-2.363,1.521.076.6Zm-72.2-.777-.045-.835h15.08l-.024-.779c-5.027-.243-10.066-.35-15.078-.779-3.04-.26-5.177.5-6.353,4.153,12.824-.831,25.551,1.544,38.849-1.9l-3.9-.888,3.953-2.132-2.469-1.41,2.036-1.618H82.638l-.143.578,4.221,1.144-3.1.415a1.717,1.717,0,0,0,1.382.913c1.8.014,3.474-1.08,4.929-1.338,4.289-.757,8.8-.27,13.22-.27l-.01.375-5.857.54.044.993a20.613,20.613,0,0,0,2.757.248c3.3-.131,6.6-.52,9.9-.443,1.724.041,3.429.852,5.143,1.314l-.172,1.021c-5.281.4-10.555.956-15.843,1.157C95.824,357.313,92.522,356.9,89.229,356.734ZM153.359,74.6l-.889.2c0,5.384-.06,10.769.088,16.149.016.571,1.226,1.537,1.931,1.584a34.019,34.019,0,0,0,6.932-.188,2.9,2.9,0,0,0,1.683-2.139c.352-3.713.5-7.448.6-11.179a37.75,37.75,0,0,0-.374-4.408l-1.024-.025c-.742,3.176-1.382,6.382-2.3,9.507-.239.816-1.418,2-2.014,1.919a3.561,3.561,0,0,1-2.409-1.922,21.929,21.929,0,0,1-.776-4.717l3.323-1.062.58.675a7.343,7.343,0,0,0-1.624,1.393,4.52,4.52,0,0,0-.89,2.441c.034.6.879,1.158,1.362,1.734.584-.575,1.5-1.056,1.694-1.742a67.015,67.015,0,0,0,1.893-8.339,2.741,2.741,0,0,0-1.369-2.3,7.447,7.447,0,0,0-4.572.142c-.772.389-.74,2.373-1,3.392Zm79.876-1.164-.662-.964c-5.694,0-11.408-.26-17.072.158-1.708.126-3.277,2.134-5.25,3.519,1.018.547,1.241.774,1.457.768,5.8-.164,11.613-.169,17.385-.665C230.544,76.128,231.858,74.418,233.235,73.436ZM203.183,351.889l.016,1.227c2.088,0,4.239-.313,6.246.09,1.936.389,3.723,1.517,5.576,2.32l-.19.584-4.218.337.037.839h16.658l.009-.529h-6.26a10.773,10.773,0,0,1,.948-2.186,3.172,3.172,0,0,1,1.012-.783,17.145,17.145,0,0,1-2.2-2.419c-.823-1.348-4.63-2.251-5.291-.915-1.109,2.238-2.876,1.312-4.381,1.394C208.5,351.993,205.838,351.889,203.183,351.889ZM157.626,103.7a5.4,5.4,0,0,0-5.03,5.51,5.138,5.138,0,0,0,5.332,5.157c3.2-.216,5.209-2.351,5.077-5.387A5.508,5.508,0,0,0,157.626,103.7Zm5.254-.56c0-1.749.1-3.506-.036-5.244-.089-1.123-.189-2.744-.892-3.2a4.2,4.2,0,0,0-3.687-.272,4.37,4.37,0,0,0-1.484,3.35C156.814,101.879,158.263,103.1,162.88,103.139Zm51.576,242.046-.016.243a8.5,8.5,0,0,0-2.125.037,13.622,13.622,0,0,0-2.3,1.063c.694.738,1.31,1.992,2.1,2.114a29.649,29.649,0,0,0,6.383.112c.6-.039,1.681-.989,1.606-1.286a2.778,2.778,0,0,0-1.444-1.849A22.622,22.622,0,0,0,214.456,345.185Zm-13.391,3.143v.124a15.763,15.763,0,0,0,3.2-.055,6.927,6.927,0,0,0,2.008-1.251c-.6-.641-1.142-1.768-1.8-1.835a40.75,40.75,0,0,0-7.2-.077c-.591.044-1.1,1.137-1.651,1.748.566.449,1.083,1.18,1.706,1.286A22.706,22.706,0,0,0,201.065,348.328Zm-53.87,6.359c-.388-.455-.812-1.388-1.332-1.445a2.105,2.105,0,0,0-1.734,1.125,28.981,28.981,0,0,0-.492,5.229c-.008.34.62.92,1.018.981a1.412,1.412,0,0,0,1.166-.722C146.335,358.268,146.7,356.631,147.2,354.687ZM46.759,87.467c-1.527,1.749-2.125,3.439-1.412,5.36a2.222,2.222,0,0,0,1.5,1.246c.373.045,1.09-.773,1.247-1.32C48.613,90.926,48.767,89.092,46.759,87.467Zm112.4,261.507c1.044-1.044,2.317-2.091,2.214-2.25-.643-1-1.473-2.185-2.49-2.5-.533-.162-1.572,1.331-2.383,2.077ZM152.314,104.9c1.9-3.125,1.81-8.86,0-10.326ZM231.72,357.312l.521.6,4.286-3.994C233.4,353.212,233.4,353.212,231.72,357.312ZM210.114,74.506l-7.1,1.575C205.675,78.03,208.506,77.591,210.114,74.506ZM235.982,351.98l-.109-1.037-5.626.447C232.22,353.132,234.141,353.949,235.982,351.98ZM257.589,75.1c3,.771,4.535-.277,4.966-3.33ZM147.768,3.447l.068,1.032,8.787-1.174-.151-.967Zm93.163,69.742-.816-1.118-4.55,3.247.842,1.156Zm27.578,15.05-.769-.009c-1.238,2.447-1.208,2.775.769,4.328Zm.842-9.742-.605-1.162c-.84,0-2.141-.32-2.415.074-.412.594-.107,1.687-.107,3.187Z"/><path class="2159e742-6d5b-443f-958c-c8d62cd8032f" d="M47.823,229.937c-.723-1.374-1.208-2.262-1.662-3.165-.309-.617-.994-1.49-.8-1.844,1.236-2.186.211-4.1-.313-6.15-.158-.619.579-2.082.977-2.109a7.232,7.232,0,0,1,3.178.793,7.555,7.555,0,0,1-.356,1.957c-.288,1.374-.587,2.745-.9,4.2,2.023,1.39,2.03,1.423.874,3.871,6.481.381,13.1.331,19.577,1.277,6.139.9,12.12,2.869,18.187,4.3a15.625,15.625,0,0,0,4.1.447c1.883-.067,3.116.045,2.9,2.546-.095,1.078.912,2.252,1.644,3.883a60.954,60.954,0,0,1-2.322,6.461c-2.829,5.949-7.523,9.339-14.066,10.786-14.4,3.185-28.921,3.073-43.473,2.173a128.266,128.266,0,0,1-17.746-2.332c-8.312-1.7-13.808-7.177-17.269-14.712A5.613,5.613,0,0,1,.4,238.286a43.27,43.27,0,0,1,3.178-5.549c1.867,0,3.55.31,5.075-.05,10.438-2.464,20.861-4.98,31.684-4.911,1.742.011,3.483.324,5.224.5l.04,1.18-3.287.851-1.941,2.44,1.516.949-1.458,1.539,1.774,1.34-1.563,1.072c.537.823,1.043,1.6,1.838,2.82-3.65.377-6.811.769-9.982,1.014-3.383.261-6.786.286-10.162.6a17.886,17.886,0,0,0-5.45,1.193c-1.933.843-3.354.477-4.471-1.033-1.546-2.089-2.9-4.32-4.681-7.016l-4.428,3.721c2.972,6.891,9.385,6.4,14.486,7.154,8.445,1.241,17.092,1.135,25.658,1.5a3.42,3.42,0,0,0,2.182-1.11c1.253-1.269,2.2-1.575,3.484.037a3.854,3.854,0,0,0,2.64,1.284c12.282.113,24.452-.843,36.353-4.151,1.9-.527,3.745-1.069,3.8-3.448.052-2.312-1.4-3.4-3.48-4.137a85.107,85.107,0,0,0-25.6-5.284C57.653,230.6,52.49,230.208,47.823,229.937Zm-33.491,7.268.243,1.126,8.048-2.263.326,1.046-7.03,2.177.145.42,8.959-1.62.151.8-5.016,1.215.163.75,18.088-1.809c-.967-3.434-2.56-6.127-.071-9.335l-21.094,4.255.11.763,5-.3.112.755Zm75.5,8.483c-5.02,1.3-6.687,3.27-6.436,7.408C86.537,252.2,89.534,248.846,89.834,245.688ZM23.77,251.856l.127-.958-7.189-.822-.114.95Z"/><path class="2159e742-6d5b-443f-958c-c8d62cd8032f" d="M312,241.069c-.149-2.659-.267-4.75-.41-7.3,2.18,1.51,3.9,2.331,5.053,3.648a3.642,3.642,0,0,1,.256,3.385c-2.2,3.662-4.356,7.465-7.231,10.565a15.624,15.624,0,0,1-7.394,3.99c-14.727,3.713-29.739,4.57-44.86,3.661-1.26-.075-2.473-.916-3.57-1.048a27.512,27.512,0,0,1-5.523.175c-4.222-.7-8.414-1.619-12.573-2.632-5.553-1.352-9.043-5.064-11.315-10.174a13.281,13.281,0,0,0-2.668-3.841c-1.378-1.395-1.715-2.57-.307-4.112.957-1.049,1.613-2.408,2.673-3.312.536-.456,1.671-.215,2.536-.275a3.875,3.875,0,0,0,.767.01c5.691-1.677,11.3-3.763,17.088-4.945a119.764,119.764,0,0,1,16.759-1.793c1.925-.116,3.9.848,5.874,1.248.88.179,1.8.182,3.293.32-.489.93-.7,1.984-1.308,2.305a3.833,3.833,0,0,1-2.444-.167c-.809-.222-1.538-.981-2.323-1.014-9.5-.4-18.839.992-28.873,2.794l2.945.845.087.566-3.5,1.21.116.824,12.729-1.806.153.615c-1.446.267-2.89.553-4.341.795-1.672.278-3.382.392-5.018.807a12.843,12.843,0,0,0-4.317,2.044l8.019-1.353.229.74-2.363,1.477.151.614c1.871-.262,3.738-.554,5.613-.781,5.218-.63,10.434-1.295,15.665-1.794a10.67,10.67,0,0,1,3.233.737l-.126,1.158c-2.329.1-4.667.384-6.986.275a59.838,59.838,0,0,0-21.924,2.79,5.757,5.757,0,0,1-2.868.218c-2.252-.479-2.441-1.361-1.126-2.869a11.335,11.335,0,0,1-2.556-2.014c-1.055-1.488-2.21-1.048-3.237-.342-1.265.869-1.745,2.324-.429,3.377a14.718,14.718,0,0,0,4.465,2.287c8.9,2.991,18.117,3.9,27.446,4.032,1.785.026,3.569.165,5.353.252.447.022,1.087.251,1.31.039,3.6-3.419,7.407-.253,11.079-.3,11.889-.165,23.451-2.239,34.906-5.164A10.323,10.323,0,0,0,312,241.069Zm-5.436,8.754c2.913-.877,4.341-3,3.889-5.8C307.616,244.991,307.2,247.357,306.561,249.823Z"/><path class="2159e742-6d5b-443f-958c-c8d62cd8032f" d="M284,149.943a10.413,10.413,0,0,1-2.011-5.286c-.263-2.252-.789-5.2-2.087-7.2-1.645-2.536-2.116-2.231-.945-5.468,4.908,3.132,4.593,1.37,2.879,5.215,1.424,1.234,3.27,2.441,1.654,4.848a1.822,1.822,0,0,0,.625,1.62c3.469,1.042,2.507,3.229,1.753,4.6.81,2.055,1.346,3.409,1.876,4.766.031.08-.009.2.036.262,1.736,2.466,3.125,4.98,2.016,8.2-.1.292,1.346.915,1.539,1.548.758,2.493,1.306,5.049,1.918,7.585.038.159-.117.381-.056.515,1.33,2.884,2.745,5.731,3.985,8.653a7.3,7.3,0,0,1,.623,3.5c-.044.4-1.885,1.148-2.311.86a4.871,4.871,0,0,1-2.145-2.826c-.251-1.905.333-3.922-1.844-5.169-.293-.168-.044-1.16-.188-1.735a5.844,5.844,0,0,0-.933-2.658c-1.154-1.14-1.968-2.087-.623-3.561.056-.061.118-.181.095-.242-1.022-2.649-2.045-5.3-3.1-7.932-.087-.215-.434-.312-.607-.51-.337-.386-.978-1.076-.9-1.17C287.859,155.071,281.055,153.274,284,149.943Z"/><path class="2159e742-6d5b-443f-958c-c8d62cd8032f" d="M270.89,227.7c1.144-.34,2.312-1.041,3.426-.963,6.667.472,13.367.824,19.967,1.811,4.991.747,9.849,2.384,15.012,3.687.4-1.11.875-2.42,1.277-3.528.686.482,1.5,1.008,2.255,1.6.446.347,1.183.857,1.13,1.19a2.412,2.412,0,0,1-1.091,1.614c-2.49,1.2-4.927,2.174-7.846.765a27.878,27.878,0,0,0-7.611-2.318,7.457,7.457,0,0,0-4.657.939c-2.229,1.341-3.779,1.192-5.37-.767a5.694,5.694,0,0,0-3.3-1.9c-2.721-.4-5.5-.363-8.26-.526-1.562-.093-3.121-.231-4.682-.348Z"/><path class="2159e742-6d5b-443f-958c-c8d62cd8032f" d="M64.463,150.121c.489.675,1.345,1.321,1.4,2.031A12.936,12.936,0,0,0,68.94,159.3c.105.132-.274.611-.365.945-.448,1.64-.568,3.092,1.245,4.182.615.37.77,1.506,1.136,2.293a10.8,10.8,0,0,1-3.393.281c-.491-.11-1.218-1.8-.968-2.144,1.383-1.925.3-2.775-1.134-3.814-.5-.358-.578-1.343-.765-2.064-.274-1.054-.2-2.305-.763-3.154-.892-1.354-2.126-2.4-1.038-4.261.232-.4-.17-1.314-.5-1.854-.309-.5-1.246-.76-1.33-1.23a27.883,27.883,0,0,1-.2-3.931c1.027.486,2.362.724,3,1.52.765.955.934,2.386,1.361,3.611Z"/><path class="2159e742-6d5b-443f-958c-c8d62cd8032f" d="M248.694,162.715c2.829,3.311-2.139,3.726-1.819,5.93a8.548,8.548,0,0,1,.391,2.83c-.072.381-1.454.92-1.971.713-.689-.277-1.694-1.622-1.568-1.8,1.577-2.21,1.072-5.068,2.03-7.117.841-1.8,1.466-3,1.32-5.1-.086-1.246,2.049-2.646,3.186-3.977.368.321,1.058.646,1.054.961-.035,2.614.707,5.532-2.364,7.153C248.885,162.347,248.856,162.457,248.694,162.715Z"/><path class="2159e742-6d5b-443f-958c-c8d62cd8032f" d="M20.528,187.061a69.883,69.883,0,0,1-2.52,8.963c-.579,1.387-2.322,2.258-1.1,4.139.133.2-.359,1.085-.379,1.079a25.214,25.214,0,0,1-3.58-1.358,3.272,3.272,0,0,1,.689-1.893c1.239-.96,2.062-1.8,1.36-3.554a3.034,3.034,0,0,1,.628-2.224,5.8,5.8,0,0,0,.9-4.367c-.171-1.371,1.7-3,2.665-4.511.489.377,1.242.665,1.409,1.154a10.572,10.572,0,0,1,.24,2.643Z"/><path class="2159e742-6d5b-443f-958c-c8d62cd8032f" d="M47.407,243.861c-3.533-2.6-1.952-4.718-.257-6.99.829,2.722,2.994,2.368,5.1,2.483,5.238.287,10.472.691,15.7,1.17a5.82,5.82,0,0,1,3.409,1.739,11.205,11.205,0,0,1-1.846.134c-5.5-.484-11.011-.973-16.51-1.522C50.52,240.628,48.035,240.185,47.407,243.861Z"/><path class="2159e742-6d5b-443f-958c-c8d62cd8032f" d="M298.037,241.069l-26.2-2.19c-.23-1.509.853-2.267,2.339-2.081,7.236.906,14.458,1.923,21.673,2.988C296.581,239.894,297.228,240.578,298.037,241.069Z"/><path class="2159e742-6d5b-443f-958c-c8d62cd8032f" d="M87.338,215.994c0,1.473-.292,2.406.048,2.827a10.957,10.957,0,0,1,2.227,7.4c0,.491.829.94,1.073,1.5.318.727.823,2.009.56,2.229a3.385,3.385,0,0,1-2.536.736c-.435-.091-.7-1.372-.891-2.153-.158-.662.165-1.556-.17-2.038-1.194-1.716-2.644-3.179-1.6-5.648.2-.477-1.348-1.611-1.942-2.537-.421-.658-.988-2-.813-2.132A6.906,6.906,0,0,1,86.32,214.8C86.711,214.739,87.277,215.918,87.338,215.994Z"/><path class="2159e742-6d5b-443f-958c-c8d62cd8032f" d="M47.278,215.727c-1.53-5.5-1.53-5.5-.562-6.522-2.4-4.456-2.183-6.651.869-8.956,2.161,5.018,2.173,5.538.2,9.121C50.7,211.055,50.591,213.051,47.278,215.727Z"/><path class="2159e742-6d5b-443f-958c-c8d62cd8032f" d="M300.241,197.528c-1.172-1.176-3.4-2.439-3.308-3.511.224-2.709-1.1-4.515-2.13-6.616a4.5,4.5,0,0,1,2.427-1.5c.77.041,2.184,1.348,2.089,1.878-.325,1.815.314,2.633,1.54,3.98,1.432,1.574.673,4.019-.719,5.856Z"/><path class="2159e742-6d5b-443f-958c-c8d62cd8032f" d="M79.311,200.555c2.972.222,4.569,1.782,3.808,3.751-.718,1.858.02,2.728,1.261,3.845.618.557,1.2,2.044.887,2.532a2.906,2.906,0,0,1-2.594,1.007c-.635-.187-.99-1.521-1.35-2.4a24.781,24.781,0,0,1-1.388-3.948C79.59,203.8,79.512,202.191,79.311,200.555Z"/><path class="2159e742-6d5b-443f-958c-c8d62cd8032f" d="M81.879,198.132a24.561,24.561,0,0,1-2.74.788c-1.316.186-2.064.008-2.07-1.792-.006-1.83.272-3.953-2.028-5.26-.58-.329-.087-2.548-.087-4.019,3.2.819,3.956,2.021,3.724,4.26a5.908,5.908,0,0,0,.978,3A26.742,26.742,0,0,0,81.879,198.132Z"/><path class="2159e742-6d5b-443f-958c-c8d62cd8032f" d="M275.109,120.447c1.827,1.09,4.7,1.274,2.7,4.538-.185.3,1.149,1.456,1.659,2.287a18.687,18.687,0,0,1,1.025,2.271,25.242,25.242,0,0,1-3.371.894,10.816,10.816,0,0,1-.674-1.944c-.329-.943-.389-2.267-1.056-2.753C273.161,124.116,273.779,122.511,275.109,120.447Z"/><path class="2159e742-6d5b-443f-958c-c8d62cd8032f" d="M304.011,214.8c-.342-.833-1.2-1.927-.937-2.452,1.1-2.167.085-3.4-1.38-4.757a2.538,2.538,0,0,1-.31-2.083,20.932,20.932,0,0,1,3.541-1.192c.137.833.684,1.961.336,2.446-1.218,1.7-.53,2.677.757,3.817a2.688,2.688,0,0,1,.887,2.062,11.767,11.767,0,0,1-1.384,2.881Z"/><path class="2159e742-6d5b-443f-958c-c8d62cd8032f" d="M305.328,219a6.237,6.237,0,0,1,1.63-1.206,2.66,2.66,0,0,1,2.156-.007,2.764,2.764,0,0,1,.583,2.13,26.751,26.751,0,0,1-.784,3.545c.338.295.4.358.472.412q1.29.993,2.582,1.983c-1.019.447-2.047,1.275-3.055,1.253-1.61-.037-1.838-1.053-1.709-2.781C307.321,222.747,306.115,221.068,305.328,219Z"/><path class="2159e742-6d5b-443f-958c-c8d62cd8032f" d="M39.816,122.858a16.429,16.429,0,0,1-1.426,2.8c-.966,1.239-2.364,2.215-1.041,4.083.193.272-.445,1.628-.693,1.626a4.6,4.6,0,0,1-2.608-.7,2.284,2.284,0,0,1,.059-2.021c2.276-1.011,1.557-2.857,1.56-4.573a4.21,4.21,0,0,1,.6-2.389,9.41,9.41,0,0,1,2.254-1.661Z"/><path class="2159e742-6d5b-443f-958c-c8d62cd8032f" d="M47.52,153.451a18.933,18.933,0,0,1,1.211,2.356,19.393,19.393,0,0,1,.569,2.6c-.795.033-1.8.384-2.333.025a4.155,4.155,0,0,1-1.837-2.451c-.106-.888.738-1.889.544-2.8V149.1c1.09.285,2.784.269,3.116.934.4.809-.338,2.191-.584,3.325Z"/><path class="2159e742-6d5b-443f-958c-c8d62cd8032f" d="M61.437,135.759a6.626,6.626,0,0,1-.49,1.205c-.885,1.363-.356,2.159.792,3.13.661.56.733,1.815,1.07,2.758a6.249,6.249,0,0,1-2.335.324c-1.025-.27-2.154-.516-1.779-2.338.225-1.089-.732-2.419-1.149-3.644-.228-.668-.754-1.839-.606-1.933a7.852,7.852,0,0,1,3.042-1.289c.711-.092,1.515.531,2.277.834Z"/><path class="2159e742-6d5b-443f-958c-c8d62cd8032f" d="M47.327,188.262c.755.434,1.868.7,2.1,1.309a2.518,2.518,0,0,1-.721,2.286c-1.842,1.325-1.155,2.354-.114,3.751.562.755.554,1.936.8,2.924-1.17-.043-2.478.229-3.478-.206-1.455-.633-.916-1.772-.177-2.873.936-1.394,1.89-2.857.029-4.412a2.153,2.153,0,0,1-.16-1.929C45.768,188.717,46.6,188.594,47.327,188.262Z"/><path class="2159e742-6d5b-443f-958c-c8d62cd8032f" d="M269.048,190.191c-2.6.069-3.342-1.3-2.513-3.279.355-.848.006-1.971.074-2.963.066-.958.033-2.594.436-2.725.941-.3,2.117.114,3.2.239a18.534,18.534,0,0,0-.471,2.486,16.331,16.331,0,0,0,.114,3.211c.1.7.846,1.511.646,2.009C270.3,189.735,269.345,190.006,269.048,190.191Z"/><path class="2159e742-6d5b-443f-958c-c8d62cd8032f" d="M228.891,231.892c-1.225-2.282-2.942-3.756-.008-5.208.465-.231-.05-2.371-.042-3.627,0-.707.073-2,.244-2.022a5.093,5.093,0,0,1,2.729.267c.355.167.425,1.324.324,1.987a31.762,31.762,0,0,1-1.117,5.26A17.579,17.579,0,0,1,228.891,231.892Z"/><path class="2159e742-6d5b-443f-958c-c8d62cd8032f" d="M46.015,136.028c-.373-1.691-.853-3.37-1.064-5.081a2.338,2.338,0,0,1,.764-1.97c.661-.331,1.628-.05,2.464-.032a8.635,8.635,0,0,0-.29,2.012c.148,1.666.446,3.318.651,4.979.089.718.1,1.447.141,2.17a5.26,5.26,0,0,1-2.181.044c-.624-.281-1.01-1.09-1.5-1.668Z"/><path class="2159e742-6d5b-443f-958c-c8d62cd8032f" d="M41.819,109.516c.585,1.793,1.946,3.53-.215,5.411-.436.38-.145,1.5-.405,2.2-.271.727-.665,1.662-1.265,1.934a2.145,2.145,0,0,1-1.989-.68c-.28-.424.187-1.361.36-2.062a28.408,28.408,0,0,1,.809-2.994c.512-1.4,1.141-2.761,1.72-4.138Z"/><path class="2159e742-6d5b-443f-958c-c8d62cd8032f" d="M270.1,147.2c-.818,3.138-2.264,5.42-.257,7.805a1.752,1.752,0,0,1-.254,1.539,3.2,3.2,0,0,1-2.229-.049c-.521-.311-1.12-1.528-.912-1.856,1.283-2.026.888-3.823-.239-5.707a1.612,1.612,0,0,1,.231-1.357A34.235,34.235,0,0,1,270.1,147.2Z"/><path class="2159e742-6d5b-443f-958c-c8d62cd8032f" d="M257.724,137.811c-.938,1.139-1.869,2.284-2.827,3.406-.074.086-.334.011-.6.011-.27-.77-.547-1.587-.844-2.4-.7-1.9.972-5.342,2.929-5.89a1.277,1.277,0,0,1,1.143.3,2.694,2.694,0,0,1,.154,1.46c-.075.915-.235,1.823-.359,2.733Z"/><path class="2159e742-6d5b-443f-958c-c8d62cd8032f" d="M237.169,199.706c-.265-.634-.442-1.13-.673-1.6a4.176,4.176,0,0,1,2.186-5.693,1.33,1.33,0,0,1,1.191.523C240.74,194.98,239.445,198.283,237.169,199.706Z"/><path class="2159e742-6d5b-443f-958c-c8d62cd8032f" d="M300.14,197.612c1.021.3,2.8.421,2.922.932a23.374,23.374,0,0,1,.14,5.185c-1.693-1.056-2.786-1.635-3.763-2.369-2.386-1.792-.136-2.69.8-3.831Z"/><path class="2159e742-6d5b-443f-958c-c8d62cd8032f" d="M50.028,110.143a35.342,35.342,0,0,1-4.04,1.1c-.379.062-1.132-.59-1.266-1.046s.187-1.426.519-1.536a19.749,19.749,0,0,1,4.888-1.13,2.573,2.573,0,0,1,1.89,1.576c.137.46-.884,1.263-1.386,1.913Z"/><path class="2159e742-6d5b-443f-958c-c8d62cd8032f" d="M243.3,181.9c.063.51.334,1.121.145,1.509a18.548,18.548,0,0,1-1.622,2.4c-.787-.687-2.356-1.693-2.228-2a24.579,24.579,0,0,1,2.572-4.1l1.737,1.725Z"/><path class="2159e742-6d5b-443f-958c-c8d62cd8032f" d="M14.508,201.831a35.14,35.14,0,0,1,.353,4.452c-.039.67-.47,1.762-.912,1.867a3.337,3.337,0,0,1-2.588-.442,2.363,2.363,0,0,1-.353-2.3A27.635,27.635,0,0,1,14.508,201.831Z"/><path class="2159e742-6d5b-443f-958c-c8d62cd8032f" d="M24.4,170.527c0,1.071.041,2.143-.013,3.211-.041.805.057,1.857-.4,2.324A2.23,2.23,0,0,1,21.808,176c-.655-.523-1.479-1.883-1.235-2.3a27.209,27.209,0,0,1,3.213-3.838Z"/><path class="2159e742-6d5b-443f-958c-c8d62cd8032f" d="M47.087,159.271a21.293,21.293,0,0,1,2.265,3.628c.235.632-.169,2.145-.53,2.231a5.991,5.991,0,0,1-3.181-.253c-.247-.084-.212-1.506-.02-2.237A25.67,25.67,0,0,1,47.087,159.271Z"/><path class="2159e742-6d5b-443f-958c-c8d62cd8032f" d="M254.107,152.031c-.735.436-1.716,1.407-2.155,1.2a15.839,15.839,0,0,1-3.111-2.425c.594-.651,1.41-1.95,1.744-1.837a19.546,19.546,0,0,1,3.608,2.05Z"/><path class="2159e742-6d5b-443f-958c-c8d62cd8032f" d="M233.614,211.336a44.913,44.913,0,0,1,.555,4.739c.007.418-.761,1.221-1.136,1.2a4.1,4.1,0,0,1-2.563-.846,2.391,2.391,0,0,1-.2-2.336A21.269,21.269,0,0,1,233.614,211.336Z"/><path class="2159e742-6d5b-443f-958c-c8d62cd8032f" d="M268.662,179.76c-1.882-.606-3.467-2.744-2.631-3.973.465-.683,1.852-.952,2.83-.965.374,0,1.148,1.274,1.064,1.874A12.471,12.471,0,0,1,268.662,179.76Z"/><path class="2159e742-6d5b-443f-958c-c8d62cd8032f" d="M268.106,198.807l2.646,2.954c-.945.668-1.847,1.749-2.852,1.857-.652.07-1.979-1.24-2.04-2.008C265.8,200.9,267.022,200.079,268.106,198.807Z"/><path class="2159e742-6d5b-443f-958c-c8d62cd8032f" d="M267.6,213.288a23.8,23.8,0,0,1-1.589-3.833c-.129-.551.555-1.84.889-1.847a5.727,5.727,0,0,1,2.871.787c.322.187.424,1.348.169,1.816A24.99,24.99,0,0,1,267.6,213.288Z"/><path class="2159e742-6d5b-443f-958c-c8d62cd8032f" d="M53.652,121.343a4.875,4.875,0,0,1-1.051-1.031,1.182,1.182,0,0,1,.259-1.107c.242-.216.977-.307,1.122-.136a25.7,25.7,0,0,1,2.775,3.751c.14.244-.708,1.475-1.24,1.588a7.765,7.765,0,0,1-2.671-.373Z"/><path class="2159e742-6d5b-443f-958c-c8d62cd8032f" d="M47.077,148.766a26.5,26.5,0,0,1-1.71-3.934c-.143-.57.278-1.748.707-1.9a4.041,4.041,0,0,1,2.729.089c.29.125.216,1.571-.015,2.314A25.371,25.371,0,0,1,47.077,148.766Z"/><path class="2159e742-6d5b-443f-958c-c8d62cd8032f" d="M267.935,166.554c-.668-1.609-1.456-3.338-2.038-5.133-.074-.225.986-1.192,1.429-1.132a4.736,4.736,0,0,1,2.46,1.176c.268.249-.034,1.268-.264,1.864C269.156,164.275,268.633,165.16,267.935,166.554Z"/><path class="2159e742-6d5b-443f-958c-c8d62cd8032f" d="M29.069,151.571a39.285,39.285,0,0,1-.6-4.24,2.144,2.144,0,0,1,1.656-.616c.9.378,2.417,1.46,2.322,1.689a18.979,18.979,0,0,1-2.224,3.4Z"/><path class="2159e742-6d5b-443f-958c-c8d62cd8032f" d="M270.9,217.065c-.849.4-1.914,1.321-2.5,1.08-1.021-.421-1.745-1.558-2.594-2.4.612-.534,1.365-1.611,1.808-1.5A15.824,15.824,0,0,1,271.006,216Z"/><path class="2159e742-6d5b-443f-958c-c8d62cd8032f" d="M47.19,172.974c2.033,1.523,3.416,2.856,2.221,4.586-.42.607-2.963.678-3.576.052C43.72,175.455,47.4,175.094,47.19,172.974Z"/><path class="2159e742-6d5b-443f-958c-c8d62cd8032f" d="M47.647,179.109a12.335,12.335,0,0,1,1.689,3.118c.167.84-.113,2.274-.691,2.622-.631.381-1.832-.185-2.785-.338A17.492,17.492,0,0,1,46.3,182,27.444,27.444,0,0,1,47.647,179.109Z"/><path class="2159e742-6d5b-443f-958c-c8d62cd8032f" d="M256.605,144.017c-1.592.937-2.6,1.97-3.172,1.767a4.193,4.193,0,0,1-2.02-2.323c-.125-.307,1.235-1.749,1.68-1.646C254.1,142.046,254.954,142.917,256.605,144.017Z"/><path class="2159e742-6d5b-443f-958c-c8d62cd8032f" d="M268.315,232.209c.493,1.707,3.278,3.09.761,5.023a2.108,2.108,0,0,1-2.026-.261C265.074,234.907,267.507,233.751,268.315,232.209Z"/><path class="2159e742-6d5b-443f-958c-c8d62cd8032f" d="M55.517,126.013c1.038.881,2.113,1.7,3.043,2.651.242.249.2,1.265,0,1.365a5.241,5.241,0,0,1-2.615.786c-.484-.044-1.236-1.088-1.232-1.677A12.549,12.549,0,0,1,55.517,126.013Z"/><path class="2159e742-6d5b-443f-958c-c8d62cd8032f" d="M28.27,157.324l-.949,4.936-4.053-2.233Z"/><path class="2159e742-6d5b-443f-958c-c8d62cd8032f" d="M13.283,214.525c-1.788.124-3.67,1.139-4.353-1.223-.17-.585.785-2.144,1.216-2.141C11.96,211.173,13.242,212.115,13.283,214.525Z"/><path class="2159e742-6d5b-443f-958c-c8d62cd8032f" d="M21.764,177.945c-1.095,1.5,2.793,2.839-.055,4.2-.7.335-2-.591-3.031-.937l2.378-3.574Z"/><path class="2159e742-6d5b-443f-958c-c8d62cd8032f" d="M246.24,176.868c-1.249.944-2.177,1.935-2.429,1.786a15.221,15.221,0,0,1-2.556-2.319c.5-.511,1.167-1.535,1.485-1.437A19.282,19.282,0,0,1,246.24,176.868Z"/><path class="2159e742-6d5b-443f-958c-c8d62cd8032f" d="M74.821,181.72c.942,1.272,1.916,2.021,1.826,2.606-.117.762-1.054,1.91-1.686,1.941a2.577,2.577,0,0,1-2.012-1.61C72.881,183.933,73.873,183.11,74.821,181.72Z"/><path class="2159e742-6d5b-443f-958c-c8d62cd8032f" d="M241.124,187.449a10.5,10.5,0,0,1,.244,3.245c-.091.409-1.589.913-2.184.686-.617-.235-1.445-1.584-1.249-1.953a10.472,10.472,0,0,1,2.306-2.315Z"/><path class="2159e742-6d5b-443f-958c-c8d62cd8032f" d="M28,151.891l2.348,2.883c-.641.469-1.462,1.45-1.884,1.3a4.52,4.52,0,0,1-2.148-1.936C26.169,153.893,27.164,152.972,28,151.891Z"/><path class="2159e742-6d5b-443f-958c-c8d62cd8032f" d="M8.111,218.637l3.184,2.944c-.5.373-1.22,1.171-1.47,1.045A13.533,13.533,0,0,1,6.914,220.5,13.521,13.521,0,0,1,8.111,218.637Z"/><path class="2159e742-6d5b-443f-958c-c8d62cd8032f" d="M71.213,174.465,68.6,172.276c.716-.514,1.543-1.547,2.122-1.423.923.2,1.68,1.167,2.508,1.809Z"/><path class="2159e742-6d5b-443f-958c-c8d62cd8032f" d="M271.509,168.9c-1.151.852-1.867,1.8-2.5,1.752-.855-.067-1.65-.907-2.471-1.415.761-.767,1.412-1.809,2.333-2.18C269.3,166.88,270.257,167.986,271.509,168.9Z"/><path class="2159e742-6d5b-443f-958c-c8d62cd8032f" d="M270.385,142.42c-.908.332-1.865,1.009-2.708.888-.666-.095-1.193-1.171-1.781-1.811.7-.506,1.439-1.457,2.1-1.407.858.064,1.657.924,2.481,1.442Z"/><path class="2159e742-6d5b-443f-958c-c8d62cd8032f" d="M259.789,130.6c-.748.455-1.576,1.366-2.225,1.252a4.454,4.454,0,0,1-2.2-1.79c-.111-.138.85-1.575,1.157-1.52a16.869,16.869,0,0,1,3.229,1.213Z"/><path class="2159e742-6d5b-443f-958c-c8d62cd8032f" d="M265.376,112.582c-1.861.942-3.454,1.342-4.738-.282-.2-.249.417-1.663.9-1.83C263.407,109.824,264.384,111.063,265.376,112.582Z"/><path class="2159e742-6d5b-443f-958c-c8d62cd8032f" d="M75.667,178.443c-1.533.857-2.351,1.61-3.233,1.7-.536.052-1.172-.927-1.763-1.442.744-.611,1.412-1.492,2.262-1.732C73.46,176.817,74.262,177.641,75.667,178.443Z"/><path class="2159e742-6d5b-443f-958c-c8d62cd8032f" d="M49.911,232.518l-2.957,2.532c-.558-.658-1.414-1.254-1.57-2-.108-.514.744-1.744,1.178-1.749C47.443,231.292,48.331,231.9,49.911,232.518Z"/><path class="2159e742-6d5b-443f-958c-c8d62cd8032f" d="M50.053,115.246c1.616.014,2.5-2.814,4.121-.5.326.465.065,2.014-.307,2.173C52.476,117.516,50.96,117.649,50.053,115.246Z"/><path class="2159e742-6d5b-443f-958c-c8d62cd8032f" d="M238.942,203.088c-1.506.7-2.42,1.48-2.918,1.27-.805-.337-1.336-1.326-1.983-2.041.506-.447,1.166-1.362,1.489-1.256A19.327,19.327,0,0,1,238.942,203.088Z"/><path class="2159e742-6d5b-443f-958c-c8d62cd8032f" d="M47.372,168.063l2.069,2.3a7.62,7.62,0,0,1-2.591,1.207c-.529.03-1.118-.982-1.681-1.526Z"/><path class="2159e742-6d5b-443f-958c-c8d62cd8032f" d="M31.786,140.274l2.37,2.443c-.63.393-1.49,1.26-1.847,1.088a11.334,11.334,0,0,1-2.395-2.068Z"/><path class="2159e742-6d5b-443f-958c-c8d62cd8032f" d="M36.3,136.412c-1.224.79-2.005,1.677-2.527,1.545-.85-.216-1.53-1.1-2.281-1.7.639-.48,1.286-1.35,1.917-1.339C34.2,134.932,34.967,135.675,36.3,136.412Z"/><path class="2159e742-6d5b-443f-958c-c8d62cd8032f" d="M264.029,118.4c-1.328.732-2.132,1.535-2.661,1.383-.8-.231-1.419-1.125-2.114-1.737.578-.543,1.241-1.6,1.715-1.518C261.85,116.67,262.621,117.477,264.029,118.4Z"/><path class="2159e742-6d5b-443f-958c-c8d62cd8032f" d="M9.566,227.786c-.887.787-1.5,1.547-1.68,1.455a28,28,0,0,1-2.965-1.918c.512-.462,1.16-1.4,1.511-1.3A15.725,15.725,0,0,1,9.566,227.786Z"/><path class="2159e742-6d5b-443f-958c-c8d62cd8032f" d="M267.5,197.721c-.461-1.1-1.256-2.122-1.008-2.618a3.352,3.352,0,0,1,2.287-1.511c.516-.07,1.18.943,1.778,1.47Z"/><path class="2159e742-6d5b-443f-958c-c8d62cd8032f" d="M270.521,223.813a9.076,9.076,0,0,1-2.717.824c-.493,0-.978-.917-1.466-1.421.74-.485,1.446-1.275,2.23-1.36.616-.067,1.327.736,2,1.153Z"/><path class="2159e742-6d5b-443f-958c-c8d62cd8032f" d="M232.284,207.1l3.593,2.279c-.469.529-.951,1.518-1.405,1.5C232.857,210.834,231.9,209.927,232.284,207.1Z"/><path class="2159e742-6d5b-443f-958c-c8d62cd8032f" d="M48.9,115.819l-.45,2.778-3.709-2.046,3.589-1.512Z"/><path class="2159e742-6d5b-443f-958c-c8d62cd8032f" d="M268.08,123.712c-.8-1.088-1.7-1.776-1.669-2.418.028-.55,1.294-1.582,1.7-1.449a3.4,3.4,0,0,1,1.685,1.889C269.91,122.007,268.974,122.715,268.08,123.712Z"/><path class="2159e742-6d5b-443f-958c-c8d62cd8032f" d="M49.281,123.553c-.686.361-1.42,1.076-2.048.993-.781-.1-1.475-.867-2.207-1.345.508-.455,1.021-1.287,1.523-1.28a9.573,9.573,0,0,1,2.706.833Z"/><path class="2159e742-6d5b-443f-958c-c8d62cd8032f" d="M23.769,169.9c-.486-1.156-1.243-2.1-1.036-2.714.194-.585,1.4-1.137,2.163-1.133.643,0,1.282.824,1.923,1.282Z"/><path class="2159e742-6d5b-443f-958c-c8d62cd8032f" d="M274.678,116.6l1.791,1.689c-.664.465-1.318,1.277-1.994,1.3s-1.389-.748-2.084-1.17Z"/><path class="2159e742-6d5b-443f-958c-c8d62cd8032f" d="M271.106,111.405l3.437,1.138c-.391.631-.658,1.649-1.2,1.821-1.675.537-2.335-.586-2.68-1.914Z"/><path class="2159e742-6d5b-443f-958c-c8d62cd8032f" d="M259.457,125.929l-2.278-2.293c.425-.344,1-1.063,1.247-.964a16.233,16.233,0,0,1,2.535,1.522Z"/><path class="2159e742-6d5b-443f-958c-c8d62cd8032f" d="M268.185,137.187,266.5,135.4a13.591,13.591,0,0,1,2.538-1.52c.244-.088.851.831,1.292,1.289Z"/><path class="2159e742-6d5b-443f-958c-c8d62cd8032f" d="M266.353,107.811l-3.652-.93c.358-.627.629-1.709,1.089-1.8C265.255,104.807,266.376,105.372,266.353,107.811Z"/><path class="2159e742-6d5b-443f-958c-c8d62cd8032f" d="M267.949,239.991c.829.966,1.394,1.624,1.958,2.283-.442.335-1.109,1.048-1.287.941a8.4,8.4,0,0,1-1.94-1.778A14.854,14.854,0,0,1,267.949,239.991Z"/><path class="2159e742-6d5b-443f-958c-c8d62cd8032f" d="M270.091,116.057c-.56-.175-1.129-.327-1.678-.533-.648-.243-1.277-.532-1.915-.8a6.6,6.6,0,0,1,2.339-.606c.651.079,1.227.786,1.835,1.216Z"/><path class="2159e742-6d5b-443f-958c-c8d62cd8032f" d="M179.53,352.766l-6.508,1.727-.3-1.042,6.454-1.9Z"/><path class="2159e742-6d5b-443f-958c-c8d62cd8032f" d="M174.126,355.8l5.038-1.939.482,1.238-5.067,1.93Z"/><path class="2159e742-6d5b-443f-958c-c8d62cd8032f" d="M156.411,111.243c-.161,0-.305.034-.328,0-.451-.755-1.231-1.506-1.259-2.283-.067-1.816,2.312-3.756,4.291-3.454.749.114,1.384,1.074,2.022,1.7.076.075-.083.547-.253.694q-1.864,1.611-3.789,3.15A1.773,1.773,0,0,1,156.411,111.243Z"/></g></g></svg>