<svg id="Layer_1" data-name="Layer 1" xmlns="http://www.w3.org/2000/svg" viewBox="0 0 212.89 253.45"><defs><style>.cls-1{fill:#232356;}</style></defs><title>4Artboard 1</title><path class="cls-1" d="M38.76,165l-.18,0c-.8,1-2,1.67-2.66,2.86a17.56,17.56,0,0,1-2,2.47c-.46.55-1,1.07-1.43,1.61s-.82.85-1.17,1.32a3,3,0,0,0-.34.85c0,.09,0,.21-.07.29-.35.71-.72,1.42-1.08,2.13a1.39,1.39,0,0,0-.12.28,13.52,13.52,0,0,0-.34,3.53c.12,1,.16,2,.31,2.93a9.22,9.22,0,0,0,1.86,4.2,13.12,13.12,0,0,1,.91,1.53.59.59,0,0,1-.14.77c-.26.23-.47,0-.69-.13a10.6,10.6,0,0,1-3.78-4.5c-.85-.86-.61-2.11-1.09-3.1a5.68,5.68,0,0,1-.5-1.93,4.56,4.56,0,0,1,.15-1.21c0-.19.27-.4.24-.56-.24-1,.58-1.78.74-2.7a12.18,12.18,0,0,1,.3-1.19,4.31,4.31,0,0,1,.35-.86c.27-.5.57-1,.85-1.47a1,1,0,0,0,0-1.17c-.37-.52-.73-1.06-1.15-1.54a6.8,6.8,0,0,1-1.08-1.86,15.09,15.09,0,0,1-1.15-3.2,3.17,3.17,0,0,1-.13-.67,1.79,1.79,0,0,0-.31-1.1,1.34,1.34,0,0,1-.17-.58,4.2,4.2,0,0,0-.69-2.27,4.06,4.06,0,0,1-.64-1.47,2,2,0,0,0-.72-1.15A11.22,11.22,0,0,1,21.78,156a1.23,1.23,0,0,0-1-.48.66.66,0,0,1-.52-.22,4.79,4.79,0,0,0-2.36-1.41c-.81-.32-1.66-.57-2.49-.83a1,1,0,0,0-.46,0,4.22,4.22,0,0,1-2.46-.48A9.94,9.94,0,0,0,10,152a3.78,3.78,0,0,1-3.29-2.65c-.16-.41-.35-.81-.52-1.21a3.79,3.79,0,0,1-.21-.65c-.08-.3-.08-.62-.18-.91a9.46,9.46,0,0,1-.43-2.89,1.94,1.94,0,0,0-.6-1.46,2.5,2.5,0,0,1-.37-.66,4.26,4.26,0,0,0-.79-1.3,5.74,5.74,0,0,1-1.72-2.42c-.12-.26-.29-.49-.42-.74A10.69,10.69,0,0,1,.27,134a6.37,6.37,0,0,1-.22-2.38,13.43,13.43,0,0,1,.58-2.39A7.81,7.81,0,0,0,1,127.1c0-.3-.05-.6.16-.88a.91.91,0,0,0,.1-.45c0-.15,0-.35.05-.45.48-.64.45-1.46.79-2.15.26-.53.42-1.11.65-1.65.14-.33.35-.63.5-1a1.74,1.74,0,0,0,.29-.78,3.09,3.09,0,0,1,.51-1.59c.19-.38.28-.82.44-1.23s.39-.89.61-1.33a5.14,5.14,0,0,0,.5-1.77,10.84,10.84,0,0,1,.61-2.3,1.88,1.88,0,0,0,.16-1.12c-.16-.67-.28-1.35-.42-2a.69.69,0,0,1-.07-.3,5.34,5.34,0,0,0-.22-2.45c-.29-1.16-.09-2.4-.48-3.5a26.08,26.08,0,0,1-.59-3.8,29.22,29.22,0,0,1-.22-4.3.55.55,0,0,1,.06-.37,1.58,1.58,0,0,0,.18-1.62,2.37,2.37,0,0,1,.34-2c.07-.11.2-.22.2-.33a5.53,5.53,0,0,1,.68-2.09,5.15,5.15,0,0,1,.53-.91c.38-.54.67-1.15,1-1.73.48-.78,1-1.54,1.44-2.33a5,5,0,0,0,.46-1.14.94.94,0,0,1,.55-.69,1,1,0,0,0,.41-.33c.34-.6.66-1.21,1-1.82s.47-1,.73-1.43a10.22,10.22,0,0,0,.52-2.56,30.65,30.65,0,0,1,1-3.72,14.9,14.9,0,0,0,1-4A1.26,1.26,0,0,1,15,66a.51.51,0,0,0,.21-.32c.07-1.07.72-2,.9-3a3.59,3.59,0,0,1,.4-1.25,5.24,5.24,0,0,0,.71-2.27,7.35,7.35,0,0,1,.62-2.36,5.79,5.79,0,0,0,.5-2.16,5,5,0,0,1,.74-2.77,18.6,18.6,0,0,0,1-2.11c.75-1.31,1.66-2.52,2.48-3.79.39-.6.75-1.23,1.1-1.86s.66-1.27,1-1.89a1.39,1.39,0,0,1,.32-.32c.12-.13.29-.24.36-.39a36.47,36.47,0,0,1,2.09-3.77,6,6,0,0,0,.82-1.29,5.27,5.27,0,0,1,.86-1.54c.45-.59,1-1.13,1.43-1.71a5.1,5.1,0,0,0,.82-1.27,1.93,1.93,0,0,1,.56-.78c.42-.41.77-.89,1.17-1.32a3.44,3.44,0,0,1,.46-.38c.27-.23.55-.44.79-.69.5-.51,1-1.05,1.46-1.57s.87-.88,1.31-1.31a4.62,4.62,0,0,1,.41-.34,8,8,0,0,0,.78-.63c.88-.9,1.73-1.82,2.61-2.73.21-.22.47-.4.7-.6a1.71,1.71,0,0,0,.4-.35A5.78,5.78,0,0,1,44,19.29a1.16,1.16,0,0,0,.45-.61,1,1,0,0,1,.76-.7,3.25,3.25,0,0,0,1.42-.9c.39-.37.83-.69,1.25-1s.81-.7,1.25-1c.86-.57,1.75-1.09,2.61-1.66.49-.32,1-.7,1.44-1A2.26,2.26,0,0,1,54,12a5.15,5.15,0,0,0,2.48-1.31,6.44,6.44,0,0,1,.8-.47c.58-.42,1.13-.9,1.74-1.28s1.07-.48,1.59-.76a15,15,0,0,0,1.38-.85,5.14,5.14,0,0,1,2.07-1,1.37,1.37,0,0,0,.64-.38,2.6,2.6,0,0,1,1.6-.7,7.11,7.11,0,0,0,1.18-.32,6.06,6.06,0,0,1,.74-.15,6.09,6.09,0,0,0,2.1-.46,2,2,0,0,1,.9-.15,14,14,0,0,0,3.47-.33,6.3,6.3,0,0,1,1,0c.54,0,1.08,0,1.61-.1s1.06-.19,1.6-.22,1.19,0,1.78,0h.08a20.7,20.7,0,0,0,3.62-.71A21.88,21.88,0,0,1,87.1,2a6.05,6.05,0,0,0,2.32-.8.38.38,0,0,1,.27-.11,10.27,10.27,0,0,0,3-.22,6.68,6.68,0,0,0,.87-.26A12.19,12.19,0,0,0,95,.31a6.32,6.32,0,0,1,3.2-.2,5,5,0,0,0,.77,0c.3,0,.61,0,.91,0a5,5,0,0,1,2.21.4,1.51,1.51,0,0,0,.83-.1,2.84,2.84,0,0,1,2.18,0,4.07,4.07,0,0,0,2.22.15,16,16,0,0,1,2.08-.1c.88,0,1.76-.07,2.64-.08s1.86,0,2.79.06a22.38,22.38,0,0,1,4.08.39,1.85,1.85,0,0,0,1-.06,1.76,1.76,0,0,1,1.35.09,11.31,11.31,0,0,0,1.41.39l2.39.61c.15,0,.28.14.43.17,1.19.21,2.4.36,3.58.62,1.43.31,2.92.18,4.35.66a16.35,16.35,0,0,0,2.74.49,9.08,9.08,0,0,1,2.41.79,31.07,31.07,0,0,0,3,1.07c.61.22,1.2.48,1.8.7a10.28,10.28,0,0,0,1.39.46,26.34,26.34,0,0,1,3.77,1.43,23.66,23.66,0,0,0,2.83,1.22,6.78,6.78,0,0,1,1.53.75c.79.42,1.58.87,2.37,1.3a3.23,3.23,0,0,0,.41.22l2.44,1.16c1,.48,2.05.92,3,1.45s2,1.13,2.93,1.69,1.79,1,2.7,1.52,1.94.95,2.89,1.46c.5.27.93.63,1.4.94a2.3,2.3,0,0,0,.8.45,2.1,2.1,0,0,1,1.31.89,10.3,10.3,0,0,0,2.37,2.19A9.09,9.09,0,0,1,177.12,25c.54.59,1.09,1.17,1.57,1.8a5.16,5.16,0,0,0,1.84,1.37,1.72,1.72,0,0,1,.6.46,16.47,16.47,0,0,0,3,2.79c1.16.93,2.39,1.78,3.54,2.73A12,12,0,0,1,189,35.73c.09.09.17.22.28.27,1.07.51,1.55,1.61,2.38,2.36.54.49,1.1.94,1.64,1.42a3.85,3.85,0,0,0,1.22.92,1.09,1.09,0,0,1,.53.71,3.89,3.89,0,0,0,1.13,1.91,1.16,1.16,0,0,1,.31.6,2.72,2.72,0,0,0,.75,1.5,1.07,1.07,0,0,1,.29.92,1.52,1.52,0,0,0,.42,1.28,1.52,1.52,0,0,1,.37.75,13.74,13.74,0,0,0,1,3.31c.24.62.39,1.27.61,1.9s.38,1,.6,1.51c.59,1.32,1.17,2.65,1.8,3.94.48,1,1,1.95,1.58,2.9.36.62.79,1.19,1.19,1.79.11.17.2.36.31.54a12.64,12.64,0,0,0,.77,1.14,4.77,4.77,0,0,1,.94,1.58c.31.92.77,1.78,1.16,2.67.05.12.11.24.15.36.32,1.06.66,2.11.93,3.19a3.06,3.06,0,0,0,.52,1.42A.6.6,0,0,1,210,75a27.72,27.72,0,0,0,.78,4.88,29.36,29.36,0,0,1,1,5.41,7,7,0,0,0,.61,2.07,9.54,9.54,0,0,1,.28,2.37c0,.35,0,.72,0,1.07a28.58,28.58,0,0,1,.19,4.62,2.8,2.8,0,0,1-.13.69,1.65,1.65,0,0,0-.07.53,47.64,47.64,0,0,1,.22,6.65,20.16,20.16,0,0,1-.29,2.54,4.88,4.88,0,0,0,0,.76,6.5,6.5,0,0,1,.09,1.45,7.76,7.76,0,0,0,0,3,1,1,0,0,1-.18,1,2.42,2.42,0,0,0-.5,1.44,14.14,14.14,0,0,1-.67,2.93,18.31,18.31,0,0,0-.42,2.11,6.08,6.08,0,0,1-.36,1.41,4.56,4.56,0,0,0-.51,2.46,1.06,1.06,0,0,1-.24.84c-.75.55-.82,1.41-1.11,2.17-.14.38-.29.76-.44,1.14-.23.57-.45,1.15-.72,1.71s-.49.9-.75,1.34c-.17.29-.38.55-.54.84a11.68,11.68,0,0,0-1,1.9c-.3,1-.69,1.94-1.06,2.89-.09.24-.22.47-.33.7s-.26.55-.4.82-.36.62-.53.93c-.25.48-.52.94-.73,1.43-.44,1.05-.89,2.1-1.25,3.17a19.8,19.8,0,0,0-.47,2.19c0,.1,0,.21,0,.31-.31.85-.64,1.71-.95,2.56a3,3,0,0,0-.3.95,9.13,9.13,0,0,1-.62,2.93.79.79,0,0,0-.05.3,24.25,24.25,0,0,1-.35,3.61c0,.15,0,.34,0,.45a4.52,4.52,0,0,0-.35,1.81c-.14.89-.38,1.76-.52,2.64a13.42,13.42,0,0,0-.2,2,4.13,4.13,0,0,1-.32,1.81,8,8,0,0,0-.52,3.11,2.22,2.22,0,0,1-.05.45c-.29,1-.55,1.93-.89,2.88-.44,1.21-.95,2.39-1.41,3.59a6.88,6.88,0,0,0-.24.89,2.84,2.84,0,0,1-.14.67c-.43,1-.9,1.91-1.34,2.87-.19.42-.3.88-.5,1.29s-.54,1-.81,1.5c-.46.88-.93,1.76-1.38,2.64a10.38,10.38,0,0,1-2.07,3.22,3.53,3.53,0,0,0-1.21,1.94.62.62,0,0,1-.44.57c-.15.05-.25.24-.38.35s-.43.36-.65.52-.34.18-.43.32a3.47,3.47,0,0,1-1.5,1.06c-1.21.61-2.41,1.26-3.61,1.89a.58.58,0,0,1-.22.08,6.23,6.23,0,0,0-2.32.8,2,2,0,0,1-1.34.29.47.47,0,0,0-.3.06,4.47,4.47,0,0,1-2.77.32H172a18.4,18.4,0,0,1-3.71-.21,5.11,5.11,0,0,1-3.07-1.07,7.53,7.53,0,0,0-1.18-.56,2.9,2.9,0,0,1-.58-.58c-.07-.07-.09-.21-.16-.25-.67-.33-.84-1-1.18-1.57a1.8,1.8,0,0,0-.44-.54c-.35-.24-.6-.48-.46-1a.69.69,0,0,0-.13-.42c-.57-.92-1.16-1.83-1.7-2.76a7.1,7.1,0,0,1-.32-1c-.27-.78-.58-1.54-.84-2.31-.11-.33-.1-.71-.23-1-.44-1.08-.93-2.15-1.4-3.22-.69-.46-.52-1.45-1.21-1.92-.13-.09-.15-.37-.17-.57a1.1,1.1,0,0,0-.66-1,2.39,2.39,0,0,1-1.08-1,1.19,1.19,0,0,0-1-.55,3.15,3.15,0,0,0-1.82.11,2.32,2.32,0,0,1-.92.07,4.84,4.84,0,0,0-2.68,1.06,33.83,33.83,0,0,0-2.91,2.83,9.3,9.3,0,0,0-.84,1,13.8,13.8,0,0,1-2.24,2A6,6,0,0,0,140,182a40.89,40.89,0,0,0-3.71,5.45,9.5,9.5,0,0,0-1.42,4,1.54,1.54,0,0,1-.16.5c-.06.15-.18.29-.17.43,0,1.25-.42,2.48-.1,3.76a12.12,12.12,0,0,0,.42,1.95,4,4,0,0,1,.1,1,11.67,11.67,0,0,0,.3,1.27c.25.83.55,1.65.8,2.49a1.19,1.19,0,0,1-.07.61c-.23.76-.47,1.52-.71,2.29a1.42,1.42,0,0,0-.07.22,18.38,18.38,0,0,1-2.46,5.89,18.61,18.61,0,0,1-2.09,2.65,9.45,9.45,0,0,1-1.61,1.32,2.57,2.57,0,0,0-.37.28,7.72,7.72,0,0,1-2,1.51,8.11,8.11,0,0,0-1.79,1.16c-.7.86-1.73,1.06-2.57,1.61s-1.87,1.1-2.78,1.69a3.77,3.77,0,0,0-.73.76q-.36.41-.69.81c-.67.85-1.34,1.69-2,2.54a3.62,3.62,0,0,0-.25.48c-.2.38-.4.78-.63,1.15s-.6.83-.85,1.28q-.7,1.29-1.35,2.61c-.32.67-.55,1.38-.88,2.05s-.63,1.12-.94,1.69c-.43.76-.82,1.54-1.29,2.28a4.35,4.35,0,0,1-1.4,1.62.65.65,0,0,0-.27.42,3.11,3.11,0,0,1-.93,1.58c-.53.52-1.12,1-1.66,1.5-.31.28-.58.59-.87.88-.12.13-.24.31-.39.36a14.39,14.39,0,0,0-2.32,1.62,3.07,3.07,0,0,1-.55.25,8.33,8.33,0,0,0-1,.44c-.62.36-1.2.82-1.84,1.12s-1.62.62-2.44.92l-3.33,1.23a.86.86,0,0,0-.28.11,5.59,5.59,0,0,1-3.08.87c-.82.09-1.62.27-2.44.4a4.05,4.05,0,0,1-.92.1,9.86,9.86,0,0,0-3,.42,9.47,9.47,0,0,1-1.07.13,13.82,13.82,0,0,0-3.27.91,1.58,1.58,0,0,1-.37.11l-3.92.44a1.82,1.82,0,0,1-.46-.06,1.72,1.72,0,0,0-1.35.11c-.06,0-.18.09-.21.06-.5-.38-.93.05-1.39.1a2.61,2.61,0,0,1-.62,0c-.91-.14-1.81-.32-2.72-.42-.41,0-.86.2-1.25.12s-.74-.34-1.17-.06a.46.46,0,0,1-.42-.06,1.55,1.55,0,0,0-1.34-.17,2.11,2.11,0,0,1-1.29-.1.84.84,0,0,0-.37-.09,4.59,4.59,0,0,1-1.34-.22,11.71,11.71,0,0,0-3.26-.64c-.14,0-.29-.08-.44-.11a10.26,10.26,0,0,0-1.35-.22c-.44,0-.84,0-1.19-.39a1.56,1.56,0,0,0-.84-.34c-.63-.14-1.29-.17-1.9-.37a16.76,16.76,0,0,1-1.65-.81,6.11,6.11,0,0,0-.86-.26c-.12,0-.27,0-.37-.08-1-.5-1.89-1-2.86-1.51a7.82,7.82,0,0,1-1.7-1.43c-.38-.33-.85-.6-1-1.15,0-.09-.22-.13-.3-.22-.31-.35-.62-.69-.9-1s-.53-.76-.78-1.15a2.32,2.32,0,0,1-.21-.48c-.15-.43-.28-.88-.43-1.31s-.22-.58-.33-.86a1.49,1.49,0,0,0-.09-.3,31.19,31.19,0,0,1-1.63-3.58l-1.2-2.75a1.06,1.06,0,0,1,0-.31c0-.85,0-1.7,0-2.55,0-.38-.12-.77-.1-1.15.06-1.14.17-2.27.26-3.41s.14-2.11.2-3.16a6.39,6.39,0,0,1,.46-2.32A1.58,1.58,0,0,0,38,218.9c-.07-.1-.19-.27-.15-.33.37-.7-.09-1.28-.34-1.81-.54-1.12-.8-2.32-1.25-3.46a12.84,12.84,0,0,1-.62-2.42,11.91,11.91,0,0,0-.93-2.21c.47-.75,0-1.61-.11-2.49,0-.35-.09-.7-.15-1.05a.81.81,0,0,0-.14-.42,2.38,2.38,0,0,1-.84-1.74.8.8,0,0,0-.23-.48c-.35-.41-.05-.9-.19-1.33a1.75,1.75,0,0,1-.16-1.33,8.47,8.47,0,0,0,.18-1.14c.23-1.06.5-2.1.75-3.16a5.86,5.86,0,0,0,.12-.84,2.15,2.15,0,0,1,.34-1.09,7.87,7.87,0,0,0,.43-1.12,8.55,8.55,0,0,1,.82-1.66c.87-1.13,1.63-2.38,3-3,.37-.17.71-.41,1.07-.62l.19-.13a5,5,0,0,1,2.23-.42c.22.07.5.13.62.3a3.77,3.77,0,0,0,1.43,1,.94.94,0,0,1,.52.72,5.21,5.21,0,0,0,.34,1c.33-.11.6-.17.85-.28a5.22,5.22,0,0,1,1.95-.64,5.11,5.11,0,0,0,1.51-.58,1.82,1.82,0,0,1,.58-.2,7.46,7.46,0,0,0,2.82-.74,2.2,2.2,0,0,1,.37-.06,7.56,7.56,0,0,0,1.05-.23,1.35,1.35,0,0,1,1.52.35,14.45,14.45,0,0,0,1.51,1.52,2.14,2.14,0,0,1,.75,1.22c.12.5.2,1,.32,1.61.29-.11.58-.19.85-.31a3.17,3.17,0,0,1,2.49,0,2,2,0,0,1,1,.7,13,13,0,0,1,1.08,1.29c.58,1,1.1,2.1,1.6,3.17a2.92,2.92,0,0,1,.09.85l.15,0c.28-.35.56-.7.85-1s.44-.38.56-.63a4.74,4.74,0,0,1,1.73-1.77,11.49,11.49,0,0,1,2-1.54,2.7,2.7,0,0,0,.58-.5,6.4,6.4,0,0,1,3-1.24,8.77,8.77,0,0,0,1.45-.47,4.19,4.19,0,0,1,2.73,0c.48.11.66.58.78,1,.2.64.32,1.3.48,2a2.3,2.3,0,0,0,.33-.15l1.25-.77c.13-.08.3-.14.37-.26a2.23,2.23,0,0,1,1.7-.81,1.84,1.84,0,0,1,2.11,1.14c.55,1.12.54,1.1,1.63.54.36-.19.76-.27,1.14-.43a1.32,1.32,0,0,0,.56-.36,4.12,4.12,0,0,1,2.71-1.33c.22,0,.47,0,.69-.08a1.83,1.83,0,0,1,2,.35c.22.23.51.16.83-.06,1-.73,2.1-1.38,3.16-2.07a1.44,1.44,0,0,0,.49-.46,8,8,0,0,1,2.46-3.11,2.55,2.55,0,0,0,.24-.3,2.45,2.45,0,0,0-.5-.21,1.43,1.43,0,0,1-1.28-1.25,4.22,4.22,0,0,1,.11-2.28,2.93,2.93,0,0,0-.06-2.55.91.91,0,0,1-.09-.44A2.86,2.86,0,0,0,98,175.86a10.94,10.94,0,0,1-1.63-1.3,8,8,0,0,1-1.15-1.67c-.38-.7-.67-1.45-1-2.18a1,1,0,0,1-.14-.52,4,4,0,0,0-.46-2.21c-.12.1-.27.15-.35.26a5.66,5.66,0,0,0-1,2.23,1.12,1.12,0,0,1-.7.86,1.78,1.78,0,0,1-2.48-1.26,1.58,1.58,0,0,1,.42-1.69,7.15,7.15,0,0,0,.75-1.33c.39-.64.82-1.26,1.24-1.88s.68-1,1.06-1.52a13.39,13.39,0,0,1,1.19-1.31,9.55,9.55,0,0,1,1.3-1.08,10.51,10.51,0,0,1,1.42-.72c.33-.15.67-.27,1-.41a7.91,7.91,0,0,1,3.74-.25,23.79,23.79,0,0,1,3.14.37,15,15,0,0,1,2.51.73,32.09,32.09,0,0,1,3.26,1.37,19.69,19.69,0,0,1,2.29,1.46c1,.66,2,1.33,2.89,2,.78.6,1.49,1.27,2.25,1.89a12.16,12.16,0,0,0,1.41,1.07,6.7,6.7,0,0,0,5.49.7c.67-.17,1.38-.14,2.05-.3,1.35-.32,2.68-.7,4-1.07a1.88,1.88,0,0,0,.55-.27,12.21,12.21,0,0,1,3-1.47,1.31,1.31,0,0,0,.49-.23,7.41,7.41,0,0,1,2.74-1.39,2.4,2.4,0,0,0,.62-.31,9.33,9.33,0,0,1,2.55-1.26c.76-.3,1.5-.67,2.25-1a1.14,1.14,0,0,0,.39-.25,3.72,3.72,0,0,1,2.74-1c1.06-.1,2.1-.28,3.15-.42a15.71,15.71,0,0,1,3.29-.24,12.54,12.54,0,0,0,1.61-.1l3.41-.14c.49,0,1,0,1.47,0a1,1,0,0,0,.9-.35c.53-.62,1.09-1.23,1.64-1.84a.85.85,0,0,0,.14-.19,22.3,22.3,0,0,0,.79-2.73,5.54,5.54,0,0,1,1-2.57,5,5,0,0,0,.42-.72c.32-.1.44.1.59.34a1.65,1.65,0,0,0,.56.61c1.26.65,1.26,1.47,1,2.58-.12.44-.32.86-.44,1.31s-.19,1-.33,1.5a4.09,4.09,0,0,1-1.28,2.33,2.86,2.86,0,0,0-1.33,2,1,1,0,0,1-.81.86c-.77.15-1.22.76-1.81,1.14a15.48,15.48,0,0,0-2.27,1.84c-1.11,1.07-2.46,1.79-3.64,2.73-.92.74-1.83,1.5-2.74,2.25a1.32,1.32,0,0,0-.19.29,5.29,5.29,0,0,0,2.26.17,1.32,1.32,0,0,1,1.61.59c.13.24.4.4.59.61.57.63,1.14,1.25,1.7,1.88a2.73,2.73,0,0,1,.25.48c.31.59.62,1.18.91,1.79s.52,1.17.79,1.76a25.46,25.46,0,0,1,1.08,2.31c.29.85.74,1.62,1,2.49a10.16,10.16,0,0,0,1.73,3.76c.58.69.81,1.54,1.34,2.23a4.83,4.83,0,0,0,1.45,1.36,4.23,4.23,0,0,0,1.69.72.4.4,0,0,1,.26.14,1.47,1.47,0,0,0,1.26.47c.59,0,1.18,0,1.76,0a1.74,1.74,0,0,0,.36-.13c.12-.05.28-.17.34-.14.52.31,1.07,0,1.57.13a1.47,1.47,0,0,0,1.15-.26,2,2,0,0,1,1.62-.27,2.63,2.63,0,0,0,1.83-.47c.36-.19.74-.34,1.11-.5.1,0,.23,0,.29-.1.43-.47,1.06-.51,1.59-.74a2.05,2.05,0,0,0,1-.87c.09-.16.29-.37.43-.36.76,0,1.06-.54,1.45-1a5.33,5.33,0,0,1,.46-.49,6,6,0,0,0,.43-.45,19.64,19.64,0,0,0,1.65-2.22,9.19,9.19,0,0,0,1.25-2.1,10.35,10.35,0,0,1,1.05-1.76,11.64,11.64,0,0,0,.76-1.69,3.67,3.67,0,0,1,.92-1.41,2.49,2.49,0,0,0,.52-.82,8.05,8.05,0,0,1,.73-1.77,2.92,2.92,0,0,0,.21-.81,31.53,31.53,0,0,1,1.6-4.07,28.17,28.17,0,0,0,.94-2.67,2,2,0,0,0,.09-.53,5.11,5.11,0,0,1,.3-1.34,12.89,12.89,0,0,0,.28-2.07,9,9,0,0,0,.21-1.13,9,9,0,0,1,.54-2.46.7.7,0,0,0,0-.38,3.46,3.46,0,0,1,.1-2.11c.2-1,.2-2,.43-3a23.57,23.57,0,0,0,.38-2.89c.06-.57.15-1.16.21-1.75a5.49,5.49,0,0,1,.48-1.85,8.93,8.93,0,0,0,.48-1.86c.07-.29.2-.58.27-.88.27-1.18.47-2.38.79-3.54a3.33,3.33,0,0,1,1.1-2.07s.09-.07.1-.11c.17-.69.57-1.28.76-1.94a3.42,3.42,0,0,1,.37-.91,5.85,5.85,0,0,0,.75-1.5,20.81,20.81,0,0,1,1.79-4.5,2.89,2.89,0,0,1,.56-.74,6.19,6.19,0,0,0,1.67-3.07c0-.13,0-.29.09-.38a4.88,4.88,0,0,0,.82-2.84,2.19,2.19,0,0,0-1.89-.07c-.3.09-.58.23-.88.31a1.66,1.66,0,0,1-2.13-1.59,4.4,4.4,0,0,1,.27-2,5.11,5.11,0,0,0,.11-1.65c-.33,0-.61,0-.88-.1s-.74-.19-1.11-.3a1.71,1.71,0,0,1-1.17-1.58c-.18-1.27-.39-2.54-.56-3.82a9.73,9.73,0,0,1,0-1.1c-.2.15-.35.2-.42.31a3.22,3.22,0,0,1-2.35,1.3.63.63,0,0,1-.5-.14c-.37-.38-.71-.8-1.07-1.21-.11-.13-.2-.34-.35-.39-.45-.17-.56-.57-.7-1-.22-.63-.43-1.26-.67-1.88a2.43,2.43,0,0,0-.45-.72.66.66,0,0,0-1.2.27c-.44,1.33-1.57,1.69-2.72,2-.84.2-1.4-.44-1.53-1.3a10.37,10.37,0,0,0-1-3.14,8.61,8.61,0,0,0-1.66.84,5.69,5.69,0,0,1-1.3.66,2.51,2.51,0,0,1-2.42-.71,2,2,0,0,1-.47-.94,6.44,6.44,0,0,1,.14-2.69,1.22,1.22,0,0,1,.26-.55,2.64,2.64,0,0,0,.41-1.92c-.72.09-1.07.66-1.55,1a2.61,2.61,0,0,1-2.64.59,2.32,2.32,0,0,1-1.62-2c0-1,.2-2,.32-3,0-.12,0-.25,0-.37s-.05-.08-.1-.16a.85.85,0,0,0-.6.51,6.29,6.29,0,0,1-1.32,2,1.42,1.42,0,0,1-1.7.31c-.64-.25-1.32-.4-2-.64a1.18,1.18,0,0,1-.59-.43,15.53,15.53,0,0,1-.89-1.72,4.4,4.4,0,0,1-.14-.74.52.52,0,0,0-.23-.35.5.5,0,0,0-.39.14,5.24,5.24,0,0,0-.68,1c-.31.76-.51,1.57-.83,2.32a4,4,0,0,1-.83,1.2,3.71,3.71,0,0,1-2.12,1,1.62,1.62,0,0,1-1.51-.62c-.42-.53-.74-.5-1,.16a7.24,7.24,0,0,1-1,1.71,1,1,0,0,1-1.34.43c-.46-.18-.95-.24-1.2-.84-.16-.38-.66-.63-1.05-.88a.89.89,0,0,0-.95.09,25.58,25.58,0,0,1-2.35,1.28,1.68,1.68,0,0,1-2.4-.51,1.38,1.38,0,0,0-1.16-.63.78.78,0,0,1-.38,0c-.55-.34-.93-.09-1.28.33a1.48,1.48,0,0,1-.38.37,12.36,12.36,0,0,0-2.07,1.61,1.88,1.88,0,0,1-2.41.24.58.58,0,0,1-.31-.64A2.51,2.51,0,0,1,143,101a9,9,0,0,0,2.51-1.76,6.72,6.72,0,0,1,1.66-1.09c.18-.12.45-.22.52-.39a7.55,7.55,0,0,0,.85-3,1.55,1.55,0,0,1,.08-.53,3.61,3.61,0,0,0-.36-3.07,3.53,3.53,0,0,1-.2-2.83,3.4,3.4,0,0,1,1.67-1.94,3.22,3.22,0,0,0,.84-.67,2.42,2.42,0,0,1,1.11-.91,1,1,0,0,0,.34-.31c.35-.46.24-.83-.29-1a4.46,4.46,0,0,0-1.09-.35c-.71-.07-.93-.58-1.17-1.1s-.3-.76-.46-1.14a1.94,1.94,0,0,1,.26-1.56A2.26,2.26,0,0,1,150.6,78c.52-.2,1.06-.37,1.56-.61a5.94,5.94,0,0,0,2.14-1.47,2,2,0,0,0,.17-.52l-2.16-.86c-.62-.25-1.24-.51-1.85-.78a2.25,2.25,0,0,1-.9-1.61,3.17,3.17,0,0,1,.35-.85,8.6,8.6,0,0,1,2.05-2.7,13.44,13.44,0,0,1,1.83-1.25,2.39,2.39,0,0,1,1.19-.21c.58,0,1.15.18,1.85.3-.18-.19-.29-.3-.41-.41-.27-.27-.68-.48-.8-.8a2.48,2.48,0,0,1-.16-1.74,3.71,3.71,0,0,1,1.6-2.2c.07,0,.11-.1.17-.16a.91.91,0,0,0,0-.12c-.21-.22-.48-.09-.7,0a5.78,5.78,0,0,1-2.45,0,1.9,1.9,0,0,1-1.19-1.65A3.69,3.69,0,0,1,153.8,58a1.37,1.37,0,0,0,.32-.75.48.48,0,0,0-.48-.58.78.78,0,0,1-.31,0,7.73,7.73,0,0,0-3.57-.85,12.07,12.07,0,0,0-1.82-.19c-.52,0-.72-.19-.7-.7a2.3,2.3,0,0,1,.64-1.73A13.12,13.12,0,0,1,150,51.53,5.67,5.67,0,0,0,152.15,49c.11-.26-.17-.67-.56-.82a3.8,3.8,0,0,0-.76-.16l-3.3-.42a2.75,2.75,0,0,1-1.92-.87,1.75,1.75,0,0,1,.14-2.4,7.73,7.73,0,0,0,.67-.73,5.67,5.67,0,0,1,.5-.48,6.26,6.26,0,0,1,1-.64c1.15-.58.82-1.4,0-1.91a5.65,5.65,0,0,0-2.63-.83,7.94,7.94,0,0,1-1.45-.22,1.41,1.41,0,0,1-1.22-1.63,4.39,4.39,0,0,1,.76-2.48c-.06-.09-.1-.2-.15-.21l-2-.28H141c-1.15,0-1.43-.3-1.13-1.4a24,24,0,0,1,.83-2.48,1.69,1.69,0,0,0-.36-2,3.88,3.88,0,0,0-.82-.57c-.57-.3-1.15-.59-1.74-.85a3.91,3.91,0,0,0-1-.27,1.25,1.25,0,0,1-1.09-.74,1,1,0,0,0-1-.58c-.51,0-1,0-1.55-.06a.85.85,0,0,1-.23,0c-1.39-.57-2.94-.63-4.24-1.55a5.73,5.73,0,0,1-2.08-2.21.85.85,0,0,0-.71-.53,2.18,2.18,0,0,1-.52-.11,1.29,1.29,0,0,1-1-1.37c0-.86,0-.86-.87-.91h-.08c-1.29-.09-1.44-.2-1.83-1.47-.14-.44-.25-.89-.37-1.34s-.29-.63-.8-.7a1.62,1.62,0,0,0-.31,0A2.22,2.22,0,0,1,118,14.49a1.81,1.81,0,0,0-.9-.82,4.1,4.1,0,0,1-1.48-.95,9.72,9.72,0,0,0-1.91-1.88,2.22,2.22,0,0,1-.75-1.58c-.05-.49-.3-.73-.73-.72-1.24,0-1.92-.91-2.73-1.6-.62-.55-1.16-1.17-1.75-1.76a1,1,0,0,0-.39-.24,6,6,0,0,1-2.21-1.24,2.11,2.11,0,0,0-1.74-.44c-.59.05-1.18.06-1.78.09l-2,.13a15.05,15.05,0,0,1-3.85-.15,6.69,6.69,0,0,0-1.84,0,8.93,8.93,0,0,0-1.14.16c-.53.11-1.05.25-1.57.37s-1.15.27-1.72.43c-.92.24-1.84.5-2.75.75a1.52,1.52,0,0,1-.6.15,3.9,3.9,0,0,0-1.77.41,27.4,27.4,0,0,1-2.85.66c-.1,0-.22,0-.31,0a3.52,3.52,0,0,1-2.63,0,4.39,4.39,0,0,0-2.07,0c-.81.15-1.64.18-2.46.31-1.45.22-2.89.47-4.34.71a3.33,3.33,0,0,1-.54.07,11,11,0,0,0-3.33,1c-1.31.43-2.43,1.25-3.69,1.75a.6.6,0,0,0-.21.11c-.82.83-2.09,1-2.87,1.88-.14.17-.41.22-.6.35s-.61.46-.93.65a7.44,7.44,0,0,1-1.36.73,7.34,7.34,0,0,0-2.44,1.29,10.13,10.13,0,0,1-1.58,1,12.31,12.31,0,0,0-2.68,2c-.45.45-1,.77-1.52,1.18-.93.75-1.85,1.52-2.77,2.28-.36.29-.4.49-.12.84.73.87,1.5,1.71,2.18,2.62a10.61,10.61,0,0,1,1,1.76,12,12,0,0,0,1.93,2.7,3.22,3.22,0,0,1,.7,1.36.82.82,0,0,1-1.09.95,3,3,0,0,1-1.59-1.15A15.73,15.73,0,0,0,46.66,29c-.42-.46-.85-.91-1.23-1.39a3.71,3.71,0,0,1-.44-.81c-.38-.82-.74-1.65-1.15-2.46s-.73-.81-1.32-.17c-.19.21-.42.39-.6.6-.34.37-.33.56,0,1,.67.88,1.33,1.78,2,2.66a.67.67,0,0,0,.21.23,5.61,5.61,0,0,1,1.53,2.2,2.23,2.23,0,0,1,.23,1.5.86.86,0,0,1-.74.79.83.83,0,0,1-.89-.48c-.67-1-1.34-2.08-2-3.1a5.23,5.23,0,0,0-.68-.74,3.85,3.85,0,0,1-1.08-1.46c-.23-.7-.69-.71-1.1-.1s-.32.82.16,1.33c.71.74,1.36,1.55,2,2.34s1.52,1.88,2.29,2.81a9.58,9.58,0,0,1,1.56,2.9c.19.55,0,.89-.52,1.24a1,1,0,0,1-1.27-.11,8.48,8.48,0,0,1-1.16-1.45,11.9,11.9,0,0,0-2-2.65,7.79,7.79,0,0,1-.64-.87c-.38-.51-.78-1-1.17-1.52a10.81,10.81,0,0,0-.72-.92c-.83-.83-1.43-.46-2,.31a.73.73,0,0,0,.09.63c.31.44.67.83,1,1.25.08.1.21.18.24.3a8.06,8.06,0,0,0,1.11,1.93c.66,1,1.31,2,1.95,3a15.93,15.93,0,0,1,1.89,3,4.37,4.37,0,0,1,.31,1.27c0,.49-.23.68-.73.65a1.76,1.76,0,0,1-1.09-.49,10.19,10.19,0,0,1-2.24-2.83,2.35,2.35,0,0,0-.42-.56,12.21,12.21,0,0,1-2.38-3.39,8,8,0,0,0-1.56-1.79c-.29-.28-.64,0-.89.22a4,4,0,0,0-.72.81,19.08,19.08,0,0,0-2.15,3.37,6.63,6.63,0,0,1-.87,1.16c-.4.6-.76,1.24-1.14,1.85-.7,1.1-1.42,2.19-2.12,3.3-.52.83-1,1.68-1.53,2.51-.62,1-1,2.12-1.73,3.09a14.16,14.16,0,0,0-1.27,2.52,8.64,8.64,0,0,0-.21,1.06,1.33,1.33,0,0,1-.32.74,2.18,2.18,0,0,0-.76,1.65,26.71,26.71,0,0,1-.8,3.86c-.17.64-.49,1.24-.69,1.88s-.3,1.13-.44,1.71a4.33,4.33,0,0,1-.15.75c-.11.24-.28.55-.5.63a1.09,1.09,0,0,0-.71,1.09c-.1.84-.15,1.69-.25,2.54,0,.35-.18.7-.24,1-.11.55-.19,1.11-.29,1.67a1.21,1.21,0,0,1-.14.51,3.91,3.91,0,0,0-.57,1.68,18.58,18.58,0,0,0-.42,2.44,5.89,5.89,0,0,1-.52,1.81c-.11.32-.32.6-.12,1,0,.06,0,.2-.06.28-.66,1.25-1.31,2.51-2,3.74-.3.54-.74,1-1,1.54a9.62,9.62,0,0,1-1.32,2c-.05.06-.12.12-.13.19-.11,1.06-1,1.79-1.2,2.8a2.26,2.26,0,0,1-.5.78,3.47,3.47,0,0,0-.66,1.72c-.11.92-.24,1.84-.38,2.76a14.74,14.74,0,0,0,0,4.09c.13,1.07.21,2.15.33,3.23.06.51.17,1,.25,1.53a23.7,23.7,0,0,0,.61,3.5,19.07,19.07,0,0,1,.36,2.78A14.26,14.26,0,0,1,9,112.14c0,.8-.15,1.59-.25,2.39a1,1,0,0,1-.14.43,5.86,5.86,0,0,0-.77,2c-.25.89-.56,1.76-.84,2.63a.2.2,0,0,1-.08.13c-.79.53-.73,1.42-.94,2.2-.14.52-.33,1-.51,1.52-.28.82-.63,1.63-.85,2.47s-.48,1.88-.8,2.81A10.66,10.66,0,0,0,3.59,130c-.16.94-.34,1.88-.53,2.81a.9.9,0,0,1-.2.49c-.37.34-.29.72-.18,1.14a17.44,17.44,0,0,0,2,4.18A12.08,12.08,0,0,0,5.81,140a13.7,13.7,0,0,1,1.72,2.84,32.46,32.46,0,0,1,1,3.31,7.33,7.33,0,0,0,.39.73c.07.13.19.28.17.41a2.44,2.44,0,0,0,.51,1.35c.09.16.24.3.26.46a.76.76,0,0,0,.85.7,9.52,9.52,0,0,0,.8-.73,2,2,0,0,0,.3-.6c.23-.68.41-1.38.69-2s.85-.87,1.43-.45a1.11,1.11,0,0,1,.38.62,6.58,6.58,0,0,1-.08,2.38,9,9,0,0,0-.06,1.47c0,.1.17.2.26.3.1-.1.29-.2.28-.3a1.92,1.92,0,0,1,.53-1.32,1.16,1.16,0,0,0,.16-.59,2,2,0,0,1,.75-1.4,1.11,1.11,0,0,1,1.19-.33,1.74,1.74,0,0,1,.57,1.22c-.13.84-.23,1.68-.39,2.51a4.5,4.5,0,0,1-.36.92c.63.25.85.17,1-.35a8.65,8.65,0,0,1,.42-1,2.3,2.3,0,0,1,1.14-1c.64-.26.82-.25,1.18.13a1.09,1.09,0,0,1,.16,1.35c-.14.27-.31.54-.44.82-.4.87-.17,1.28.71,1.57a5.68,5.68,0,0,1,1.58.78,11.4,11.4,0,0,1,1.92,1.68,5.87,5.87,0,0,1,1.67,3c.92,1.56,1,3.41,1.72,5a11,11,0,0,1,.81,2.47,3.83,3.83,0,0,0,.44.92,1.12,1.12,0,0,0,.51-1.07,2.58,2.58,0,0,1,.83-1.85l.74-.92a12.86,12.86,0,0,1,1.09.69c.36.26.19.67.17,1-.06.74-.16,1.48-.22,2.23,0,.32-.14.75.25.9s.63-.25.88-.49a8.11,8.11,0,0,0,.88-1,8.69,8.69,0,0,0,.88-1.35,3.54,3.54,0,0,1,1.08-1.38,3.75,3.75,0,0,0,1.23-1.93,1.26,1.26,0,0,0,0-.61c-.18-1.33-.4-2.66-.54-4a15.75,15.75,0,0,1,0-1.94,3.16,3.16,0,0,0-.07-.76,3.66,3.66,0,0,1-.12-2,3.3,3.3,0,0,0-.06-1.16c-.15-1.46-.3-2.92-.44-4.38,0-.39,0-.78,0-1.17s-.26-.7-.69-.49a1.78,1.78,0,0,1-1.34.07,2.46,2.46,0,0,0-1.08,0,4.26,4.26,0,0,1-1.38,0c-.84-.13-1.69-.21-2.53-.32a1.26,1.26,0,0,1-.53-.09,1.77,1.77,0,0,0-2,.18,2.79,2.79,0,0,1-2,.28c-.82-.13-1.63-.21-2.45-.28a6.55,6.55,0,0,1-2.77-.66c-.31-.17-.69-.2-1-.36a12,12,0,0,1-1.24-.75,3.85,3.85,0,0,1-.43-.4,1.59,1.59,0,0,0-.35.08c-.34.12-.51,0-.68-.32A17.47,17.47,0,0,0,14,139.15c-.19-.83-1-1.34-1.21-2.13s-.17-1.6-.43-2.34c-.36-1.05,0-2.24-.75-3.19a4.16,4.16,0,0,0-.72-2.07c-.1-.19,0-.46-.06-.69-.07-.72-.16-1.44-.24-2.15a2.07,2.07,0,0,1-.05-.69,8.77,8.77,0,0,0,0-2,6.48,6.48,0,0,1,.27-2.43c.09-.18,0-.45,0-.68a4.31,4.31,0,0,1,0-1.07,30.35,30.35,0,0,0,.24-3.15c.09-1,.28-2,.45-3a.85.85,0,0,1,.26-.45,1.26,1.26,0,0,0,.41-1c0-.92.14-1.85.23-2.78a1.47,1.47,0,0,1,.15-.59,2.55,2.55,0,0,0,.31-1.87,1.07,1.07,0,0,1,.12-.59,10.73,10.73,0,0,0,.52-1.28,4.49,4.49,0,0,1,.68-1.45,4.7,4.7,0,0,1,3.45-2,7.3,7.3,0,0,0,1.71-.39,8.76,8.76,0,0,1,2.45-.63,8.76,8.76,0,0,1,2.12.31c.55.11,1.09.34,1.65,0a.64.64,0,0,1,.45,0,20.47,20.47,0,0,0,5.28.64,2.05,2.05,0,0,1,.6.11,2.48,2.48,0,0,0,1.74,0,.71.71,0,0,1,.7.12c.45.29.94.5,1.41.76a5.92,5.92,0,0,1,.82.56,7.62,7.62,0,0,0,2.69,1.14,6.83,6.83,0,0,1,3.26,1.64,18.63,18.63,0,0,1,2.84,3.32,9.45,9.45,0,0,1,1.47,4.19,3.82,3.82,0,0,0,.2,1.06,1.52,1.52,0,0,0,.37.44c.12-.15.32-.28.34-.45a10.06,10.06,0,0,0,0-1.23,2.73,2.73,0,0,1,.38-1.44c.34-.62.59-1.11,1.37-1.21.19,0,.42-.46.47-.73a1.86,1.86,0,0,0-.43-1.66A3.49,3.49,0,0,1,49,107c-.24-.57-.43-1.15-.63-1.74a2.39,2.39,0,0,1,.25-1.64,4.06,4.06,0,0,1,.91-1.32.93.93,0,0,0,.3-1,1.74,1.74,0,0,1,1.55-2.09A13,13,0,0,0,52.68,99a.44.44,0,0,0,.27-.14,1.35,1.35,0,0,0,.23-.69c0-.13-.34-.27-.54-.32a7.05,7.05,0,0,0-1.51-.28,4.36,4.36,0,0,1-1.87-.69A6.2,6.2,0,0,0,47,96.22c-.84,0-1.1-.5-1.12-1.28a1.63,1.63,0,0,1,1.91-1.79,2.84,2.84,0,0,1,2.12,1,1.22,1.22,0,0,0,.73.39c1.32.24,2.64.44,4,.63a2.11,2.11,0,0,0,.61-.06,3.61,3.61,0,0,1,2,.32c.27.12.57.2.93.33-.06.14-.12.29-.19.44a2.53,2.53,0,0,0-.37.83,1.46,1.46,0,0,1-.75,1.2,1.12,1.12,0,0,0-.53.89c-.16,1.68-1.38,2.4-2.76,3.16,0,1.19,0,2.47-1.89,2.6a3.66,3.66,0,0,0,.12.92c.27.72.62,1.42.9,2.14a12.24,12.24,0,0,0,.87,2,2.42,2.42,0,0,1,.16,1.06,1.62,1.62,0,0,0,1.57,1.48,7.19,7.19,0,0,1,1.67.19c.82.22,1.26.93,1.76,1.55.19.24.36.51.55.75a.93.93,0,0,0,.8.4,2.12,2.12,0,0,1,1.87,1.06c.24.33.45.69.71,1a4.82,4.82,0,0,0,.62.57c.34.27.69.52,1,.77.52.38,1,.79,1.57,1.12a1.11,1.11,0,0,1,.56.59,2.32,2.32,0,0,1-.18,2.08,1.35,1.35,0,0,1-2.32.15c-.29-.37-.54-.77-.85-1.11a2.13,2.13,0,0,0-.79-.58,2.73,2.73,0,0,1-1.91-1.76.82.82,0,0,0-.64-.59l-1.12-.26a2,2,0,0,1-1.48-1.13,8.07,8.07,0,0,0-.57-.91,1.63,1.63,0,0,0-1.33-.66,9.28,9.28,0,0,1-1.94-.46c-.22-.07-.37-.35-.56-.52a7.18,7.18,0,0,0-1-.83c-.41-.23-.7-.08-.7.37,0,1.2-.69,2.19-1,3.31a2.6,2.6,0,0,1-.73,1c-.66.69-1.52,1.14-2.19,1.8a6.38,6.38,0,0,1-2.71,1.36c-.25.08-.47.21-.72.28a5.26,5.26,0,0,1-1.27.32,5,5,0,0,0-1.93.52c-.07,0-.16,0-.21.1a28.71,28.71,0,0,0-2.13,2.43,3,3,0,0,0-.23,1.5,2,2,0,0,1-.16,1,1.1,1.1,0,0,0-.08.68c.06.64.15,1.28.26,1.92.16,1,.28,2,.52,3a7.81,7.81,0,0,1,.37,2c0,.75,0,1.5.05,2.24.08.9.24,1.79.37,2.69a1.45,1.45,0,0,1,.07.45,11.49,11.49,0,0,0,.35,2.8c0,.25,0,.51.06.77.08.58.17,1.17.25,1.76.06.43.12.86.16,1.3a17.86,17.86,0,0,0,.23,2.05,28.05,28.05,0,0,1,.19,3.79c0,.43,0,.87,0,1.31a32.17,32.17,0,0,1,.19,3.24,4.24,4.24,0,0,0,.59,2,2.22,2.22,0,0,1,.24,1,3.86,3.86,0,0,0,.33,1.94,9,9,0,0,1,.56,1.61,4.92,4.92,0,0,0,1,1.9,1,1,0,0,1,.15,1.16,2.22,2.22,0,0,1-1.6,1.33l-.6.15c-.71.17-1.34-.12-1.41-.83a16.52,16.52,0,0,0-.9-2.62A1.94,1.94,0,0,0,38.76,165Zm171.46-59.28.2,0a2.43,2.43,0,0,0,.18-.56c.06-.75.05-1.51.15-2.25a4,4,0,0,0-1.35-3.31,21,21,0,0,0-2.15-2.28,22,22,0,0,1-2.44-2.57A12.53,12.53,0,0,0,201,91.64a3,3,0,0,1-1.16-.86,8.09,8.09,0,0,0-1.51-1.42c-.58-.5-1.29-.77-1.89-1.2a13.58,13.58,0,0,0-3-1.56,2.84,2.84,0,0,1-.84-.53,9.25,9.25,0,0,0-2.21-1.67,1.17,1.17,0,0,1-.51-1.42c.22-.65.7-1,1.22-1A5,5,0,0,1,194,83.36a5.09,5.09,0,0,0,2,1.31c.82.27,1.52.87,2.39,1.07a.63.63,0,0,1,.2.13l1.56,1.26c1.1.9,2.14,1.87,3.31,2.67a18.65,18.65,0,0,1,1.94,1.35A19.42,19.42,0,0,1,208,93.62a17,17,0,0,0,1.4,1.55,1.65,1.65,0,0,0,1.3.69c.05-.1.11-.17.11-.23,0-.88,0-1.75,0-2.62,0-.47-.21-.66-.71-.62-.75.06-1.08-.36-1.47-.91-.7-1-1.07-2.23-2-3.08-.58-.52-1.09-1.11-1.7-1.57-.94-.71-1.94-1.35-2.92-2a1.35,1.35,0,0,0-.56-.25c-.95-.09-1.52-.81-2.23-1.29-.51-.34-1-.75-1.45-1.13-.12-.1-.27-.2-.31-.33a1.68,1.68,0,0,0-.73-.76,2.61,2.61,0,0,1-1.27-1.86,1.51,1.51,0,0,1,1-1.4c.52-.19.8-.1,1.22.5a10.79,10.79,0,0,0,3.87,3.36c.77.42,1.6.71,2.38,1.11s1.35.86,2.06,1.22a8.2,8.2,0,0,1,2.62,2.13,4,4,0,0,0,.72.71,1.62,1.62,0,0,0,.59.11c-.17-1.53-.33-2.94-.47-4.34s-.23-1.44-1.45-1.73c-.6-.14-1.24-.15-1.51-.86,0-.1-.21-.15-.31-.23a17.19,17.19,0,0,0-3.91-2.17c-.75-.32-1.51-.62-2.27-.92L198.3,76c-.53-.21-1.06-.41-1.57-.64a2.16,2.16,0,0,1-.77-.49,8.1,8.1,0,0,0-2.72-1.72,16.17,16.17,0,0,0-2.39-.86c-.9-.31-1.8-.62-2.71-.9a1.36,1.36,0,0,1-1-1.23c0-.88.5-1.44,1.23-1.4a9.51,9.51,0,0,1,1.9.3,30,30,0,0,1,3.59,1.16,8,8,0,0,1,3.2,1.66,1.16,1.16,0,0,0,.41.22c1,.43,2.05.89,3.06,1.41s2.06.76,3,1.36a1,1,0,0,0,.53.11,2.12,2.12,0,0,1,1.36.47,8.05,8.05,0,0,0,1.2.71,8.15,8.15,0,0,0,1.18.33,2.56,2.56,0,0,0,0-.64c-.13-.41-.33-.81-.46-1.22a.68.68,0,0,0-.65-.56,1.14,1.14,0,0,1-.6-.28c-.72-.58-1.15-1.48-2.1-1.85a6.38,6.38,0,0,1-1.36-1,4.75,4.75,0,0,0-1.21-.83,10.14,10.14,0,0,1-2-1.24c-.62-.36-1.19-.8-1.8-1.18-.33-.2-.69-.35-1-.52l-1.17-.6-1.35-.73a4.22,4.22,0,0,0-.72-.44c-1-.27-1.08-1.4-.45-2.13s1-.59,1.58-.1a13,13,0,0,0,1.61,1c.35.2.77.29,1.12.49.5.27.95.6,1.44.89.85.52,1.73,1,2.58,1.55.55.33,1.06.72,1.61,1s1.36.73,2,1.09a1,1,0,0,0,.38.08c.33,0,.47-.16.39-.49a1.67,1.67,0,0,0-.22-.49c-.41-.63-.85-1.24-1.26-1.86a7.44,7.44,0,0,1-.67-1.11,2.66,2.66,0,0,0-.92-1.23,2.51,2.51,0,0,1-1.05-1.89,1.87,1.87,0,0,0-1.67-1.56,4.71,4.71,0,0,1-2.48-1,1.33,1.33,0,0,0-1-.33,1.11,1.11,0,0,1-1-.34,2.3,2.3,0,0,0-.51-.35A19.76,19.76,0,0,0,191,57.11c-.63-.21-1.29-.32-1.93-.47a.83.83,0,0,1-.63-.63.86.86,0,0,1,.2-.93,2.28,2.28,0,0,1,2.21-.65,22.94,22.94,0,0,1,3.21,1.1c.95.38,1.85.92,2.82,1.26a4.87,4.87,0,0,1,1.52.69.43.43,0,0,0,.62,0c0-.35,0-.69-.08-1a5.63,5.63,0,0,0-.78-2.38,3.19,3.19,0,0,1-.43-1.39,5.64,5.64,0,0,0-1-2.62c-.26-.43-.77-.7-.69-1.32,0-.11-.16-.25-.26-.36s-.33-.22-.38-.38c-.28-.75-1-.79-1.58-.89-1.09-.18-2.19-.32-3.29-.44a14.14,14.14,0,0,0-1.84-.06c-.46,0-.93.13-1.39.14a.78.78,0,0,1-.77-1.15,1.9,1.9,0,0,1,1.13-1.07,6,6,0,0,1,3.24-.45,13.17,13.17,0,0,0,1.89,0,1.32,1.32,0,0,0,0-.45,4.34,4.34,0,0,0-.74-1.32c-.66-.64-1.37-1.23-2.06-1.84a4.9,4.9,0,0,1-.86-.73,6.7,6.7,0,0,0-.7-.71,6.44,6.44,0,0,1-1.22-1.16,8.91,8.91,0,0,0-2.48-2.38,11.85,11.85,0,0,1-1.48-1.24A13.11,13.11,0,0,0,180.47,32a2.75,2.75,0,0,1-.53-.44A10.14,10.14,0,0,0,177,29c-.13-.06-.21-.21-.31-.33-.48-.53-.94-1.09-1.44-1.6a17.28,17.28,0,0,1-1.47-1.36,36.12,36.12,0,0,0-3-2.72.78.78,0,0,0-.26-.17,9.31,9.31,0,0,1-2.88-1.9.92.92,0,0,0-.4-.22,24.2,24.2,0,0,1-4-2q-2.2-1.28-4.46-2.48c-.49-.26-1.08-.36-1.56-.64a15.61,15.61,0,0,1-2.64-1.42,2.41,2.41,0,0,0-.43-.17c-.7-.33-1.41-.63-2.09-1a17.26,17.26,0,0,0-3.39-1.68,17.79,17.79,0,0,1-2-.95,10.87,10.87,0,0,0-2.2-.94,9.59,9.59,0,0,1-2.67-1,8.1,8.1,0,0,0-2.39-.84c-1-.2-1.95-.49-2.92-.74a3.39,3.39,0,0,1-.66-.21,8.76,8.76,0,0,0-4.71-1,2.7,2.7,0,0,1-.67-.12c-.32-.06-.64-.16-1-.2l-3.39-.39c-.38-.05-.75-.25-1.12-.26a12.31,12.31,0,0,1-3.48-.71,16.87,16.87,0,0,0-4-.65A20.07,20.07,0,0,1,113.87,3a1.78,1.78,0,0,0-.69,0c-.74.11-1.47.24-2.21.37a2.57,2.57,0,0,0-.38.14c.54.57,1,1,1.32,1.39a2.28,2.28,0,0,0,1.61.83,2.25,2.25,0,0,1,2,1.41,2.91,2.91,0,0,0,.85,1.17,2.61,2.61,0,0,1,1,1.49c.23.79.38.9,1.2.86a1.29,1.29,0,0,1,1.5.92c.08.19.13.4.2.59a.93.93,0,0,0,1,.72,6.06,6.06,0,0,1,.85.05c.19,0,.46.09.55.23.38.53,1,.93,1,1.69a1.91,1.91,0,0,0,.1.53c.12.53.26.66.8.62a6.26,6.26,0,0,0,1.29-.25.87.87,0,0,1,1.07.4,1.53,1.53,0,0,1,.36,1.15c0,.23,0,.46,0,.7s.13.66.57.66a.81.81,0,0,1,.77.55c.26.53.51,1.06.73,1.61a2.07,2.07,0,0,0,1.24,1.31c.75.25,1.52.49,2.27.75a4.28,4.28,0,0,0,2.74,0,1.34,1.34,0,0,1,.53,0c.53.08,1.06.18,1.6.25,1.73.24,1.8.28,2.18,2a.87.87,0,0,0,.62.71,6.34,6.34,0,0,1,1.18.55,8.92,8.92,0,0,1,1.05.78c.41.35.8.73,1.17,1.11a.58.58,0,0,1,.1.71c-.24.53-.41,1.1-.67,1.63a3.55,3.55,0,0,0-.42,1.84,2.55,2.55,0,0,0,1.37,0,2,2,0,0,1,1.88.38.76.76,0,0,1,.34.88,4,4,0,0,1-.41,1.39,2.93,2.93,0,0,0-.31,1.26.74.74,0,0,0,.64.84c.62.15,1.25.27,1.87.41a.39.39,0,0,1,.22.08c.5.56,1.28.65,1.85,1.07a17.06,17.06,0,0,1,1.73,1.43c.42.41,0,2.5-.54,2.85s-1.22.75-1.82,1.13a.76.76,0,0,0-.42.82,4.26,4.26,0,0,1,2,.41,24.7,24.7,0,0,0,3.12.47,1.18,1.18,0,0,1,1,.8,5,5,0,0,1,.2,1.22,1.58,1.58,0,0,1-.13.9,13.27,13.27,0,0,1-1.68,2.12,15.2,15.2,0,0,0-1.7,1.89,3.64,3.64,0,0,0-.28.51,5.9,5.9,0,0,0,.86,0,2.88,2.88,0,0,1,1.95.32,1.55,1.55,0,0,0,.74.13A1.57,1.57,0,0,1,157,54.89c.07.51.15,1,.23,1.53a2.15,2.15,0,0,1-.33,1.7,7,7,0,0,0-.43.87l1.07-.11a2,2,0,0,1,2.23.82,5.66,5.66,0,0,0,.6.6,1.21,1.21,0,0,1,.29.43,3.09,3.09,0,0,1-.63,3.19c-.46.53-.43.64.21.92.12,0,.25.07.37.12a2,2,0,0,1,1.21,1.51,8.92,8.92,0,0,1,.07,1.16.86.86,0,0,1-.14.5c-.66.81-1.19,1.77-2.31,2.06a5.49,5.49,0,0,1-1.13.21,8,8,0,0,1-3.68-.22,1.36,1.36,0,0,0-.82,0c-.58.19-.73.74-1,1.18.18.57.7.48,1.05.65a12.92,12.92,0,0,0,1.53.47,3.74,3.74,0,0,1,.8.26,2.62,2.62,0,0,1,1.23,2,2.09,2.09,0,0,1,0,1,4.29,4.29,0,0,1-2,2.71c-.81.45-1.58,1-2.36,1.48-.31.21-.32.46,0,.68a1.3,1.3,0,0,0,.57.14,6.81,6.81,0,0,1,1.29.11,1.23,1.23,0,0,1,.72.62,11.43,11.43,0,0,1,.36,1.74.71.71,0,0,1-.05.38c-.35.69-.7,1.38-1.06,2.07-.07.12-.23.2-.33.31a6.52,6.52,0,0,1-1.31.79,15.71,15.71,0,0,0-1.68,1.49,1.47,1.47,0,0,0-.44,1.55c.15.52.27,1.05.39,1.58a5.75,5.75,0,0,1,.14.83,8,8,0,0,1-.25,2.38,17.24,17.24,0,0,1-.73,3.08.72.72,0,0,0,0,.52,1.56,1.56,0,0,0,1.77.72,9.09,9.09,0,0,0,1.55-.71,2.85,2.85,0,0,1,3.14-.1c.63.36.59.29,1.11-.24a7.52,7.52,0,0,1,1.65-1.26,2.06,2.06,0,0,1,2,.23c.76.38,1.3,0,1.22-.82a1.39,1.39,0,0,1,.49-1.22,4.78,4.78,0,0,0,1.08-1.31A6.71,6.71,0,0,1,167.26,91a.87.87,0,0,1,1.1,0,4.28,4.28,0,0,1,1.34,1.77,10.62,10.62,0,0,0,1,2.58.89.89,0,0,0,.46.44c.29.08.46-.15.56-.42a1.59,1.59,0,0,1,.18-.34,4.43,4.43,0,0,1,1.77-1.77,11.59,11.59,0,0,1,1.89-.7,1.42,1.42,0,0,1,1.71.52c.11.17.31.29.42.45a2.45,2.45,0,0,1,.47,1.82,10.33,10.33,0,0,1-.42,1.41c-.11.4-.21.8-.28,1.2a.36.36,0,0,0,.17.3.39.39,0,0,0,.34-.1c.31-.42.84-.72.76-1.37a.45.45,0,0,1,.17-.32,26.63,26.63,0,0,1,2.31-1.68,3.35,3.35,0,0,1,1.41-.37,1.43,1.43,0,0,1,1.43,1.08,4.19,4.19,0,0,1,.17,1.6,11.28,11.28,0,0,1-.84,3,14.36,14.36,0,0,0-.79,2.1,1.65,1.65,0,0,0-.07,1.27c.4.22.69,0,.91-.25a3.34,3.34,0,0,1,2.79-.86,2.13,2.13,0,0,1,2.07,1.92,3.27,3.27,0,0,0,.32.94.39.39,0,0,0,.66.09c.14-.11.25-.26.39-.37a2.78,2.78,0,0,1,2.76-.52,5,5,0,0,1,2.08,1.68,2.5,2.5,0,0,1,.67,1.37,2.21,2.21,0,0,0,.42,1c.3.41.46.37.91.11a3.87,3.87,0,0,1,1.31-.6,2.78,2.78,0,0,1,2.39.61,2.93,2.93,0,0,1,1.26,2.72,16,16,0,0,0,.08,2.76.21.21,0,0,0,0,.07c.16.64.26.7.91.68a5.19,5.19,0,0,1,1.31.06,1.34,1.34,0,0,1,.81.52,3.39,3.39,0,0,1,.45,2.53,5,5,0,0,0-.12,1.22c0,.54.16.69.71.72s1.08,0,1.62,0,.6-.16.57-.53a3.58,3.58,0,0,1,.47-1.69c.24-.54.49-1.08.72-1.62a1.71,1.71,0,0,0,.13-.44c.09-.64.14-1.28.25-1.91a6,6,0,0,1,.26-.89,2,2,0,0,0-.09-1.77,15.6,15.6,0,0,1-1.72-3.09,19.34,19.34,0,0,0-1.67-3.19c-.47-.67-1.06-1.25-1.49-1.95,0-.05-.08-.07-.11-.11-.6-.67-1.19-1.35-1.8-2a8,8,0,0,0-.66-.64,13.17,13.17,0,0,1-1.81-1.54c-.55-.7-1.17-1.35-1.77-2a.84.84,0,0,0-.31-.22A3.69,3.69,0,0,1,197,95.16c-.67-.68-1.36-1.34-2.08-2s-1.52-1.22-2.28-1.83a.52.52,0,0,1-.16-.17,2.77,2.77,0,0,0-1.27-1,3.66,3.66,0,0,1-1-.64,1.65,1.65,0,0,1-.11-1.82c.25-.44.71-.41,1.11-.38a6.07,6.07,0,0,1,3.05,1.23c.54.4,1,.9,1.57,1.26a20.58,20.58,0,0,1,4,3.66,26.7,26.7,0,0,0,3.07,3,19.2,19.2,0,0,1,2.88,2.67,6.34,6.34,0,0,0,.75.88,10.84,10.84,0,0,1,1.95,2.48c.55.84.93,1.78,1.4,2.67A5.2,5.2,0,0,0,210.22,105.74ZM69.43,218.37c-1.05.6-2.05,1.18-3.07,1.73a1.36,1.36,0,0,1-2-.29,1.59,1.59,0,0,0-1.87-.46,1.83,1.83,0,0,1-.66,0l-1.59-.23a12,12,0,0,1-1.2-.18,2,2,0,0,0-1.5,0,8,8,0,0,1-1.68.53,1.56,1.56,0,0,1-.83,0,16.81,16.81,0,0,1-2.07-.82c-1.08-.52-1.19-.51-1.82.52-.3.5-.59.56-1.15.47a5.28,5.28,0,0,0-1.68-.08,3.08,3.08,0,0,1-1.51-.18,5.11,5.11,0,0,1-.93-.4c-.44-.29-.72-.1-1.1.15a13,13,0,0,1-2.2,1.43,2.37,2.37,0,0,0-1.66,2c-.1,1-.29,2-.37,3.07-.1,1.45-.13,2.9-.21,4.34a7.34,7.34,0,0,0,.31,3.66.76.76,0,0,1,.05.3,7.68,7.68,0,0,0,.78,2.53c.66,1.59,1.53,3.08,2.12,4.71a6.06,6.06,0,0,0,1.76,2.62c.45.37.86.81,1.28,1.22a1.5,1.5,0,0,0,.24.2c.88.48,1.73,1,2.65,1.42A23.76,23.76,0,0,0,53.28,248a30.19,30.19,0,0,0,4.45,1c1.27.13,2.53.44,3.79.69a28.38,28.38,0,0,0,4.86.48,4.11,4.11,0,0,0,2.06-.08c.08,0,.2,0,.3,0a8.84,8.84,0,0,0,1.14.13c.61,0,1.23-.07,1.85-.08.87,0,1.75,0,2.63,0a17.76,17.76,0,0,0,3.84-.53,9.67,9.67,0,0,1,3.33-.61,1.66,1.66,0,0,0,.67-.17,8.88,8.88,0,0,1,2.12-.44,11.94,11.94,0,0,0,4.19-.62,2,2,0,0,1,.61-.11,13.58,13.58,0,0,0,3.41-1c1.44-.64,2.93-1.15,4.36-1.8,1-.47,2-1.06,3-1.63.46-.27.83-.72,1.31-.94a7.58,7.58,0,0,0,1.93-1.53,6.21,6.21,0,0,0,1.1-1.07,9.3,9.3,0,0,1,1.27-1.45,3.58,3.58,0,0,0,.55-.73,21.38,21.38,0,0,0,1.69-2.85,27.19,27.19,0,0,1,1.44-2.64c.4-.75.73-1.54,1.13-2.29.69-1.29,1.4-2.57,2.1-3.85a1.3,1.3,0,0,1,.25-.39,10.24,10.24,0,0,0,1.48-2.26,6.17,6.17,0,0,1,.74-1.07c.66-.7,1.34-1.37,2-2s.51-.7-.06-1.19-1.13-.82-.79-1.66a.38.38,0,0,0,0-.15c-.14-.94-.33-1.88-.41-2.83a6.15,6.15,0,0,1,.17-1.59c.06-.34.34-.41.66-.36a1.94,1.94,0,0,1,1.19.94,5.1,5.1,0,0,1,.89,2.59c.08.81.27,1.61.42,2.42a1.55,1.55,0,0,0,1.29-.55c.31-.25.41-.5.09-.84a1.09,1.09,0,0,1-.2-.57c-.07-.56-.11-1.12-.16-1.69a4.25,4.25,0,0,0-.6-2,1.47,1.47,0,0,1-.24-1.19,1.79,1.79,0,0,0,0-.69c-.15-.87.59-1.08,1.19-.73a3.75,3.75,0,0,1,1.74,2.63c.21,1,.35,2,.53,3a2.48,2.48,0,0,0,.17.48c.71,0,1.07-.57,1.56-.88.22-.14.2-.38,0-.62a4.45,4.45,0,0,1-.77-2,6,6,0,0,0-1-2.9,6.8,6.8,0,0,1-1-2.14,1,1,0,0,1,.54-1.35,1.29,1.29,0,0,1,1.55.5,3.93,3.93,0,0,0,.21.41,7,7,0,0,1,1.56,2.89,12.23,12.23,0,0,0,.31,1.19c.25.78.52,1.56.8,2.37.26-.2.54-.42.83-.63a1.08,1.08,0,0,0,.4-1.29,6.11,6.11,0,0,1-.18-1.91,4.4,4.4,0,0,0-.56-2.42c-.53-1-1-1.95-.34-3.1.21-.35.41-.44.74-.3a2,2,0,0,1,1.36,1.38c.06.25.2.48.28.73a8.82,8.82,0,0,1,.87,3c0,.12.13.25.23.45.17-.18.33-.28.39-.43.19-.5.35-1,.5-1.53a1.76,1.76,0,0,0,.14-.83,1.58,1.58,0,0,1,.3-1.16,2.43,2.43,0,0,0,.38-.84,9.82,9.82,0,0,0,.15-2.35c-.17-1.4-.49-2.78-.75-4.17a.65.65,0,0,0-.08-.22,2.59,2.59,0,0,1-.27-1.5c0-.52,0-1,0-1.55a6.28,6.28,0,0,1,.16-2.44.61.61,0,0,0,0-.3,5.38,5.38,0,0,1,.35-2.28c.11-.31,0-.69.12-1a17,17,0,0,1,.89-1.88c.42-.8.88-1.58,1.33-2.36.23-.39.5-.78.76-1.16s.58-.78.86-1.18l1.88-2.74c.07-.1.2-.16.29-.25.75-.67,1.52-1.32,2.24-2,.51-.51,1-1.07,1.45-1.61l.78-.85c.52-.53,1-1.08,1.58-1.59s1.06-.81,1.52-1.29c1.18-1.22,2.39-2.42,3.69-3.52a6,6,0,0,0,1.84-1.72c.08-.16.32-.25.49-.37l1-.7c.14-.1.28-.22.43-.31.62-.37,1.26-.71,1.87-1.09.24-.16.57-.37.39-.74s-.5-.15-.77-.13a2.84,2.84,0,0,1-.91.08c-.64-.14-1.26-.37-2-.59a2.2,2.2,0,0,1-2.45.89,1.48,1.48,0,0,0-.87.23,1,1,0,0,1-.8.14,8.86,8.86,0,0,0-2.18.28c-1,.51-2,1-3.05,1.53a11.9,11.9,0,0,1-1.53.89,5.62,5.62,0,0,0-2.23,1.2.85.85,0,0,1-.35.15,9,9,0,0,0-2.77,1.23,9.46,9.46,0,0,1-2.51,1.18,12.75,12.75,0,0,0-1.41.61,5.37,5.37,0,0,1-1.88.68,15.67,15.67,0,0,0-2,.41c-.75.17-1.48.39-2.22.58a2.3,2.3,0,0,1-.89.19c-.86-.19-1.74.12-2.6-.18-.6-.22-1.25-.31-1.85-.53s-1.4-.61-2.13-.94a4,4,0,0,0-.37,1.84c0,1.49-.07,3-.13,4.48,0,.72-.17,1.43-.14,2.14a21.35,21.35,0,0,1-.22,4.79c-.22,1.11-.38,2.24-.6,3.35-.09.43-.34.81-.44,1.24a6.88,6.88,0,0,1-1.34,2.57c-.66.91-1.47,1.71-2.12,2.63a5.41,5.41,0,0,1-1.21,1.6,8.49,8.49,0,0,0-1.56,1.88,1.19,1.19,0,0,0,0,1.57,3.23,3.23,0,0,1,.88,2.07,5.77,5.77,0,0,1,0,2.23,4.14,4.14,0,0,0-.33.93,2.09,2.09,0,0,1-.47,1.11c-.22.32-.39.67-.63,1a5.64,5.64,0,0,1-1.07,1.11c-.85.55-1.81,1-2.66,1.51a2.44,2.44,0,0,1-2.42.17,2.13,2.13,0,0,0-.45-.13c-.61-.11-.66,0-.9.53a2.34,2.34,0,0,1-.66,1c-1,.76-2,1.46-3.1,2.16a1.45,1.45,0,0,1-.71.29c-.77,0-1.47.54-2.27.25a1.24,1.24,0,0,1-1.45-.38s-.09,0-.16,0-.09.13-.08.19a6.67,6.67,0,0,1-.39,2.51,2.09,2.09,0,0,1-1.16,1.56,4.35,4.35,0,0,0-.61.45,2.44,2.44,0,0,1-.6.31c-.37.12-.78.14-1.13.29a3.89,3.89,0,0,1-1.82.17A4.46,4.46,0,0,1,84,217.41a3.43,3.43,0,0,0-.47-.36,1.93,1.93,0,0,0-.86,1.3,2.28,2.28,0,0,1-1.38,1.08.6.6,0,0,1-.3-.06,2.59,2.59,0,0,0-1.33-.34,1.64,1.64,0,0,1-.7-.28.81.81,0,0,0-1,0c-.42.29-.84.59-1.27.87-1,.64-2,1.22-3.23.55a.93.93,0,0,0-1.08,0,.48.48,0,0,1-.37,0,9.06,9.06,0,0,1-1.34-.72A16.13,16.13,0,0,1,69.43,218.37ZM33.74,134.52a9.39,9.39,0,0,0,1.09-.7.9.9,0,0,0,.3-.65c0-.62-.13-1.23-.21-1.84-.15-1-.33-2-.44-3a6.62,6.62,0,0,1,0-1.54,3.44,3.44,0,0,0,.18-1.43.6.6,0,0,1,.11-.35c.41-.62.82-1.23,1.24-1.83a15.17,15.17,0,0,1,1-1.33,6.65,6.65,0,0,1,1.4-1.31,28.52,28.52,0,0,1,2.83-1.24.7.7,0,0,1,.37-.09c.94.16,1.61-.6,2.5-.6a8.73,8.73,0,0,1-.25-1.21c0-.64,0-1.29,0-1.94a1.65,1.65,0,0,0-.37-1.26c-.63.5-1.47.6-2,1.27a5.7,5.7,0,0,1-1.06.88,1.08,1.08,0,0,1-.41.17,6.62,6.62,0,0,0-1.11.23,3.58,3.58,0,0,1-1.74.23c-.61,0-.71-.13-.81-.72-.15-.83-.37-1-1.22-.83s-.76.12-1.14-.57a1,1,0,0,0-.87-.56,6.68,6.68,0,0,1-.77-.07.59.59,0,0,0-.7.35,1.67,1.67,0,0,1-1.33.82c-.53.08-1.06.12-1.59.21a.93.93,0,0,0-.44.27,3.06,3.06,0,0,0-.33.52,2.64,2.64,0,0,1-3.33,1c-.36-.17-.76-.28-1.21-.44-.12.35-.31.62-.28.87a2.82,2.82,0,0,1-.63,1.78c-.32.55-.66.61-1.23.29a3.79,3.79,0,0,0-2.83-.43c-.66.16-1.32.29-2,.47a3.23,3.23,0,0,0-.75.36c-.24.13-.48.29-.71.44-.43.27-1,.46-1,1.08a14.77,14.77,0,0,0-.3,2.37,21.6,21.6,0,0,0,.5,5c.08.3.29.59.27.88a13.89,13.89,0,0,0,.51,2.63c.07.59.33,1.17.46,1.79.18.9.9,1.64,1,2.61,0,0,0,0,.05.06A9.07,9.07,0,0,1,18,139.64a1.76,1.76,0,0,0,.69.81c.92.5,1.88.93,2.83,1.36a1.36,1.36,0,0,0,.46.05l.77,0c1,.06,2,.14,2.94.17a1,1,0,0,0,.69-.24,1.38,1.38,0,0,1,1.38-.5l1.47.09h.55c.06-.13.1-.18.09-.22a3.65,3.65,0,0,0-.07-.46c-.13-.66-.08-.77.5-1.14l.2-.12c1.11-.68,2.46-.94,3.43-1.89.11-.11.34-.09.51-.15a.64.64,0,0,0,.5-.58.93.93,0,0,0-1,0c-.6.23-1.21.44-1.82.66a6.28,6.28,0,0,0-1.61.68,8.14,8.14,0,0,1-2,1,12.34,12.34,0,0,1-2,.46,1,1,0,0,1-1.33-.64,7.21,7.21,0,0,1-.42-1.09,2,2,0,0,1,.91-2,3.81,3.81,0,0,1,.59.55.75.75,0,0,0,.89.29,5.12,5.12,0,0,0,1-.35A12.36,12.36,0,0,1,31.81,135a.47.47,0,0,0,.28-.12A1.66,1.66,0,0,1,33.74,134.52ZM114.52,169l.15-.09-1-.7a3.84,3.84,0,0,1-.52-.33,4.75,4.75,0,0,0-2.28-1.35,1.12,1.12,0,0,1-.9-.66,1.33,1.33,0,0,0-1-.82,3.89,3.89,0,0,1-1-.43,3.53,3.53,0,0,0-2.29-.76,2.23,2.23,0,0,1-1.8-.52,1.35,1.35,0,0,0-1.53-.16.91.91,0,0,1-.74.07,1.71,1.71,0,0,0-.6,0,9.67,9.67,0,0,1-1.31.07,4.76,4.76,0,0,0-2.84.83.55.55,0,0,0-.27.72,8.12,8.12,0,0,1,.11,1.21,8.22,8.22,0,0,0,0,.86A18.5,18.5,0,0,0,97.4,171a3,3,0,0,0,.52,1,5.33,5.33,0,0,0,1.84,1.52c.11,0,.19.16.27.25a6.17,6.17,0,0,0,.74.79,3.47,3.47,0,0,1,1.22,1.92c.13.39.16.81.27,1.2a13.76,13.76,0,0,1,.32,4.61,2.48,2.48,0,0,0,.12,1.39,1.34,1.34,0,0,0,.31-.12,7.78,7.78,0,0,1,2.64-1.19,3.2,3.2,0,0,0,.43-.17c.5-.21,1-.39,1.49-.63,1-.5,2.19-.82,2.84-1.89a.55.55,0,0,1,.24-.19,2.7,2.7,0,0,0,1.52-1.76c.2-.49.21-1.07.45-1.54a27.63,27.63,0,0,0,1.09-3.45c.28-.77.46-1.58.68-2.37a2.39,2.39,0,0,0,.09-.45C114.5,169.59,114.51,169.27,114.52,169Zm-85-57.38a3.06,3.06,0,0,0,.46-.35c.23-.24.44-.5.65-.76a1.14,1.14,0,0,1,1.62-.39,1.19,1.19,0,0,0,.95.13,1.16,1.16,0,0,1,1.38.42,1.54,1.54,0,0,0,1.2.62,2.24,2.24,0,0,1,1.8.92c.23.31.47.61.72.91a.94.94,0,0,0,1.48.18l2.79-2.07c.36-.27.36-.4.09-.75a6.36,6.36,0,0,0-1.86-1.57,1.92,1.92,0,0,1-.53-.45,8,8,0,0,0-2-1.32.55.55,0,0,0-.37-.08,1.79,1.79,0,0,1-1.5-.44.54.54,0,0,0-.27-.14c-.6,0-.93-.38-1.29-.75a2.71,2.71,0,0,0-2-.82,8.86,8.86,0,0,1-2.76-.25,1.4,1.4,0,0,0-.61,0,5.76,5.76,0,0,1-2.3-.2,3.92,3.92,0,0,0-1.23-.1,7.52,7.52,0,0,1-2.83-.3,5,5,0,0,0-2.53,0c-1,.22-2,.56-3,.78A1.87,1.87,0,0,0,16,106.22a9.24,9.24,0,0,0-.17,1.3c0,.25,0,.51-.07.77-.09.61-.24,1.21-.31,1.82-.1.85-.13,1.7-.21,2.54a1.86,1.86,0,0,1-.15.51,4.75,4.75,0,0,0-.58,2.61,1.14,1.14,0,0,1-.17.58,2.84,2.84,0,0,0-.21,1.5,4.93,4.93,0,0,1,.43-.28,13.17,13.17,0,0,1,2-1,9.76,9.76,0,0,1,2.91-.27c1.12,0,1.25-.12,1.49-1.23a1.81,1.81,0,0,0,0-.23,3.47,3.47,0,0,1,.82-1.74,1,1,0,0,1,.66-.3,1.75,1.75,0,0,1,1.22.4,5.07,5.07,0,0,0,1.18.71c.67.29.87.17,1.21-.49s.67-1.28,1-1.89a1,1,0,0,1,1.46-.42C28.87,111.25,29.14,111.41,29.48,111.58Zm14,90c.65.08,1.13.17,1.62.19,1.08,0,2.16.08,3.25.1a4.58,4.58,0,0,0,1.23-.05c1-.26,1.93-.54,2.87-.89.48-.18,1.07-.36,1.23-1a18.7,18.7,0,0,0,.49-2.34,2.52,2.52,0,0,1,.49-1.66c.09-.09.07-.29.1-.44a11.48,11.48,0,0,0,.33-2.92.85.85,0,0,1,.11-.44,1.38,1.38,0,0,0-.11-1.46c-.41-.65-.53-.7-1.26-.39a7.05,7.05,0,0,1-1.08.41c-.69.18-1.4.3-2.09.45-.1,0-.19.1-.29.13a12.44,12.44,0,0,1-1.32.39,4.05,4.05,0,0,0-2.38,1.19,3.52,3.52,0,0,1-.35.31,4.57,4.57,0,0,0-1.45,2.05,17.76,17.76,0,0,0-.53,2.18c-.19.85-.37,1.7-.54,2.56C43.64,200.51,43.55,201,43.43,201.61ZM106,196.94v-.2c.26-.33.51-.67.8-1,.46-.51,1-1,1.43-1.5.22-.24.41-.52.62-.78.73-.9,1.47-1.79,2.18-2.7a20.63,20.63,0,0,0,1.39-1.84,7.76,7.76,0,0,0,1.35-4.14,4,4,0,0,1,.1-1.44,9.78,9.78,0,0,0,.33-2.51s-.07-.11-.14-.23l-.38.53a9.05,9.05,0,0,1-.83,1.1,9.45,9.45,0,0,1-1.21,1,23.21,23.21,0,0,1-2,1.31c-.87.47-1.94.53-2.68,1.3-.1.11-.34.09-.52.1a3.76,3.76,0,0,0-2,.8,3.81,3.81,0,0,0-1,1,12.91,12.91,0,0,1-1.45,1.64c.27.54.56,1.05.79,1.59s.4,1.1.58,1.66a4.52,4.52,0,0,1,.25,1c.09.67.15,1.34.19,2a1,1,0,0,0,.67.95A14.58,14.58,0,0,0,106,196.94Zm-28,6.55-.14-.06-.39.51a7,7,0,0,1-1,1.25,12.41,12.41,0,0,1-2,1.16,2.19,2.19,0,0,1-1.63.34c-.33-.1-.59.19-.69.5a19.35,19.35,0,0,0-.77,2.67c-.14.94-.05,1.91-.12,2.87a8.51,8.51,0,0,0,.32,3.13,2,2,0,0,0,3,1.26c.59-.37,1.19-.73,1.75-1.15a1.82,1.82,0,0,0,.92-1.87,4.89,4.89,0,0,1,.06-2.46.8.8,0,0,0,0-.46,11.07,11.07,0,0,1,.25-4.29,1,1,0,0,0-.15-1c-.28-.28-.21-.52,0-.82A7,7,0,0,0,77.9,204,1.28,1.28,0,0,0,77.91,203.49Zm-1.65-9.75c-.77.06-1.58-.13-2.27.45a1.89,1.89,0,0,1-.35.17,11.88,11.88,0,0,0-2.24,1.54c-.18.15-.32.35-.5.49a15,15,0,0,0-3.08,2.88A8.9,8.9,0,0,0,66,202a2.31,2.31,0,0,0,1.83,1,6.83,6.83,0,0,1,1,.17c.66.16,1.32.35,2,.5a3,3,0,0,0,2.17-.28c.74-.41,1.56-.86,1.66-1.88a.83.83,0,0,1,.18-.42,4.74,4.74,0,0,0,1-2.52,7.65,7.65,0,0,1,.34-2.81c.07-.16.09-.35.16-.51A1.85,1.85,0,0,0,76.26,193.74ZM37.55,207.56c.07.34.15.82.26,1.3s.3,1,.42,1.54.14,1,.24,1.51c.05.22.29.42.28.62-.07.91.79,1.47.8,2.36a5.16,5.16,0,0,0,.36,1.16,3.82,3.82,0,0,0,.83,1.8c.36.35.59.46,1,.26a4.52,4.52,0,0,0,.92-.56,1.1,1.1,0,0,0,.22-1.66,1.82,1.82,0,0,1-.36-1.22,4,4,0,0,0-.15-1.38,3.1,3.1,0,0,1,0-1.6c.11-.56.21-1.11.32-1.67a1.65,1.65,0,0,1,.13-.52,1.93,1.93,0,0,0,.17-1.43,3.82,3.82,0,0,1,.26-1.89c.09-.32.15-.64.22-1a.67.67,0,0,0-.41-.75c-.29-.17-.49-.08-.77.07a8,8,0,0,1-4.05,1.33c-.34,0-.59.12-.59.55S37.6,207.07,37.55,207.56ZM93,210.86c1.13-.14,2.18-.26,3.22-.4a.7.7,0,0,0,.35-.16c.59-.49,1.19-1,1.76-1.49a1.14,1.14,0,0,0,.26-.54,3,3,0,0,0-.53-2.11c-.19-.38-.32-.79-.48-1.19a7.91,7.91,0,0,0-.53-1.27c-.37-.61-.83-1.17-1.23-1.76a.42.42,0,0,0-.66-.13,3.29,3.29,0,0,1-.42.34,13.19,13.19,0,0,1-2,1c-.76.27-1.59.37-2.38.57a.68.68,0,0,0-.56.91c.47,1.28,1.47,2.28,2,3.56,0,.08.13.15.2.22a3.16,3.16,0,0,1,.8,1.65C92.83,210.32,92.92,210.56,93,210.86ZM42.29,190l-1.38.49a5.59,5.59,0,0,0-.57.22,2.48,2.48,0,0,0-.83.48c-.46.57-.82,1.22-1.25,1.81s-.54,1.46-1.13,2a.48.48,0,0,0-.1.36c.08.72-.67,1.3-.37,2.07,0,0,0,.09-.06.14a3.08,3.08,0,0,0-.5,2.11c0,.09,0,.25-.06.29-.51.37-.3.87-.28,1.35a.82.82,0,0,0,.65.85,14.44,14.44,0,0,0,2,.48,2.71,2.71,0,0,0,1.92-.45,3.66,3.66,0,0,1,.23-2.44,13.38,13.38,0,0,0,.48-2c.16-.78.28-1.57.47-2.34s.48-1.67.74-2.5A8.89,8.89,0,0,0,42.29,190Zm14.94,15.55c-.37-1.17-1.44-1.28-2.15-1.86,0,0-.16-.08-.21-.05-.53.27-1.18.31-1.47,1a18.35,18.35,0,0,0-.91,2.19,8.13,8.13,0,0,0-.41,2.1c0,1.28.06,2.57.11,3.86a9.37,9.37,0,0,0,.13,1.68,2.49,2.49,0,0,0,1.81,1.83.94.94,0,0,0,1.26-.85c0-.94.08-1.88.14-2.83a.9.9,0,0,1,.13-.43,7.72,7.72,0,0,0,.74-3.36,8.94,8.94,0,0,1,.6-2.66A5.8,5.8,0,0,0,57.23,205.55ZM63,200.37c-.07-.3-.18-.74-.29-1.18a14.1,14.1,0,0,0-.51-2.65c-.26-.56-.46-1.15-.72-1.7a1,1,0,0,0-1.23-.37c-.43.34-1,.59-1.21,1.15a.82.82,0,0,1-1,.6c-.46-.06-.66.2-.75.61a2.36,2.36,0,0,0-.08.45,14.18,14.18,0,0,1-.66,2.66,12.58,12.58,0,0,0-.27,1.36.75.75,0,0,0,.28.58,6.93,6.93,0,0,0,3,1.39,3.59,3.59,0,0,0,2.63-.65,1.12,1.12,0,0,0,.6-1A7.85,7.85,0,0,1,63,200.37Zm1,5.83a5.73,5.73,0,0,0-1.94.05,6.18,6.18,0,0,1-1.36.17,3.27,3.27,0,0,0-.62,0,.68.68,0,0,0-.42.35,13,13,0,0,0-.49,2,19.37,19.37,0,0,1-.32,2.61,18.15,18.15,0,0,0-.42,2.43c-.08.6-.1,1.21-.14,1.8.53.11,1,.22,1.43.29.72.1,1.44.14,2.15.25.35.06.49-.06.66-.35a3.51,3.51,0,0,0,.24-2.42,1.68,1.68,0,0,1,.41-1.57.65.65,0,0,0,.19-.33,13.92,13.92,0,0,0,.34-2.29A12.55,12.55,0,0,1,63.94,206.2Zm43.28-3.54c-.09-1.63-.71-2.34-2.25-2.57a2.45,2.45,0,0,1-.38,0,8.34,8.34,0,0,1-1.21-.45.79.79,0,0,0-1,.14,12.47,12.47,0,0,1-2.76,2.09c-.45.32-.48.37-.2.84a11.6,11.6,0,0,1,.87,1.63c.2.51.09,1.16.8,1.37a.15.15,0,0,1,.08.12c.13.65.67.71,1.17.85a2.13,2.13,0,0,0,2-.35c.56-.44,1.2-.79,1.79-1.2a1.63,1.63,0,0,0,.66-1,1.06,1.06,0,0,1,.21-.56A.8.8,0,0,0,107.22,202.66ZM66,205.44c-.15.92-.27,1.69-.39,2.47-.06.38-.12.76-.15,1.15a9.15,9.15,0,0,1-.41,3.2,1.61,1.61,0,0,0,0,.54c0,.77,0,1.55.08,2.32a6.33,6.33,0,0,0,.13,1.15c.15.57.39.66.9.36a12.32,12.32,0,0,0,1.68-1.21,2.34,2.34,0,0,0,.77-1.84,28.45,28.45,0,0,1,.28-3.91,3.92,3.92,0,0,1,.42-1.32,9.58,9.58,0,0,1,.78-1.14c.22-.32.22-.63,0-.72-.65-.2-1.17-.79-1.94-.63a1.43,1.43,0,0,1-.52-.11Zm-20.33,6.1c0,.1,0,.17-.07.19-.68.54-.56,1.18-.29,1.88a7,7,0,0,1,.16.82,5.08,5.08,0,0,0,.28.86,6.31,6.31,0,0,0,.42.71,2.19,2.19,0,0,1,.75.12,2.15,2.15,0,0,0,1.49.2c.7-.11.77-.2.62-.91a6.26,6.26,0,0,1-.34-1.55c0-.8-.22-1.56-.18-2.34,0-.56,0-1.13,0-1.69,0-.32.24-.62.28-1a14.27,14.27,0,0,0,.15-1.85,6.41,6.41,0,0,0-.15-1.38.73.73,0,0,0-.39-.4,14,14,0,0,0-1.57-.42.42.42,0,0,0-.39.15,7.24,7.24,0,0,0-.72,1.7c-.2.92-.22,1.89-.39,2.83A2.51,2.51,0,0,0,45.64,211.54Zm41.3-6.25c-.25.79-.44,1.37-.63,2-.07.24-.15.49-.2.74-.15.84-.23,1.69-.45,2.51a11.49,11.49,0,0,0-.12,4.37,1.05,1.05,0,0,0,1.39,1.07,5.87,5.87,0,0,0,2.12-.68,1.78,1.78,0,0,0,1.07-1.73,3.76,3.76,0,0,1,.08-1.46c.19-.67-.14-1.27-.12-1.9a.54.54,0,0,0-.18-.34c-.5-.43-.65-1.19-1.33-1.47-.06,0-.14-.11-.14-.17a3.22,3.22,0,0,0-.83-1.68c-.07-.09,0-.26-.09-.37S87.19,205.65,86.94,205.29Zm1-4.53a2.56,2.56,0,0,0,1.48,0c.69-.18,1.4-.31,2.09-.48a1.74,1.74,0,0,0,.78-.29,16.85,16.85,0,0,0,1.29-1.51.67.67,0,0,0,.06-.45,5.87,5.87,0,0,0-.19-.83c-.24-.89-.52-1.76-.75-2.66a.52.52,0,0,0-.59-.46,4.09,4.09,0,0,0-2.06.54,17.69,17.69,0,0,1-2.52,1.48,1.79,1.79,0,0,0-.46.27c-.41.32-.43.53-.19,1a7,7,0,0,1,.48,1.13C87.6,199.19,87.76,200,88,200.76Zm-4.4-7a3.89,3.89,0,0,0-2.12.84,1.3,1.3,0,0,0-.64,1.15,4.71,4.71,0,0,1-.11,1c-.14.59-.38,1.17-.48,1.77-.15,1-.23,1.94-.32,2.91,0,.41.11.58.51.63.23,0,.5,0,.68,0A2.45,2.45,0,0,0,83.3,202c.21-.08.44-.14.66-.22s.26-.09.32-.18a3.38,3.38,0,0,0,.84-2.1,4.68,4.68,0,0,0-.72-2.42,2.73,2.73,0,0,1-.49-1.43A10.81,10.81,0,0,0,83.56,193.8Zm12.8,4.85c.45.09.83.15,1.2.25a.84.84,0,0,0,.72-.12c.5-.31,1-.54,1.56-.82a1.09,1.09,0,0,0,.48-.47,16.67,16.67,0,0,0,.79-2.42,2.26,2.26,0,0,0-.33-2,2.4,2.4,0,0,1-.32-.86c-.2-.7-.43-.82-1-.46s-1.3.49-1.71,1.12c-.08.13-.3.17-.47.25l-.77.35a1.23,1.23,0,0,0-.73,1.17,26.42,26.42,0,0,0,.57,4S96.35,198.64,96.36,198.65Zm-16,17.17c.35-.62.71-1.21,1-1.82a3.65,3.65,0,0,0,.21-.82c.11-.56.19-1.12.33-1.67.29-1.12.22-2.33.83-3.36a.19.19,0,0,0,0-.08,2.86,2.86,0,0,1,.54-1.66,1,1,0,0,0,.14-.94,7.59,7.59,0,0,0-2.63-.27c-.51,0-.6.11-.62.59,0,.75,0,1.5-.05,2.25,0,.36-.06.72-.11,1.08a8.46,8.46,0,0,0-.15,1c0,1.63,0,3.25,0,4.88A.83.83,0,0,0,80.34,215.82Zm-48.5-74,.06.19a2.92,2.92,0,0,0,.5.09c.72,0,1.44,0,2.16,0,1.3-.08,1.72-.62,1.52-1.9,0-.15,0-.31-.09-.46-.1-.37-.26-.46-.62-.3a2.16,2.16,0,0,0-.45.29c-.42.29-.82.61-1.24.9Z"/><path class="cls-1" d="M93.9,140.28a3.57,3.57,0,0,0-.22-.95,7.7,7.7,0,0,1-1-3.06c-.14-1.63-.3-3.25-.52-4.86a2.8,2.8,0,0,0-1.31-2.25,1.54,1.54,0,0,1-.69-.78A1.92,1.92,0,0,0,89,127.23c-1-.47-1.19-.92-.82-2a4.19,4.19,0,0,1,.82-1.8c.32-.31.34-.93.5-1.42a1.17,1.17,0,0,1,.17-.43c.7-.7.69-1.69,1-2.53a18.81,18.81,0,0,0,.77-2.26,1.86,1.86,0,0,1,1.83-1.5c.46,0,.88-.16.76-.8a.46.46,0,0,1,.24-.37,4.45,4.45,0,0,1,1.47-.66,1.39,1.39,0,0,0,1.23-.82,2.76,2.76,0,0,1,.56-.63,2.31,2.31,0,0,0,.76-1.87,5.81,5.81,0,0,1,.12-1.31,1.3,1.3,0,0,0-1.3-1.48.74.74,0,0,0-.5.49c-.11.63-.13,1.27-.19,1.91a4.61,4.61,0,0,1-.07.84.93.93,0,0,1-.93.79c-.59,0-1.2,0-1.45-.65a3.5,3.5,0,0,1-.28-2.62,10.06,10.06,0,0,0,.38-1.73c.06-.3,0-.48-.4-.86-.33.16-.35.45-.36.77a4.75,4.75,0,0,1-.12.74,4.08,4.08,0,0,0-.17.83,5,5,0,0,1-.53,2.08,1.16,1.16,0,0,1-.4.45c-.73.5-1.12.41-1.6-.34a2,2,0,0,1-.33-1.68c.25-.89.39-1.8.6-2.7a3.69,3.69,0,0,1,.3-.71c.28-.54.18-.74-.44-.79-.28,0-.57,0-.85,0a.8.8,0,0,0-.9.56,5.32,5.32,0,0,1-.35.61,3.88,3.88,0,0,0-.54,1.9c0,1.21,0,2.43,0,3.64a1.35,1.35,0,0,1-1.11,1.2,1.27,1.27,0,0,1-1.32-1c-.09-.4-.25-.78-.35-1.18a2.44,2.44,0,0,1-.1-.76c.09-1.1.18-2.21.33-3.31,0-.25.28-.47.43-.71a3.86,3.86,0,0,0,.44-.79c.1-.3-.06-.5-.4-.49a3.67,3.67,0,0,0-1.81.62.32.32,0,0,0-.14.18,12.22,12.22,0,0,0-.7,3.2c0,1.13.19,2.26.35,3.39a3.2,3.2,0,0,0,.48,1,1.58,1.58,0,0,1-.22,1.86.76.76,0,0,1-1,.16A3.6,3.6,0,0,1,81,111.44c-.13-1.25-.16-2.52-.23-3.78,0-.28,0-.56,0-.84a1.51,1.51,0,0,0-1.35,1.87c.07.59.08,1.18.13,1.77a1.36,1.36,0,0,0,.07.54c.41.81.44,1.73.91,2.53a1.27,1.27,0,0,1-.29,1.8.67.67,0,0,1-.85.06c-.3-.2-.62-.37-.9-.6a1.8,1.8,0,0,1-.81-1.34,6.89,6.89,0,0,0-.43-1.49c-.47,0-.86.22-1.29-.09a1.42,1.42,0,0,1-.5-1.85,13.3,13.3,0,0,0,1.12-3,7.41,7.41,0,0,1,.67-1.54.43.43,0,0,1,.22-.2,1.32,1.32,0,0,0,.94-.75c0-.09.2-.14.31-.2s.29-.06.35-.15a7.78,7.78,0,0,1,2.12-1.48,5.94,5.94,0,0,1,1.55-.66c.68-.22,1.35-.48,2-.74a7.17,7.17,0,0,1,4.42-.18,13.48,13.48,0,0,0,3,.56,4.83,4.83,0,0,1,1.59.35c.79.3,1.54.7,2.31,1.06,0,0,0,0,.06,0,1.48.32,2.52,1.52,3.92,2a1,1,0,0,1,.45.29,5.51,5.51,0,0,0,1.52,1,16.91,16.91,0,0,0,4.22,1.68,7.13,7.13,0,0,1,1.07.45,8.68,8.68,0,0,0,2.35.73c.73.11,1.46.34,2.19.5.3.07.61.09.91.14a2.5,2.5,0,0,1,.68.15,36.37,36.37,0,0,0,4.15,1.44,9.94,9.94,0,0,1,2.89,1.06.88.88,0,0,0,.5.17,12.28,12.28,0,0,1,2.27.2,3.46,3.46,0,0,1,1.38.45,1.57,1.57,0,0,0,.69.31,7.09,7.09,0,0,1,2.83,1c.14.07.28.19.42.19a2.08,2.08,0,0,1,1.54.86c.74.74,1.57,1.4,2.31,2.14a3.92,3.92,0,0,1,.7,1.12c.37.79.69,1.6,1,2.4a2.34,2.34,0,0,1,.09.46l.54,2.64c.13.65.27,1.29.39,1.94a.43.43,0,0,1,0,.3,3.52,3.52,0,0,0-.26,1.89c0,.41-.15.81-.14,1.21a7.68,7.68,0,0,1-.19,1.66c-.12.57-.12,1.17-.21,1.76a1.69,1.69,0,0,0,.08,1.13.62.62,0,0,1,0,.5,5.86,5.86,0,0,0-.7,2.87.78.78,0,0,1-.07.3c-.33.78-.67,1.55-1,2.33s-.68,1.6-1,2.4a1.92,1.92,0,0,1-.4.64,4.22,4.22,0,0,0-1,1.78,2.53,2.53,0,0,1-1.12,1.42,3.55,3.55,0,0,0-.78.62,4.77,4.77,0,0,1-2.34,1.54,10.15,10.15,0,0,0-1.77.76,5.35,5.35,0,0,1-2.39.56h-.23L118,151a.84.84,0,0,1-.44,0,5,5,0,0,0-2.07-.14,4.59,4.59,0,0,1-1-.1,8.18,8.18,0,0,1-1.26-.36,12.72,12.72,0,0,1-1.31-.58,13.64,13.64,0,0,0-3.09-.67c-.9-.2-1.84.05-2.73-.29a3.12,3.12,0,0,0-.69-.05,1.69,1.69,0,0,1-.76-.12,13.4,13.4,0,0,0-3-.85,6.94,6.94,0,0,1-2.91-1.32,11,11,0,0,0-1.61-1,1.34,1.34,0,0,1-.42-.49c-.16-.29-.25-.62-.4-.92a.61.61,0,0,0-.84-.34,2.45,2.45,0,0,1-2.31-.07.6.6,0,0,0-.37-.07.72.72,0,0,1-.86-.35.46.46,0,0,0-.24-.19q-1.29-.48-2.61-.93c-.07,0-.16,0-.22,0a14.56,14.56,0,0,0-2.4-.85,8,8,0,0,0-1.8-.41,3,3,0,0,1-.81-.22c-.39-.18-.76-.42-1.16-.59-.74-.31-1.5-.56-2.22-.9a7.68,7.68,0,0,1-1.3-.82,9.06,9.06,0,0,1-1-.81c-.56-.5-1.11-1-1.63-1.54a8.88,8.88,0,0,1-1.59-2.43c-.65-1.43-.51-3-.86-4.45A10.07,10.07,0,0,1,74,126.7c0-.59-.07-1.18-.1-1.78a2.46,2.46,0,0,1,.72-1.88c.42-.43.73-.39,1.25-.11a2,2,0,0,1,1.09,1.89c.1,1.94.2,3.87.33,5.8a5.18,5.18,0,0,0,1.35,3.06,10,10,0,0,0,3,2.36c.82.42,1.64.84,2.49,1.22a34.91,34.91,0,0,0,4.19,1.19,10.62,10.62,0,0,1,2.26.72,16.31,16.31,0,0,0,1.73.67c.29.11.56.26.84.38s.42.15.62.22Zm6.46,3.61.2-.06a9.53,9.53,0,0,0,0-1.07A.66.66,0,0,1,101,142a1.51,1.51,0,0,1,.67-.17,5.89,5.89,0,0,0,2.29-.32,9.1,9.1,0,0,0,2.42-.72,2.37,2.37,0,0,1,1.36-.08c.14,0,.34.31.36.5a1.53,1.53,0,0,1-1,1.54,2,2,0,0,0-1.06.71c-.39.51-.69.52-1.27.3a1.26,1.26,0,0,0-.64,0c-.17,0-.33.24-.48.23a2.64,2.64,0,0,0-1.73.63c.65.2,1.23.4,1.82.56.35.09.74.05,1.06.17a6.91,6.91,0,0,0,2.2.37c.53,0,1.07.08,1.61.16a9,9,0,0,0,1.44.25,6.8,6.8,0,0,1,2.71.54c.45.18.87.44,1.3.66a1.83,1.83,0,0,0,2.59-.57c.48-.7,1.22-1.31,1.14-2.31,0-.11.09-.24.16-.34.35-.51.72-1,1-1.52a10,10,0,0,1,1.75-2.67,26.3,26.3,0,0,0,1.84-2,.35.35,0,0,1,.11-.1c.76-.3,1-1,1.12-1.66s0-1.36.61-1.82a.2.2,0,0,0,0-.15,1.68,1.68,0,0,1,.61-1.12,1,1,0,0,0,.24-1.13,10.68,10.68,0,0,1-.45-1.49,2.21,2.21,0,0,1-.13-1c.15-.66,0-1.4.48-2a.56.56,0,0,0,.09-.21,9.36,9.36,0,0,1,.74-2.59,4.75,4.75,0,0,0,.38-1.48,6.33,6.33,0,0,0-.75-3.81,2.76,2.76,0,0,0-3.28-1.33,1.36,1.36,0,0,1-.53,0,2.65,2.65,0,0,0-1.79.35c-.38.22-.75.46-1.14.66s-.79.36-1.16.58a3.94,3.94,0,0,0-1.31,1.6,3.88,3.88,0,0,1-.61.79,1,1,0,0,1-1,.18c-.36-.09-.41-.35-.43-.65a.42.42,0,0,0-.08-.22c-.37-.4-.2-.82,0-1.22a15,15,0,0,1,.93-1.78,7.26,7.26,0,0,1,1.24-1.46,5.31,5.31,0,0,1,1.31-.64l1.56-.7a18,18,0,0,0-3.93-1.29,3.14,3.14,0,0,1-.21.67,31.42,31.42,0,0,0-1.83,2.67c-.25.55-.89.92-1.37,1.35a1,1,0,0,1-1.67-1.13,2.9,2.9,0,0,1,.59-1,10.92,10.92,0,0,0,2.16-2.67,7.36,7.36,0,0,1,.45-.61c-.63-.05-1-.66-1.57-.45-.12.87-.12.86-.85,1.58a2,2,0,0,0-.43.54,8.88,8.88,0,0,0-1,2.74.82.82,0,0,1-1.19.57,1.43,1.43,0,0,1-.78-1,7.59,7.59,0,0,1,1.07-4.12c0-.06.12-.09.17-.15s.21-.27.33-.42c-.12-.13-.19-.23-.29-.32a.85.85,0,0,0-.25-.17.49.49,0,0,0-.7.29,6.94,6.94,0,0,1-1.12,2,3.72,3.72,0,0,0-.42,1,5,5,0,0,1-.46,1.22.71.71,0,0,1-.41.31,1.8,1.8,0,0,1-1.51-1.12,1,1,0,0,1,.21-.55c.1-.17.3-.29.39-.47q.73-1.52,1.41-3.06a1.81,1.81,0,0,0,.07-.58c-.17,0-.27,0-.31,0l-2.26,1.63c-.07,0-.1.17-.15.26-.37.68-.72,1.37-1.1,2a.84.84,0,0,1-.42.41c-.51.14-1.29-.51-1.33-1.06,0-.3,0-.59-.09-1.06a6.25,6.25,0,0,0-.8.49,19.92,19.92,0,0,0-1.46,1.59,4.21,4.21,0,0,0-.65,1.13c-.49,1.25-.92,1.57-2.21,1.55a.8.8,0,0,0-.31,0c-.11,0-.29.12-.3.2-.06.64-.52,1.18-.39,1.86a1.73,1.73,0,0,1-.73,1.91,1.12,1.12,0,0,0-.51,1.18,1.92,1.92,0,0,1-.55,1.71.57.57,0,0,0-.16.63,1.65,1.65,0,0,0,.81,1.15,2.21,2.21,0,0,1,.87,1,22.74,22.74,0,0,1,1.06,3.07,11.7,11.7,0,0,1,.46,3.58,4.33,4.33,0,0,0,.07,1.08,5.8,5.8,0,0,0,.42,1.56c.63,1.24,1.33,2.44,2,3.64a15.66,15.66,0,0,0,.9,1.34C99.54,142.84,100,143.37,100.36,143.89Zm29.42-23.46-.21.06c0,.12,0,.24,0,.36a10.53,10.53,0,0,1-.63,4.72,19.65,19.65,0,0,0-1,3.08,1.37,1.37,0,0,0,.78,1.74,4.64,4.64,0,0,1,1,.77,1.19,1.19,0,0,1,.33,1.21,3.12,3.12,0,0,1-1.65,2,2.34,2.34,0,0,0-1.25,1.7,9.85,9.85,0,0,1-.83,2.11A15.05,15.05,0,0,1,125,140a3.57,3.57,0,0,1-.28.27l-.64.66-.43.43c-.26.25-.54.47-.78.73a5.7,5.7,0,0,0-1.47,2.15,1.64,1.64,0,0,1-.28.37c-.42.59-.84,1.18-1.24,1.78a1.06,1.06,0,0,0-.19,1.14l1.83-.33a1,1,0,0,0,.83-.7,10.1,10.1,0,0,1,1-2,23.2,23.2,0,0,0,1.32-2.25c.35-.63.8-1.19,1.2-1.79s.9-.86.76-1.59c.47,0,.86-.1.93-.55.11-.7.74-.9,1.16-1.28s.73-1,1.43-1.13a.71.71,0,0,0,.62-.6,4.73,4.73,0,0,0,.15-1c.06-.71,0-1.44.15-2.15s.29-1.51.42-2.26a2.45,2.45,0,0,0,0-.54c-.08-.87-.16-1.74-.23-2.62-.05-.71-.08-1.43-.12-2.15,0-.41,0-.83-.08-1.23a3.43,3.43,0,0,0-.21-1,14.63,14.63,0,0,0-.69-1.29Zm-26.62-9.83c-1-.71-1.24-.64-1.63.3a2.32,2.32,0,0,0-.13.37c-.11.47-.23.94-.32,1.41a2.34,2.34,0,0,0,0,.55Zm24.73,31.7c-.44.56-1.18,1-1.09,2C127.27,143.59,127.89,143.12,127.89,142.3Zm.58-1a1.06,1.06,0,0,0,.68-1.15C128.94,140.54,128.31,140.64,128.47,141.32Z"/><path class="cls-1" d="M69.25,169.63a1.25,1.25,0,0,0-1,.8,7.41,7.41,0,0,1-2.11.85c-.91.07-1.68-.43-2.57-.38a.79.79,0,0,1-.56-.23,5.13,5.13,0,0,0-1.72-1.16,12.11,12.11,0,0,1-2.23-1.86,3.89,3.89,0,0,0-.56-.32,13.8,13.8,0,0,0-.52,2.38c0,.4.08.75-.3,1a1.45,1.45,0,0,1-1.3.34c-1-.32-1.49-.78-1.39-1.74.11-1.18.22-2.37.27-3.55a14.42,14.42,0,0,0-.15-1.6c0-.31,0-.61,0-.92a1.75,1.75,0,0,0-.11-.4,2.87,2.87,0,0,0-.88,1.48,1.41,1.41,0,0,1-.57.8,1.19,1.19,0,0,0-.47.5,3,3,0,0,1-2,1.66,1.47,1.47,0,0,0-.55.26,2.42,2.42,0,0,1-2.59.41,2,2,0,0,0-.59-.18,2.61,2.61,0,0,1-2-1,6,6,0,0,1-.88-1.61c-.22-.49-.3-1.05-.55-1.52a6.23,6.23,0,0,1-.51-1.69c-.21-1.06-.47-2.11-.71-3.17a1.25,1.25,0,0,0-.17-.43,4.35,4.35,0,0,1-.58-2.52,28.71,28.71,0,0,0-.53-5.31,8,8,0,0,1,.09-2.54,12.16,12.16,0,0,0,.25-2.37c-.14-.89.25-1.8-.15-2.66a.5.5,0,0,1,0-.38,2.1,2.1,0,0,0,.07-1.5,5.93,5.93,0,0,1-.11-1.52,6.67,6.67,0,0,0-.34-1.9,17.17,17.17,0,0,1-.33-4.85c0-.36,0-.73.08-1.09a2,2,0,0,1,.08-.61c.38-.93.78-1.84,1.18-2.76.16-.35.34-.7.5-1a12.09,12.09,0,0,1,.8-1.66,3.19,3.19,0,0,1,2.13-1.13A4.94,4.94,0,0,1,50,125.9c1,.83,2.08,1.61,3.11,2.42.31.24.6.48.89.74.89.78,1.81,1.54,2.65,2.37a9.56,9.56,0,0,1,1.1,1.49c.74,1.09,1.46,2.19,2.18,3.29.22.34.43.58.86.26a.39.39,0,0,1,.6.16c.23.39.42.81.64,1.21a2.74,2.74,0,0,0,.48.76,6.88,6.88,0,0,0,1.4,1,9,9,0,0,1,2.22,1.78,16.79,16.79,0,0,1,3.25,4.41c.33.61.6,1.25.9,1.88.17.35.38.67.53,1a5.44,5.44,0,0,1,.29.86,18.44,18.44,0,0,1,.51,2.17,15.59,15.59,0,0,1,0,1.93c0,.46,0,.93,0,1.39-.12,1.07-.28,2.13-.42,3.19a1.59,1.59,0,0,0-.06.3c0,1.44-.59,2.78-.7,4.19a14.86,14.86,0,0,0,0,2,1.48,1.48,0,0,1-.17.86,5.81,5.81,0,0,0-.5,1.61C69.53,168,69.4,168.76,69.25,169.63Zm-2.06-21c0-.47-.33-.89-.57-1.37a.36.36,0,0,0-.32-.14,3.08,3.08,0,0,0-1.2.44,2.59,2.59,0,0,1-1.33.71,2.72,2.72,0,0,0-.5.22c-.23.09-.47.16-.72.23s-.53.12-.8.2l-3.72,1c-.49.13-1,.15-1.22.78-.06.2-.38.33-.59.48a4.45,4.45,0,0,0-.58.38,24.33,24.33,0,0,1-3.25,2.83,1.26,1.26,0,0,1-1.67-.22c-.62-.65-.67-.89-.12-1.51s1-.95,1.51-1.45,1.24-1.23,1.79-1.91c.26-.32.35-.75.91-.6.09,0,.25-.08.33-.17a3,3,0,0,1,2-1,1.43,1.43,0,0,0,.43-.17,10.19,10.19,0,0,1,1.53-.73,22.47,22.47,0,0,1,3.22-.76,3.14,3.14,0,0,0,2-1.09c.45-.52.46-.81-.07-1.24a.8.8,0,0,0-.94,0,11.35,11.35,0,0,1-1.89.84,10.55,10.55,0,0,0-2.26,1c-1.47.81-3,1.59-4.43,2.38a1.33,1.33,0,0,1-.3.06c-.84.21-1.69.4-2.53.63a1.21,1.21,0,0,0-.47.26c-.64.56-1.26,1.13-1.9,1.68a.86.86,0,0,1-.54.2,1.84,1.84,0,0,1-1-1.19,2.34,2.34,0,0,1,1.2-2.32c.68-.42,1.31-.92,2-1.35a4.49,4.49,0,0,1,1-.51c.55-.2,1.13-.32,1.68-.51s1.29-.51,1.93-.78a4,4,0,0,0,1-.45,7.61,7.61,0,0,1,3.61-1.65c.15,0,.29-.21.48-.35-.53-.5-.94-.92-1.68-.74-.34.09-.72,0-1,.37,0,.07-.18.09-.28.12l-1.79.39a3.2,3.2,0,0,0-.43.17c-1.06.46-2.11,1-3.2,1.37a10.66,10.66,0,0,0-4,2.49c-.63.64-1.27.47-1.58-.39a5.1,5.1,0,0,1-.19-.5,1.29,1.29,0,0,1,.81-1.68,6.11,6.11,0,0,0,1-.63,16.65,16.65,0,0,1,1.37-1c.62-.36,1.32-.59,1.93-1a8.88,8.88,0,0,1,2.11-1.06c1.13-.33,2.22-.79,3.35-1.2a1.13,1.13,0,0,0-1.61-1.22,2.71,2.71,0,0,1-.82.15c-1.45.26-2.95.36-4,1.54a.64.64,0,0,1-.19.13,12.59,12.59,0,0,0-2.81,2.49,22.58,22.58,0,0,0-1.59,1.94H44.9v2.6c0,1.16,0,2.32,0,3.48a13.94,13.94,0,0,1,0,1.83,1.48,1.48,0,0,0,.21,1.18.66.66,0,0,1,.07.79,1.31,1.31,0,0,0-.13.59,10,10,0,0,0,.05,1.23,7.14,7.14,0,0,1,.28,2s0,.1.06.14a17.8,17.8,0,0,1,1,3.73,5.49,5.49,0,0,0,1,2.57,6.83,6.83,0,0,1,.49.88c.54.91,1.17,1,1.83.53a6.44,6.44,0,0,0,1.19-1.2,22.28,22.28,0,0,1,2.27-3.09,3.44,3.44,0,0,1,2.26-.94,2.56,2.56,0,0,1,2.07.6c.11.1.29.12.42.2A2.59,2.59,0,0,1,59.24,162a5.73,5.73,0,0,0,.67,1.36,7.79,7.79,0,0,0,.64.87c.49.66,1,1.31,1.49,2a.64.64,0,0,0,.17.16c.89.53,1.75,1.09,2.65,1.58s1.4.16,1.7-.77c.12-.36.29-.71.43-1.08a1.78,1.78,0,0,0,.16-.51,22.28,22.28,0,0,1,.45-3.35,1.2,1.2,0,0,0-.09-.51c-.5.08-1,.16-1.41.22a.89.89,0,0,1-.89-.35,3.68,3.68,0,0,0-.7-.72,3.51,3.51,0,0,1-1.38-3.62.74.74,0,0,1,1.14-.59,2.07,2.07,0,0,1,1.33,1.49,1.93,1.93,0,0,0,.86,1.33,1.55,1.55,0,0,1,.92,1.31s.08,0,.13.08c.34-.06.35-.34.37-.59a9.24,9.24,0,0,0,.3-2.67,1.08,1.08,0,0,1,.1-.45,13.47,13.47,0,0,0,.35-4.38,1.77,1.77,0,0,0-.08-.46c-.17-.51-.4-.56-.87-.28a3.88,3.88,0,0,1-1.24.57,2.17,2.17,0,0,0-.87.44,18.88,18.88,0,0,1-1.93,1.27c-.91.47-1.87.85-2.81,1.25a2.57,2.57,0,0,1-.88.24,6.3,6.3,0,0,0-2.14.58,7.3,7.3,0,0,1-2.78.88.77.77,0,0,0-.51.15c-.82.69-2,.44-2.85,1.12-.18.15-.55.07-.83.08s-.46,0-.7,0a1.38,1.38,0,0,1-1.36-.78,1.2,1.2,0,0,1,.11-1.12c.17-.33.52-.25.83-.24a2.68,2.68,0,0,0,.75,0c.35-.08.69-.21,1-.3a3.07,3.07,0,0,0,1.39-.65,2.15,2.15,0,0,1,.68-.33,7.79,7.79,0,0,0,1.09-.38,8,8,0,0,1,2.09-.81,15.06,15.06,0,0,0,1.63-.44c1.2-.46,2.24-1.22,3.49-1.6a12.28,12.28,0,0,0,2.72-1.45C65.46,149.91,66.28,149.28,67.19,148.64ZM52.12,131.79A2.77,2.77,0,0,0,51,130.68a2.89,2.89,0,0,1-1-.6,17.75,17.75,0,0,0-3-2.21,1.2,1.2,0,0,0-1.5.08,4.86,4.86,0,0,0-1.14,1.9c-.2.79-.41,1.59-.63,2.38a7.08,7.08,0,0,0,.26,4.32,6.66,6.66,0,0,1,.38,2.11c0,.36,0,.72,0,1.08a2,2,0,0,0,.42,1.29c.82-1,1.62-2,2.38-3,.2-.27.42-.55.73-.5.68.13.8-.28,1-.78a1.51,1.51,0,0,1,1.29-1.08c.58,0,.83-.51,1.34-.89a5.16,5.16,0,0,0-.64-.1c-.9.06-1.8.15-2.71.17a6,6,0,0,1-1.52-.17,2.12,2.12,0,0,1-1.38-1.17c-.21-.42-.12-.9.23-1a4.8,4.8,0,0,1,1.5-.24c.84,0,1.68.14,2.52.21a1.08,1.08,0,0,0,.31,0l1.79-.49C51.86,132,52,131.87,52.12,131.79Z"/><path class="cls-1" d="M145.55,122.36a4.51,4.51,0,0,1,2.49-1.65,2.74,2.74,0,0,0,1.08-.57c.61-.64,1.35-.3,2-.31a.29.29,0,0,1,.2.2c0,.46.06,1-.17,1.34a2.34,2.34,0,0,1-1.69,1.24,1.17,1.17,0,0,0-.41.19c-.45.26-.89.53-1.35.77-.3.16-.52.34-.43.72s.44.68.71.6c.49-.13,1,0,1.48-.35s.8-.27,1.05-.67a2.86,2.86,0,0,0,2-1,.26.26,0,0,1,.21-.06,2.69,2.69,0,0,1,1.7,1,.49.49,0,0,1-.09.47c-.51.43-1.06.8-1.56,1.23a9,9,0,0,1-2.68,1.36c-.52.2-.58.26-.41.79s.35.91.55,1.43a7.47,7.47,0,0,0,2.66-.79.79.79,0,0,1,.33-.19,3.27,3.27,0,0,0,1.93-1.18,6.65,6.65,0,0,1,.65-.54,1.54,1.54,0,0,1,1.78-.09c.4.26.48.56.18.91a18.1,18.1,0,0,1-2,2.15,13.15,13.15,0,0,1-1.87,1.07,19.21,19.21,0,0,1-2.3,1.07c-.58.26-.59.36-.45,1a5.68,5.68,0,0,1,0,.94,2.74,2.74,0,0,0,1.83-.25,4.48,4.48,0,0,1,2.32-.51c.29,0,.62-.25.89-.19a4.34,4.34,0,0,0,2.11-.42,12.77,12.77,0,0,1,1.5-.28,2.89,2.89,0,0,0,1.09-.31,8.81,8.81,0,0,1,1.74-.63,1,1,0,0,1,1.09.43.84.84,0,0,1-.2,1,13.6,13.6,0,0,1-1.22,1.18,1.68,1.68,0,0,1-.84.37,10.39,10.39,0,0,0-3.1.88.65.65,0,0,1-.45.05,1.45,1.45,0,0,0-1.32.2,2.35,2.35,0,0,1-1,.27,7.2,7.2,0,0,0-2.51.68c-.6.24-1.2.46-1.79.71a.81.81,0,0,0-.57.67,2.26,2.26,0,0,1-.1.45c-.21.61-.17.75.45.82a7.07,7.07,0,0,0,4-.15,4.76,4.76,0,0,1,1.73-.27.89.89,0,0,0,.74-.32,2.6,2.6,0,0,1,1.76-1c.16,0,.32-.22.45-.36a4,4,0,0,0,.66-.76c.37-.63,1.07-.64,1.62-.91.12-.05.38.09.51.21a.84.84,0,0,1,.12.44,3,3,0,0,1-1.56,2.72,4.05,4.05,0,0,0-1.2.82,5.33,5.33,0,0,1-2.07,1.16c-.91.41-1.89.66-2.82,1a11,11,0,0,1-2.2.28,7.32,7.32,0,0,1-2.51-.23,2,2,0,0,0-.69,0,.57.57,0,0,0-.34.34c0,.08.13.31.24.33a4.37,4.37,0,0,0,1.76.46,19.49,19.49,0,0,1,2.16-.08c.18,0,.36.06.54.06a3.07,3.07,0,0,0,.74-.1c.76-.24,1.51-.52,2.27-.75,1.16-.35,2.33-.67,3.48-1a1.2,1.2,0,0,0,.76-.72,3.1,3.1,0,0,1,.72-.87.38.38,0,0,1,.28-.07,1.87,1.87,0,0,1,1.07,1.46,4.26,4.26,0,0,1-.72,1.86,1.78,1.78,0,0,1-1.06.69,12.71,12.71,0,0,0-1.62.69c-.51.2-1,.35-1.54.51-.27.08-.55.11-.7.52.64-.11,1.21-.19,1.77-.31a5.91,5.91,0,0,0,1.25-.41c.53-.26,1-.6,1.52-.9,1.33-.79,2.66-1.55,4-2.35a6,6,0,0,0,2.26-1.81,1.5,1.5,0,0,1,2.3-.39.52.52,0,0,1,.27.65,9.83,9.83,0,0,1-.62,1.9,4.29,4.29,0,0,1-1.14,1c-.11.09-.34.1-.4.21-.33.62-1,.68-1.51,1-1,.57-1.84,1.23-2.78,1.81s-1.69,1-2.55,1.45c-.43.23-.91.36-1.36.57a2.47,2.47,0,0,0-.49.39l.08.16a11.18,11.18,0,0,0,1.42-.12c1.56-.33,3.13-.67,4.67-1.09a12.3,12.3,0,0,0,2-.87,5.46,5.46,0,0,0,.78-.35.61.61,0,0,1,.93.19c.13.16.34.27.43.45a1.75,1.75,0,0,1,.28.92,7.72,7.72,0,0,1-.56,1.52.56.56,0,0,1-.21.22,15.35,15.35,0,0,1-1.87.91c-1,.35-2.13.62-3.21.89a6.25,6.25,0,0,1-1.23.1,1.45,1.45,0,0,0-1.12.42,1.08,1.08,0,0,1-.92.28,23.74,23.74,0,0,0-2.38.14,20.88,20.88,0,0,0-2.22.34c-.7.15-1.38.39-2.08.59a1.21,1.21,0,0,1-.38.06,11,11,0,0,0-4.39.75,1.11,1.11,0,0,1-.29.1,12.37,12.37,0,0,1-2.37-.21,12.1,12.1,0,0,1-2.16-1,.74.74,0,0,1-.47-.66c-.09-1.16-.18-2.31-.26-3.47,0-.43-.05-.87-.06-1.31a2.49,2.49,0,0,1,.41-1.54,1.63,1.63,0,0,0,.35-1.24.92.92,0,0,1,.1-.45c.55-1.18,1.19-2.32,1.82-3.47a9.38,9.38,0,0,0,1.19-5.2c-.06-1,0-2,0-2.93a1.07,1.07,0,0,0-.25-.61,2.68,2.68,0,0,1-.59-1.07,2.86,2.86,0,0,0-.59-.79c-.22-.27-.46-.53-.68-.81a8.68,8.68,0,0,0-1.81-1.87,1.36,1.36,0,0,1-.4-.35,11.56,11.56,0,0,0-2.81-2.94c-.24-.19-.42-.46-.65-.66a6.72,6.72,0,0,0-.67-.48c-.12-.09-.29-.15-.36-.27a28.75,28.75,0,0,1-2.66-4.07c-.11-.23-.28-.43-.41-.66a4.22,4.22,0,0,1-.47-1.36,18.29,18.29,0,0,1,0-3.55,2.88,2.88,0,0,1,.88-1.86.5.5,0,0,1,.84.13.71.71,0,0,1,.1.37,8.94,8.94,0,0,0,.31,2.68,6.55,6.55,0,0,0,1.49,3.34c.39.4.72.87,1.09,1.31a.57.57,0,0,0,.18.13c.62-.12,1.12-.18,1.6-.3s.87-.3,1.3-.46c.14-.05.28-.21.4-.19.54.07.92-.29,1.39-.41.74-.2,1.51-.31,2.27-.45a2.86,2.86,0,0,0,.51-.09,1.09,1.09,0,0,1,1.28.24.85.85,0,0,1,.24.59,1.7,1.7,0,0,1-1.76,1.68,15.68,15.68,0,0,0-4.12,1c-.71.25-.77.51-.3,1.06s.8.88,1.21,1.31A5.12,5.12,0,0,0,145.55,122.36ZM147.46,148c-.06.64.19,1.17.61,1.27a3.38,3.38,0,0,0,2.2,0,3.26,3.26,0,0,1,1.32-.33c.07,0,.15-.08.34-.18Zm.6-3.17c-.27.66-.09.95.49.8a5.87,5.87,0,0,1,2.13,0,7.09,7.09,0,0,0,2.6-.2,1.28,1.28,0,0,0-1-.42,5.49,5.49,0,0,1-1.28-.11,1.15,1.15,0,0,0-.89.08,1.07,1.07,0,0,1-.64.12C149,145.06,148.55,145,148.06,144.86Zm8.88-.13a1.34,1.34,0,0,0-1.19.3C156.46,145.07,156.46,145.07,156.94,144.73Z"/><path class="cls-1" d="M86.17,90.11c-.64-.08-1.28-.15-1.91-.27a8.82,8.82,0,0,0-2.76.08c-1.49.22-2.87.83-4.35,1.08a5.76,5.76,0,0,0-1.64.35,15,15,0,0,1-2.13.59c-.38.14-.75.34-1.12.51a1.59,1.59,0,0,1-.34.18,17.38,17.38,0,0,0-3.59,1.57,7,7,0,0,0-2.82,2.2,1,1,0,0,1-1.23.4c-.22-.08-.46-.09-.68-.16A.91.91,0,0,1,63,95.29c.14-.38.29-.77.46-1.14a1.9,1.9,0,0,1,1-1,2.27,2.27,0,0,0,.62-.46,3.88,3.88,0,0,1,1.53-1,16.48,16.48,0,0,0,2.13-1.09,36.48,36.48,0,0,1,3.45-1.52,6.74,6.74,0,0,1,2.42-.45A4.28,4.28,0,0,0,76,88.29a18,18,0,0,1,4.08-1.1,1,1,0,0,0,.38-.08,4.5,4.5,0,0,1,2.4-.37,12.57,12.57,0,0,0,1.62-.09,5.78,5.78,0,0,1,2.15.18,2.4,2.4,0,0,0,.83.13,2.61,2.61,0,0,1,2,.8A1.35,1.35,0,0,1,90,89c0,.55-.21.8-.75.94a4.41,4.41,0,0,1-2.44.16,3.08,3.08,0,0,0-.61-.06Z"/><path class="cls-1" d="M19.56,78.55c0-1.13,0-2.27,0-3.4s-.09-2.43-.23-3.63a19,19,0,0,1-.08-5.63c0-.2,0-.42,0-.62a4.19,4.19,0,0,1,.22-1.13,16.47,16.47,0,0,0,1.06-3.55,5.53,5.53,0,0,1,1.8-3.49c.31-.24.57-.51,1-.38a.71.71,0,0,0,.44-.08.77.77,0,0,1,1,1,3.84,3.84,0,0,1-.56,1,3.31,3.31,0,0,0-.61,1.38c-.23,1.08-.65,2.12-.91,3.19-.35,1.44-1,2.83-.88,4.37.06.54.13,1.08.18,1.62.08.8.15,1.59.22,2.39l.24,2.84A8.2,8.2,0,0,1,22.38,77a2.36,2.36,0,0,0,.25,1.25c.23.61.26.9-.23,1.3a3.8,3.8,0,0,1-1.19.71A1.44,1.44,0,0,1,19.48,79c0-.16,0-.31,0-.47Z"/><path class="cls-1" d="M111.58,95.73a5.93,5.93,0,0,1,.42.76,3.88,3.88,0,0,1,.3.93,1.4,1.4,0,0,0,.39,1,1.77,1.77,0,0,1,.47,1.48,16.68,16.68,0,0,0,0,3.39,11.93,11.93,0,0,1,0,2.39,1.52,1.52,0,0,1-.87,1.2,3,3,0,0,1-.77.35.9.9,0,0,1-1.07-1,3.7,3.7,0,0,0,0-2,4,4,0,0,1-.06-.85c0-.69,0-1.39,0-2.08a3.37,3.37,0,0,1,.15-.83,1,1,0,0,0-.49-1.48,1.51,1.51,0,0,1-.45-.42,8.41,8.41,0,0,1-1.38-2.57,1.25,1.25,0,0,0-.29-.44c-.14-.16-.33-.27-.45-.43a4.12,4.12,0,0,1-.57-.9c-.17-.46.34-.57.54-.85a2,2,0,0,1,.4-.47c.25-.18.52-.43.79-.44a5.41,5.41,0,0,1,2.28.25c.94.39,1.94.66,2.92,1,.07,0,.16,0,.23,0a8.14,8.14,0,0,0,2.93.91,2.19,2.19,0,0,1,1.15.87,1,1,0,0,1-.22,1.25c-.15.14-.32.26-.46.41-.5.56-.68.59-1.4.35a32.26,32.26,0,0,1-3.67-1.59A4.54,4.54,0,0,0,111.58,95.73Z"/><path class="cls-1" d="M32,93.29l-.79.2-.74.17-.89.19c-.1,0-.21.09-.3.08a5.09,5.09,0,0,0-2.64.7A1.6,1.6,0,0,1,25,94.35c-.45-.36-.4-.87-.34-1.41a1.4,1.4,0,0,1,1.17-1.33c1.16-.34,2.3-.82,3.48-1a23.58,23.58,0,0,1,3.84-.39,8.07,8.07,0,0,1,2,.38A9.54,9.54,0,0,1,38.55,92a5.77,5.77,0,0,0,.56.27l.92.53c.3.19.6.38.92.55s.65.32,1,.46a.74.74,0,0,1,.44.89c0,.15-.08.3-.1.45-.14.86-.19.9-1.07,1a4.07,4.07,0,0,0-.61.07A1.81,1.81,0,0,1,39,95.8a5,5,0,0,0-.92-.56c-.56-.31-1.12-.63-1.71-.89a10.72,10.72,0,0,0-1.8-.64C33.76,93.52,32.94,93.44,32,93.29Z"/><path class="cls-1" d="M58.41,175.37c-.42.4,0,1.25-.75,1.66a.4.4,0,0,0-.18.24,4,4,0,0,1-1.16,1.54c-.11.1-.28.22-.29.35-.05.89-.7,1.48-1.12,2.17a17.59,17.59,0,0,1-2.75,3.34,1.16,1.16,0,0,1-1.87,0c-.86-.9-.85-1-.2-2.07.77-1.24,1.46-2.54,2.26-3.76a11.43,11.43,0,0,0,.9-1.69,1,1,0,0,1,.26-.38,11.91,11.91,0,0,0,2-2.79,3,3,0,0,1,.72-.66.6.6,0,0,1,.38,0A3.3,3.3,0,0,1,58.41,175.37Z"/><path class="cls-1" d="M58,88.43c.07-.66.12-1.2.19-1.74s.16-.91.21-1.37A12.22,12.22,0,0,1,59.21,82c.3-.74.45-1.53.69-2.29.1-.32.26-.62.38-.93s.25-.67.36-1c0-.07,0-.16,0-.22.32-.59.61-1.19,1-1.75a9.91,9.91,0,0,1,.91-1,1.31,1.31,0,0,1,1.69-.12.94.94,0,0,1,.23,1.24c-.21.41-.5.78-.72,1.18s-.57,1.08-.83,1.64a8.37,8.37,0,0,0-.43,1.08c-.47,1.45-1,2.89-1.39,4.35-.32,1.14-.55,2.31-.79,3.47-.14.63-.21,1.26-.29,1.9,0,.33-.13.65-.46.74a.83.83,0,0,1-.7-.14A12.21,12.21,0,0,1,58,88.53C57.94,88.47,58,88.38,58,88.43Z"/><path class="cls-1" d="M46.81,90.7a7.06,7.06,0,0,1-.2,1.07.7.7,0,0,1-1.11.4,2.15,2.15,0,0,1-1-1.73,3.58,3.58,0,0,0-.65-1.69,6.29,6.29,0,0,1-1-2.65,13.68,13.68,0,0,0-.47-1.94c-.07-.27-.11-.55-.17-.83s0-.37-.09-.44c-.49-.38-.36-.92-.44-1.42-.19-1.08-.39-2.17-.67-3.24a1.24,1.24,0,0,1,.19-1.15,6.73,6.73,0,0,0,.44-.73c.28-.49.72-.53,1,0a4,4,0,0,1,.51,1.37A47.47,47.47,0,0,0,45.22,86c.09.27.08.56.18.83.18.47.39.93.6,1.4.08.19.18.37.24.56.13.38.25.77.37,1.16S46.76,90.49,46.81,90.7Z"/><path class="cls-1" d="M99.89,91.8c-1.2-.06-2.46-.14-3.73-.19-.76,0-1.53,0-2.3,0a3.94,3.94,0,0,1-.77-.06,1.26,1.26,0,0,1-.69-2.08,1.77,1.77,0,0,1,1-.67,4.59,4.59,0,0,1,3-.14,1.35,1.35,0,0,0,.53.1,43,43,0,0,0,5.32-.15A1.9,1.9,0,0,1,104.07,90a1,1,0,0,1-.26.69,2.68,2.68,0,0,1-.9.58,7.82,7.82,0,0,1-1.49.4A14.56,14.56,0,0,1,99.89,91.8Z"/><path class="cls-1" d="M87.86,149.85c-.1.19-.22.42-.36.65s-.17.14-.21.22c-.37.81-1.18.95-1.89,1.21a1.66,1.66,0,0,1-1.74-.33,1.49,1.49,0,0,1-.22-1.67.84.84,0,0,1,.52-.52c.39-.18.48-.41.31-.72a.49.49,0,0,0-.78-.17c-.42.26-.82.55-1.21.84a.66.66,0,0,1-.91-.07,1.3,1.3,0,0,1-.46-1.64A2.9,2.9,0,0,1,82,146.14a5,5,0,0,1,2.21-1,2,2,0,0,1,1.15.34c.37.19.77.31.79.85a.68.68,0,0,0,.28.43,3,3,0,0,1,1.11,1.9C87.67,149,87.75,149.37,87.86,149.85Z"/><path class="cls-1" d="M24.82,55.46c-.36.06-.6-.16-.85-.47a1.65,1.65,0,0,1-.22-2c.58-1.17,1-2.43,1.54-3.62a13.71,13.71,0,0,1,1.07-1.58,6.16,6.16,0,0,1,2.58-2.16,1.36,1.36,0,0,1,1.44.19c.28.26.23.63.08,1-.38,1-1.41,1.33-1.95,2.14A9.14,9.14,0,0,0,27,52.21a9.32,9.32,0,0,1-.3,1c-.1.32-.23.63-.3.95A1.49,1.49,0,0,1,24.82,55.46Z"/><path class="cls-1" d="M54.22,87.76c.13-1.08.27-2.15.38-3.22a8.55,8.55,0,0,0,0-1.24,2.66,2.66,0,0,1,.35-1.55,3.88,3.88,0,0,0,.42-1.38A2.4,2.4,0,0,1,56.15,79a.81.81,0,0,1,1.34.46,16,16,0,0,1-.13,2.07c-.14,1.54-.3,3.08-.43,4.62-.11,1.34-.19,2.68-.3,4a.62.62,0,0,1-.2.4,1.32,1.32,0,0,1-2.12-.78,5.54,5.54,0,0,1-.05-1c0-.34,0-.67,0-1Z"/><path class="cls-1" d="M62.72,113.91a1.88,1.88,0,0,1-1.44-.7A12,12,0,0,0,59,111.33a10.24,10.24,0,0,1-2.72-2.61,1.16,1.16,0,0,1,.78-1.93,1.91,1.91,0,0,1,1.82.58,13.07,13.07,0,0,1,1,1,14.4,14.4,0,0,0,2.78,2.14,18.47,18.47,0,0,1,1.65,1.4,1.15,1.15,0,0,1-.05,1.09,3.57,3.57,0,0,1-.7.7A2.79,2.79,0,0,1,62.72,113.91Z"/><path class="cls-1" d="M73.29,120.83l-1.91-.36a19.48,19.48,0,0,1-3.67-1.42,2,2,0,0,1-.55-.42,1.3,1.3,0,0,1,.37-2.24,1.88,1.88,0,0,1,1.12-.09,8.07,8.07,0,0,1,2.2.92,4.47,4.47,0,0,0,2.86.74c.73,0,1.13.41,1.6.77a.84.84,0,0,1,.07.71A3.25,3.25,0,0,1,73.29,120.83Z"/><path class="cls-1" d="M80.56,156.13a3.89,3.89,0,0,0,.29.61,9.3,9.3,0,0,0,.7.83c.38.41.61.43,1.06.1l.06,0c.31-.14.38-.79.83-.52s1,.65,1.13,1.29a5.63,5.63,0,0,0,.49,1.62,1.14,1.14,0,0,1,0,.73,1.39,1.39,0,0,1-2.35.25,1.55,1.55,0,0,0-1.3-.93c-.36,0-.69-.39-1-.6a1.39,1.39,0,0,0-.39-.22c-1-.25-1.48-1.14-2-1.9a.51.51,0,0,1,0-.49,2.26,2.26,0,0,0,.43-1.58c0-.53.17-.75.61-.7a2.82,2.82,0,0,1,1.14.36C80.56,155.15,80.65,155.56,80.56,156.13Z"/><path class="cls-1" d="M18.34,96.05c0,.3,0,.51,0,.71a1,1,0,0,1-.62.83,4.26,4.26,0,0,1-3.14.38,19.3,19.3,0,0,0-2.88-.56,4.94,4.94,0,0,1-.52-.13,1.5,1.5,0,0,1-1-2,1.7,1.7,0,0,1,2-.83,14.39,14.39,0,0,0,3.78.74,3.82,3.82,0,0,0,.67-.15,3.36,3.36,0,0,1,.74-.19c.7,0,1,.25,1,1Z"/><path class="cls-1" d="M78.19,186.44a1.29,1.29,0,0,1-1.44,1.26,2.68,2.68,0,0,1-1.23-.86,7.11,7.11,0,0,1-1.75-2.51,20.39,20.39,0,0,0-1.14-2.1,1.69,1.69,0,0,1-.25-1.53,1.33,1.33,0,0,1,2.27-.55,4.78,4.78,0,0,1,1.21,2.13.71.71,0,0,0,0,.22,19.94,19.94,0,0,0,1.87,3.1A2.77,2.77,0,0,1,78.19,186.44Z"/><path class="cls-1" d="M138.94,105.07a1.64,1.64,0,0,1-.62,1.36c-.76.69-1.39,1.54-2.19,2.18a11.61,11.61,0,0,1-3.15,2.18,5.56,5.56,0,0,1-1.29.25c-.57.07-.71-.45-.93-.8a.92.92,0,0,1,.24-1.12,1.44,1.44,0,0,1,.49-.37c.68-.25,1.16-.87,1.91-1a.49.49,0,0,0,.25-.16c.37-.36.74-.71,1.08-1.09a3,3,0,0,1,1.43-1.13.32.32,0,0,0,.17-.14,2.91,2.91,0,0,1,1.52-1.13c.64-.29,1-.11,1.09.57C139,104.83,138.94,105,138.94,105.07Z"/><path class="cls-1" d="M96.75,100.55c0-1.34.09-2.68.1-4a3.18,3.18,0,0,1,1.31-2.45,1.12,1.12,0,0,1,1.79.57,3.42,3.42,0,0,1,.09,2,7.8,7.8,0,0,0-.18,1.53c0,.64,0,1.29-.11,1.93a2.11,2.11,0,0,1-1.61,1.79A1.11,1.11,0,0,1,96.75,100.55Z"/><path class="cls-1" d="M63.54,87.88A1.29,1.29,0,0,1,62.16,87a1.45,1.45,0,0,1,0-1.4c.1-.16,0-.4.09-.6a1.39,1.39,0,0,1,.2-.57c.32-.42.69-.82,1-1.23a.84.84,0,0,0,.2-.4,1.71,1.71,0,0,1,.66-1.09,6.1,6.1,0,0,0,.67-.91c.29-.39.59-.78.9-1.15a.66.66,0,0,1,1-.09c.5.3.64.54.52,1A9,9,0,0,1,66,83.69a13.2,13.2,0,0,0-1.49,3,3,3,0,0,1-.42.82A1.52,1.52,0,0,1,63.54,87.88Z"/><path class="cls-1" d="M50.62,80.4a29.91,29.91,0,0,0,0,4.73,6.46,6.46,0,0,1-.07,1.16.88.88,0,0,1-.8.81,7.58,7.58,0,0,0-.82.21.88.88,0,0,1-1.12-1,.74.74,0,0,0-.22-.69,1.15,1.15,0,0,1,0-1.58A2.07,2.07,0,0,0,48,82.19a4.26,4.26,0,0,1,.69-2.33c.1-.21.24-.39.36-.59.34-.52.88-.51,1.15,0A9.86,9.86,0,0,1,50.62,80.4Z"/><path class="cls-1" d="M101.6,102c.06-.93.14-1.7.13-2.47a3.46,3.46,0,0,1,.22-1.43,1.05,1.05,0,0,1,.84-.71,1.48,1.48,0,0,1,.46,0c.32,0,.68-.27,1,.07a2,2,0,0,1,.51,1.34c0,.85-.12,1.69-.14,2.53,0,.52.09,1,.09,1.55a2.12,2.12,0,0,1-1.28,1.68,1.2,1.2,0,0,1-1.47-.77C101.75,103.16,101.69,102.52,101.6,102Z"/><path class="cls-1" d="M75.57,156.9c-.11-.71,0-.83.69-.88a1.09,1.09,0,0,1,1.29,1.31c0,.33-.06.66-.06,1,0,1.3.86,2.11,1.63,3a1.42,1.42,0,0,1,.4,1.52,1.81,1.81,0,0,1-1.63.68.59.59,0,0,1-.14-.06c-.56-.52-1.15-1-1.68-1.57-.33-.35-.54-.8-.85-1.17a2.19,2.19,0,0,1-.17-2.27C75.22,157.9,75.4,157.4,75.57,156.9Z"/><path class="cls-1" d="M38.71,180.42c-.2.82-.4,1.59-.58,2.37a8.76,8.76,0,0,0-.26,1.43,1.17,1.17,0,0,1-1.49,1.1,2.6,2.6,0,0,1-.84-.51c-.16-.13-.23-.35-.38-.49a1.27,1.27,0,0,1-.26-1.61,8.71,8.71,0,0,0,.3-1.27,11.28,11.28,0,0,1,.59-1.84,5.91,5.91,0,0,1,1-1.24.42.42,0,0,1,.41-.08,2.72,2.72,0,0,1,1,.72A6.35,6.35,0,0,1,38.71,180.42Z"/><path class="cls-1" d="M48.61,180.46a1.67,1.67,0,0,1-.14.5c-.4.66-.84,1.29-1.27,1.93a8.73,8.73,0,0,0-.68,1,1.93,1.93,0,0,1-.81.79.59.59,0,0,1-.36.13,2.92,2.92,0,0,1-1.74-.86,1.29,1.29,0,0,1,.19-1.75,9.75,9.75,0,0,0,2-2.8c.08-.16.16-.32.25-.48a.93.93,0,0,1,1.36-.36A1.75,1.75,0,0,1,48.61,180.46Z"/><path class="cls-1" d="M33.19,156.47c-.12.25-.23.48-.33.71a7.75,7.75,0,0,0-.53,1.18,11.74,11.74,0,0,0-.65,2.86.45.45,0,0,1-.17.33,6.18,6.18,0,0,1-1.27.55c-.64.14-.87-.11-1.17-.71a2.94,2.94,0,0,1,.09-2.09,4.86,4.86,0,0,1,.93-2.35,1.4,1.4,0,0,0,.25-.57c.12-.43.31-.75.82-.8.28,0,.4-.25.51-.51a.77.77,0,0,1,.43-.45c.29-.06.33.24.42.46s.24.39.34.6S33.08,156.19,33.19,156.47Z"/><path class="cls-1" d="M81.91,181.55c0-1,.24-1.27,1-1.27a1.32,1.32,0,0,1,1.33,1c.21.66.35,1.33.53,2a3.25,3.25,0,0,0,1,1.76,2,2,0,0,1,.39.55c.12.22.21.46.34.68a.62.62,0,0,1-.37,1,4.16,4.16,0,0,1-1,.15.75.75,0,0,1-.54-.24,10.85,10.85,0,0,1-1.45-1.59A9.86,9.86,0,0,1,81.91,181.55Z"/><path class="cls-1" d="M37,174.72a9.15,9.15,0,0,1,1.45-3.33c.08-.1.22-.17.27-.28.27-.61.75-.53,1.25-.4a2.38,2.38,0,0,1,1.3,1.14.84.84,0,0,1,0,.71c-.27.55-.66,1.05-.92,1.6a14.27,14.27,0,0,0-.75,2c-.22.71-.62.88-1.32.63C37.29,176.44,37.2,175.61,37,174.72Z"/><path class="cls-1" d="M16.35,92.27l-3.27-.4a1,1,0,0,1-1-.92,1.46,1.46,0,0,1,.12-.64c0-.11.17-.19.22-.3a1.21,1.21,0,0,1,1.49-.76,20.22,20.22,0,0,1,2,.35,1.4,1.4,0,0,0,1.37-.32c.5-.43.65-.39,1.08.1.12.13.24.27.35.41.39.51.38.74-.05,1.22-.07.08-.18.13-.22.22C18,92.17,17.16,92.17,16.35,92.27Z"/><path class="cls-1" d="M92,181.75c.64-.92,1.18-.2,1.71-.26.06.1.13.16.14.23,0,.4.55.65.38,1.13s-.21.74-.36,1.1a.77.77,0,0,1-.39.42,1.84,1.84,0,0,1-1.77-.2c-.26-.19-.63-.25-.87-.46a9.18,9.18,0,0,1-2.49-3.29c-.21-.46.07-.8.3-1.13a.71.71,0,0,1,.92-.14,2.81,2.81,0,0,1,.88.6c.45.48.86,1,1.28,1.53A3.35,3.35,0,0,1,92,181.75Z"/><path class="cls-1" d="M73.32,80.87a1.85,1.85,0,0,1-.16.4l-2.1,3.6c-.2.33-.38.67-.55,1s-.5.9-1.09.84a1.36,1.36,0,0,1-1.11-.85,1.29,1.29,0,0,1,.21-1.63,6,6,0,0,0,.63-.87,17.37,17.37,0,0,1,2.31-2.88,1,1,0,0,0,.21-.41.75.75,0,0,1,.77-.54.81.81,0,0,1,.75.68C73.24,80.42,73.27,80.63,73.32,80.87Z"/><path class="cls-1" d="M65.94,186.39a2.28,2.28,0,0,1,0,.66,1.1,1.1,0,0,1-.41.51,1.85,1.85,0,0,1-1.88-.68,11.49,11.49,0,0,1-1.14-3.42,3.61,3.61,0,0,0-.29-1c-.4-.94,0-1.53,1-1.51A1.47,1.47,0,0,1,64.74,182a13.54,13.54,0,0,1,.78,2.66A12.34,12.34,0,0,0,65.94,186.39Z"/><path class="cls-1" d="M45.58,175c0-1.26,0-2.52,0-3.78a1.61,1.61,0,0,1,.08-.38c.24-.87.55-1,1.32-.52a2.83,2.83,0,0,1,1.36,2.44,8.94,8.94,0,0,1,.11,1.54A12.54,12.54,0,0,1,48,176.5c-.1.32-1.12.42-1.49.21A1.43,1.43,0,0,1,45.58,175Z"/><path class="cls-1" d="M39.73,87.44c0,.21.06.41.07.62a.94.94,0,0,1-1.06,1.09,1.51,1.51,0,0,1-1.38-.66,3.85,3.85,0,0,1-.84-1.95,5.39,5.39,0,0,0-.27-1.43,2.62,2.62,0,0,1,0-1.52,1.32,1.32,0,0,1,.36-.57.77.77,0,0,1,1.2.07A4.39,4.39,0,0,1,39,85a10.94,10.94,0,0,0,.61,1.58c.11.27.19.56.28.84Z"/><path class="cls-1" d="M109.15,104c0,.57-.08,1.13-.09,1.7a2.49,2.49,0,0,1-.6,1.4,2.24,2.24,0,0,1-1.86.42,1.07,1.07,0,0,1-.59-.92,11,11,0,0,1,.79-4.37c.23-.69.69-.76,1.41-.55a1.12,1.12,0,0,1,.89,1.32c0,.33,0,.67,0,1Z"/><path class="cls-1" d="M95.84,177.74c0,.44-.19.7-.6.68a2.07,2.07,0,0,1-2-1.06c-.55-.91-.83-1.93-1.36-2.83a1.26,1.26,0,0,1,.78-1.74,1.86,1.86,0,0,1,1.85.77A11,11,0,0,1,95.71,177,4.88,4.88,0,0,1,95.84,177.74Z"/><path class="cls-1" d="M52.32,170.28c-.07,1.28-.09,2.49-.22,3.69a2,2,0,0,1-.6.94c-.08.09-.41.05-.54,0a9.9,9.9,0,0,1-1.34-1.15c-.48-.51-.31-1.18-.26-1.78a12.47,12.47,0,0,1,.33-1.59,3.11,3.11,0,0,0,.09-.6c0-.88.56-1.27,1.37-1A1.7,1.7,0,0,1,52.32,170.28Z"/><path class="cls-1" d="M18.68,88.23a14.66,14.66,0,0,1-3.41-.45,1.57,1.57,0,0,1-.44-2.64.57.57,0,0,1,.62-.12,11.45,11.45,0,0,0,3.47.69,2.08,2.08,0,0,1,.93.33,1,1,0,0,1,0,1.77A5,5,0,0,1,18.68,88.23Z"/><path class="cls-1" d="M86.28,158.85,86,158.4c-.09-.15-.24-.31-.24-.47a17.1,17.1,0,0,1,.06-2.15c.07-.55.56-.8,1.25-.76.45,0,.72.34.83.86.16.83.4,1.65.52,2.49a4.81,4.81,0,0,0,.41,1.7c.06.11-.06.41-.19.54a1.68,1.68,0,0,1-2.64-.34C85.68,159.66,86,159.29,86.28,158.85Z"/><path class="cls-1" d="M52.86,84.66c0,.62,0,1.23,0,1.85a1.86,1.86,0,0,0,.34,1.23,1.77,1.77,0,0,1,.08,1.84,1,1,0,0,1-1,.63c-.46,0-.67-.27-.83-.67A8.92,8.92,0,0,1,51,84.77c.07-.38.12-.76.21-1.13s.41-.73.79-.71a.89.89,0,0,1,.8.8c0,.31.05.62.08.93Z"/><path class="cls-1" d="M17.79,85H17a1.76,1.76,0,0,1-1.79-2,1,1,0,0,1,1.46-.85,9.26,9.26,0,0,0,1.26.31,1.33,1.33,0,0,0,1-.2c.64-.38,1.1-.25,1.33.44a10.09,10.09,0,0,1,.26,1.57,3.73,3.73,0,0,1-1.77.84,6.71,6.71,0,0,1-1-.06Z"/><path class="cls-1" d="M64.22,178.44c-.11.44-.18.87-.66,1.09a1,1,0,0,1-1.15-.2,5.66,5.66,0,0,1-.91-1,12,12,0,0,1-.79-1.4,13.18,13.18,0,0,1-.65-1.56.81.81,0,0,1,.85-1,1.39,1.39,0,0,1,.81.21,4.43,4.43,0,0,1,1.37,1.42c.32.7.68,1.38,1,2.06A2.36,2.36,0,0,1,64.22,178.44Z"/><path class="cls-1" d="M183.68,243a1.39,1.39,0,0,1-.18-.33s.17-.15.21-.13a.48.48,0,0,1,.2.24S183.79,242.88,183.68,243Z"/><path class="cls-1" d="M64.23,243.46l-.41-.76.08-.08c.1.06.22.09.28.18a11.42,11.42,0,0,0,4.08,3.14,1.41,1.41,0,0,0,.81,0,4.67,4.67,0,0,0,.56-.26c.61-.26.86-.14,1.31.35a2.18,2.18,0,0,1,.59,2.05,1.16,1.16,0,0,1-1.22,1,13.83,13.83,0,0,1-3.54-.77.59.59,0,0,1-.14-.06c-1-.62-1.91-1.27-2.9-1.86a19.59,19.59,0,0,1-3.65-3.27,2.74,2.74,0,0,1-.41-.65c-.1-.18-.14-.42-.28-.54a1.57,1.57,0,0,1-.53-1.59,3.48,3.48,0,0,0-.1-1.15,1.27,1.27,0,0,1,.2-1.09c.36-.48.48-.57,1-.32.21.1.37.28.57.4a1.1,1.1,0,0,0,.47.21c.59,0,.85.19,1,.72a1.59,1.59,0,0,1,0,1,1.61,1.61,0,0,0,.29,1.59A20.76,20.76,0,0,0,64,243.4S64.09,243.43,64.23,243.46Z"/><path class="cls-1" d="M45.3,240.65a1.07,1.07,0,0,1,.85-1,7.27,7.27,0,0,0,2.65-.8,10.89,10.89,0,0,0,2.91-2.14,2.74,2.74,0,0,1,1-.63.68.68,0,0,1,.55.14,8.17,8.17,0,0,1,.94.92,1.43,1.43,0,0,1-.18,2.17c-.23.2-.41.47-.66.65a7.46,7.46,0,0,1-1.9,1.19,18.12,18.12,0,0,0-2.16,1,7.52,7.52,0,0,1-.8.27,2.54,2.54,0,0,0-.51.16,1.37,1.37,0,0,1-1.85-.11A2.39,2.39,0,0,1,45.3,240.65Z"/><path class="cls-1" d="M57.6,230.11a2.47,2.47,0,0,1-.66,1.68c-.19.24-.34.51-.53.76a1.44,1.44,0,0,1-1.69.62,2.54,2.54,0,0,1-1.19-1.93,1.43,1.43,0,0,1,.08-.22c.49-1,1-1.92,1.47-2.87.14-.29.34-.57.71-.46s1-.18,1.16.5a1.45,1.45,0,0,0,.36.59A1.62,1.62,0,0,1,57.6,230.11Z"/><path class="cls-1" d="M62.37,231.85c0,1.44-.13,1.57-1.55,2-.41.11-.57,0-.86-.33-.84-1.11-.71-2.39-.75-3.63,0-1,.72-1.37,1.71-1.12.84.21,1,.87,1.23,1.52A10.75,10.75,0,0,1,62.37,231.85Z"/><path class="cls-1" d="M20.59,127.66c-.11.36-.25.72-.33,1.09-.14.71-.22,1.43-.35,2.14-.36,2,.53,3.43,1.79,4.78a5.53,5.53,0,0,1,.87,1.36,1,1,0,0,1-.24,1.27,1,1,0,0,1-1.28.22c-.66-.36-1.28-.77-1.91-1.17a.67.67,0,0,1-.18-.25c-.56-1-1.11-2.09-1.69-3.13a3.17,3.17,0,0,1-.16-2.12,7.88,7.88,0,0,1,.54-1.52c.25-.67.48-1.35.75-2a11.78,11.78,0,0,1,.75-1.61c.27-.45.55-.43,1-.07A1.18,1.18,0,0,1,20.59,127.66Z"/><path class="cls-1" d="M15,125.1a4,4,0,0,1,.84-2.27c.37-.57,1.61-.47,1.8.16a2.24,2.24,0,0,1-.07,1.28,3.76,3.76,0,0,0,0,2c.09.37.26.79-.13,1.07a1.18,1.18,0,0,1-1.31,0,1.3,1.3,0,0,1-.47-.39,7.46,7.46,0,0,1-.62-1.23A1.93,1.93,0,0,1,15,125.1Z"/><path class="cls-1" d="M118.49,137.72c-.32.48-.66,1-1,1.48a3.1,3.1,0,0,1-1.22,1.05,1.92,1.92,0,0,0-.46.4l-.73.71a6.75,6.75,0,0,1-.08,1.11c-.08.4-.52.45-.79.67a4.85,4.85,0,0,1-2,.84c-.39.1-.73.38-1.12.51-.75.26-1.51.5-2.28.71s-1.18-.28-1.65-.66c-.31-.25-.06-1.06.38-1.25.84-.36,1.7-.67,2.61-1a1.63,1.63,0,0,1-.5-1.62.91.91,0,0,1,.79-.82,21.23,21.23,0,0,0,3.19-.91,5.85,5.85,0,0,0,2.71-1.84,1.63,1.63,0,0,1,.82-.53c.63-.19.85,0,1.07.62C118.32,137.33,118.4,137.49,118.49,137.72Z"/><path class="cls-1" d="M108.63,139.37a2.88,2.88,0,0,1-2-.66,2.06,2.06,0,0,1-.23-1.75.86.86,0,0,1,1-.37c1.77.47,3.36-.23,5-.76.27-.09.46-.39.71-.56.51-.36,1-.69,1.54-1.05a1,1,0,0,1,1.28,0,1,1,0,0,1,.24,1.13,2.87,2.87,0,0,1-.74,1.06,6.13,6.13,0,0,1-2.07,1.47c-.89.32-1.71.81-2.6,1.12A12.38,12.38,0,0,1,108.63,139.37Z"/><path class="cls-1" d="M62.46,163.21a4.21,4.21,0,0,1-.78-.38,4.33,4.33,0,0,1-1.06-1,4.82,4.82,0,0,1-1.09-2.34c0-.27,0-.6.32-.71a.76.76,0,0,1,.84.25,12.22,12.22,0,0,1,.87,1.17,1.66,1.66,0,0,0,1,.83,1.52,1.52,0,0,1,.95,1C63.69,162.59,63.14,163.28,62.46,163.21Z"/></svg>