<svg id="Layer_1" data-name="Layer 1" xmlns="http://www.w3.org/2000/svg" viewBox="0 0 498.58 647.43"><defs><style>.cls-1{fill:#d5c077;}</style></defs><title>2Artboard 1</title><path class="cls-1" d="M377.05,300.42l5.19-2.44c-1.51-2.79-3.13-4.19-5.89-4.2-.86,0-1.87-1-2.55-1.78-1.55-1.74-3-3.59-4.37-5.46a4,4,0,0,1-.88-2.22,2.7,2.7,0,0,1,1.06-2,2.06,2.06,0,0,1,1.95.44c1.17,1.38,2,3.11,3.21,4.39,1.07,1.1,2.6,2.51,3.9,2.49,3.43-.06,5.39,1.25,6.17,5,1-1.13,1.82-1.92,2.48-2.82,1.57-2.13,3-4.39,4.61-6.48,3.58-4.58,4.75-10.16,6.58-15.47a34.44,34.44,0,0,1,1.05-3.84c1.78-3.74.15-6.27-2.75-8.42a12.59,12.59,0,0,0-1.72-.87c-.77-.4-2-.64-2.19-1.24a2.88,2.88,0,0,1,.48-2.64,3.55,3.55,0,0,1,3-.22,34.37,34.37,0,0,1,4.48,2.7c.42.26.85.48,1.41.78l2-3.2c-1.52-1-3.05-1.91-4.43-3a71.06,71.06,0,0,1-6.36-5.37,2.61,2.61,0,0,1,.12-2.6,2.76,2.76,0,0,1,2.64-.09c3.38,2.19,6.62,4.59,10.27,7.17.69-3.36,1.44-6.53,1.92-9.73.09-.57-.86-1.4-1.47-1.94-3.29-2.88-7.28-5-9.34-9.16-.23-.45-.66-.94-.6-1.34a3.33,3.33,0,0,1,.88-2c.34-.27,1.4,0,1.84.33a6.72,6.72,0,0,1,1.61,2.18c1.38,2.75,3.76,4.06,6.6,5a12,12,0,0,1,.32-2.35c.54-1.49,0-2.3-1.34-3-5.11-2.46-5-4.94-3.92-9.16s.86-8.55.91-12.85c0-1.05-1.28-2.06-1.79-3.17a15.69,15.69,0,0,1-.75-2.77c1.06-.15,2.28-.71,3.16-.37a6.22,6.22,0,0,1,3.83,5.18,37,37,0,0,1-.8,16.32c-.48,1.67-.54,1.66,1.38,2.77.86-5.31,2.62-10.32,2-15.7-.5-4.62-1.1-9.23-1.52-13.86-.3-3.16-.69-3.53-3.92-2.84-3.62.76-3.62.76-5.37-.5,1.35-2.39,3.72-2.94,6.12-3.24,1.63-.21,2.42-.85,2.29-2.54-.07-.83,0-1.67,0-2.5-.1-4.39-1.62-5.78-6.05-5.33-1.4.14-3,.44-2.89-1.47.07-.83,1.62-2,2.64-2.19,1.61-.3,3.35.11,5.31.23-.18-.71-.16-1.2-.39-1.43-4.82-4.89-7.06-11.41-10.73-17-1-1.52-1.83-1.9-3.61-1.31-9.78,3.24-19.6,6.36-29.42,9.47-7.24,2.29-14.45,2.09-21.88.54-6.61-1.38-12.54-4.22-18.7-6.66a22.71,22.71,0,0,1-8.08-5.42c-9.48-9.5-16.59-20.4-20.51-33.21-2.42-7.87-2.63-16.09-2.07-24.26A104.68,104.68,0,0,1,294.13,78c1.69-7.45,4.05-14.77,9.52-20.53,4.53-4.77,9.15-9.46,13.73-14.18.23-.24.46-.59.74-.65,1.06-.21,2.32-.72,3.16-.35.54.24.84,1.92.62,2.79-.86,3.38-2.23,6.64-2.94,10-1.7,8.13-3.5,16.26-4.58,24.48-1.32,10.09,2.14,19.19,7.39,27.65a88.06,88.06,0,0,0,6.12,9c.83,1,2.62,1.52,4.05,1.77,3.82.65,7.67,1.16,11.53,1.49a27.47,27.47,0,0,0,8.1,0c4.34-1,7.76-.54,11.16,2.77,2.21,2.15,5.56,3.12,8.41,4.61,2.34,1.21,4.65,2.48,7.05,3.57,1,.44,2.31.94,3.21.63,7.69-2.69,15.71-5.16,21.55-11.06,4.27-4.33,7.51-9.71,11.05-14.73,6-8.46,8.24-18.27,9.8-28.26.2-1.26-.81-2.71-1.27-4.07-.32-1-.64-1.93-1-2.9a10.75,10.75,0,0,1,2.91-.71,4,4,0,0,1,4.11,3.24,73.14,73.14,0,0,0,2.34,7.36c3.28,8.81,2.73,17.66.32,26.51-1.29,4.72-2.78,9.4-4.35,14-4.5,13.35-13.72,22.54-25.88,29.11-.5.27-1,.58-1.75,1,.77,1.34,1.48,2.6,2.21,3.86,2.7,4.65,4.58,9.74,8.27,13.89,1.32,1.49,1.59,4.18,1.79,6.37.67,7.44,1,14.91,1.65,22.36.23,2.62,1.11,5.19,1.29,7.81.22,3.18,0,6.39,0,9.58-.05,2.15-.54,4.33-.27,6.43.91,7-.07,13.75-1.93,20.46-1.48,5.33-2.82,10.69-4.27,16a3.91,3.91,0,0,1-.95,2c-3.23,2.62-3.36,6.52-4.34,10.07A68.72,68.72,0,0,1,393,290.72a93.4,93.4,0,0,1-6.84,8.87c-5.59,6.25-13.08,8.19-21.08,8.61-4.06.21-8.13,0-12.47,0-.16,4.18-.7,8.84-.44,13.44.47,8.29.56,16.74,2.35,24.78,3,13.64,11.87,23.49,22.65,32.19a78.57,78.57,0,0,0,29.75,15,208.64,208.64,0,0,1,27.34,9.32,40.46,40.46,0,0,1,20.12,18.9c.84,1.59,1.07,3.49,1.73,5.19,3.24,8.27,6.54,16.53,9.81,24.79.09.23.16.53.34.66,4,2.81,4.34,7.82,6.87,11.54,7.08,10.37,9.83,22.43,12.91,34.34,3.88,15,4.48,30.41,5.47,45.75s1.51,30.76,2.5,46.12c.81,12.53,2,25,3.05,37.53.17,2,.67,3.93,1,5.9.26,1.62-.28,2.76-1.41,3C490.27,628.22,484.2,620,477.87,612c-2.14-2.71-4.91-4.91-7.39-7.35-.4-.41-1-.85-1.06-1.32a3.45,3.45,0,0,1,.45-2.37,2.16,2.16,0,0,1,2.12-.07,37.48,37.48,0,0,1,5.06,4.77c3.51,4.22,6.83,8.6,10.26,12.9a8,8,0,0,0,2.66,2.21,92.49,92.49,0,0,0-9.71-16.59c-3.74-5.25-8.1-10.06-12.3-15.2,1-1.68,2.12-1.17,3.61,0,6.16,4.73,10.1,11.21,14.2,17.58,1.8,2.79,3.62,5.56,5.52,8.49a6.88,6.88,0,0,0-1.77-7.73,4.31,4.31,0,0,1-1.28-1.8c-1.94-6.95-7.09-11.72-11.51-17-1.92-2.28-4.21-4.27-6-6.63-.64-.82-.42-2.33-.59-3.53,1.06.43,2.47.56,3.13,1.32,5.18,6.07,10.23,12.26,15.31,18.41.5.61,1,1.25,1.44,1.87l.58-.26c-.38-1.2-.44-2.66-1.18-3.57-6.79-8.41-13.69-16.72-20.57-25.06-.15-.19-.45-.33-.51-.54-.34-1.09-1.22-2.75-.82-3.19,1.25-1.33,2.18.19,2.95,1,5.87,6.48,11.69,13,17.53,19.5.43.48.85,1,1.27,1.47l.7-.2a6.13,6.13,0,0,0-.54-2.39,128.7,128.7,0,0,0-8.69-11.23c-5.48-5.9-11.33-11.45-16.95-17.21-.42-.43-.3-1.39-.43-2.11a5.79,5.79,0,0,1,2.21-.26c.64.2,1.16.9,1.68,1.44q9.89,10.22,19.75,20.47a22.58,22.58,0,0,1,1.86,2.67c1.75-3.53,1.37-5-1-6.63a9.11,9.11,0,0,1-1.79-1.72c-4-4.8-7.7-9.87-12-14.36-5.22-5.43-10.94-10.38-16.45-15.54-.18-.17-.5-.26-.58-.45-.55-1.26-1-2.53-1.56-3.8,1.15.4,2.5.53,3.41,1.23,10.18,7.8,18.76,17.21,26.92,27a15.66,15.66,0,0,0,2.93,2.8c-.34-3.31,1-6.53-2.35-9.62-4.09-3.81-7.15-8.72-10.62-13.19a110.5,110.5,0,0,0-18.83-18.48c-3.56-2.84-7.15-5.63-10.62-8.56a2.41,2.41,0,0,1-.48-2.24,2.21,2.21,0,0,1,2.07-.6c3.09,2.22,6.1,4.55,9.05,7,10.56,8.63,19.7,18.65,28.36,29.13.83,1,1.74,1.94,2.73,3V545l-.81.55A40.87,40.87,0,0,1,483,542c-11.3-12.23-22.38-24.68-35.19-35.4a40.4,40.4,0,0,0-5.75-3.46c-.57-.33-1.56-.47-1.7-.91a16.65,16.65,0,0,1-.4-3.41c.93.05,2.1-.26,2.73.19A149.05,149.05,0,0,1,463.73,517c6.91,7.23,14,14.24,21,21.38a19.77,19.77,0,0,1,1.89,2.9c1.65-4.32,1-6.3-1.73-8.11a9.15,9.15,0,0,1-2.3-2.26c-6.05-8.26-14-14.38-22.3-20.17-1.54-1.08-4-2.23-2.41-4.31,1.32-1.77,3.14.11,4.44,1.18,5.64,4.68,11.19,9.45,16.85,14.1,2.4,2,5,3.72,7.79,5.81-.52-3.53-1-6.85-1.53-10.15a3.29,3.29,0,0,0-1.14-1.57c-4.22-3.78-8.36-7.65-12.74-11.23a72,72,0,0,0-7.7-5c-2.11-1.32-2.52-2.69-.84-3.82a3.06,3.06,0,0,1,2.79.1c4.12,3,8.07,6.14,12.16,9.13,1.71,1.24,3.62,2.19,5.59,3.36.72-3.61-.12-5.07-2.66-6.71a32,32,0,0,1-4.4-4c-3.39-3.2-6.72-6.46-10.18-9.58a10.58,10.58,0,0,0-3.23-1.69c-1.63-.64-2.64-1.65-1.85-3.4s2.41-1.33,3.56-.47c3.19,2.36,6.32,4.82,9.34,7.39,2.38,2,4.57,4.29,6.84,6.44l.73-.42c-.85-3-1.68-5.94-2.56-8.89a1.94,1.94,0,0,0-.72-1c-4.3-2.9-8.59-5.79-12.93-8.61-1.19-.78-1.43-1.78-.53-2.64a2.72,2.72,0,0,1,2.48-.37c3,1.6,5.87,3.42,8.78,5.16l.72-.47c-.88-1.76-1.38-3.94-2.73-5.19a57.09,57.09,0,0,0-8.19-5.89c-1.23-.79-3.1-.9-2.37-3s2.25-1.5,3.71-1l2.19.75c-.94-1.73-1.31-3.16-2.23-4-3.91-3.59-5.55-8.34-7.31-13.1-2.21-6-5.1-11.78-6.81-17.91-3.39-12.12-11.7-19.43-22.78-23.64a247.21,247.21,0,0,0-29.06-8.88,60.55,60.55,0,0,1-25.86-13.91c-4.64-4.06-9.24-8.16-13.68-12.43a20.9,20.9,0,0,1-4.3-5.77c-2.2-4.55-4.14-9.25-6-14-2.66-6.89-2.49-14.23-2.83-21.43-.34-7.47-.07-15-.07-23-1.49.35-2.7.35-3.57.89-4.28,2.67-8.49,5.46-12.67,8.28a12.29,12.29,0,0,0-2.33,2.23c-2.6,3-6.18,4.23-9.56,2.27-6-3.51-11.82-7.38-17.56-11.32-.66-.46-.36-2.31-.51-3.51,1.08,0,2.39-.28,3.22.21,5.07,3,10,6.33,15.06,9.29,3.2,1.86,4.78,1.47,7.29-1.2,5.09-5.41,11.57-8.62,18.26-11.4,1.63-.68,3.75-.43,5.62-.24,6.46.64,12.93,1.51,19.39.16a46.24,46.24,0,0,0,5.79-2ZM316,50.74l-.89-.49C311.75,54.13,308.35,58,305,61.87a32.88,32.88,0,0,0-6.81,14,78.26,78.26,0,0,0-2.31,22.28c.3,6,.42,12.27,2.06,18a68.18,68.18,0,0,0,12.31,23.8c4.45,5.58,8.71,11.24,16.39,12.61a11.78,11.78,0,0,1,2.42,1.28c10.21,4.82,20.77,7.76,32.12,5,4.26-1,8.34-2.74,12.56-3.95,9.26-2.68,18.55-5.14,27.11-9.81,9.61-5.23,16.94-12.33,21.22-22.63a108,108,0,0,0,6.4-21.46c1.09-5.76,1.49-11.67-1.49-17.35a25.78,25.78,0,0,0-2.38,5.85c-1.37,5.69-3,11.22-6.51,16a69.1,69.1,0,0,0-4.48,6.91c-2.84,5.17-6.26,10.12-11.3,13-7.33,4.18-15.21,7.38-22.9,10.92-.68.31-1.62,0-2.43.08-3.38.21-6.77.37-10.14.74a3.24,3.24,0,0,0-1.85,1.49c-.83,1.3-1.74,1.37-3.17,1a27.87,27.87,0,0,0-7-1.07c-5.92.06-11.5-1-16.21-4.69-3.4-2.66-6.39-5.83-9.66-8.65a8.09,8.09,0,0,0-3.57-1.84c-1.51-.3-1.8-.92-1.87-2.32a10.12,10.12,0,0,0-1-4.22c-2.48-4.51-5.24-8.88-7.75-13.38a36.82,36.82,0,0,1-4.37-23.18c1.28-9.36,3.53-18.59,5.35-27.88C315.84,51.92,315.91,51.33,316,50.74Zm38.78,83.61a40.34,40.34,0,0,1-4.21-3.72c-.5-.58-.28-1.78-.4-2.7.9,0,2-.31,2.66.08a42.72,42.72,0,0,1,5.9,4.08c2.7,2.26,9.1,2.28,12-.25a3.78,3.78,0,0,0-1-.7,29.6,29.6,0,0,1-11.28-6.63,5,5,0,0,0-4.15-.88,24.2,24.2,0,0,1-15.87-.61c-1.49-.53-3.25-.29-4.89-.41-.17.36-.34.72-.52,1.07L337.3,128l3-3.31a5.35,5.35,0,0,1,.79.63c1.48,2.1,2.93,4.23,4.44,6.32C347.17,133.84,352,135.32,354.79,134.35Zm57.87,97.94c.36-3.16.73-6.33,1.09-9.49C411.63,225,411.53,226,412.66,232.29Z"/><path class="cls-1" d="M215,149.46a59.16,59.16,0,0,1-5-4.14,2.56,2.56,0,0,1,.48-2.37,10.64,10.64,0,0,1,4.47-1.07c4.28.1,7.17-2.06,9.22-5.43,1.92-3.17,2.38-3.35,4.94-.72a3.48,3.48,0,0,0,1.43,1c2.27.67,4.57,1.24,6.84,1.85-.12-4.11,1.59-5.16,5.41-3.14a92.48,92.48,0,0,0,10.79,5.2A35.25,35.25,0,0,1,249.7,138a9.59,9.59,0,0,1-1.53-2.45,28,28,0,0,1,3.14-1c.4-.08.92.33,1.35.56q9.66,5.23,19.29,10.5a17.07,17.07,0,0,1,1.84,1.36l-2.65,2.29c2.49,1.43,2.69,2.25.84,4.74-.74,1-1.76,1.79-2.44,2.82a14.41,14.41,0,0,0-1,2.69c-.23.57-.38,1.43-.82,1.63-3.11,1.45-3.7,5-6.39,6.89,3.85,2.14,3.55,4.53-.8,8.42.34,1.39,2.72,2.65.91,4.18-.77.65-2.44.24-3.63.31l4.62,2.9c-1.19,1.86-2.29,3.59-3.43,5.39.32.24.77.41,1,.73.53.87,1.51,2,1.3,2.67-.47,1.51-1.94,1.55-3.34,1-1-.36-2.06-.67-3.08-1l-.4.8c.72.53,1.41,1.1,2.16,1.59,1.18.77,2.39,1.5,3.6,2.23,2.7,1.62,2.76,2.38.23,4.33a8.27,8.27,0,0,0,.56.73c2.87,2.9,2.85,2.89-.69,5a5.93,5.93,0,0,0-1.92,2.16,21.4,21.4,0,0,1,3.08-1.59,1.94,1.94,0,0,1,1.78.39,2.8,2.8,0,0,1,0,2,15.38,15.38,0,0,1-1.73,4c-.64.94-1.82,1.51-3.05,2.46l4.93,2.91c2.45,1.45,2.54,2.44.27,4.31,1.71,2.26-.44,3.49-1.89,5.59a18.73,18.73,0,0,0,2.8.44c.74,0,1.48-.4,2.2-.37a2.26,2.26,0,0,1,1.68.71,2,2,0,0,1-.3,1.76c-1.31,1.59-2.77,3.05-4.65,5.08l5.76,1.3c.06,2,.06,2-4.57,6.6l4.69,3.45c-2.14,2.16-.74,6.54-5.42,6.57l.21.84c.9.11,1.8.28,2.71.31,1.43.05,2.8-.21,2.78,2.1,0,1,1.22,2,2.12,3.36h-4.55l-.19.49c1.06.71,2.18,1.36,3.18,2.15,1.58,1.25,1.46,2.28-.27,3.35a8.17,8.17,0,0,0-1.22.87,9.3,9.3,0,0,0-.89,1.22c1.31,1.14,2.6,2.26,3.94,3.44-1.15,1.91-3.45,3.29-2.25,6a4.49,4.49,0,0,1-1.45.93,5.5,5.5,0,0,0-2.39,1.22l3.74,1.3c-1.73,2.09-1.19,3.84.37,5.55.28.32,0,1.37-.26,1.92a28.78,28.78,0,0,1-2.1,3l4.33,2.88c-3.28,2.63.84,5.4-.42,8.46l-4.78-2.43c.24.56.28,1,.53,1.19,6.63,4.25,11.68,10.33,17.75,15.22.26.21.66.4.72.66.26,1.1,1,2.71.5,3.24-1.2,1.37-2.16-.11-3-1-1.92-2-3.8-4-5.89-6.17L275,316.88c3.53,3.22,7,6.26,10.26,9.46.46.44.19,1.63.26,2.47-.78-.14-1.77,0-2.31-.48-2.26-1.86-4.39-3.88-6.57-5.84l-.48.46a6.14,6.14,0,0,0,.9,1.21c3.15,2.58,6.35,5.11,9.5,7.69a9.54,9.54,0,0,1,2.25,2.28c.31.51,0,1.42-.1,2.15-.72-.12-1.63,0-2.11-.4-3.67-3-7.25-6.1-10.88-9.14a2.18,2.18,0,0,0-1.84-.48,15,15,0,0,1,2.07,2.32,6.42,6.42,0,0,1,.36,2.24c-.75,0-1.72.32-2.19,0-1.64-1.25-3.1-2.73-4.64-4.11a9.15,9.15,0,0,0-1.18-.67c0,1.05,0,1.79,0,2.53-.07,1-.19,2-.29,3a24.28,24.28,0,0,1-2.78-1,10.84,10.84,0,0,1-1.78-1.61L258.2,338l-4.35-3.2-1,.65c1.58,1.6,2.7,3.24.32,5-9.52-4.32-15.39-13.16-23.81-18.94l1.38-3c-2.16.19-3-.76-3.88-2.67s-3.32-3.42-5.07-5.07c-1.92-1.81-1.88-3.43.48-4.46a13.87,13.87,0,0,1,5.77-1.18c8.32.29,15.12-3.4,21.64-7.9a3.94,3.94,0,0,0,1.76-2.57c-.07-3.71-.36-7.43-.8-11.11-.21-1.78-1.57-2.52-3.39-2.7a26.69,26.69,0,0,1-6.11-1.14c-3.65-1.26-4.11-4-1.29-6.63,3.14-2.91,6.8-3.18,10.73-2.1.94.26,1.91.43,2.86.64l.28-1-5.85-3.86c-3.1.88-5.39,1.5-7.66,2.18-3,.91-6,1.94-9,2.75a7.56,7.56,0,0,1-3.88.2c-.89-.25-1.52-1.47-2.26-2.25.78-.6,1.48-1.49,2.35-1.74,3.83-1.1,7.71-2,11.68-3-1.52-1.87-1.69-1.72-3.7-.61a14.88,14.88,0,0,1-4.77,1.41c-.46.08-1.32-.75-1.55-1.34-.14-.36.43-1.17.86-1.59,3.17-3.1,6.76-4.5,11.09-2.47,1.62.76,3,.71,4.09-.94.85-1.3,2-1.25,3.26-.6a10.68,10.68,0,0,0,4.06,1.22,23.25,23.25,0,0,1-2.4-2,6.14,6.14,0,0,1-.79-1.78c.67-.12,1.44-.51,2-.31,1.16.41,2.18,1.19,3.31,1.71a12.76,12.76,0,0,0,2.06.56l.39-.79c-1.9-1.35-3.84-2.67-5.7-4.08a7.84,7.84,0,0,1-1.25-1.62c.68-.32,1.34-.65,2-.95.14-.06.34.07.49,0,.76-.14,1.51-.31,2.26-.46-.21-.47-.33-1.23-.66-1.34a15.91,15.91,0,0,0-2.87-.46s-.11.11-.18.16c-5.81,4.77-8.28,4.66-13.62-.6a6.14,6.14,0,0,0-.59-.45c-5,5.2-9.11,6-15.66,3.08-1.84-.82-4.9-5.82-4.64-7.89a2.42,2.42,0,0,1,1.31-1.59,2.21,2.21,0,0,1,2,.26A21.23,21.23,0,0,1,222.7,245c2,2.94,6.87,3.51,9.4,1,.71-.7,1.38-1.45,2.07-2.17,2.72-2.79,4.45-2.53,6.85.6a8.55,8.55,0,0,0,3.8,2.76c2.29.77,3.44-.44,3.17-2.89a6.27,6.27,0,0,0-.29-1.21c-3.8-11-7.51-22.1-11.46-33.08-1.58-4.41-1.17-8.86-1.15-13.34,0-.92.08-1.83.09-2.75.08-3.93-1-7.22-5-8.83-3.7-1.47-5.54-4.6-6.94-8-2.13-5.23-4.06-10.55-6.22-15.77-2-4.68-5-8.13-10.42-9-1-.16-1.72-1.54-2.57-2.36,1.15-.61,2.36-1.8,3.44-1.7,1.93.19,3.77,1.21,5.68,1.78a7.41,7.41,0,0,0,2,0Zm21.4,27.61c-3.4-1.74-3.4-1.74-7.06,2.13l3.72,2.71C234.28,180.16,235.3,178.69,236.42,177.07Zm12.72,84.53-.89.33c-.08.93-.57,2.43-.19,2.69,2.37,1.64,4.94,3,7.44,4.46l.56-.79Zm-5.6-72.38c-1-2.77-3.59-4.77-6-4.56C239.32,189,240.15,189.59,243.54,189.22Zm9-17.65c-3.3-3-5.42-3.35-6.36-.93C250.08,173.1,251,174,252.58,171.57Zm-1,34.77c2.4,2.47,2.84,2.28,4.8-1.85l-2.07-1.77Zm-12.42-39.15c1.55.63,2.5,3,4.42,1.09.28-.28,0-1.71-.45-2.05C241.8,165.17,240.25,164.56,239.21,167.19Zm11.85,34.39c-.82-.35-1.46-.88-1.82-.73a11.84,11.84,0,0,0-3,1.8c-.2.17.22,1.1.35,1.68a14.15,14.15,0,0,0,2.84-.86C250,203.15,250.37,202.39,251.06,201.58ZM238.2,180.19c3.56,2.33,3.83,2.31,5.1-.48C241.5,179.07,239.69,177.18,238.2,180.19Zm12-32.23-3.29-1.4-1.55,2.53,3.27,1.26Zm12.89,93.65c-1.65-1.41-3.12-2.53-4.52,0C261,244.09,261.62,244.1,263.13,241.61ZM229.51,175c-.77-1-1.36-1.72-1.92-2.48s-.9-1.31-1.35-2l-.71.5,2.72,6.11Zm15.1,134.55c-2.64,2.29-2.67,2.54-.65,4.12C244.86,312.39,247,311.46,244.61,309.5Zm20.95-153.7-6-2.78C260.49,155.61,263.58,157.15,265.56,155.8Zm-2.25,108.3c-1.95,2.61.57,2.7,1.72,3.82l1.29-2.2ZM252.56,318l-2.23-1.81-1.69,2.47,2.43,1.35Zm-15.85-9.37,2.74,2,2.09-3-.41-.46Zm6.31-107-.44-1-2.58-.43-.43,2.95,1.3.78C241.59,203.16,242.31,202.41,243,201.65Zm7.2,11.25,1.94-1.34c-1.67-1.51-2.66-3-4.5-1.34Zm21.2,100.72c2.57,1.85,2.57,1.85,3.54-.13l-2.24-1.63ZM238,156.06l-.6,1.31,4.25,1.89.52-1.09Zm9.37,70.43-.76.52a26.28,26.28,0,0,0,2,3c.12.15,1.12-.44,2-.82ZM261,300.35l.26,1,3.17-.75v-.82l-2.11-1.43Zm-3.81-142.19,3.84,2.89.55-.76C261.16,158.08,258.87,158.53,257.16,158.16Z"/><path class="cls-1" d="M397,527.2a9.89,9.89,0,0,0-.57-2.34c-4.77-9-9.51-18.08-14.44-27a53.91,53.91,0,0,0-5-6.85c-1-1.24-1.69-2.53-.27-3.69s2.69-.57,3.72.69a17.8,17.8,0,0,1,1.72,2.43c2.61,4.8,5.18,9.63,7.77,14.44l.56-.27a15.84,15.84,0,0,0-.66-1.6c-2.19-4.1-4.32-8.25-6.63-12.28a61,61,0,0,0-3.77-5.22c-.58-.81-1.47-1.6-1.58-2.47a3.47,3.47,0,0,1,1-2.72,2.67,2.67,0,0,1,2.6,0,10.84,10.84,0,0,1,2.54,3.33c5.49,10.72,10.89,21.48,16.39,32.19,1.33,2.59,1.25,3.34-1.19,4.79,0,.14-.07.34,0,.44,2.68,3.72,2.33,7.5,1.15,11.82-2.72,9.95-7.27,19-12.12,28-3.14,5.82-7.63,10-14.25,11.6a45,45,0,0,0-8,2.81,49.16,49.16,0,0,0-5.53,3.53c-.54.34-1.33.93-1.71.76-3.45-1.51-6.73.06-10,.5-7.08,1-13.92.67-20.48-2.49-5.57-2.68-11.31-4.81-17.6-5-1.08,0-2.27-.36-3.22,0-2.48.89-3.85-.28-5.2-2.12-2.37-3.21-4.89-6.31-7.33-9.48-.45-.59-1.12-1.29-1.08-1.91.06-1,.32-2.44,1-2.94,1-.74,2.12-.08,2.73,1.23,1.92,4.17,5.6,6.71,9.05,9.45.07.06.29,0,1.12-.24-2.19-2.48-4.08-4.82-6.19-6.93-1.06-1.06-2.78-1.76-1.62-3.55s2.75-1.42,4.13-.3a26.21,26.21,0,0,1,3.75,3.62c2.11,2.56,4,5.26,6.1,7.86.28.36.85.48,1.67.26q-3.75-4.75-7.51-9.52c-.91-1.16-2.27-2.29-.46-3.77s2.82-.05,3.83,1.21l.94,1.15c2.28-3.38,2.52-3.39,6.13-.13,2.53-2.66,3.46-2.66,5.72.47,4,5.6,7.92,11.3,11.91,16.92a7.28,7.28,0,0,0,1.54,1.24l.66-.64c-2.64-3.43-5.32-6.85-7.92-10.32a22.12,22.12,0,0,1-2.89-4.59c-.33-.79.34-2,.55-3,1.08.4,2.56.49,3.15,1.26,3.43,4.49,6.65,9.14,9.95,13.72a1.72,1.72,0,0,0,1.47.8q-4-5.87-8-11.72c-.28-.41-.69-.72-1-1.13-1.05-1.44-.64-2.7.67-3.65s2.37-.13,3.09,1c2.46,3.86,4.8,7.79,7.32,11.61,1.31,2,2.92,3.78,4.39,5.66l.77-.48c-1.81-3.18-3.54-6.4-5.45-9.52s-4.07-6.27-6.14-9.44c1.22-1.62,2.44-2.47,4.3-1.29.33.21.83.52,1.11.41,3.09-1.18,3.84,1.16,5,3.12q4.19,7.23,8.55,14.36c.37.6,1.27.88,1.93,1.31-.09-.84.11-1.88-.31-2.49-3-4.4-6.23-8.65-9.16-13.09-1.07-1.63-1.52-3.66-2.29-5.58,3.35-.85,4.17-.16,5.69,2.37,3,5,6.32,9.88,9.51,14.81l.76-.32a16.69,16.69,0,0,0-1-2.68c-2.84-5.07-5.24-10.42-9.55-14.55a5.86,5.86,0,0,1-1.24-3.16,2,2,0,0,1,2.08-2.47c.65,0,1.52.06,1.9-.3,2.3-2.22,3.4-.66,4.56,1.23a60,60,0,0,0,3.7,5.63c.61.8,1.89,1.08,2.51,1.88a25.41,25.41,0,0,1,3.27,5.1c1.21,2.72,2.06,5.61,3.37,9.27a80.75,80.75,0,0,0,7-4.46c.45-.35.32-2-.1-2.81-3.53-6.41-7.17-12.76-10.84-19.09-1.46-2.51-3.08-4.93-4.6-7.41-1.18-1.93.24-6,2.44-6.35a3.55,3.55,0,0,1,2.9,1.26c3.23,4.81,6.43,9.66,9.32,14.68,2.27,3.93,4.07,8.12,6.14,12.32,2.84-3.12,2.76-3.53,1.1-6.47-5.21-9.27-10.3-18.61-15.43-27.93a16.37,16.37,0,0,1-.91-2.05c-1-2.57-.72-3.19,2-4.26a16.11,16.11,0,0,1-2.54-3.32c-.39-.91-.38-2.83.13-3.12a2.56,2.56,0,0,1,3.67.92c1,1.65,2.07,3.22,3,4.89,5.26,9.4,10.49,18.81,15.66,28.09.51-1.16,1.84-2.7-.61-4.17-.45-.27-.68-.93-1-1.43q-9.75-16.83-19.5-33.67c-.78-1.33-1.11-2.59.46-3.39,1.72-.87,2.84.2,3.62,1.64,2.31,4.33,4.54,8.69,6.9,13,3,5.4,6,10.75,9,16.1.93,1.63,2,3.18,3.18,5.05a5.34,5.34,0,0,0-.33-5.74l-18.75-32.35c-.37-.64-1.1-1.34-1-1.93a2.78,2.78,0,0,1,1.33-2.05,2.51,2.51,0,0,1,2.15,1c3.3,5.28,6.56,10.61,9.68,16s6.08,10.87,9.1,16.3Zm-10.89,13.95.76-.42-12.24-21.84-.72.4C377.13,527.07,381.62,534.12,386.14,541.15Zm-27.4,10.35,9.5,17.59A42.32,42.32,0,0,0,358.74,551.5ZM397,518.44l.83-.39c-1.27-2.65-2.53-5.31-3.79-8l-.79.37Zm-76.65,40.34-.7.49L325,566.2l.74-.58Z"/><path class="cls-1" d="M123.12,506.89c-.32-.36-.77-.66-.93-1.07-.37-1-.6-2-.89-3,1.22-.13,2.64-.72,3.61-.29a15.37,15.37,0,0,1,3.47,2.76c.55-1.12,1.15-2.23,1.64-3.39.89-2.07,1.73-4.16,2.55-6.25.42-1.08.67-2.24,1.12-3.3.8-1.86,1.93-3.07,4.22-2a2.71,2.71,0,0,0,2.15.2c2.17-1.39,3.54,0,5,1.2a51.41,51.41,0,0,0,5,4.15,44.49,44.49,0,0,0,5.5,2.56,6.14,6.14,0,0,1,1.58,1c.47.46.67,1.25,1.18,1.59,4.88,3.17,4.28,8.39,4.82,13.09.24,2,.36,3.79,1.81,5.48a8.73,8.73,0,0,1,1.59,4.33,24.72,24.72,0,0,0,7.22,14.72c2.54,2.5,4.68,5.4,7.09,8a7.81,7.81,0,0,0,2.9,2.21c3.73,1.33,4.1,2,2.37,5.7,4.1.17,7.83,1.1,10.05,5.49,1.56-2.58,3.43-3.66,6-3.25.39.06.9-.31,1.26-.6,2.31-1.85,3.16-1.76,5.32.53,2.73,2.91,5.45,5.84,8.27,8.66a10.78,10.78,0,0,0,2.61,1.45l.46-.67c-1.69-1.52-3.44-3-5.05-4.58-.83-.84-2.48-1.67-1.13-3.23s2.81-.8,4.08.37c.43.39.84.81,1.23,1.23,1.06,1.15,2,1.16,3.18,0,1.85-1.8,3.77-3.53,5.74-5.19.67-.57,1.86-1.39,2.35-1.16,3.18,1.52,5.75-1.54,8.64-.82a3.78,3.78,0,0,0,.41-.48c.59-1,1.17-2,1.75-3a17.82,17.82,0,0,1,3.05,1.82,36.47,36.47,0,0,1,3.12,3.53l1.8-2.41c-1.27-1.07-2.44-2-3.52-3s-2-2.3-.55-3.36c.65-.49,2.35-.22,3.21.31,3,1.79,5.81,3.82,8.65,5.82a24.28,24.28,0,0,1,2.36,2.21l1.26-1.51a2.92,2.92,0,0,0-.41-.65c-2.44-2.14-4.93-4.23-7.33-6.41-1.17-1.06-2.19-2.51-.71-3.84s2.61-.39,3.83.84c4.11,4.13,8.42,8.07,12.52,12.2.76.77,1.52,2.29,1.25,3.13s-1.77,1.5-3.07,2.49l.18,1.06c-1,.46-2.13.65-2.62,1.32-1.42,2-2.77,3.07-4.92.41-1.26,2.61-2.27,4.87-3.44,7a5.21,5.21,0,0,1-1.95,2c-1.94,1-2.92.36-3-1.85,0-.71,0-1.41,0-2.23-1.36.54-2.44,1.34-3.36,1.19-.66-.11-1.1-1.52-1.81-2.63-1.56,4.32-6.3,1.62-9,4-2.06-1.59-4,1.18-6.16.14-.39-.2-1.38.32-1.81.78-2.44,2.58-3.4,2.44-4.59-1-.6,1-1.11,2-1.68,2.87-1.42,2.25-3.22,2.17-4.58-.07a46.33,46.33,0,0,0-2.88-3.85c-1.42,1.51-1.94,4.1-4.25,3.07-1.51-.68-2.65-2.18-4.22-3.55.08,1,.18,1.57.17,2.18,0,2.16-1.59,3.12-3.28,1.82-2.07-1.58-3.89-3.5-6.13-5.58a16.54,16.54,0,0,1,1.65,3.63,3.2,3.2,0,0,1-.79,2.7,2.94,2.94,0,0,1-2.7-.56c-2.09-2-4-4.18-5.92-6.29l-.73.62a13,13,0,0,1,2,2.25,18.76,18.76,0,0,1,1.14,3.18c-1.15.14-2.41.65-3.4.33a18.09,18.09,0,0,1-3.8-2.3s-.14.18-.11.26c.77,1.62,1.72,3.45-.35,4.6s-2.83-1-3.85-2.18c-2.25-2.55-4.51-5.11-6.6-7.8-1.14-1.47-1.84-3,.12-4.76.76-.68.53-2.47.86-4.43,2-1.38,4-.89,6.38,2.18,1.17,1.49,2.47,2.88,3.92,4.55-.36-2.32-.34-4.39-1.07-6.15a13.82,13.82,0,0,0-3.25-4c-.92-.91-2.31-1.36-3.17-2.31-2.8-3.08-5.56-6.2-8.11-9.48a44.25,44.25,0,0,1-5-7.69c-1.32-2.74-2-5.79-3.07-9.1l-5.15.56c1.83,2,3.27,3.65,4.75,5.23.39.42,1.07.66,1.29,1.14.44.92,1.14,2.17.82,2.89s-1.7,1.17-3,2c-1.06,3-1.82,3.26-4.49.8-1.88-1.72-3.4-3.83-5.24-5.59-2.94-2.82-6.11-5.41-9-8.26-3.37-3.29-6.44-6.9-9.89-10.09-2.67-2.46-5.73-4.49-8.61-6.71Zm98.61,54.81c3.38,1.28,6.27-1.41,6.57-5.62Zm-34.24-6-.59.81c.38.75.76,2.16,1.12,2.15a17.33,17.33,0,0,0,3.82-.84v-1Zm-36.91-37.49c1.86,4,2.79,4.84,5.59,4.91Zm-19-9.86,4.17,3.5C135.66,509.11,133.84,508.44,131.58,508.36Z"/><path class="cls-1" d="M187.43,301.3c1,1.79,2,3.56,2.87,5.38q6.28,12.61,12.52,25.26c3.35,6.78,6.08,13.73,5.26,21.51-.35,3.31-.92,6.59-1.29,9.89-.19,1.74-1.13,2.34-2.7,2-1.73-.33-1.93-1.58-1.64-3.06.59-3.09,1.21-6.19,1.72-9.3a5.19,5.19,0,0,0-.49-3.1c-1,2.73-2.09,5.45-3.09,8.19-1.37,3.73-2.52,7.45-5.5,10.45-2.18,2.2-3.53,5.2-5.39,7.74-5.68,7.72-13.52,12.18-22.6,14.61-5.58,1.49-11.25,2.62-16.83,4.1s-11.43,2.83-16.83,5c-6.67,2.7-13.49,5.53-19.38,9.55-9.87,6.74-16.4,16.49-20.32,27.73-3.36,9.62-6.91,19.31-8.88,29.26-2.13,10.7-4,21.54-3.44,32.68.35,6.91-.69,13.92-1.33,20.87-.74,8-1.64,15.89-2.61,23.82-1.13,9.26-4.36,17.87-8.16,26.33a62.54,62.54,0,0,0-3.72,11.06c-.44,1.81.07,3.93.53,5.82s.47,3.59-1.18,4c-1,.26-3-1-3.63-2.15a9.13,9.13,0,0,1-.87-5.06,39.24,39.24,0,0,1,3.26-12.67c5.63-12.56,10.4-25.38,9.89-39.58a41.35,41.35,0,0,1,1.61-12c2-7.19,1.89-14.43,1.85-21.77,0-6.45.71-12.92,1.27-19.36a70,70,0,0,1,1.38-8.62c1.23-5.75,2.43-11.51,4-17.18,1.39-5,3.3-9.94,4.86-14.93A59.72,59.72,0,0,1,106.3,410c4.52-3.93,10-6.92,15.27-9.78a95.16,95.16,0,0,1,15.08-6.48c4.71-1.55,9.75-2.07,14.57-3.35,6.57-1.75,13.23-3.37,19.56-5.82,5.72-2.21,11-5.52,14.6-10.83a41.75,41.75,0,0,1,4.32-5.49c3.38-3.53,5.26-7.72,6.63-12.37.92-3.12,2.72-6,3.67-9.31-1.57,2.12-3.15,4.23-4.71,6.36-.44.6-.69,1.56-1.26,1.8a13.28,13.28,0,0,1-3.19.48c-.11-1-.68-2.2-.27-2.82,2.27-3.46,4.7-6.83,7.25-10.09a3.65,3.65,0,0,1,2.81-1.11c2,.21,2.06-.64,1.44-2-2.8-6.11-5.65-12.2-8.72-18.79-3.93,7.49-7.56,14.49-11.29,21.43a22.46,22.46,0,0,1-3,4,2.61,2.61,0,0,1-4,.14c-.38-.34.13-2,.6-2.91,3.5-6.5,7.14-12.93,10.63-19.43,1.26-2.33,2.25-4.79,6.13-4-2.73-5.26-5.23-10-7.63-14.8-.85-1.69-1.34-3.58-2.26-5.23a8.5,8.5,0,0,0-2.72-3.2c-5-3-9.67-6.11-9.94-13.34-2.9,3.84-5.52,7.17-8,10.61q-16.53,23-33,46a7.86,7.86,0,0,1-.59.8c-1.18,1.24-2.51,2.67-4.23,1.23s-.53-3,.55-4.3c5.25-6.55,10.78-12.91,15.66-19.72,6.64-9.24,12.76-18.85,19.14-28.28,1.45-2.13,3-4.2,4.6-6.21,2-2.47,2.92-2.51,5.65-.21-1.2-4.07-.77-8.18-3.74-11.37-1-1.05-1.73-1.66-3.12-1.14-4.11,1.52-8.05,1.34-11.51-1.56a20.18,20.18,0,0,1-3.58-4,33.74,33.74,0,0,1-3.54-6.27,7.9,7.9,0,0,1-.43-4.83c.32-1.06,5.51,0,6.89,1.1,1.67,1.31,3.5,2.4,5.74,3.9-1.75-7.92,3.6-13.61,4.36-20.47,2.08,2.24,2.17,4.88,1.71,7.58-.39,2.29-.89,4.58-1.5,6.82-1.27,4.65.22,8.68,2.69,12.48a2.67,2.67,0,0,0,1.45.76,8.65,8.65,0,0,1,5.57,4.68c1.13,2.29,2.11,4.66,3.09,7a3.4,3.4,0,0,1,.28,1.71c-1,6,1.71,10.31,6.74,13.15,6.58,3.72,13.3,7.18,20,10.75.66.35,1.55.52,1.95,1.06.58.81,1.3,2,1.11,2.79-.35,1.56-1.63.94-2.61.42-3.16-1.67-6.29-3.38-9.46-5-1.24-.65-2.55-1.16-3.83-1.74Zm-38.55-43.2-.74.7c1.79,2.28,3.54,4.6,5.38,6.84s4.33,2.38,6.94.7A31,31,0,0,0,148.88,258.1Z"/><path class="cls-1" d="M129.41,614.53a52.11,52.11,0,0,1-3.92-3.8,2.81,2.81,0,0,1-.68-2.38c.34-.7,1.47-1,2.27-1.47.06,0,.19.06.24,0,2.23-1.63,4.85-1,7.3-1.32.77-.11,1.45-.82,2.66-1.55-2,.17-3.74.84-4.61.25s-.67-2.44-1-3.75a2.09,2.09,0,0,0-.08-.23c-.41-1.5-1.53-3.29-1.06-4.42.55-1.31,2.49-2,3.83-3l2.17-1.55-.29-.59c-.93.44-1.88.87-2.81,1.34-.51.26-1,.83-1.51.83-1.37,0-2.74-.23-4.12-.36.52-1.08,1-2.2,1.58-3.23.22-.38.77-.57,1.18-.86-2.25-2.49-2.22-2.89.57-4.71,2.51-1.63,5.09-3.16,7.58-4.82a9.64,9.64,0,0,0,1.64-1.83l-.63-.68c-1.62.94-3.23,1.91-4.88,2.8a9.35,9.35,0,0,1-3.16,1.41c-.9.1-1.88-.57-2.83-.91.37-.73.55-1.75,1.14-2.16,2.95-2,6-3.83,9-5.8a11.83,11.83,0,0,0,1.77-1.83l-.48-.48c-1.82,1.11-3.64,2.24-5.48,3.32a7.39,7.39,0,0,1-1.81.83c-1.7.44-3.69,1.06-4.59-.93-.25-.54,1.43-2,2.23-3a7.77,7.77,0,0,1,.77-.66c-1.6-1.22-3.16-2.37-4.69-3.56s-.56-2.34.33-3.13c2.74-2.43,5.6-4.72,8.41-7.06,1.29-1.06,2.54-2.16,3.88-3.14s2.86-1.2,4,.26c1.27,1.63-.09,2.61-1.25,3.42-2.68,1.88-5.41,3.67-8.12,5.5l.49.74c3.05-2.07,6.11-4.13,9.15-6.21.48-.33.87-1,1.35-1.06a26.08,26.08,0,0,1,3.53.08,9.53,9.53,0,0,1-.43,3.08,13.89,13.89,0,0,1-2.3,2.71c.92.87,2.5,1.72,2.49,2.54,0,1-1.34,2.06-2.14,3.13.43.18.65.34.72.29,3.33-2.5,6.31-.74,9.2.88,3.76,2.11,7.43,4.41,11.13,6.64.35.21.8.46.93.8.5,1.31.88,2.67,1.31,4a17.41,17.41,0,0,1-3.85-.47c-1.28-.42-2.4-1.3-3.84-1.59,1.16.86,2.33,1.71,3.48,2.59,3.06,2.33,3.1,2.82.23,5.79,1.34.89,2.6,1.76,3.89,2.6,2.79,1.83,3.25,3,2.54,6.31a2.56,2.56,0,0,0,.36,1.59c.38.73,1.14,1.33,1.32,2.09a11.49,11.49,0,0,1,0,2.93c-1-.06-2.14.21-2.84-.24-2.76-1.81-5.37-3.85-8-5.8l-.66.48a6.57,6.57,0,0,0,1.17,1.73c3.42,2.64,6.93,5.17,10.33,7.83a6.49,6.49,0,0,1,2,2.49,2.66,2.66,0,0,1-.24,2.4,2.61,2.61,0,0,1-2.46,0c-2.34-1.58-4.51-3.41-6.76-5.12a15.3,15.3,0,0,0-4-2.31c.27.72.32,1.67.83,2.12,3.14,2.84,6.41,5.54,9.58,8.35a11.78,11.78,0,0,1,2.79,3.08c.39.74-.1,1.93-.19,2.93-.89-.16-2-.05-2.63-.53-2.12-1.55-4.07-3.32-6.09-5l-.46.41c1,1.14,1.93,2.34,3,3.4,1.72,1.7,3.58,3.25,5.3,4.94a2.16,2.16,0,0,1-.18,3.48c-.59.43-2.11.05-2.93-.44a11.94,11.94,0,0,1-2.36-2.49l-.74.3,1.54,6.46c-4.1-.6-5.77-4.44-9.07-6.2,1.63,2.27,3.16,4.36,4.66,6.48,1.77,2.51,1.47,3.29-1.17,4a47.18,47.18,0,0,1,1.61,5.24,2.87,2.87,0,0,1-.89,2.25c-.25.23-1.52-.26-2-.74-2.58-2.48-5.05-5.07-7.56-7.6a11.44,11.44,0,0,0-.94-.75l-.67.5,8.26,11.27c-2,1.79-3.61,1.59-5.19-.36s-3.29-3.64-5-5.46l.07.09a9.43,9.43,0,0,0-1-1.62c-4.93-5.4-9.87-10.8-14.87-16.14-1.28-1.37-2.79-2.53-4.2-3.78Zm37.49-21.29.56-.56c-2.88-4.29-11.67-11.32-14.64-10.86Zm-3,27.09.65-1-6.08-4.69-.68.92ZM160.5,595.4c-.45-3.73-1.26-4.3-5.31-3.71Zm-2.4-20.63.58-1.13L153.54,571c-.19.36-.38.72-.56,1.08Zm-19.39,20.89.28.75,3.79-1C140.62,593.35,140.41,593.38,138.71,595.66Z"/><path class="cls-1" d="M114.31,215.79c-3.47.76-6.91,1.65-10.4,2.28-9.48,1.7-19,3.16-28.45,5-4.79.91-9.46,2.49-14.23,3.55a78.39,78.39,0,0,1-11,1.8c-1.12.09-2.35-1.35-3.54-2.1.86-.68,1.62-1.76,2.59-2q36.17-8.9,72.37-17.62c.64-.16,1.29-.29,1.94-.4,2.63-.41,3.42.34,3.11,3.07.57.25,1.36.37,1.71.83s.93,1.74.66,2.11c-1.2,1.62-2.4,3.55-4.08,4.46-4.59,2.46-9.41,4.54-14.19,6.64-4.17,1.83-8.44,3.46-12.62,5.3-.38.16-2.53-.15-1,1.54l-.65.32c-7.69,3.62-15.4,7.16-23,10.87-4.56,2.21-9,4.77-13.48,7-3.33,1.67-6.82,3-10.16,4.69-2.52,1.25-4.94,2.72-7.35,4.18-2.63,1.59-3.17,1.5-4.79-1.14a1.93,1.93,0,0,0-.13-.21c-2.54-3.71-2.5-3.82,1.9-4.95,11.13-2.86,21.27-8,31.34-13.39,13.86-7.39,27.54-15.17,42.4-20.49a11.07,11.07,0,0,0,1.28-.66Z"/><path class="cls-1" d="M360.65,638c-.46-.44-.9-.89-1.37-1.3a2,2,0,0,0-1.65-.53l1.56,2c1,1.21,1.58,2.53.16,3.72s-2.59.47-3.71-.64c-3.6-3.57-7.06-7.29-10.9-10.59-7.57-6.51-15.32-12.8-23.06-19.12a28,28,0,0,0-6.57-4l5.64,4.81-.28.58a5.36,5.36,0,0,1-1.91-.69c-5.14-4.74-10.32-9.44-15.29-14.35-2.55-2.52-2.2-3.67,1.14-4.92a3.12,3.12,0,0,1,2.54.57c5.41,4.5,10.74,9.1,16.09,13.67l.51-.55c-1.46-1.32-3-2.6-4.36-4-4.35-4.24-8.72-8.45-12.91-12.84a8.67,8.67,0,0,1-1.61-4,2.09,2.09,0,0,1,1.14-1.69,2.22,2.22,0,0,1,1.88.71c13.33,15.49,29.46,27.87,44.95,41,3.29,2.79,5.66,6.68,8.39,10.11.33.4.25,1.13.35,1.71Z"/><path class="cls-1" d="M137.63,173.76c-5.13-2.39-10.14-4.78-15.2-7.06-16.29-7.34-32.55-14.75-48.91-21.91-11.49-5-23.28-9.38-34.68-14.6C28.5,125.46,18.51,120,8.38,114.81c-.65-.34-1.56-.76-1.73-1.33a5.59,5.59,0,0,1,0-3.19c.1-.32,1.84-.52,2.51-.16,6.3,3.36,12.33,7.29,18.82,10.21,13.93,6.26,28.1,12,42.13,18,6.33,2.73,12.51,5.77,18.81,8.56,8.52,3.76,17.12,7.32,25.61,11.12,7.56,3.39,15.05,7,22.54,10.51C139.35,169.64,139.41,170.39,137.63,173.76Z"/><path class="cls-1" d="M321.21,185.55l2.28.38a9.85,9.85,0,0,1-.34-2.1,14.36,14.36,0,0,1,.51-2.28,18.92,18.92,0,0,1,2.58,1.07c.37.22.51.83.74,1.27,1.9,3.59,3.79,7.19,5.77,10.94l-1.82,1.64-2.84-1.93c.35,1,.76,1.6.64,2-.23.78-.6,1.83-1.21,2.1a2.38,2.38,0,0,1-2.06-1c-1.32-2.49-2.41-5.1-3.59-7.66-.2-.43-.46-.83-1-1.79-.27,2.72-.46,4.62,1.17,6.5a36.92,36.92,0,0,1,3.9,6.07,4.48,4.48,0,0,1,.6,2.8,3,3,0,0,1-1.68,1.86c-.4.15-1.43-.64-1.79-1.24-1.06-1.74-1.92-3.61-2.91-5.52-1.61,1.46-1.62,2.7-.38,4.06s2.29,2.64,3.42,4,.95,2.71-.28,3.37c-.67.37-2.2-.33-3.07-.94a10.58,10.58,0,0,1-2-2.53l-.67.14a10.87,10.87,0,0,0,.35,2.52,9.22,9.22,0,0,0,1.38,2.07c2.14,2.91,1.85,4-.5,5.16l-4.9,10.15c1.89,1.32.5,3-.73,5-.86,1.39-.77,3.34-1.51,4.84a4.82,4.82,0,0,1-2.63,2.21c-.43.14-1.44-1.23-2-2a12,12,0,0,0-2.07-2.63c-.2,1.77-.4,3.53-.62,5.42-2.22-.19-3.1-1.44-3.42-3.5-.88-5.73,1-10.79,4.2-15.24,5.39-7.42,8.56-15.73,10.59-24.52,1-4.43,1.37-9,2.19-13.5.23-1.29.1-3.45,2.39-3s1.89,2.36,1.63,4C321.46,184.26,321.36,184.74,321.21,185.55Z"/><path class="cls-1" d="M3.87,162.24c5.78.86,11.93,1.9,18.11,2.67,7.91,1,15.89,1.5,23.77,2.68,7.54,1.13,14.94,3.27,22.5,4.22,8.81,1.11,17.73,1.42,26.61,2.1,8.62.66,17.25,1.29,25.87,2.07a29.47,29.47,0,0,1,5.55,1.39,2.73,2.73,0,0,1,1.91,3.55c-.39,1.7-1.83,1.28-3.08,1.05a253.06,253.06,0,0,0-40.2-3.52c-10.78-.22-21.23-2.76-31.79-4.57-10.07-1.73-20.21-3-30.32-4.44C16.21,168.53,9.6,167.78,3,167c-1.58-.18-3.12-.32-3-2.45S1.83,162.29,3.87,162.24Z"/><path class="cls-1" d="M46.4,195.38l-34.2-.47c-.92,0-2,.27-2.71-.09a4.62,4.62,0,0,1-2.35-2.32c-.16-.53,1.13-2.07,1.92-2.19a42.83,42.83,0,0,1,7.43-.35c14.22.25,28.44.88,42.66.77,13.31-.11,26.61-.95,39.91-1.5,8.13-.34,16.25-.83,24.39-1.07,1.85-.06,4.08-.44,5.21,2,.83,1.76.19,2.74-1.48,3.17a11.43,11.43,0,0,1-2.49.12c-11.3.43-22.61.92-33.92,1.27-10.8.34-21.61.56-32.41.79-4,.08-8,0-12,0Z"/><path class="cls-1" d="M148,269.44c-.74,1.51-1.22,2.75-1.91,3.85a274.47,274.47,0,0,1-17.44,25.17q-14.24,18-27.71,36.61c-4.22,5.83-7.29,12.49-11.37,18.44-3.41,5-7.54,9.5-11.35,14.22-1.12,1.38-2.69,1.46-3.67.33a3.63,3.63,0,0,1-.32-3.43c10.63-15,21.24-30,32.17-44.74,9-12.09,18.47-23.78,27.47-35.84,3.61-4.84,6.45-10.25,9.78-15.32a3.32,3.32,0,0,1,2.54-1.34C146.78,267.43,147.33,268.68,148,269.44Z"/><path class="cls-1" d="M185.45,142.43c-.49.61-.88,1.58-1.43,1.68a2.77,2.77,0,0,1-2.32-.73c-1.88-2.63-3.63-5.36-5.3-8.14-9.15-15.26-17.84-30.83-27.52-45.74-8.46-13-18.06-25.34-27.11-38-2.17-3-4.15-6.23-6.23-9.35-.83-1.26-1.14-2.72.37-3.41a3.7,3.7,0,0,1,3.14.7c1,.88,1.57,2.32,2.38,3.47,4.32,6.11,8.48,12.34,13,18.28a453.69,453.69,0,0,1,33.86,51.41c5.15,9,10.58,17.89,15.86,26.85A26.38,26.38,0,0,1,185.45,142.43Z"/><path class="cls-1" d="M219,131.61q2.25-30.63,4.5-61.26c1.06-14.69,2.06-29.38,3.1-44.08.52-7.38,1-14.77,1.58-22.16.08-1,.05-2.21.61-2.86A3.84,3.84,0,0,1,231.61,0c.53,0,1.35,1.58,1.32,2.41-.13,3.3-.53,6.59-.85,9.88-.29,3-.66,5.95-.9,8.93-.53,6.62-1,13.25-1.48,19.88q-1.12,15.55-2.22,31.13-1.46,20.67-2.87,41.34c-.47,6.72-1,13.43-1.36,20.16-.1,1.75-.65,3-2.52,3-2.14,0-1.76-1.79-1.83-3.14A19.11,19.11,0,0,1,219,131.61Z"/><path class="cls-1" d="M245.52,363.18l2.18,1.32.5-.42-1.82-2.85c1.45-1.29,2.89-3.54,4.65-3.84,1.4-.24,4.22,1.67,4.56,3.07.41,1.68-1.15,3.83-2,6.13,1.28,1,2,2.5.26,4.7-1.21,1.48.69,2,1.65,2.65,1.26.78,3,1.23,2.57,3.17s-.08,4.7-2.84,5.44l9.24,10.87c-1.71-4.06-5.93-6.8-5.71-12,.93.86,1.54,1.83,2.32,2,.95.23,2.05-.34,3.08-.35a3.34,3.34,0,0,1,2.25.51,72.79,72.79,0,0,1,5.12,6.1,3.29,3.29,0,0,1,.52,2.45c-.57,2.23-1.4,4.39-2.17,6.71l-2-1.94c-.46,1-.86,1.82-1.33,2.78l-3.38-.87,1.63,3.2-.48.39a6.65,6.65,0,0,0-1.64-1.18c-1.28-.39-2.46-.87-3.43,1-1.3,2.52-3.06,2.29-4.68-.08a72,72,0,0,0-4.91-6.24c-1.36-1.57-2.87-3.07-1.36-5.22,1.28-1.83,5.17-2.14,6.92-.76a5,5,0,0,0,.78.4l-1-5.84c-2.36,2.62-3.81,1.34-5.31-.35a37.78,37.78,0,0,0-3.79-3.59c-1.75-1.49-1.56-2.84.45-4.07a3.83,3.83,0,0,0,1.72-2.24c.43-3,.4-6-1.75-8.47a15.25,15.25,0,0,1-1.31-2.17Z"/><path class="cls-1" d="M358.16,490.44c-4.3-5.79-8.45-11.7-13-17.32-2.63-3.28-5.86-6.08-8.81-9.11-1-1.07-2.15-2-1.41-3.9.19-.47-.74-1.51-1.31-2.15-2.19-2.44-2.13-2.86,1-4.42-.76-.82-1.54-1.56-2.21-2.39s-1.13-1.65-1.69-2.48l3-1.82-2.7-1.78c-.68-.44-1.6-.74-2-1.37s-.75-2.08-.38-2.5a2.68,2.68,0,0,1,2.55-.49,22.48,22.48,0,0,1,4.68,3.68C343,451.78,350,459.26,357,466.69q3.44,3.62,7,7.12c1.51,1.49,2,2.94.54,4.82-.62.82-.79,2-1.42,3.66-1.61-1.38-3.49-2.39-4.51-4-4.35-6.71-10.49-11.65-16.23-17q3.57,4.37,7.12,8.74c1.46,1.8,2.8,3.71,4.34,5.43,2.58,2.86,5.18,5.7,7.95,8.36,1.61,1.55,3.58,2.74,1.44,5.21a.85.85,0,0,0-.09.24c-1.39,3.79-2,3.9-5.09,1ZM343.8,456.86l-.75.77,16.78,17.42.73-.68A122.8,122.8,0,0,0,343.8,456.86ZM346.25,469l-1.05.63,3.29,4.85,1.15-.8Z"/><path class="cls-1" d="M38.4,88.22a27.55,27.55,0,0,1,3.76,1.54c12.18,7.18,24.53,14.09,36.41,21.73,11.24,7.25,21.85,15.46,33,22.9,5.58,3.73,11.74,6.58,17.51,10,6.41,3.83,12.68,7.88,19,11.9.48.31.61,1.16.91,1.76-.82.23-1.79.86-2.42.61a55.6,55.6,0,0,1-7.23-3.32c-4.91-2.76-9.55-6.05-14.6-8.47C112.44,141,101.65,133,90.8,125a270.6,270.6,0,0,0-34.65-22.09c-5.95-3.14-11.53-7-17.28-10.49C37.22,91.39,37.26,90.07,38.4,88.22Z"/><path class="cls-1" d="M168.51,147.18c-.7.83-1.27,2.14-2,2.23a3.72,3.72,0,0,1-2.89-1.26c-3.08-4-6-8.19-8.93-12.32-11-15.41-23.37-29.67-35.92-43.8-7.46-8.4-14.7-17-22-25.51a8.24,8.24,0,0,1-1.86-2.92,3.27,3.27,0,0,1,.81-2.52c.3-.36,1.48-.26,2.08,0a5.74,5.74,0,0,1,1.83,1.65c3.64,4.55,7.08,9.26,10.9,13.64C115.45,82,120.82,87.28,125.71,93q9.93,11.51,19.41,23.4c7.49,9.44,14.72,19.1,22,28.67C167.61,145.59,167.93,146.25,168.51,147.18Z"/><path class="cls-1" d="M351.31,603.33c-2.77-2.48-5.56-5-8.32-7.45-1-.9-2.26-1.89-1-3.31s2.46-.66,3.63.43c5.27,5,10.59,9.84,15.85,14.79a11,11,0,0,1,1.55,2.23c1.43,2.27,2.79,4.57,5.81,5,.5.08,1.26.58,1.34,1,.49,2.56,2.81,3.54,4.21,5.29a66.82,66.82,0,0,1,6.57,10c.49.93-.59,2.71-1.08,4.59-2.22-1.9-3.64-3.86-6.3-2.62-.45.2-1.61-.66-2.19-1.27-8.1-8.56-16.09-17.24-24.27-25.74-4.66-4.86-9.62-9.44-14.42-14.17a9.57,9.57,0,0,1-1.34-1.8c-.87-1.39-1.28-2.88.42-3.9s2.28.56,3,1.63c4.34,6.3,10,11.28,16.06,15.76Z"/><path class="cls-1" d="M204.51,130.7c-.56.52-1.4,1.91-2.2,1.89a3.49,3.49,0,0,1-2.48-2.15c-2.2-8.09-3.9-16.34-6.35-24.35-2-6.57-5-12.83-7.33-19.32-5.75-16.12-11.35-32.3-17-48.44-1.05-3-2.34-5.87-3.38-8.85-.47-1.35-1.14-3.23.79-3.84s2.94.63,3.6,2.48q8.74,24.66,17.63,49.27c3.48,9.69,7.19,19.3,10.44,29.07,2.22,6.67,3.82,13.56,5.66,20.36C204.14,127.86,204.22,129,204.51,130.7Z"/><path class="cls-1" d="M44.15,110.8c.63.37,1.25.77,1.9,1.1,6.59,3.32,13.2,6.59,19.77,9.94,3.91,2,7.76,4.15,11.63,6.24,6.36,3.43,12.7,6.92,19.09,10.29,13.77,7.28,27.54,14.58,41.4,21.68a19.84,19.84,0,0,1,7.58,6.2c.42.6,0,1.78,0,2.7-.88-.06-2.07.23-2.6-.23-8.66-7.58-19.38-11.58-29.35-16.86q-21.45-11.36-42.95-22.58c-8.41-4.38-16.89-8.61-25.33-12.92a7.73,7.73,0,0,1-2.52-1.56,3.8,3.8,0,0,1-.53-2.47,9.23,9.23,0,0,1,.86-2.36Z"/><path class="cls-1" d="M211.51,122.45c-.2,1.53,0,3.61-1.95,3.83-2.17.24-2.17-2-2.44-3.43-1.14-6.13-1.92-12.32-3.21-18.42Q198,76.64,191.82,48.91c-2.45-10.94-5.14-21.83-7.71-32.74-.1-.41-.12-.83-.21-1.23-.37-1.6-.07-2.93,1.75-3.23s2.62.78,2.93,2.36c.45,2.28.77,4.59,1.28,6.86,2.79,12.4,5.67,24.77,8.42,37.18q5.1,23.07,10,46.18C209.57,110.3,210.45,116.39,211.51,122.45Z"/><path class="cls-1" d="M71.45,205.11q20.86-2,41.72-4.07c2.73-.27,5.43-.82,8.17-1a5,5,0,0,1,3.13,1,3.37,3.37,0,0,1,1.07,2.6c0,.45-1.4,1.05-2.22,1.14-13.72,1.5-27.42,3.21-41.18,4.27-8.52.65-17.13,0-25.67.43-8.38.42-16.73,1.45-25.09,2.22-.33,0-.65.14-1,.17-1.85.21-3.78.11-4.16-2.11-.41-2.43,1.83-2.58,3.34-2.75,5.86-.66,11.74-1.21,17.63-1.59,8-.51,16.11-.82,24.17-1.22Z"/><path class="cls-1" d="M196.75,131.75c-.31.51-.52,1.26-1,1.53a1.67,1.67,0,0,1-1.55-.42,14.33,14.33,0,0,1-2.09-3.31c-4.16-10-8.11-20-12.42-29.88C174.6,88,169.17,76.39,164,64.72q-6.67-15-13.11-30.07c-2.44-5.73-4.56-11.58-6.88-17.35-.56-1.38-1.56-2.61-2-4-.24-.83.29-1.88.46-2.84.83.3,2.07.35,2.42.94a60.46,60.46,0,0,1,3.8,7.54c6.23,15.21,12.23,30.52,18.64,45.65,3.47,8.17,7.74,16,11.42,24.06,5.23,11.49,10.3,23.05,15.31,34.64A84.33,84.33,0,0,1,196.75,131.75Z"/><path class="cls-1" d="M126.83,176.23c-4.21-1.15-8-2.21-11.73-3.2-14.78-3.86-29.59-7.6-44.34-11.59C59.46,158.38,48.24,155,37,151.78a43.17,43.17,0,0,0-4.38-.94c-1.52-.26-2.35-1.27-1.92-2.6a3.7,3.7,0,0,1,2.28-2c.93-.24,2.09.25,3.12.53,13,3.6,25.89,7.35,38.9,10.76,6.91,1.81,14,2.88,20.93,4.58,4.42,1.09,8.68,2.82,13,4.1,5.64,1.66,11.36,3.06,17,4.82,1.17.37,2.18,1.75,2.85,2.9C128.94,174.19,127.54,175.4,126.83,176.23Z"/><path class="cls-1" d="M113.42,546.2l-2.85-.84c-1,2.09-7,5.25-9.39,4.91a4.49,4.49,0,0,1,0,1.47c-.29.77-.58,1.82-1.18,2.11a2.65,2.65,0,0,1-2.44-.3c-3.08-3-6.36-5.94-8.86-9.41-1.31-1.81-2.22-5.13-1.42-6.93,1-2.23,3.81-3.79,6.12-5.17.59-.34,2.23,1.08,3.33,1.66-.17-1.08-.8-2.45-.4-3.39.32-.76,1.88-1,3.27-1.64a4.46,4.46,0,0,1,.11-1.27c.52-1.91,1.76-2.26,3.28-1l13.81,11.44c2,1.68,1.72,3.81-.48,5.28A19.5,19.5,0,0,0,113.42,546.2Zm-3-7,.62-.75-10.67-8.6-.39.47Zm-11.31,9.33.65-.79L94.09,543l-.55.66Z"/><path class="cls-1" d="M108.68,62.7c2.37-1.8,4.15-1.81,5.61,0q5.79,7,11.42,14.16c6.65,8.51,13.15,17.15,19.87,25.6,9.52,12,19.19,23.81,28.77,35.72a4.49,4.49,0,0,1,1.18,2.11,11.72,11.72,0,0,1-.6,3,9.53,9.53,0,0,1-2.87-.88,17.79,17.79,0,0,1-3.37-3.29q-11.7-14.9-23.33-29.86c-8.53-10.95-17-21.93-25.59-32.86C116.19,71.81,112.47,67.36,108.68,62.7Z"/><path class="cls-1" d="M338.54,428.43c1.69,1.69,3.43,3.34,5,5.09,6,6.55,12,13.19,18.06,19.68,2.67,2.84,5.65,5.37,8.43,8.11,1.74,1.71,1.6,3,0,4.11.15,1.44.57,2.74.26,3.84-.13.48-1.76.54-2.84.83a1.78,1.78,0,0,1,.31.86c-.07.68-.11,1.63-.53,1.94a2.12,2.12,0,0,1-1.94-.26,9,9,0,0,1-2-2.23c-4.15-6.21-9.44-11.34-14.88-16.42-6.13-5.72-11.73-12-17.56-18.08-1.37-1.42-.79-2.85.23-4,1.18-1.33,2.54-.84,3.67.26q13.35,13,26.66,26a21.28,21.28,0,0,1,2.19,3.07l.84-.79c-.71-.83-1.41-1.67-2.14-2.48-8-8.75-15.5-17.89-24.89-25.21-1.17-.91-2.62-1.49-3.73-2.46a2.82,2.82,0,0,1-1-2.31c.38-1,1.29-2,2.74-1.06,1,.62,2,1.09,3.05,1.62Zm6.41,17-.56.49,22.11,22.8C361,459.46,352.69,452.72,345,445.46Z"/><path class="cls-1" d="M225.83,128.17c.38-1.54.57-2.52.87-3.46,7.05-22,12.26-44.47,17.39-67,2.49-10.93,5.45-21.74,8.18-32.61.24-1,.37-2,.64-2.92.4-1.46,1.33-2.4,2.92-2s2,1.8,1.55,3.37c-1.62,5.67-2.82,11.49-4.94,17-2.83,7.28-3.71,15-5.58,22.44q-6.81,27.17-13.48,54.37c-.91,3.7-1.63,7.46-2.7,11.11a3.1,3.1,0,0,1-2.46,1.71C227.28,130,226.53,128.81,225.83,128.17Z"/><path class="cls-1" d="M334.33,477a13.7,13.7,0,0,1-2.86-2.71,3.37,3.37,0,0,1-.07-3c.81-1.19,2.07-.8,2.9.31,4.14,5.56,9.81,9.91,13,16.28a10.44,10.44,0,0,0,1.94,2.18c.33.37,1,.65,1,1,.86,5.06,5.45,7.42,8,11.24a5.74,5.74,0,0,1,.38,2.79c0,.63-.39,1.32-.24,1.89.53,2.09.82,3.9-2.26,3.93-.28,0-.61.67-.83,1.07-1.29,2.32-2.48,2.43-4,.26-5.45-7.94-10.81-15.94-16.35-23.82a61.92,61.92,0,0,0-5.86-6.7c-.94-1-2.17-1.72-1.17-3.3,1.31-2.08,3.35-2.93,4.91-2.06a12.24,12.24,0,0,1,1.21.82Zm2.86,3.19,10.55,14.41.51-.38A47,47,0,0,0,337.19,480.2Z"/><path class="cls-1" d="M77.18,82a19.16,19.16,0,0,1,3,2.06q12.91,12.12,25.73,24.36,21.28,20.35,42.48,40.79a4.18,4.18,0,0,1,1.44,2,3.15,3.15,0,0,1-.75,2.54,2.64,2.64,0,0,1-2.54-.07c-2.18-1.91-4.14-4.08-6.22-6.11-3.27-3.19-6.61-6.29-9.85-9.5-2.77-2.76-5.32-5.73-8.16-8.41Q99.43,108,76.46,86.56a6.24,6.24,0,0,1-1.85-2.25C74.19,83,74.49,81.75,77.18,82Z"/><path class="cls-1" d="M45.41,263.87a37,37,0,0,1,3.9-2.41c10-4.62,19.39-10.22,28.81-15.87,12-7.18,24.33-13.68,36.54-20.47,3-1.64,5.87-3.39,8.94-4.82,2.52-1.17,4.13-.15,4,2.41a3.38,3.38,0,0,1-1.77,2.15c-6.21,3.19-12.63,6-18.7,9.44C92.47,242.55,78,251.1,63.48,259.48c-4.11,2.36-8.31,4.56-12.45,6.85-1.51.83-2.61.71-3.48-1C47.27,264.81,46.43,264.55,45.41,263.87Z"/><path class="cls-1" d="M265.12,598.55c-3.08,2.19-5.57,4.57-9,6.07-2.57,1.12-5.74,1.38-7.83,3.75a2.53,2.53,0,0,1-2.41,0,82.79,82.79,0,0,1-7.27-5.66c-1.71-1.51-1.06-3.55,1.15-4.13.64-.17,1.33-.12,2-.26a18.51,18.51,0,0,0,1.83-.57c-.69-3.63,0-4.39,3.62-4a2.85,2.85,0,0,0,1.46-.06c1.63-.82,3.15-1.93,4.83-2.61a46.57,46.57,0,0,1,6.75-2.07c.5-.12,1.3.62,1.84,1.1.79.7,1.48,1.53,2.62,2.74-.33-2.09-1.75-4,.89-4.72a3,3,0,0,1,2.21.44c2.11,1.58,4.07,3.35,6.14,5,1.42,1.11,3.54,2,2.23,4.25s-3.09,1.14-4.71.27C269.35,601.82,269.12,601.83,265.12,598.55Z"/><path class="cls-1" d="M349.05,646.52a6.3,6.3,0,0,1-1.34-.69q-11.64-8.9-23.27-17.84c-6.19-4.76-12.48-9.41-18.5-14.39a108.83,108.83,0,0,1-9-9c-1.79-1.89-1.56-2.76.72-5.12,1.63-1.67,2.91-.92,4.27.33,5.66,5.24,11.2,10.64,17.05,15.66,9.59,8.23,19.39,16.2,29.07,24.31a17.41,17.41,0,0,1,3.43,3.54C352.63,645,351.54,646.6,349.05,646.52Z"/><path class="cls-1" d="M147.4,210.49a19.89,19.89,0,0,0,3.18,1.23,5.26,5.26,0,0,0,2.21-.32c2.06-.48,4.1-1.13,6.19-1.44.49-.07,1.66,1,1.62,1.48-.08.86-.76,2.35-1.28,2.39-5,.42-8.06,3.61-11.08,7a13.61,13.61,0,0,1-2.47,1.8c-.24-.92-.51-1.83-.72-2.75a13.21,13.21,0,0,1-.1-1.6c-2,1.14-3.91,2.15-5.75,3.22a5.09,5.09,0,0,1-6.07-.29,5.5,5.5,0,0,1-1.53-3.11c-.34-1.76.78-2.15,2.08-1.32,2,1.3,3.75.75,5.53-.46,2.32-1.58,4.69-3.11,6.44-4.26.16-2.5.28-4.46.38-6l-7.35,4.33c-2.26,1.32-4.39.28-6.42-.58a2.43,2.43,0,0,1-.57-2.28c.42-.8,1.78-2,2.23-1.78,4.75,2,7.18-1.43,10.36-4a6.81,6.81,0,0,0-6.61,0,8.36,8.36,0,0,1-2.92.32c.29-1.19.25-2.66.95-3.5,1.52-1.84,3.79-2,6.12-2.15,4.49-.39,9-1.21,13.41-2,.68-.12,1.16-1.12,1.85-1.51a2.32,2.32,0,0,1,1.81-.31c.38.18.6,1.1.55,1.66-.22,2.43-2.11,3.89-5.09,4.23a19.22,19.22,0,0,0-3,.81,14.8,14.8,0,0,0,1.77,2.7c1.53,1.51,1.38,3.15-.63,4.08C150.28,207,148.27,208.27,147.4,210.49Z"/><path class="cls-1" d="M188,127.08l-2,2.79c-.9-.7-2.2-1.21-2.66-2.13-9.76-19.69-22-37.94-33-56.87-2-3.44-3.73-7-5.58-10.57-.9-1.7-.92-3.38,1-4.25s2.69.85,3.41,2.08q13.56,23.25,27,46.54c3.78,6.54,7.38,13.19,11,19.81A17.72,17.72,0,0,1,188,127.08Z"/><path class="cls-1" d="M124.11,362.45a20.39,20.39,0,0,1,1.81-4.21c5.88-8.16,12-16.11,17.77-24.38,4.32-6.26,8-12.94,12.17-19.34,1.93-3,4.26-5.75,6.31-8.67,2.72-3.88,5.35-7.81,8-11.75,3.63.85,4.21,1.87,2.14,5q-9.71,14.65-19.65,29.17C145.2,339.17,137.56,350,130,360.8,128.7,362.65,127.22,364,124.11,362.45Z"/><path class="cls-1" d="M157.21,280.12a26.36,26.36,0,0,1-1.74,2.93c-6.83,8.82-13.8,17.53-20.52,26.43-8.6,11.4-17,22.94-25.5,34.44-.63.84-1,1.89-1.52,2.79-.79,1.27-2.11,1.74-3.13.7a3.74,3.74,0,0,1-.71-3.13,12,12,0,0,1,2.22-3.58q18.72-25,37.48-49.9,4.11-5.49,8.34-10.9a5.83,5.83,0,0,1,2.28-1.83C155.85,277.52,156.79,278.26,157.21,280.12Z"/><path class="cls-1" d="M154.79,152.4c-.76-.63-1.61-1-1.84-1.59-1.71-4.54-5-7.81-8.52-10.92-12.3-11-22.48-23.84-33.08-36.36C104.69,95.66,97.79,88,91,80.2a17.83,17.83,0,0,1-2.59-3.34,3,3,0,0,1,.33-2.46c.16-.28,1.49-.14,2.1.18a7.45,7.45,0,0,1,2,1.81q12.54,14.72,25,29.49c9.82,11.66,19.93,23,31.17,33.38,2.94,2.7,5.18,6.18,7.61,9.39a2.68,2.68,0,0,1,.13,2.3C156.59,151.54,155.67,151.82,154.79,152.4Z"/><path class="cls-1" d="M110.54,525.18a10.22,10.22,0,0,0,1.18,1.42c3.8,3.2,7.6,6.4,11.45,9.53,1.25,1,2.9,1.88,1.48,3.75s-3,.83-4.27-.32c-3.83-3.45-7.59-7-11.44-10.42a40.41,40.41,0,0,0-4.57-3.47c-1.36-.9-2.67-2-1.61-3.57s2.65-1.45,3.89-.28c2.15-2.05,1.78-4.35,0-6.76,4.88,0,3.39,5.4,7.32,6.21-.8-1-1.62-1.66-1.77-2.41a16.69,16.69,0,0,1,0-3.6c1,.18,2.36,0,3,.59,5.44,4.65,10.77,9.43,16.12,14.18a1.82,1.82,0,0,1,.61.76,4,4,0,0,1,.21,1.92,25.82,25.82,0,0,1-2.07,5.78c-.19.35-2.72,0-3.63-.77-4.43-3.52-8.66-7.28-13-10.94-.85-.71-1.8-1.31-2.7-2Zm16.76,6.64-9.58-9.14C116.86,524.71,122.93,530.62,127.3,531.82Z"/><path class="cls-1" d="M284.3,549.31c.69,2.54-.24,3.56-2.89,3.3-.91,1-1.6,2.55-2.4,2.6s-2.14-1-2.89-1.81c-4.37-5-8.65-10.1-13-15.17a10.83,10.83,0,0,1-1.08-1.37c-.75-1.2-1.77-2.59-.15-3.69,1.47-1,2.48.05,3.5,1.27,4.36,5.23,8.84,10.37,13.29,15.53.13.15.37.2,1,.49a12.77,12.77,0,0,0-1.12-2c-3.66-4.19-7.4-8.32-11-12.57a5.39,5.39,0,0,1-1.36-3.43c0-.66,1.61-1.23,2.66-2a1.93,1.93,0,0,1-.31-1c.17-1.06.23-2.59.9-3a4.21,4.21,0,0,1,3.33.09,6.77,6.77,0,0,1,2.54,2.32c3.85,5.21,7.67,10.44,11.35,15.77a4.47,4.47,0,0,1,.5,3.41C287,548.68,285.47,548.86,284.3,549.31Zm-13.85-17.63-.32.53L281.59,546l.51-.39c-2.92-4.16-5.78-8.37-8.82-12.44C272.71,532.36,271.41,532.15,270.45,531.68Z"/><path class="cls-1" d="M133.45,247.67a18.37,18.37,0,0,1-2,2.23c-9.56,7.73-19.28,15.27-28.7,23.17C96.85,278,91.39,283.5,85.71,288.72c-2.81,2.59-5.62,5.18-8.49,7.7-1,.91-2.34,1.58-3.46.1s-.19-2.54,1-3.57c2.58-2.33,5-4.83,7.65-7.12q18.09-15.85,36.28-31.59c3.4-2.92,7.07-5.53,10.69-8.17a3.2,3.2,0,0,1,2.48-.46C132.45,245.82,132.82,246.82,133.45,247.67Z"/><path class="cls-1" d="M368.49,633.75c-2.45,3.29-3.24,3.37-5.76.56a375.68,375.68,0,0,0-43.62-41.74,7.84,7.84,0,0,1-2.42-2.45c-.37-.85,0-2.06.11-3.11.91.17,2.08,0,2.69.54q16.32,14,32.5,28.06c5.05,4.42,10.65,8.33,14.15,14.3C366.88,631.17,367.66,632.41,368.49,633.75Z"/><path class="cls-1" d="M211.58,75.49c0-10,0-20,0-30a54.76,54.76,0,0,1,.5-5.71c.15-1.37,1-2.35,2.31-1.81a3.05,3.05,0,0,1,1.46,2.31c.14,11.65.11,23.29.22,34.93.11,12,.32,24,.49,35.93a14.68,14.68,0,0,0,.18,2.74c.41,1.89.2,3.52-2.06,3.67s-2.15-1.63-2.15-3.17V75.48Z"/><path class="cls-1" d="M309.12,380.64c3.86,4.18,7.77,8.32,11.53,12.58a7.19,7.19,0,0,1,1.29,3.28c.07.37-.91,1.38-1.19,1.3a6.35,6.35,0,0,1-3.12-1.44c-4.76-5.44-9.41-11-14-16.56-.46-.56-.35-1.59-.51-2.41l3.3-.53a6.51,6.51,0,0,1-1.2-2.22,8.67,8.67,0,0,1,.68-2.89,8.15,8.15,0,0,1,2.39,1.22c5.19,5.49,10.31,11.06,15.45,16.6.15.16.41.22,1.09-.09-2.72-3.13-5.39-6.31-8.19-9.36-1.85-2-4-3.74-5.8-5.83-.62-.74-.42-2.17-.6-3.28,1,.31,2.32.32,3,1,5.3,5.51,10.55,11.09,15.65,16.79.82.91,1.5,2.84,1.08,3.77A7.23,7.23,0,0,1,326.3,396c-.79.3-2.52-1-3.45-2-3.72-3.81-7.3-7.76-10.93-11.66-.72-.78-1.42-1.59-2.13-2.39Z"/><path class="cls-1" d="M69.74,280.17c-.74-.43-1.72-.68-1.88-1.18a2.52,2.52,0,0,1,.51-2.18,53.27,53.27,0,0,1,7.31-6c16.38-10,32.85-19.82,49.28-29.72,1.51-.91,2.88-1.38,4,.6s-.19,3-1.56,3.82c-16.08,9.33-32.21,18.58-48.27,28a79.18,79.18,0,0,0-6.6,4.89C71.64,279,70.73,279.53,69.74,280.17Z"/><path class="cls-1" d="M151.53,358.49c-2.91-.05-3.45-1.17-2.32-3.25,4.43-8.19,9-16.29,13.32-24.56,4.68-9.09,9.09-18.31,13.51-27.53a2.66,2.66,0,0,1,3.63-1.59c1.72.57,1.78,2.13,1.23,3.55a54.35,54.35,0,0,1-2.52,5.42c-4.34,8.3-8.66,16.6-13.08,24.85q-5.48,10.23-11.19,20.32A14,14,0,0,1,151.53,358.49Z"/><path class="cls-1" d="M210.08,193.4c4.27.06,8.25,2.64,11.57,6.34a2.58,2.58,0,0,1-.43,2.5,4.33,4.33,0,0,1-3,.82c-.75-.1-1.42-1.05-2.08-1.68-1.79-1.72-3.77-3.14-6.37-2.95-5.46.41-10.92.87-16.36,1.51a8.47,8.47,0,0,0-4.06,1.7c-3.46,2.72-6.71,5.71-10.12,8.5-2.65,2.17-5.36,4.28-8.18,6.22a2.88,2.88,0,0,1-2.63-.06,2.51,2.51,0,0,1-.35-2.36,10.88,10.88,0,0,1,2.7-3.78c5.47-4.32,11-8.57,16.67-12.63a13.92,13.92,0,0,1,5.84-2.5C198.53,194.27,203.86,194,210.08,193.4Z"/><path class="cls-1" d="M234.31,129.54c.16-.45.38-1.16.66-1.84q10.28-24.63,20.54-49.24c1.72-4.13,3.32-8.32,5-12.47A16.88,16.88,0,0,1,262,63.11c.82-1.23,2.13-1.67,3.13-.52a3.44,3.44,0,0,1,.55,3c-3.34,7.75-7,15.36-10.27,23.14-5,11.87-9.66,23.84-14.45,35.78a38.65,38.65,0,0,1-1.45,4.21,7.45,7.45,0,0,1-2.62,3C235.24,132.57,234.42,131.49,234.31,129.54Z"/><path class="cls-1" d="M137.1,252.09c-3.09-2.59-1.9-5.67-.94-8.56.25-.75,1.69-1.1,2.59-1.64.41.9,1.37,2,1.14,2.67-.95,2.95-.24,5.22,2.24,7-.79,2.6-2.64,1.43-3.95,1.38,0,1.16.34,2.43-.09,3.34s-1.61,1.57-2.5,2.27c-2.34,1.85-4.79,3.58-7.06,5.52q-10.8,9.22-21.49,18.58a61.17,61.17,0,0,0-5.79,5.82c-1.12,1.29-2.31,2.22-3.77,1.16-1.71-1.24-.63-2.88.37-3.88,2.75-2.77,5.65-5.4,8.6-8q13.64-11.88,27.35-23.66A23.62,23.62,0,0,1,137.1,252.09Z"/><path class="cls-1" d="M342,219.7c-1.68-.43-3.38-.78-5-1.31-2.83-.9-5.64-1.86-8.41-2.92-.46-.17-.68-1-1-1.49.56-.24,1.16-.74,1.66-.66a129.32,129.32,0,0,1,13.48,2.42c1.7.45,3.25,2.2,4.43,3.7a62.86,62.86,0,0,1,4.72,7.31c.38.64.58,2.08.28,2.28-.77.51-2.25,1-2.76.65-1.82-1.37-3.11-.59-4.74.31-5.32,2.93-10.8,1.91-16.18.15a3.08,3.08,0,0,1-1.68-2.42c.26-1.1,1.4-2,2.64-3.59.24,3.32,1.95,3.73,4,4,3.58.47,6.9.22,10.28-2.61-1.5-.69-2.53-1.46-3.65-1.62-3.62-.54-7.26-1-10.91-1.18a12.09,12.09,0,0,0-3.59.82,12.49,12.49,0,0,1-3.09.77c-.67,0-1.34-.74-2-1.16.46-.58.79-1.44,1.39-1.72,3.56-1.63,7.06-2.93,11.23-1.62,2.74.86,5.83.58,8.76.81Z"/><path class="cls-1" d="M192,219.17a20.55,20.55,0,0,1-4.16,1.77,1.51,1.51,0,0,1-1.76-2.19c.62-1.49,1.41-3.38,2.68-4a42.79,42.79,0,0,1,9.26-3.26c4.41-1,8.92-1.64,13.39-2.44,1.46-.27,3.17-.86,4,.79a5.74,5.74,0,0,1,.43,3.84c-3,10.17-13.6,12.81-21.75,8.32C193.19,221.47,192.71,220.1,192,219.17Zm18.06-4.86L195,216.47C200.42,221.29,207.68,220.24,210.1,214.31Z"/><path class="cls-1" d="M84.64,258.24c-.74-.71-1.91-1.37-2.25-2.33-.19-.54.82-1.92,1.6-2.31,9-4.48,18-8.81,27-13.26,4.09-2,8.07-4.26,12.15-6.3a4.72,4.72,0,0,1,2.83-.51,2.29,2.29,0,0,1,1.39,1.77,3.92,3.92,0,0,1-1.54,2.5c-3.72,2.17-7.5,4.26-11.36,6.18-9.07,4.5-18.18,8.89-27.29,13.3C86.55,257.6,85.83,257.8,84.64,258.24Z"/><path class="cls-1" d="M356.21,192.73c-1,.78-2,2.09-2.65,2a5,5,0,0,1-3-2.22c-2.79-4.9-5.31-10-8.07-14.88-1.13-2-2.72-3.74-3.93-5.7-.43-.69-.8-1.95-.46-2.48a2,2,0,0,1,3.22-.31c.81.71,1.53,1.51,2.42,2.38a5.07,5.07,0,0,0,.88-.71c1.39-1.74,2.61-1.51,3.67.29,2.57,4.37,5.1,8.75,7.67,13.12,1.3,2.21,2.55,4.46,4,6.58.86,1.27,1.75,2.39.22,3.65s-2.41,0-3.34-.94C356.56,193.16,356.31,192.84,356.21,192.73Zm-6.81-13.1-1.25.74,4.41,7.24.76-.43Q351.37,183.4,349.4,179.63Z"/><path class="cls-1" d="M340.51,537.83c.46-2.72-1.46-2-3-1.8-3.53.44-5.48-1.12-5.61-4.59a2.84,2.84,0,0,1,.36-1.64c1.33-1.95,2.76-3.83,4.15-5.74s2.93-2.58,5.19-1.79a39.46,39.46,0,0,0,4.3,1.15c2.5.59,3.66,2.49,4.41,4.65,1.09,3.15-1.63,8-4.73,9.14a10.19,10.19,0,0,0-3.42,2.53c-1,1-3.24,1.16-3.81-.06a5.75,5.75,0,0,1,0-2.3Z"/><path class="cls-1" d="M163.21,356.07c-2.74-.07-3.61-1.53-2.65-3.34q8.74-16.51,17.47-33c1.24-2.34,2.64-4.61,3.92-6.94a2.5,2.5,0,0,1,3.61-1.1c1.58.76,1.23,2.22.53,3.45-1.45,2.52-3.13,4.91-4.46,7.49C176.74,332,172,341.52,167.14,351a24.56,24.56,0,0,1-2.1,3.67A7,7,0,0,1,163.21,356.07Z"/><path class="cls-1" d="M373,192.36c3.34-1.06,5-.24,6.19,2.19,1.27,2.69,2.85,5.23,4.08,7.93a5.62,5.62,0,0,1,.39,3.42c-1.05,4.17-.17,8,1.31,11.89.69,1.82.47,4,1,5.85.76,2.56,1.93,5,2.81,7.51.24.7.39,2,0,2.21-.75.51-2.28,1-2.71.65-2.63-2.31-5.11-4.89-5.06-8.72a20.38,20.38,0,0,0-1.88-9.38,10.83,10.83,0,0,1-.53-6.07A15.75,15.75,0,0,0,376.08,198C374.93,196.29,374.1,194.36,373,192.36Z"/><path class="cls-1" d="M285.44,190.09c7.16,2.3,14.7,2.71,18.19,10.48.77,1.73,2.07,3.21,3,4.88s.63,2.87-1.12,3.73-2.4-.21-3-1.51a12.12,12.12,0,0,1-.86-1.51c-2-6.68-7.35-9.33-13.43-10.71-5.34-1.21-10.53,0-15.45,2.3-1.46.69-3,2.48-4.53.34-1-1.34,0-3.52,2.59-4.33C275.67,192.23,280.72,191.24,285.44,190.09Z"/><path class="cls-1" d="M495.85,647.37a4.15,4.15,0,0,1-1.43-.89c-2.28-2.51-4.66-5-6.68-7.7-7.55-10.14-15-20.37-24-29.29-.24-.24-.56-.48-.63-.77-.22-1-.35-2.06-.52-3.09.94.31,2.2.35,2.78,1,6.35,7,12.66,14.09,18.84,21.28,3.36,3.9,6.41,8.07,9.66,12.07.61.75,1.62,1.17,2.25,1.91a13.07,13.07,0,0,1,2.27,3.39C499,646.76,498.3,647.68,495.85,647.37Z"/><path class="cls-1" d="M337.44,418.61l3.85.23-5.13-3.58c-1-.72-1.72-1.74-.44-2.57a3.28,3.28,0,0,1,3-.17c4.6,3.82,9.07,7.8,13.52,11.79a77.56,77.56,0,0,1,5.84,5.77c.49.54.29,1.7.41,2.57l-.82.47-10.79-9.8c3.84,4.07,7.29,7.72,10.72,11.38,1.88,2,3.76,4,5.61,6,.86.93,1.51,2.2.14,2.91a3.32,3.32,0,0,1-3-.8c-3.31-3.48-6.3-7.27-9.67-10.69C347,428.41,343,425,339.19,421.39A16,16,0,0,1,337.44,418.61Z"/><path class="cls-1" d="M246.69,131.58c-2.75-.07-3.56-1.46-2.56-3.23a18.52,18.52,0,0,1,1.59-2.24c7.54-9.61,12.62-20.69,18.55-31.25,1-1.78,2.15-2.19,3.77-1.35,1.39.72,1.74,1.76.77,3.28-2.38,3.75-4.6,7.59-6.89,11.39-4.33,7.18-8.62,14.38-13,21.51A8.19,8.19,0,0,1,246.69,131.58Z"/><path class="cls-1" d="M140.59,263.91a22.59,22.59,0,0,1-2,2.5c-6.19,5.91-12.43,11.77-18.6,17.7-2.28,2.18-4.41,4.52-6.62,6.77-.46.47-.94,1.14-1.51,1.25a16.55,16.55,0,0,1-3.15,0c.1-1-.2-2.42.35-3.08a106,106,0,0,1,7.31-7.83c5-4.87,10.07-9.64,15.14-14.42,1.75-1.66,3.53-3.29,5.41-4.79a2.57,2.57,0,0,1,2.21-.37C139.77,262,140,262.94,140.59,263.91Z"/><path class="cls-1" d="M335.53,196.06c-3.28-5.65-6.6-11.39-9.94-17.12-.71-1.23-1-2.21.62-3.07.82-.45,1.32-1.44,2-2.16,1.26-1.35,2.44-1.1,3.38.45,3.51,5.8,7.17,11.51,10.59,17.36a4.39,4.39,0,0,1,.22,3.75c-.73,1.24-2.1,1.3-3.56.08C338.26,194.87,336.5,195.82,335.53,196.06Z"/><path class="cls-1" d="M255,134.36a2.07,2.07,0,0,1-1.81-3.37q6.55-10.74,13.27-21.38c2.66-4.2,5.48-8.31,8.27-12.43a3.48,3.48,0,0,1,1.6-1.46,2.78,2.78,0,0,1,2.2.46,2,2,0,0,1,.2,1.9,34.54,34.54,0,0,1-2.52,4.26c-5.06,7.59-10.18,15.15-15.21,22.76-.57.86-.57,2.08-1.11,3-1.2,2-2.55,3.93-3.91,5.85C255.8,134.2,255.27,134.26,255,134.36Z"/><path class="cls-1" d="M333.1,204.5a15.05,15.05,0,0,1,3.41-.51q4.73.34,9.41,1a8,8,0,0,1,3.47,1.24,91.18,91.18,0,0,1,9.11,7.26c1.28,1.22,1.91,3.24,2.55,5,1.16,3.19,2,6.49,3.18,9.68.56,1.57.32,2.87-1.23,3.14s-3.56.78-4.09-1.55c-.71-3.15-1.22-6.35-1.77-9.54s-2.55-5.11-4.76-7.28c-4.35-4.27-9.65-5.09-15.23-5.69a18.6,18.6,0,0,1-4.19-1.53C333,205.34,333.05,204.92,333.1,204.5Z"/><path class="cls-1" d="M204.21,541.55l4.14,2.72c-1.08,1.26-2,2.85-3.3,3.71a9.07,9.07,0,0,1-12.23-2.1,4.07,4.07,0,0,1-.28-4.86c2-3.36,4.16-6.65,8.78-6a7.14,7.14,0,0,1,4.16,1.95c.49.54-.47,2.42-.82,3.67A4.15,4.15,0,0,1,204.21,541.55Z"/><path class="cls-1" d="M123,506.81c1.83,1.74,3.7,3.44,5.48,5.24,5.4,5.43,10.75,10.91,16.15,16.34,1.4,1.4,2.91,2.71,4.42,4,1.31,1.13,1.89,2.26.56,3.78s-2.45.35-3.3-.52c-4.69-4.86-9.18-9.91-14-14.65-4.24-4.19-8.1-8.88-13.67-11.49-1.94-.91-2-2.32-1-3.9s2.23-.83,3.37,0c.64.46,1.33.86,2,1.28Z"/><path class="cls-1" d="M306.66,269.15c-2.33,1-3.88.49-5.32-1.67-.95-1.43-2.74-2.31-4.17-3.45-.11,1.88.29,3.73-.36,4.25a5.12,5.12,0,0,1-4,.62,69.09,69.09,0,0,1-8.9-3.13c-2.76-1.14-3-2.17-1.78-4.91.13-.29.35-.66.27-.9-1.05-3.17.95-2.38,2.78-2.36,5.91.06,10.73,3.62,16.3,4.81C304.84,263.13,305.77,266.22,306.66,269.15Zm-21.12-8.33-.3.85,5.83,2.14.4-1.2Z"/><path class="cls-1" d="M401.21,512.52c-1.89-4-3.77-8-5.67-12.07-4.09-8.64-8.36-17.18-14.11-24.88-.4-.53-1-1.11-1-1.68a16,16,0,0,1,.58-3.09c1,.33,2.39.36,2.83,1a113.42,113.42,0,0,1,5.83,9.86c4,7.58,7.81,15.23,11.65,22.88A16.32,16.32,0,0,1,403,509c.19,1.11-.33,2.35-.54,3.53Z"/><path class="cls-1" d="M268.21,180.77c.44-1.2.6-2.62,1.37-3.55,4.37-5.25,8.5-6.26,15-3.9.54.2,1.1.32,1.47.42,3.66-3.9,7.15-7.76,10.83-11.43.92-.92,2.49-1.19,3.76-1.76l.9.82c-.61,1.29-1,2.81-1.87,3.82-3.43,3.82-7.05,7.46-10.55,11.21-1.27,1.35-2.59,2.39-4.53,1.51-5.33-2.43-10-1.35-14.2,2.54a7.12,7.12,0,0,1-1.22.75Z"/><path class="cls-1" d="M406.36,512.29c-.27-.71-.5-1.43-.82-2.12-.55-1.2-1.16-2.38-1.75-3.57q-8.42-17.09-16.86-34.14c-.67-1.34-1.16-2.54.5-3.34s2.21.39,2.8,1.6q8.89,18.22,17.82,36.44a4.83,4.83,0,0,1,.7,2.34,6.36,6.36,0,0,1-1.12,2.13Z"/><path class="cls-1" d="M388,626.07c-.72.92-1.13,1.91-1.83,2.18-.5.2-1.59-.37-2-.91-2.61-3-5-6.15-7.65-9.15-5.07-5.83-10.21-11.59-15.32-17.38-.33-.37-.61-.79-.92-1.18-.83-1-1.06-2,.12-3s2-.5,2.86.51c5.34,6.26,10.68,12.5,16.09,18.7,2.18,2.5,4.56,4.83,6.77,7.31A23.78,23.78,0,0,1,388,626.07Z"/><path class="cls-1" d="M410.65,508.25a36.8,36.8,0,0,1-2.54-4c-4.58-9.59-9.06-19.22-13.64-28.81-.86-1.79-2.08-3.4-3-5.16-.61-1.18-.82-2.44.75-3.16s2.29.11,2.9,1.41q7.5,16,15.05,32a16.25,16.25,0,0,0,1.49,2.87C412.92,505.06,412.78,506.45,410.65,508.25Z"/><path class="cls-1" d="M264.6,133.45c-1-.55-2-.78-2.06-1.16A3.21,3.21,0,0,1,263,130q4.13-5.47,8.43-10.82c3.86-4.79,7.79-9.52,11.73-14.25.51-.62,1.2-1.51,1.84-1.54a5,5,0,0,1,3,.95c.29.21,0,1.81-.49,2.38-3.75,4.3-7.73,8.39-11.39,12.76-2.92,3.47-5.43,7.28-8.23,10.85A29.22,29.22,0,0,1,264.6,133.45Z"/><path class="cls-1" d="M162.62,217.92c-.24,3.36-3,5.91-6.35,7.11a11,11,0,0,0-4.57,3.13c-3.6,4.29-7.77,7.41-13.44,8.27-1.37.21-2.67.93-4,1.12a2.81,2.81,0,0,1-2.31-.65,2.51,2.51,0,0,1,.32-2.37,9.15,9.15,0,0,1,3-1.7c3.62-1.59,7.4-2.88,10.87-4.75,2.13-1.15,3.77-3.19,5.71-4.72,1.43-1.12,3-2,4.49-3.09,1.16-.85,2.2-1.87,3.37-2.71a3.54,3.54,0,0,1,2.06-.85C162.11,216.74,162.46,217.69,162.62,217.92Z"/><path class="cls-1" d="M288.52,203.53l-3.13-4.38.28-.53a8.17,8.17,0,0,1,2.13.92c3.16,2.57,6.34,5.13,9.34,7.88a34,34,0,0,1,4.31,5.1c.36.5.05,1.47.05,2.22a7,7,0,0,1-2.2-.54c-3.06-2-5.84-4.52-9.11-6a17.8,17.8,0,0,0-15.44.23c-1.38.68-2.87,1.66-3.7-.45s.76-2.77,2.29-3.42C278.26,202.48,283.36,203.15,288.52,203.53Z"/><path class="cls-1" d="M322.19,351c-4.4-4.47-8.8-8.94-13.37-13.6l1.73-1.29-2.08-3.4,2.52-1.06c-1.27-1.18-3-2.13-3.61-3.54-.54-1.24.14-3,.34-5.22,2.57,2.14,4.8,3.61,6.51,5.55,1.42,1.6.65,3.42-1.41,5l5.62,3.5c.49.3,1.35.48,1.45.86a18,18,0,0,1,.26,3.21c-.88-.09-1.95.1-2.61-.33a47,47,0,0,1-4.25-3.5l-.43.53c3.51,3.08,7.07,6.12,10.5,9.3.71.66.95,1.83,1.41,2.76l-2.67,1.14Z"/><path class="cls-1" d="M348.61,414.9c1.93,1.69,3.87,3.37,5.78,5.08a12,12,0,0,1,2.79,2.81c.39.71-.14,1.93-.25,2.92-.79-.28-1.95-.32-2.3-.88-3.24-5.14-8.24-8.41-12.8-12.12-1.31-1.06-3.14-1.49-4.7-2.26a19.22,19.22,0,0,1-1.94-1.34,8.52,8.52,0,0,1,8.36,1.14l1.7-1.92,7,4.27.21-.29-3.88-4.37.27-.52a27.76,27.76,0,0,1,3.82,1.67,64.89,64.89,0,0,1,5.43,3.91,2.19,2.19,0,0,1,.88,1.55c-.05.37-.9.69-1.44.93-.36.16-1,0-1.16.23-1.81,3.21-3.45,1.64-5.19-.07a11.11,11.11,0,0,0-2-1.29Z"/><path class="cls-1" d="M129.41,614.53l2.15,1.87c.44,1.28.52,2.94,1.39,3.79,6.13,6,12.42,11.86,18.66,17.75l-.07-.09c1.33,3.15,1.15,3.51-1.6,4.19-5.48-5.3-10.81-10.34-16-15.53-2.86-2.87-5.56-5.92-8.15-9a3.73,3.73,0,0,1-.71-3.22c.83-1.56,2.22-.74,3.38,0A3.17,3.17,0,0,0,129.41,614.53Z"/><path class="cls-1" d="M185.45,213.83l-1.33-2.65a10.45,10.45,0,0,1,7.47-4.91c5.29-1,10.56-2.09,15.84-3.12a12.75,12.75,0,0,1,3.92-.52c1,.13,1.92,1,2.87,1.61-.64.92-1.11,2.13-2,2.68s-2.23.51-3.37.73c-5.2,1-10.44,1.8-15.58,3C190.68,211.31,188.25,212.68,185.45,213.83Z"/><path class="cls-1" d="M338.62,428.51c-1-1-2.12-2-3.05-3.06a5.44,5.44,0,0,1-.65-1.83,5.7,5.7,0,0,1,2.19-.53,4.18,4.18,0,0,1,1.79,1.28c9.63,9.26,19.28,18.52,28.84,27.85.92.9,1.31,2.33,1.95,3.51l-.69.77a16.43,16.43,0,0,1-3.52-2.11c-7.36-7.32-14.6-14.76-22-22.08a49.87,49.87,0,0,0-5-3.88Z"/><path class="cls-1" d="M110.83,510.81c2.6.18,5.5-.29,7.73.71,2.68,1.21,4.84,3.62,7.13,5.61a59.3,59.3,0,0,1,4.85,4.66c2.53,2.73,5.06,5.49,7.34,8.43a3.37,3.37,0,0,1,.05,3.23c-1.13,1.17-2.36.24-3.36-.82-4.38-4.65-8.72-9.34-13.25-13.84-1.29-1.29-3.21-1.93-4.75-3-2-1.36-3.83-2.85-5.74-4.29Z"/><path class="cls-1" d="M350.16,195l-2.22,2.91c-.83-.65-1.95-1.14-2.44-2-3.66-6.28-7.16-12.67-10.8-19a35.13,35.13,0,0,0-3.5-4.83c-1.07-1.29-.54-2.32.54-2.84a3.35,3.35,0,0,1,2.76.23c.77.48,1.17,1.57,1.7,2.41,4.24,6.64,8.49,13.27,12.69,19.93A21.93,21.93,0,0,1,350.16,195Z"/><path class="cls-1" d="M123.93,617.62c1.28,1.32,2.63,2.6,3.82,4,.84,1,1.34,2.27,2.22,3.22,4.34,4.71,8.75,9.34,13.13,14a11.08,11.08,0,0,1,1.17,1.3c.9,1.29,2.18,2.75.58,4.17-1.77,1.55-2.79-.23-3.82-1.37-5.67-6.28-11.35-12.57-17-18.89a16.94,16.94,0,0,1-2.25-3.29C121.09,619.45,122.09,618,123.93,617.62Z"/><path class="cls-1" d="M398.89,462.57c1.35,1.44,2.84,2.46,3.53,3.87,3.21,6.47,6.18,13.05,9.26,19.57.85,1.8,1.8,3.55,2.71,5.32.72,1.4,1.41,3.05-.42,3.79-.61.24-2.35-1.17-2.92-2.19-1.65-3-3-6.11-4.4-9.19s-2.74-5.86-4-8.84a19.28,19.28,0,0,0-5.72-8,2.5,2.5,0,0,1-.68-2.27C396.59,463.89,397.64,463.48,398.89,462.57Z"/><path class="cls-1" d="M277.8,167.56c-.47-.4-1.28-.76-1.33-1.2a2.82,2.82,0,0,1,.59-2.22,21.33,21.33,0,0,1,3.48-1.74,22.91,22.91,0,0,0,4-2.16c3.78-3,7.26-6.31,11.22-9,1.51-1,4-.73,6-.76a2.82,2.82,0,0,1,.81,2.26,4.17,4.17,0,0,1-2.3,2.11c-5.4,1.59-9.16,5.57-13.26,9A15,15,0,0,1,277.8,167.56Z"/><path class="cls-1" d="M276.36,148.08c-1.46-2.71-1.07-4.27,1.57-5.43,1.74-.76,3.67-1.07,5.4-1.83,3.16-1.4,6.22-3,9.33-4.48a15.59,15.59,0,0,1,3.65-1.47,9.49,9.49,0,0,1,3,.45c-.5,1.38-.6,3.27-1.58,4.05a28.11,28.11,0,0,1-6.89,3.88c-3.13,1.26-6.44,2.1-9.66,3.15C279.63,146.9,278.09,147.48,276.36,148.08Z"/><path class="cls-1" d="M276.82,589c.44-.93.6-2,1.11-2.18.88-.37,2.49-.69,2.9-.23a73.42,73.42,0,0,1,6.15,7.82,3.53,3.53,0,0,1,.13,3.09c-.29.54-1.88.73-2.76.53a21.74,21.74,0,0,1-12.87-8.71c-1-1.28-1-2.51.22-3.51s2.29-.23,3.14.83C275.41,587.33,276,588,276.82,589Z"/><path class="cls-1" d="M378.23,561.85a6.33,6.33,0,0,1-2.18,1,3.15,3.15,0,0,1-2.36-.73,21.28,21.28,0,0,1-1.93-3.48c-3.58-6.46-7.21-12.9-10.73-19.4-.73-1.35-2.74-3-.43-4.46s3.14.91,4,2.41c3.94,7.13,7.8,14.3,11.68,21.46l1.28,2.41Z"/><path class="cls-1" d="M358.07,490.35a50.53,50.53,0,0,1,3,4.18,9.62,9.62,0,0,1,.93,3.17c0,.17-1.06.82-1.29.69a6.19,6.19,0,0,1-2.45-2,50.43,50.43,0,0,0-11.82-15.6c-4-3.53-8.17-6.83-12.25-10.24-.51-.43-1.19-.8-1.42-1.35a9.13,9.13,0,0,1-.35-2.42c.76,0,1.73-.29,2.25.06a43.71,43.71,0,0,1,4.42,3.63c3,2.7,6.15,5.31,9,8.2,2.49,2.54,4.66,5.41,7,8.13l3.13,3.67Z"/><path class="cls-1" d="M273.44,519.75a23,23,0,0,1,3.12,2.61c4.13,5,8.17,10,12.24,15.08.78,1,1.61,1.91,2.29,2.95s1.87,2.54.18,3.67-2.44-.37-3.35-1.5c-4-5-8-9.94-12.14-14.81-1-1.24-2.67-2-3.73-3.25a4,4,0,0,1-.73-2.88C271.41,521,272.47,520.55,273.44,519.75Z"/><path class="cls-1" d="M311.68,367.94l2.79-2.21c4.25,4.5,8.46,8.93,12.62,13.4,2.44,2.61,4.8,5.29,7.19,7.94.44.49,1.08,1,1.21,1.55a15.07,15.07,0,0,1,.06,3c-1-.28-2.41-.23-3-.89-3.08-3.45-5.84-7.19-8.93-10.62-2.94-3.25-6.16-6.24-9.25-9.35C313.53,369.92,312.72,369,311.68,367.94Z"/><path class="cls-1" d="M177.17,160.3c-3.69-.82-6.82-1.28-9.79-2.25-2.72-.89-4.83.43-7.19,1.08-1.15.32-2.68,2-3.51-.24-.69-1.9.1-3.32,2.11-4.1,3.66-1.42,7.17-3.09,11.15-.68,1.06.64,2.77.17,4.17.31a9.4,9.4,0,0,1,3.61.68c1,.55,2.43,2.09,2.22,2.62C179.5,158.81,178.1,159.51,177.17,160.3Z"/><path class="cls-1" d="M390.76,620.05a8.84,8.84,0,0,1-2.28,1,2.84,2.84,0,0,1-2.17-.48c-5.67-6.31-11.28-12.66-16.78-19.12-.45-.53,0-1.83,0-2.78.75.06,1.64-.12,2.22.23a13.61,13.61,0,0,1,3.05,2.51c4.62,5.13,9.18,10.31,13.74,15.5a21.27,21.27,0,0,1,1.51,2.23Z"/><path class="cls-1" d="M336.29,386.54a13.46,13.46,0,0,1-1.37-1.2c-2.14-2.51-4.13-5.16-6.38-7.55-4.39-4.66-8.94-9.15-13.35-13.78-1-1-3.12-2.06-1.37-3.77,1.59-1.54,2.67.44,3.57,1.41q9.94,10.65,19.71,21.46c.46.52.36,1.66.3,2.49C337.38,385.91,336.73,386.18,336.29,386.54Z"/><path class="cls-1" d="M184.31,353.85c-2.33.07-3-1.34-1.92-3.31,2.42-4.55,4.87-9.08,7.26-13.64.61-1.18,1-2.45,1.61-3.64,1-2.14,2.5-2.77,4.1-1.5a2.79,2.79,0,0,1,.82,2.54c-3.24,6-6.63,11.92-10.06,17.81A8.09,8.09,0,0,1,184.31,353.85Z"/><path class="cls-1" d="M392.29,199.12a12.34,12.34,0,0,1-.86-2.42c-.14-.84-.17-2.37.16-2.49.94-.35,2.79-.5,3-.06a26.41,26.41,0,0,1,2.22,6.09,5.41,5.41,0,0,1-.48,2.91,8.76,8.76,0,0,0,.43,7.22,8.79,8.79,0,0,1,.83,2.07c.27,1.2,1.82,2.63-.44,3.5a3.19,3.19,0,0,1-4.11-2.17c-1.16-4.09-3.06-8.14-1-12.52A8.47,8.47,0,0,0,392.29,199.12Z"/><path class="cls-1" d="M374.7,214.57c.49,2.85,1.05,5.68,1.41,8.54a9.1,9.1,0,0,1-.56,2.73c-1.07-.47-2.82-.71-3.07-1.45a34.15,34.15,0,0,1-2.09-9.36c-.1-3.32.69-6.59-1.67-9.53-.32-.39.26-2.18.85-2.47,1.17-.58,2.93-1.14,3.52.84,1,3.45,1.82,7,2.71,10.45Z"/><path class="cls-1" d="M276.13,555.08c-.46.84-.65,1.78-1.17,2a5,5,0,0,1-2.35,0c-.2,0-.39-.3-.56-.48-4.77-4.86-9.58-9.69-14.29-14.62-1.83-1.91-1.6-3.48.47-4a3.24,3.24,0,0,1,2.53.86c4.59,4.46,9.11,9,13.59,13.57A17.15,17.15,0,0,1,276.13,555.08Z"/><path class="cls-1" d="M380.36,270.9c-.88,4.81.65,7.13,3.25,9.09a7.33,7.33,0,0,1,2.3,3.08,2.65,2.65,0,0,1-.6,2.49,2.82,2.82,0,0,1-2.63-.28c-3.39-3-5.83-6.48-6.37-11.17-.18-1.48-1.28-2.87-2-4.29-.36-.73-1-1.43-1.07-2.18a12.47,12.47,0,0,1,.44-3,9.08,9.08,0,0,1,2.85.91C378.75,267.2,380.86,269.05,380.36,270.9Z"/><path class="cls-1" d="M142.87,249.84a7.51,7.51,0,0,1,1.31-2c2.8-2.2,5.75-4.21,8.49-6.48a14.64,14.64,0,0,0,2.3-3.22l-.6-.75a24.93,24.93,0,0,1-4.41-.07c-.87-.16-1.62-1-2.42-1.57a7.34,7.34,0,0,1,2.29-1.29,25,25,0,0,1,5-.13c3.7.23,5.43,3.28,3.39,6.3a15,15,0,0,1-4.36,4.21c-3.34,2.07-6.91,3.78-10.38,5.64Z"/><path class="cls-1" d="M296.43,249.11a48.89,48.89,0,0,1,4.91-.64,2.16,2.16,0,0,1,1.69,1.1c.16.41-.42,1.33-.92,1.71-3.94,3.05-6.71,2.82-10.18-.54a6.47,6.47,0,0,0-2.83-1.34c-2.66-.71-4.81-3.18-4.41-5.79a3.56,3.56,0,0,1,2.23-2.34c1.24-.31,2.06.63,1.95,2.15-.14,1.82.42,2.83,2.62,2.27C293.48,245.19,295.21,246.56,296.43,249.11Z"/><path class="cls-1" d="M418.18,481.08c-.82.9-1.53,2.42-2.47,2.57-1.69.28-1.23-1.58-1.71-2.6-2.17-4.62-4.57-9.14-6.93-13.68-.26-.5-1-.83-1.1-1.31a21,21,0,0,1-.06-3.27c1.07.06,2.15.09,3.21.22a1.2,1.2,0,0,1,.71.64c2.58,5.09,5.15,10.18,7.67,15.3a5.59,5.59,0,0,1,.23,1.72Z"/><path class="cls-1" d="M288.4,268.28a19.59,19.59,0,0,1,1.48,1.78c1,1.56,2,2.43,4.05,1.5a4.29,4.29,0,0,1,2.9.14,29.27,29.27,0,0,1,5.65,2.53c.77.48,1,1.82,1.48,2.76-1,.44-2,1.21-3,1.22s-2.17-.85-3.3-1a12.59,12.59,0,0,0-4.69-.12c-2.1.51-3.71.57-4.75-1.65A21.75,21.75,0,0,0,287,273.3C285.51,270.9,285.68,270.2,288.4,268.28Z"/><path class="cls-1" d="M176.27,170.32c.8,2.17.5,3.67-1.39,4.89-4.44,2.86-8.76,5.9-13.22,8.73a6.68,6.68,0,0,1-3.44.77c-.23,0-.66-1.54-.67-2.37a2.23,2.23,0,0,1,1-1.55q7.9-5,15.9-9.9A7.57,7.57,0,0,1,176.27,170.32Z"/><path class="cls-1" d="M276.64,209.68c1.49,1.31,2.86,2.47,4.18,3.68,4.3,3.94,8.16,4.48,13.47,2.26,1.51-.63,3.37-.45,5.43-.68C298.1,219,290,222,286.24,220.42,280.49,218,274.52,213,276.64,209.68Z"/><path class="cls-1" d="M391.61,267.14c-.35,2.61.21,4.73,2.66,6.22.64.39,1.2,2.25.89,2.57a3.73,3.73,0,0,1-2.9,1.11c-2.67-.48-3.54-2.76-4.16-5.07a11.36,11.36,0,0,1-.44-2.7c0-1.93,0-3.61-2.76-3.69-.51,0-1.18-2.08-1.32-3.25-.05-.4,1.28-1.32,2-1.39C389.61,260.55,392.34,262.25,391.61,267.14Z"/><path class="cls-1" d="M188.61,156c-2.44-1.1-5-2-7.3-3.33a17.27,17.27,0,0,1-4.24-3.43c-.76-.83-1.65-2.42-1.33-3.2.64-1.58,2.2-.94,3.4-.26,1.87,1.05,3.66,2.29,5.6,3.21a15.92,15.92,0,0,0,4.88,1.57c1.6.17,3.28.11,3.24,2.11,0,1.77-1.4,2.74-3.25,2.75h-.75Z"/><path class="cls-1" d="M135.31,186.57c-1.76-1.32-1.56-2.49-.67-3.72,2.49-3.44,6.06-4.46,10.05-4.28,2.14.1,4.27.56,6.41.79,1.85.2,3.07,1.12,2.91,3-.18,2-1.86,1.74-3.27,1.55s-2.77-.5-4.16-.7C142.33,182.57,138.24,182.55,135.31,186.57Z"/><path class="cls-1" d="M385.84,189.44c-1.75-.5-3.53-.92-5.24-1.53a1.78,1.78,0,0,1-1-1.42,1.87,1.87,0,0,1,1.06-1.42,5.77,5.77,0,0,1,2.92,0c2.65.86,4.66-.12,7-1.41,2.51-1.4,5.47-2,8.28-2.84a1.85,1.85,0,0,1,1.58.85c.2.44-.14,1.62-.47,1.71C395,184.84,391.59,189.85,385.84,189.44Z"/><path class="cls-1" d="M142.54,544.54c.65.38,1.48.6,1.8,1.13a1.85,1.85,0,0,1-.31,1.76c-1.45,1.27-3,2.38-4.57,3.54-2.64,2-5.3,4-7.93,6a19.6,19.6,0,0,1-2.74,2.13,2.37,2.37,0,0,1-2.18-.07c-.38-.35-.26-1.47,0-2.15a3.63,3.63,0,0,1,1.26-1.49q6.18-4.83,12.4-9.61A16.43,16.43,0,0,1,142.54,544.54Z"/><path class="cls-1" d="M383.53,248.92c-.64-.55-2-1.22-2.57-2.3a72.59,72.59,0,0,1-3.85-9.15c-.28-.79.46-1.94.73-2.92a8.51,8.51,0,0,1,2.27,1.67A21.4,21.4,0,0,1,382,240c1,2.18,2.07,4,4.82,4.42,1,.13,1.73,1.49,2.59,2.29-1.05.62-2.06,1.31-3.16,1.82A11.47,11.47,0,0,1,383.53,248.92Z"/><path class="cls-1" d="M288.79,152.12c-1.24-2-1.19-3.34,1.09-4.51,1.63-.84,2.92-2.38,4.3-3.66a36.14,36.14,0,0,1,3-2.95,3.87,3.87,0,0,1,5.32.95,3.27,3.27,0,0,1,.54,2.5,2.51,2.51,0,0,1-2.23,1c-2.27-.57-3.49.68-4.91,2.06C293.87,149.41,292.42,152.33,288.79,152.12Z"/><path class="cls-1" d="M306.32,251a7.35,7.35,0,0,0,2.67.26c1.21-.36,2.74-.85,3.35-1.8.84-1.31,0-2.65-1.42-3.47-.54-.31-1.2-.82-1.31-1.35a1.75,1.75,0,0,1,2.49-1.79,9.52,9.52,0,0,1,2,1.44c3.18,2.48,3.95,5,2.27,7.37-1.9,2.7-6.76,3.88-9.37,2.12-.66-.44-.9-1.49-1.33-2.26Z"/><path class="cls-1" d="M148.66,191.62c-1.47-.27-3.25-.56-5-.92-1.59-.32-1.87-1.35-1.47-2.8s1.26-1.75,2.62-1.41c3.6.9,7.17,1.36,10.59-.76a1.73,1.73,0,0,1,1.69.21c.35.51.58,1.63.28,2a10.53,10.53,0,0,1-3.46,3C152.43,191.48,150.67,191.37,148.66,191.62Z"/><path class="cls-1" d="M379.94,259.8c-.35.52-.64,1.45-1.14,1.57a2.55,2.55,0,0,1-2.22-.5,14.7,14.7,0,0,1-2.5-4.44,32.48,32.48,0,0,1-1.2-7.07c-.07-.88.68-2.46,1.29-2.58.82-.18,2,.58,2.77,1.26.42.38.22,1.41.39,2.12q.94,3.92,1.95,7.81C379.43,258.52,379.67,259.05,379.94,259.8Z"/><path class="cls-1" d="M157.32,162.61c4,.68,7.86,1.25,11.63,2.08.54.12,1.05,1.51,1.09,2.34,0,.43-1,1.31-1.55,1.31-3.48-.05-7-.2-10.43-.53-.53-.05-1.24-1.19-1.35-1.9S157,164.13,157.32,162.61Z"/><path class="cls-1" d="M313.39,350.36c5,4.82,10,9.59,15,14.44-1.15,2.44-2.22,2.62-4.15.59-3.36-3.53-6.77-7-10.19-10.51C312.74,353.54,311.72,352.23,313.39,350.36Z"/><path class="cls-1" d="M322.1,350.88a52,52,0,0,1,3.82,4.05,7.75,7.75,0,0,1,.79,2.65c-1-.08-2-.13-3.07-.26-.19,0-.41-.28-.53-.48-2.74-4.74-7.1-7.8-11.33-11-.84-.63-2.43-1.4-1.1-2.63.5-.47,2.39-.13,3.14.47,2.31,1.87,4.36,4.07,6.55,6.09a13.31,13.31,0,0,0,1.82,1.2Z"/><path class="cls-1" d="M354.05,177.75c1.34-2,2.57-1.46,3.52.09,2.33,3.82,4.63,7.67,6.76,11.61.31.57-.41,1.69-.65,2.56-.86-.42-2.12-.6-2.51-1.29C358.71,186.5,356.44,182.16,354.05,177.75Z"/><path class="cls-1" d="M349.14,637.52c-3.49-1.07-24.49-19.78-25.11-22.35C332.69,622.83,342.14,628.79,349.14,637.52Z"/><path class="cls-1" d="M141.53,222.08c1.84,2.09,1.83,2.74-.87,4.37a40.76,40.76,0,0,1-7,3.57c-.87.31-2.22-.68-3.36-1.08a12.49,12.49,0,0,1,2.25-2.18C135.37,225.17,138.31,223.74,141.53,222.08Z"/><path class="cls-1" d="M377.14,300.34a19.09,19.09,0,0,1-3.31-.71,26.06,26.06,0,0,1-4.39-2.19,5.53,5.53,0,0,1-2.22-2.2c-.54-1.3,0-2.95,1.65-2.3a48.46,48.46,0,0,1,8.31,4.58c.41.27-.07,1.9-.13,2.9Z"/><path class="cls-1" d="M157.38,177.81c-1.42-.74-2.89-1.07-3.56-2-.51-.71-.24-2.23.15-3.2.14-.36,1.64-.18,2.52-.23,1.35-.06,2.69-.16,4-.15a25.65,25.65,0,0,1,2.61.27c-.25.87-.22,2.11-.79,2.54A39.76,39.76,0,0,1,157.38,177.81Z"/><path class="cls-1" d="M281.39,180.41c1.26,1.5.78,3.05-.9,3.68a24.7,24.7,0,0,1-6.73,1.3c-.67.05-1.43-1.13-2.15-1.74.64-.7,1.17-1.84,1.94-2C276,181.05,278.55,180.83,281.39,180.41Z"/><path class="cls-1" d="M278.1,158c-.19-.95-.78-2.07-.46-2.8a4.85,4.85,0,0,1,2.35-2,19.39,19.39,0,0,1,4.79-1.64c.58-.1,2,1.16,1.92,1.37-.48,1.22-1,2.84-2,3.35C282.87,157.18,280.73,157.38,278.1,158Z"/></svg>