<svg xmlns="http://www.w3.org/2000/svg" viewBox="0 0 2722 423.2"><defs><style>.cls-1{fill:#d83d2f;}.cls-2{fill:#ee3e23;}.cls-3{fill:#f9a11d;}.cls-4{fill:#c8e2cb;}</style></defs><title>Asset 1</title><g id="Layer_2" data-name="Layer 2"><g id="Layer_1-2" data-name="Layer 1"><path class="cls-1" d="M1076.71.8c27.6,0,49.2,22.2,49.2,49.8V372.8c0,27.6-21.6,49.8-49.2,49.8-27,0-49.2-22.2-49.2-49.8V50.6C1027.51,23,1049.71.8,1076.71.8Zm0,33.6a16.53,16.53,0,0,0-16.2,16.2V372.8a16.53,16.53,0,0,0,16.2,16.2,16.13,16.13,0,0,0,16.2-16.2V50.6A16.13,16.13,0,0,0,1076.71,34.4Z"/><path class="cls-1" d="M1475.11,423.2c-27,0-49.2-22.2-49.2-49.8V18.2a16.77,16.77,0,0,1,16.8-16.8c9,0,16.2,7.8,16.2,16.8V373.4a16.53,16.53,0,0,0,16.2,16.2,16.13,16.13,0,0,0,16.2-16.2V18.2a16.77,16.77,0,0,1,16.8-16.8c9,0,16.2,7.8,16.2,16.8V373.4C1524.31,401,1502.71,423.2,1475.11,423.2Z"/><path class="cls-1" d="M1835.11,406.4c0,9-7.2,16.8-16.2,16.8a16.77,16.77,0,0,1-16.8-16.8V51.2c0-27.6,22.2-49.8,49.2-49.8,27.6,0,49.2,22.2,49.2,49.8V406.4c0,9-7.2,16.8-16.2,16.8a16.77,16.77,0,0,1-16.8-16.8V249.2h-32.4Zm32.4-355.2a16.13,16.13,0,0,0-16.2-16.2,16.53,16.53,0,0,0-16.2,16.2V215.6h32.4Z"/><rect class="cls-2" y="248.56" width="2722" height="43.95"/><rect class="cls-3" y="204.61" width="2722" height="43.95"/><rect class="cls-4" y="164.17" width="2722" height="40.44"/><path class="cls-1" d="M892.2,0c27.6,0,49.2,22.2,49.2,49.8V405a16.77,16.77,0,0,1-16.8,16.8c-9,0-16.2-7.8-16.2-16.8V49.8a16.2,16.2,0,1,0-32.4,0V405c0,9-7.2,16.8-16.2,16.8A16.77,16.77,0,0,1,843,405V49.8a16.13,16.13,0,0,0-16.2-16.2,16.53,16.53,0,0,0-16.2,16.2V405c0,9-7.2,16.8-16.2,16.8A16.77,16.77,0,0,1,777.6,405V49.8C777.6,22.2,799.8,0,826.8,0a52.88,52.88,0,0,1,33,12A50,50,0,0,1,892.2,0Z"/><path class="cls-1" d="M1275.6,418.8h-49.2V5.4h49.2a49,49,0,0,1,49.2,49.2v315A49,49,0,0,1,1275.6,418.8Zm16.2-364.2c0-8.4-7.2-15.6-16.2-15.6h-16.2V385.2h16.2c9,0,16.2-7.2,16.2-15.6Z"/><path class="cls-1" d="M1698,385.2a17.17,17.17,0,0,1,16.8,16.8,16.77,16.77,0,0,1-16.8,16.8h-72V18a16.77,16.77,0,0,1,16.8-16.8c9,0,16.2,7.8,16.2,16.8V385.2Z"/></g></g></svg>