<?xml version="1.0" encoding="utf-8"?>
<!-- Generator: Adobe Illustrator 22.0.1, SVG Export Plug-In . SVG Version: 6.00 Build 0)  -->
<svg version="1.1" id="Layer_1" xmlns="http://www.w3.org/2000/svg" xmlns:xlink="http://www.w3.org/1999/xlink" x="0px" y="0px"
	 viewBox="0 0 2722.1 476.9" style="enable-background:new 0 0 2722.1 476.9;" xml:space="preserve">
<style type="text/css">
	.st0{enable-background:new    ;}
	.st1{fill:#D83D2F;}
	.st2{fill:#EE3E23;}
	.st3{fill:#F9A11D;}
	.st4{fill:#C8E2CB;}
</style>
<title>Artboard 1</title>
<g class="st0">
	<path class="st1" d="M1076.8,36.3c27.6,0,49.2,22.2,49.2,49.8v322.2c0,27.6-21.6,49.8-49.2,49.8c-27,0-49.2-22.2-49.2-49.8V86.1
		C1027.6,58.5,1049.8,36.3,1076.8,36.3z M1076.8,69.9c-8.4,0-16.2,7.2-16.2,16.2v322.2c0,9,7.8,16.2,16.2,16.2
		c9,0,16.2-7.2,16.2-16.2V86.1C1093,77.1,1085.8,69.9,1076.8,69.9z"/>
</g>
<g class="st0">
	<path class="st1" d="M1475.2,458.7c-27,0-49.2-22.2-49.2-49.8V53.7c0-9,7.2-16.8,16.8-16.8c9,0,16.2,7.8,16.2,16.8v355.2
		c0,9,7.8,16.2,16.2,16.2c9,0,16.2-7.2,16.2-16.2V53.7c0-9,7.2-16.8,16.8-16.8c9,0,16.2,7.8,16.2,16.8v355.2
		C1524.4,436.5,1502.8,458.7,1475.2,458.7z"/>
</g>
<g class="st0">
	<path class="st1" d="M1835.2,441.9c0,9-7.2,16.8-16.2,16.8c-9.6,0-16.8-7.8-16.8-16.8V86.7c0-27.6,22.2-49.8,49.2-49.8
		c27.6,0,49.2,22.2,49.2,49.8v355.2c0,9-7.2,16.8-16.2,16.8c-9.6,0-16.8-7.8-16.8-16.8V284.7h-32.4V441.9z M1867.6,86.7
		c0-9-7.2-16.2-16.2-16.2c-8.4,0-16.2,7.2-16.2,16.2v164.4h32.4V86.7z"/>
</g>
<rect x="0.1" y="283.4" class="st2" width="2722" height="44.6"/>
<rect x="0.1" y="239.3" class="st3" width="2722" height="44.8"/>
<rect x="0.1" y="199.7" class="st4" width="2722" height="40.4"/>
<g class="st0">
	<path class="st1" d="M892.3,35.5c27.6,0,49.2,22.2,49.2,49.8v355.2c0,9-7.2,16.8-16.8,16.8c-9,0-16.2-7.8-16.2-16.8V85.3
		c0-9-7.8-16.2-16.2-16.2c-8.4,0-16.2,7.2-16.2,16.2v355.2c0,9-7.2,16.8-16.2,16.8c-9.6,0-16.8-7.8-16.8-16.8V85.3
		c0-9-7.2-16.2-16.2-16.2c-8.4,0-16.2,7.2-16.2,16.2v355.2c0,9-7.2,16.8-16.2,16.8c-9.6,0-16.8-7.8-16.8-16.8V85.3
		c0-27.6,22.2-49.8,49.2-49.8c12.6,0,24,4.8,33,12C868.3,40.3,879.7,35.5,892.3,35.5z"/>
</g>
<g class="st0">
	<path class="st1" d="M1275.7,454.3h-49.2V40.9h49.2c27.6,0,49.2,22.2,49.2,49.2v315C1324.9,432.1,1303.3,454.3,1275.7,454.3z
		 M1291.9,90.1c0-8.4-7.2-15.6-16.2-15.6h-16.2v346.2h16.2c9,0,16.2-7.2,16.2-15.6V90.1z"/>
</g>
<g class="st0">
	<path class="st1" d="M1698.1,420.7c9,0,16.8,7.8,16.8,16.8c0,9.6-7.8,16.8-16.8,16.8h-72V53.5c0-9,7.2-16.8,16.8-16.8
		c9,0,16.2,7.8,16.2,16.8v367.2H1698.1z"/>
</g>
</svg>
